G04 #@! TF.GenerationSoftware,KiCad,Pcbnew,5.1.10-88a1d61d58~90~ubuntu20.04.1*
G04 #@! TF.CreationDate,2021-10-02T17:31:35-04:00*
G04 #@! TF.ProjectId,irinput_panel,6972696e-7075-4745-9f70-616e656c2e6b,rev?*
G04 #@! TF.SameCoordinates,Original*
G04 #@! TF.FileFunction,Legend,Bot*
G04 #@! TF.FilePolarity,Positive*
%FSLAX46Y46*%
G04 Gerber Fmt 4.6, Leading zero omitted, Abs format (unit mm)*
G04 Created by KiCad (PCBNEW 5.1.10-88a1d61d58~90~ubuntu20.04.1) date 2021-10-02 17:31:35*
%MOMM*%
%LPD*%
G01*
G04 APERTURE LIST*
%ADD10C,0.150000*%
%ADD11C,0.010000*%
G04 APERTURE END LIST*
D10*
X37004761Y-176775000D02*
X37100000Y-176727380D01*
X37242857Y-176727380D01*
X37385714Y-176775000D01*
X37480952Y-176870238D01*
X37528571Y-176965476D01*
X37576190Y-177155952D01*
X37576190Y-177298809D01*
X37528571Y-177489285D01*
X37480952Y-177584523D01*
X37385714Y-177679761D01*
X37242857Y-177727380D01*
X37147619Y-177727380D01*
X37004761Y-177679761D01*
X36957142Y-177632142D01*
X36957142Y-177298809D01*
X37147619Y-177298809D01*
X36100000Y-177727380D02*
X36100000Y-177203571D01*
X36147619Y-177108333D01*
X36242857Y-177060714D01*
X36433333Y-177060714D01*
X36528571Y-177108333D01*
X36100000Y-177679761D02*
X36195238Y-177727380D01*
X36433333Y-177727380D01*
X36528571Y-177679761D01*
X36576190Y-177584523D01*
X36576190Y-177489285D01*
X36528571Y-177394047D01*
X36433333Y-177346428D01*
X36195238Y-177346428D01*
X36100000Y-177298809D01*
X35766666Y-177060714D02*
X35385714Y-177060714D01*
X35623809Y-176727380D02*
X35623809Y-177584523D01*
X35576190Y-177679761D01*
X35480952Y-177727380D01*
X35385714Y-177727380D01*
X34671428Y-177679761D02*
X34766666Y-177727380D01*
X34957142Y-177727380D01*
X35052380Y-177679761D01*
X35100000Y-177584523D01*
X35100000Y-177203571D01*
X35052380Y-177108333D01*
X34957142Y-177060714D01*
X34766666Y-177060714D01*
X34671428Y-177108333D01*
X34623809Y-177203571D01*
X34623809Y-177298809D01*
X35100000Y-177394047D01*
X36742857Y-179377380D02*
X37219047Y-179377380D01*
X37219047Y-178377380D01*
X36409523Y-178853571D02*
X36076190Y-178853571D01*
X35933333Y-179377380D02*
X36409523Y-179377380D01*
X36409523Y-178377380D01*
X35933333Y-178377380D01*
X35504761Y-179377380D02*
X35504761Y-178377380D01*
X35266666Y-178377380D01*
X35123809Y-178425000D01*
X35028571Y-178520238D01*
X34980952Y-178615476D01*
X34933333Y-178805952D01*
X34933333Y-178948809D01*
X34980952Y-179139285D01*
X35028571Y-179234523D01*
X35123809Y-179329761D01*
X35266666Y-179377380D01*
X35504761Y-179377380D01*
X33052380Y-190600000D02*
X33147619Y-190552380D01*
X33290476Y-190552380D01*
X33433333Y-190600000D01*
X33528571Y-190695238D01*
X33576190Y-190790476D01*
X33623809Y-190980952D01*
X33623809Y-191123809D01*
X33576190Y-191314285D01*
X33528571Y-191409523D01*
X33433333Y-191504761D01*
X33290476Y-191552380D01*
X33195238Y-191552380D01*
X33052380Y-191504761D01*
X33004761Y-191457142D01*
X33004761Y-191123809D01*
X33195238Y-191123809D01*
X32147619Y-191552380D02*
X32147619Y-191028571D01*
X32195238Y-190933333D01*
X32290476Y-190885714D01*
X32480952Y-190885714D01*
X32576190Y-190933333D01*
X32147619Y-191504761D02*
X32242857Y-191552380D01*
X32480952Y-191552380D01*
X32576190Y-191504761D01*
X32623809Y-191409523D01*
X32623809Y-191314285D01*
X32576190Y-191219047D01*
X32480952Y-191171428D01*
X32242857Y-191171428D01*
X32147619Y-191123809D01*
X31814285Y-190885714D02*
X31433333Y-190885714D01*
X31671428Y-190552380D02*
X31671428Y-191409523D01*
X31623809Y-191504761D01*
X31528571Y-191552380D01*
X31433333Y-191552380D01*
X30719047Y-191504761D02*
X30814285Y-191552380D01*
X31004761Y-191552380D01*
X31100000Y-191504761D01*
X31147619Y-191409523D01*
X31147619Y-191028571D01*
X31100000Y-190933333D01*
X31004761Y-190885714D01*
X30814285Y-190885714D01*
X30719047Y-190933333D01*
X30671428Y-191028571D01*
X30671428Y-191123809D01*
X31147619Y-191219047D01*
X29290476Y-190552380D02*
X29100000Y-190552380D01*
X29004761Y-190600000D01*
X28909523Y-190695238D01*
X28861904Y-190885714D01*
X28861904Y-191219047D01*
X28909523Y-191409523D01*
X29004761Y-191504761D01*
X29100000Y-191552380D01*
X29290476Y-191552380D01*
X29385714Y-191504761D01*
X29480952Y-191409523D01*
X29528571Y-191219047D01*
X29528571Y-190885714D01*
X29480952Y-190695238D01*
X29385714Y-190600000D01*
X29290476Y-190552380D01*
X28004761Y-190885714D02*
X28004761Y-191552380D01*
X28433333Y-190885714D02*
X28433333Y-191409523D01*
X28385714Y-191504761D01*
X28290476Y-191552380D01*
X28147619Y-191552380D01*
X28052380Y-191504761D01*
X28004761Y-191457142D01*
X27671428Y-190885714D02*
X27290476Y-190885714D01*
X27528571Y-190552380D02*
X27528571Y-191409523D01*
X27480952Y-191504761D01*
X27385714Y-191552380D01*
X27290476Y-191552380D01*
X26195238Y-190885714D02*
X26195238Y-191742857D01*
X26242857Y-191838095D01*
X26338095Y-191885714D01*
X26385714Y-191885714D01*
X26195238Y-190552380D02*
X26242857Y-190600000D01*
X26195238Y-190647619D01*
X26147619Y-190600000D01*
X26195238Y-190552380D01*
X26195238Y-190647619D01*
X25290476Y-191552380D02*
X25290476Y-191028571D01*
X25338095Y-190933333D01*
X25433333Y-190885714D01*
X25623809Y-190885714D01*
X25719047Y-190933333D01*
X25290476Y-191504761D02*
X25385714Y-191552380D01*
X25623809Y-191552380D01*
X25719047Y-191504761D01*
X25766666Y-191409523D01*
X25766666Y-191314285D01*
X25719047Y-191219047D01*
X25623809Y-191171428D01*
X25385714Y-191171428D01*
X25290476Y-191123809D01*
X24385714Y-191504761D02*
X24480952Y-191552380D01*
X24671428Y-191552380D01*
X24766666Y-191504761D01*
X24814285Y-191457142D01*
X24861904Y-191361904D01*
X24861904Y-191076190D01*
X24814285Y-190980952D01*
X24766666Y-190933333D01*
X24671428Y-190885714D01*
X24480952Y-190885714D01*
X24385714Y-190933333D01*
X23957142Y-191552380D02*
X23957142Y-190552380D01*
X23861904Y-191171428D02*
X23576190Y-191552380D01*
X23576190Y-190885714D02*
X23957142Y-191266666D01*
X32266666Y-166457142D02*
X32314285Y-166504761D01*
X32457142Y-166552380D01*
X32552380Y-166552380D01*
X32695238Y-166504761D01*
X32790476Y-166409523D01*
X32838095Y-166314285D01*
X32885714Y-166123809D01*
X32885714Y-165980952D01*
X32838095Y-165790476D01*
X32790476Y-165695238D01*
X32695238Y-165600000D01*
X32552380Y-165552380D01*
X32457142Y-165552380D01*
X32314285Y-165600000D01*
X32266666Y-165647619D01*
X31980952Y-165552380D02*
X31647619Y-166552380D01*
X31314285Y-165552380D01*
X30028571Y-165552380D02*
X29838095Y-165552380D01*
X29742857Y-165600000D01*
X29647619Y-165695238D01*
X29600000Y-165885714D01*
X29600000Y-166219047D01*
X29647619Y-166409523D01*
X29742857Y-166504761D01*
X29838095Y-166552380D01*
X30028571Y-166552380D01*
X30123809Y-166504761D01*
X30219047Y-166409523D01*
X30266666Y-166219047D01*
X30266666Y-165885714D01*
X30219047Y-165695238D01*
X30123809Y-165600000D01*
X30028571Y-165552380D01*
X28742857Y-165885714D02*
X28742857Y-166552380D01*
X29171428Y-165885714D02*
X29171428Y-166409523D01*
X29123809Y-166504761D01*
X29028571Y-166552380D01*
X28885714Y-166552380D01*
X28790476Y-166504761D01*
X28742857Y-166457142D01*
X28409523Y-165885714D02*
X28028571Y-165885714D01*
X28266666Y-165552380D02*
X28266666Y-166409523D01*
X28219047Y-166504761D01*
X28123809Y-166552380D01*
X28028571Y-166552380D01*
X26933333Y-165885714D02*
X26933333Y-166742857D01*
X26980952Y-166838095D01*
X27076190Y-166885714D01*
X27123809Y-166885714D01*
X26933333Y-165552380D02*
X26980952Y-165600000D01*
X26933333Y-165647619D01*
X26885714Y-165600000D01*
X26933333Y-165552380D01*
X26933333Y-165647619D01*
X26028571Y-166552380D02*
X26028571Y-166028571D01*
X26076190Y-165933333D01*
X26171428Y-165885714D01*
X26361904Y-165885714D01*
X26457142Y-165933333D01*
X26028571Y-166504761D02*
X26123809Y-166552380D01*
X26361904Y-166552380D01*
X26457142Y-166504761D01*
X26504761Y-166409523D01*
X26504761Y-166314285D01*
X26457142Y-166219047D01*
X26361904Y-166171428D01*
X26123809Y-166171428D01*
X26028571Y-166123809D01*
X25123809Y-166504761D02*
X25219047Y-166552380D01*
X25409523Y-166552380D01*
X25504761Y-166504761D01*
X25552380Y-166457142D01*
X25600000Y-166361904D01*
X25600000Y-166076190D01*
X25552380Y-165980952D01*
X25504761Y-165933333D01*
X25409523Y-165885714D01*
X25219047Y-165885714D01*
X25123809Y-165933333D01*
X24695238Y-166552380D02*
X24695238Y-165552380D01*
X24600000Y-166171428D02*
X24314285Y-166552380D01*
X24314285Y-165885714D02*
X24695238Y-166266666D01*
X36123809Y-141028571D02*
X35790476Y-141028571D01*
X35647619Y-141552380D02*
X36123809Y-141552380D01*
X36123809Y-140552380D01*
X35647619Y-140552380D01*
X35314285Y-141552380D02*
X34790476Y-140885714D01*
X35314285Y-140885714D02*
X34790476Y-141552380D01*
X34552380Y-140885714D02*
X34171428Y-140885714D01*
X34409523Y-140552380D02*
X34409523Y-141409523D01*
X34361904Y-141504761D01*
X34266666Y-141552380D01*
X34171428Y-141552380D01*
X33457142Y-141504761D02*
X33552380Y-141552380D01*
X33742857Y-141552380D01*
X33838095Y-141504761D01*
X33885714Y-141409523D01*
X33885714Y-141028571D01*
X33838095Y-140933333D01*
X33742857Y-140885714D01*
X33552380Y-140885714D01*
X33457142Y-140933333D01*
X33409523Y-141028571D01*
X33409523Y-141123809D01*
X33885714Y-141219047D01*
X32980952Y-141552380D02*
X32980952Y-140885714D01*
X32980952Y-141076190D02*
X32933333Y-140980952D01*
X32885714Y-140933333D01*
X32790476Y-140885714D01*
X32695238Y-140885714D01*
X32361904Y-140885714D02*
X32361904Y-141552380D01*
X32361904Y-140980952D02*
X32314285Y-140933333D01*
X32219047Y-140885714D01*
X32076190Y-140885714D01*
X31980952Y-140933333D01*
X31933333Y-141028571D01*
X31933333Y-141552380D01*
X31028571Y-141552380D02*
X31028571Y-141028571D01*
X31076190Y-140933333D01*
X31171428Y-140885714D01*
X31361904Y-140885714D01*
X31457142Y-140933333D01*
X31028571Y-141504761D02*
X31123809Y-141552380D01*
X31361904Y-141552380D01*
X31457142Y-141504761D01*
X31504761Y-141409523D01*
X31504761Y-141314285D01*
X31457142Y-141219047D01*
X31361904Y-141171428D01*
X31123809Y-141171428D01*
X31028571Y-141123809D01*
X30409523Y-141552380D02*
X30504761Y-141504761D01*
X30552380Y-141409523D01*
X30552380Y-140552380D01*
X29266666Y-140885714D02*
X29266666Y-141885714D01*
X29266666Y-140933333D02*
X29171428Y-140885714D01*
X28980952Y-140885714D01*
X28885714Y-140933333D01*
X28838095Y-140980952D01*
X28790476Y-141076190D01*
X28790476Y-141361904D01*
X28838095Y-141457142D01*
X28885714Y-141504761D01*
X28980952Y-141552380D01*
X29171428Y-141552380D01*
X29266666Y-141504761D01*
X28361904Y-141552380D02*
X28361904Y-140885714D01*
X28361904Y-140552380D02*
X28409523Y-140600000D01*
X28361904Y-140647619D01*
X28314285Y-140600000D01*
X28361904Y-140552380D01*
X28361904Y-140647619D01*
X27457142Y-141504761D02*
X27552380Y-141552380D01*
X27742857Y-141552380D01*
X27838095Y-141504761D01*
X27885714Y-141457142D01*
X27933333Y-141361904D01*
X27933333Y-141076190D01*
X27885714Y-140980952D01*
X27838095Y-140933333D01*
X27742857Y-140885714D01*
X27552380Y-140885714D01*
X27457142Y-140933333D01*
X27028571Y-141552380D02*
X27028571Y-140552380D01*
X26933333Y-141171428D02*
X26647619Y-141552380D01*
X26647619Y-140885714D02*
X27028571Y-141266666D01*
X25790476Y-140885714D02*
X25790476Y-141552380D01*
X26219047Y-140885714D02*
X26219047Y-141409523D01*
X26171428Y-141504761D01*
X26076190Y-141552380D01*
X25933333Y-141552380D01*
X25838095Y-141504761D01*
X25790476Y-141457142D01*
X25314285Y-140885714D02*
X25314285Y-141885714D01*
X25314285Y-140933333D02*
X25219047Y-140885714D01*
X25028571Y-140885714D01*
X24933333Y-140933333D01*
X24885714Y-140980952D01*
X24838095Y-141076190D01*
X24838095Y-141361904D01*
X24885714Y-141457142D01*
X24933333Y-141504761D01*
X25028571Y-141552380D01*
X25219047Y-141552380D01*
X25314285Y-141504761D01*
X23647619Y-140885714D02*
X23647619Y-141742857D01*
X23695238Y-141838095D01*
X23790476Y-141885714D01*
X23838095Y-141885714D01*
X23647619Y-140552380D02*
X23695238Y-140600000D01*
X23647619Y-140647619D01*
X23600000Y-140600000D01*
X23647619Y-140552380D01*
X23647619Y-140647619D01*
X22742857Y-141552380D02*
X22742857Y-141028571D01*
X22790476Y-140933333D01*
X22885714Y-140885714D01*
X23076190Y-140885714D01*
X23171428Y-140933333D01*
X22742857Y-141504761D02*
X22838095Y-141552380D01*
X23076190Y-141552380D01*
X23171428Y-141504761D01*
X23219047Y-141409523D01*
X23219047Y-141314285D01*
X23171428Y-141219047D01*
X23076190Y-141171428D01*
X22838095Y-141171428D01*
X22742857Y-141123809D01*
X21838095Y-141504761D02*
X21933333Y-141552380D01*
X22123809Y-141552380D01*
X22219047Y-141504761D01*
X22266666Y-141457142D01*
X22314285Y-141361904D01*
X22314285Y-141076190D01*
X22266666Y-140980952D01*
X22219047Y-140933333D01*
X22123809Y-140885714D01*
X21933333Y-140885714D01*
X21838095Y-140933333D01*
X21409523Y-141552380D02*
X21409523Y-140552380D01*
X21314285Y-141171428D02*
X21028571Y-141552380D01*
X21028571Y-140885714D02*
X21409523Y-141266666D01*
X33576190Y-120266666D02*
X33100000Y-120266666D01*
X33671428Y-120552380D02*
X33338095Y-119552380D01*
X33004761Y-120552380D01*
X32100000Y-120457142D02*
X32147619Y-120504761D01*
X32290476Y-120552380D01*
X32385714Y-120552380D01*
X32528571Y-120504761D01*
X32623809Y-120409523D01*
X32671428Y-120314285D01*
X32719047Y-120123809D01*
X32719047Y-119980952D01*
X32671428Y-119790476D01*
X32623809Y-119695238D01*
X32528571Y-119600000D01*
X32385714Y-119552380D01*
X32290476Y-119552380D01*
X32147619Y-119600000D01*
X32100000Y-119647619D01*
X30957142Y-119504761D02*
X31814285Y-120790476D01*
X30623809Y-120552380D02*
X30623809Y-119552380D01*
X30385714Y-119552380D01*
X30242857Y-119600000D01*
X30147619Y-119695238D01*
X30100000Y-119790476D01*
X30052380Y-119980952D01*
X30052380Y-120123809D01*
X30100000Y-120314285D01*
X30147619Y-120409523D01*
X30242857Y-120504761D01*
X30385714Y-120552380D01*
X30623809Y-120552380D01*
X29052380Y-120457142D02*
X29100000Y-120504761D01*
X29242857Y-120552380D01*
X29338095Y-120552380D01*
X29480952Y-120504761D01*
X29576190Y-120409523D01*
X29623809Y-120314285D01*
X29671428Y-120123809D01*
X29671428Y-119980952D01*
X29623809Y-119790476D01*
X29576190Y-119695238D01*
X29480952Y-119600000D01*
X29338095Y-119552380D01*
X29242857Y-119552380D01*
X29100000Y-119600000D01*
X29052380Y-119647619D01*
X27909523Y-120504761D02*
X27814285Y-120552380D01*
X27623809Y-120552380D01*
X27528571Y-120504761D01*
X27480952Y-120409523D01*
X27480952Y-120361904D01*
X27528571Y-120266666D01*
X27623809Y-120219047D01*
X27766666Y-120219047D01*
X27861904Y-120171428D01*
X27909523Y-120076190D01*
X27909523Y-120028571D01*
X27861904Y-119933333D01*
X27766666Y-119885714D01*
X27623809Y-119885714D01*
X27528571Y-119933333D01*
X27147619Y-119885714D02*
X26957142Y-120552380D01*
X26766666Y-120076190D01*
X26576190Y-120552380D01*
X26385714Y-119885714D01*
X26004761Y-120552380D02*
X26004761Y-119885714D01*
X26004761Y-119552380D02*
X26052380Y-119600000D01*
X26004761Y-119647619D01*
X25957142Y-119600000D01*
X26004761Y-119552380D01*
X26004761Y-119647619D01*
X25671428Y-119885714D02*
X25290476Y-119885714D01*
X25528571Y-119552380D02*
X25528571Y-120409523D01*
X25480952Y-120504761D01*
X25385714Y-120552380D01*
X25290476Y-120552380D01*
X24528571Y-120504761D02*
X24623809Y-120552380D01*
X24814285Y-120552380D01*
X24909523Y-120504761D01*
X24957142Y-120457142D01*
X25004761Y-120361904D01*
X25004761Y-120076190D01*
X24957142Y-119980952D01*
X24909523Y-119933333D01*
X24814285Y-119885714D01*
X24623809Y-119885714D01*
X24528571Y-119933333D01*
X24100000Y-120552380D02*
X24100000Y-119552380D01*
X23671428Y-120552380D02*
X23671428Y-120028571D01*
X23719047Y-119933333D01*
X23814285Y-119885714D01*
X23957142Y-119885714D01*
X24052380Y-119933333D01*
X24100000Y-119980952D01*
X33671428Y-85052380D02*
X33100000Y-85052380D01*
X33385714Y-86052380D02*
X33385714Y-85052380D01*
X32766666Y-86052380D02*
X32766666Y-85052380D01*
X32338095Y-86052380D02*
X32338095Y-85528571D01*
X32385714Y-85433333D01*
X32480952Y-85385714D01*
X32623809Y-85385714D01*
X32719047Y-85433333D01*
X32766666Y-85480952D01*
X31861904Y-86052380D02*
X31861904Y-85385714D01*
X31861904Y-85576190D02*
X31814285Y-85480952D01*
X31766666Y-85433333D01*
X31671428Y-85385714D01*
X31576190Y-85385714D01*
X30861904Y-86004761D02*
X30957142Y-86052380D01*
X31147619Y-86052380D01*
X31242857Y-86004761D01*
X31290476Y-85909523D01*
X31290476Y-85528571D01*
X31242857Y-85433333D01*
X31147619Y-85385714D01*
X30957142Y-85385714D01*
X30861904Y-85433333D01*
X30814285Y-85528571D01*
X30814285Y-85623809D01*
X31290476Y-85719047D01*
X30433333Y-86004761D02*
X30338095Y-86052380D01*
X30147619Y-86052380D01*
X30052380Y-86004761D01*
X30004761Y-85909523D01*
X30004761Y-85861904D01*
X30052380Y-85766666D01*
X30147619Y-85719047D01*
X30290476Y-85719047D01*
X30385714Y-85671428D01*
X30433333Y-85576190D01*
X30433333Y-85528571D01*
X30385714Y-85433333D01*
X30290476Y-85385714D01*
X30147619Y-85385714D01*
X30052380Y-85433333D01*
X29576190Y-86052380D02*
X29576190Y-85052380D01*
X29147619Y-86052380D02*
X29147619Y-85528571D01*
X29195238Y-85433333D01*
X29290476Y-85385714D01*
X29433333Y-85385714D01*
X29528571Y-85433333D01*
X29576190Y-85480952D01*
X28528571Y-86052380D02*
X28623809Y-86004761D01*
X28671428Y-85957142D01*
X28719047Y-85861904D01*
X28719047Y-85576190D01*
X28671428Y-85480952D01*
X28623809Y-85433333D01*
X28528571Y-85385714D01*
X28385714Y-85385714D01*
X28290476Y-85433333D01*
X28242857Y-85480952D01*
X28195238Y-85576190D01*
X28195238Y-85861904D01*
X28242857Y-85957142D01*
X28290476Y-86004761D01*
X28385714Y-86052380D01*
X28528571Y-86052380D01*
X27623809Y-86052380D02*
X27719047Y-86004761D01*
X27766666Y-85909523D01*
X27766666Y-85052380D01*
X26814285Y-86052380D02*
X26814285Y-85052380D01*
X26814285Y-86004761D02*
X26909523Y-86052380D01*
X27100000Y-86052380D01*
X27195238Y-86004761D01*
X27242857Y-85957142D01*
X27290476Y-85861904D01*
X27290476Y-85576190D01*
X27242857Y-85480952D01*
X27195238Y-85433333D01*
X27100000Y-85385714D01*
X26909523Y-85385714D01*
X26814285Y-85433333D01*
X25576190Y-85385714D02*
X25576190Y-86385714D01*
X25576190Y-85433333D02*
X25480952Y-85385714D01*
X25290476Y-85385714D01*
X25195238Y-85433333D01*
X25147619Y-85480952D01*
X25100000Y-85576190D01*
X25100000Y-85861904D01*
X25147619Y-85957142D01*
X25195238Y-86004761D01*
X25290476Y-86052380D01*
X25480952Y-86052380D01*
X25576190Y-86004761D01*
X24528571Y-86052380D02*
X24623809Y-86004761D01*
X24671428Y-85957142D01*
X24719047Y-85861904D01*
X24719047Y-85576190D01*
X24671428Y-85480952D01*
X24623809Y-85433333D01*
X24528571Y-85385714D01*
X24385714Y-85385714D01*
X24290476Y-85433333D01*
X24242857Y-85480952D01*
X24195238Y-85576190D01*
X24195238Y-85861904D01*
X24242857Y-85957142D01*
X24290476Y-86004761D01*
X24385714Y-86052380D01*
X24528571Y-86052380D01*
X23909523Y-85385714D02*
X23528571Y-85385714D01*
X23766666Y-85052380D02*
X23766666Y-85909523D01*
X23719047Y-86004761D01*
X23623809Y-86052380D01*
X23528571Y-86052380D01*
X31195238Y-55028571D02*
X31052380Y-55076190D01*
X31004761Y-55123809D01*
X30957142Y-55219047D01*
X30957142Y-55361904D01*
X31004761Y-55457142D01*
X31052380Y-55504761D01*
X31147619Y-55552380D01*
X31528571Y-55552380D01*
X31528571Y-54552380D01*
X31195238Y-54552380D01*
X31100000Y-54600000D01*
X31052380Y-54647619D01*
X31004761Y-54742857D01*
X31004761Y-54838095D01*
X31052380Y-54933333D01*
X31100000Y-54980952D01*
X31195238Y-55028571D01*
X31528571Y-55028571D01*
X30528571Y-55552380D02*
X30528571Y-54885714D01*
X30528571Y-54552380D02*
X30576190Y-54600000D01*
X30528571Y-54647619D01*
X30480952Y-54600000D01*
X30528571Y-54552380D01*
X30528571Y-54647619D01*
X29623809Y-55552380D02*
X29623809Y-55028571D01*
X29671428Y-54933333D01*
X29766666Y-54885714D01*
X29957142Y-54885714D01*
X30052380Y-54933333D01*
X29623809Y-55504761D02*
X29719047Y-55552380D01*
X29957142Y-55552380D01*
X30052380Y-55504761D01*
X30100000Y-55409523D01*
X30100000Y-55314285D01*
X30052380Y-55219047D01*
X29957142Y-55171428D01*
X29719047Y-55171428D01*
X29623809Y-55123809D01*
X29195238Y-55504761D02*
X29100000Y-55552380D01*
X28909523Y-55552380D01*
X28814285Y-55504761D01*
X28766666Y-55409523D01*
X28766666Y-55361904D01*
X28814285Y-55266666D01*
X28909523Y-55219047D01*
X29052380Y-55219047D01*
X29147619Y-55171428D01*
X29195238Y-55076190D01*
X29195238Y-55028571D01*
X29147619Y-54933333D01*
X29052380Y-54885714D01*
X28909523Y-54885714D01*
X28814285Y-54933333D01*
X27576190Y-54885714D02*
X27576190Y-55885714D01*
X27576190Y-54933333D02*
X27480952Y-54885714D01*
X27290476Y-54885714D01*
X27195238Y-54933333D01*
X27147619Y-54980952D01*
X27100000Y-55076190D01*
X27100000Y-55361904D01*
X27147619Y-55457142D01*
X27195238Y-55504761D01*
X27290476Y-55552380D01*
X27480952Y-55552380D01*
X27576190Y-55504761D01*
X26528571Y-55552380D02*
X26623809Y-55504761D01*
X26671428Y-55457142D01*
X26719047Y-55361904D01*
X26719047Y-55076190D01*
X26671428Y-54980952D01*
X26623809Y-54933333D01*
X26528571Y-54885714D01*
X26385714Y-54885714D01*
X26290476Y-54933333D01*
X26242857Y-54980952D01*
X26195238Y-55076190D01*
X26195238Y-55361904D01*
X26242857Y-55457142D01*
X26290476Y-55504761D01*
X26385714Y-55552380D01*
X26528571Y-55552380D01*
X25909523Y-54885714D02*
X25528571Y-54885714D01*
X25766666Y-54552380D02*
X25766666Y-55409523D01*
X25719047Y-55504761D01*
X25623809Y-55552380D01*
X25528571Y-55552380D01*
X34100000Y-36052380D02*
X34100000Y-35052380D01*
X33719047Y-35052380D01*
X33623809Y-35100000D01*
X33576190Y-35147619D01*
X33528571Y-35242857D01*
X33528571Y-35385714D01*
X33576190Y-35480952D01*
X33623809Y-35528571D01*
X33719047Y-35576190D01*
X34100000Y-35576190D01*
X33100000Y-36052380D02*
X33100000Y-35052380D01*
X32671428Y-36052380D02*
X32671428Y-35528571D01*
X32719047Y-35433333D01*
X32814285Y-35385714D01*
X32957142Y-35385714D01*
X33052380Y-35433333D01*
X33100000Y-35480952D01*
X32052380Y-36052380D02*
X32147619Y-36004761D01*
X32195238Y-35957142D01*
X32242857Y-35861904D01*
X32242857Y-35576190D01*
X32195238Y-35480952D01*
X32147619Y-35433333D01*
X32052380Y-35385714D01*
X31909523Y-35385714D01*
X31814285Y-35433333D01*
X31766666Y-35480952D01*
X31719047Y-35576190D01*
X31719047Y-35861904D01*
X31766666Y-35957142D01*
X31814285Y-36004761D01*
X31909523Y-36052380D01*
X32052380Y-36052380D01*
X31433333Y-35385714D02*
X31052380Y-35385714D01*
X31290476Y-35052380D02*
X31290476Y-35909523D01*
X31242857Y-36004761D01*
X31147619Y-36052380D01*
X31052380Y-36052380D01*
X30576190Y-36052380D02*
X30671428Y-36004761D01*
X30719047Y-35957142D01*
X30766666Y-35861904D01*
X30766666Y-35576190D01*
X30719047Y-35480952D01*
X30671428Y-35433333D01*
X30576190Y-35385714D01*
X30433333Y-35385714D01*
X30338095Y-35433333D01*
X30290476Y-35480952D01*
X30242857Y-35576190D01*
X30242857Y-35861904D01*
X30290476Y-35957142D01*
X30338095Y-36004761D01*
X30433333Y-36052380D01*
X30576190Y-36052380D01*
X29957142Y-35385714D02*
X29576190Y-35385714D01*
X29814285Y-35052380D02*
X29814285Y-35909523D01*
X29766666Y-36004761D01*
X29671428Y-36052380D01*
X29576190Y-36052380D01*
X29242857Y-36052380D02*
X29242857Y-35385714D01*
X29242857Y-35576190D02*
X29195238Y-35480952D01*
X29147619Y-35433333D01*
X29052380Y-35385714D01*
X28957142Y-35385714D01*
X28195238Y-36052380D02*
X28195238Y-35528571D01*
X28242857Y-35433333D01*
X28338095Y-35385714D01*
X28528571Y-35385714D01*
X28623809Y-35433333D01*
X28195238Y-36004761D02*
X28290476Y-36052380D01*
X28528571Y-36052380D01*
X28623809Y-36004761D01*
X28671428Y-35909523D01*
X28671428Y-35814285D01*
X28623809Y-35719047D01*
X28528571Y-35671428D01*
X28290476Y-35671428D01*
X28195238Y-35623809D01*
X27719047Y-35385714D02*
X27719047Y-36052380D01*
X27719047Y-35480952D02*
X27671428Y-35433333D01*
X27576190Y-35385714D01*
X27433333Y-35385714D01*
X27338095Y-35433333D01*
X27290476Y-35528571D01*
X27290476Y-36052380D01*
X26861904Y-36004761D02*
X26766666Y-36052380D01*
X26576190Y-36052380D01*
X26480952Y-36004761D01*
X26433333Y-35909523D01*
X26433333Y-35861904D01*
X26480952Y-35766666D01*
X26576190Y-35719047D01*
X26719047Y-35719047D01*
X26814285Y-35671428D01*
X26861904Y-35576190D01*
X26861904Y-35528571D01*
X26814285Y-35433333D01*
X26719047Y-35385714D01*
X26576190Y-35385714D01*
X26480952Y-35433333D01*
X26004761Y-36052380D02*
X26004761Y-35385714D01*
X26004761Y-35052380D02*
X26052380Y-35100000D01*
X26004761Y-35147619D01*
X25957142Y-35100000D01*
X26004761Y-35052380D01*
X26004761Y-35147619D01*
X25576190Y-36004761D02*
X25480952Y-36052380D01*
X25290476Y-36052380D01*
X25195238Y-36004761D01*
X25147619Y-35909523D01*
X25147619Y-35861904D01*
X25195238Y-35766666D01*
X25290476Y-35719047D01*
X25433333Y-35719047D01*
X25528571Y-35671428D01*
X25576190Y-35576190D01*
X25576190Y-35528571D01*
X25528571Y-35433333D01*
X25433333Y-35385714D01*
X25290476Y-35385714D01*
X25195238Y-35433333D01*
X24861904Y-35385714D02*
X24480952Y-35385714D01*
X24719047Y-35052380D02*
X24719047Y-35909523D01*
X24671428Y-36004761D01*
X24576190Y-36052380D01*
X24480952Y-36052380D01*
X24004761Y-36052380D02*
X24100000Y-36004761D01*
X24147619Y-35957142D01*
X24195238Y-35861904D01*
X24195238Y-35576190D01*
X24147619Y-35480952D01*
X24100000Y-35433333D01*
X24004761Y-35385714D01*
X23861904Y-35385714D01*
X23766666Y-35433333D01*
X23719047Y-35480952D01*
X23671428Y-35576190D01*
X23671428Y-35861904D01*
X23719047Y-35957142D01*
X23766666Y-36004761D01*
X23861904Y-36052380D01*
X24004761Y-36052380D01*
X23242857Y-36052380D02*
X23242857Y-35385714D01*
X23242857Y-35576190D02*
X23195238Y-35480952D01*
X23147619Y-35433333D01*
X23052380Y-35385714D01*
X22957142Y-35385714D01*
X39600000Y-196402380D02*
X39600000Y-195402380D01*
X39219047Y-195402380D01*
X39123809Y-195450000D01*
X39076190Y-195497619D01*
X39028571Y-195592857D01*
X39028571Y-195735714D01*
X39076190Y-195830952D01*
X39123809Y-195878571D01*
X39219047Y-195926190D01*
X39600000Y-195926190D01*
X38171428Y-196402380D02*
X38171428Y-195878571D01*
X38219047Y-195783333D01*
X38314285Y-195735714D01*
X38504761Y-195735714D01*
X38600000Y-195783333D01*
X38171428Y-196354761D02*
X38266666Y-196402380D01*
X38504761Y-196402380D01*
X38600000Y-196354761D01*
X38647619Y-196259523D01*
X38647619Y-196164285D01*
X38600000Y-196069047D01*
X38504761Y-196021428D01*
X38266666Y-196021428D01*
X38171428Y-195973809D01*
X37695238Y-195735714D02*
X37695238Y-196402380D01*
X37695238Y-195830952D02*
X37647619Y-195783333D01*
X37552380Y-195735714D01*
X37409523Y-195735714D01*
X37314285Y-195783333D01*
X37266666Y-195878571D01*
X37266666Y-196402380D01*
X36409523Y-196354761D02*
X36504761Y-196402380D01*
X36695238Y-196402380D01*
X36790476Y-196354761D01*
X36838095Y-196259523D01*
X36838095Y-195878571D01*
X36790476Y-195783333D01*
X36695238Y-195735714D01*
X36504761Y-195735714D01*
X36409523Y-195783333D01*
X36361904Y-195878571D01*
X36361904Y-195973809D01*
X36838095Y-196069047D01*
X35790476Y-196402380D02*
X35885714Y-196354761D01*
X35933333Y-196259523D01*
X35933333Y-195402380D01*
X34219047Y-196402380D02*
X34219047Y-195402380D01*
X34219047Y-196354761D02*
X34314285Y-196402380D01*
X34504761Y-196402380D01*
X34600000Y-196354761D01*
X34647619Y-196307142D01*
X34695238Y-196211904D01*
X34695238Y-195926190D01*
X34647619Y-195830952D01*
X34600000Y-195783333D01*
X34504761Y-195735714D01*
X34314285Y-195735714D01*
X34219047Y-195783333D01*
X33361904Y-196354761D02*
X33457142Y-196402380D01*
X33647619Y-196402380D01*
X33742857Y-196354761D01*
X33790476Y-196259523D01*
X33790476Y-195878571D01*
X33742857Y-195783333D01*
X33647619Y-195735714D01*
X33457142Y-195735714D01*
X33361904Y-195783333D01*
X33314285Y-195878571D01*
X33314285Y-195973809D01*
X33790476Y-196069047D01*
X32933333Y-196354761D02*
X32838095Y-196402380D01*
X32647619Y-196402380D01*
X32552380Y-196354761D01*
X32504761Y-196259523D01*
X32504761Y-196211904D01*
X32552380Y-196116666D01*
X32647619Y-196069047D01*
X32790476Y-196069047D01*
X32885714Y-196021428D01*
X32933333Y-195926190D01*
X32933333Y-195878571D01*
X32885714Y-195783333D01*
X32790476Y-195735714D01*
X32647619Y-195735714D01*
X32552380Y-195783333D01*
X32076190Y-196402380D02*
X32076190Y-195735714D01*
X32076190Y-195402380D02*
X32123809Y-195450000D01*
X32076190Y-195497619D01*
X32028571Y-195450000D01*
X32076190Y-195402380D01*
X32076190Y-195497619D01*
X31171428Y-195735714D02*
X31171428Y-196545238D01*
X31219047Y-196640476D01*
X31266666Y-196688095D01*
X31361904Y-196735714D01*
X31504761Y-196735714D01*
X31600000Y-196688095D01*
X31171428Y-196354761D02*
X31266666Y-196402380D01*
X31457142Y-196402380D01*
X31552380Y-196354761D01*
X31600000Y-196307142D01*
X31647619Y-196211904D01*
X31647619Y-195926190D01*
X31600000Y-195830952D01*
X31552380Y-195783333D01*
X31457142Y-195735714D01*
X31266666Y-195735714D01*
X31171428Y-195783333D01*
X30695238Y-195735714D02*
X30695238Y-196402380D01*
X30695238Y-195830952D02*
X30647619Y-195783333D01*
X30552380Y-195735714D01*
X30409523Y-195735714D01*
X30314285Y-195783333D01*
X30266666Y-195878571D01*
X30266666Y-196402380D01*
X29028571Y-196402380D02*
X29028571Y-195402380D01*
X29028571Y-195783333D02*
X28933333Y-195735714D01*
X28742857Y-195735714D01*
X28647619Y-195783333D01*
X28600000Y-195830952D01*
X28552380Y-195926190D01*
X28552380Y-196211904D01*
X28600000Y-196307142D01*
X28647619Y-196354761D01*
X28742857Y-196402380D01*
X28933333Y-196402380D01*
X29028571Y-196354761D01*
X28219047Y-195735714D02*
X27980952Y-196402380D01*
X27742857Y-195735714D02*
X27980952Y-196402380D01*
X28076190Y-196640476D01*
X28123809Y-196688095D01*
X28219047Y-196735714D01*
X26028571Y-196402380D02*
X26361904Y-195926190D01*
X26600000Y-196402380D02*
X26600000Y-195402380D01*
X26219047Y-195402380D01*
X26123809Y-195450000D01*
X26076190Y-195497619D01*
X26028571Y-195592857D01*
X26028571Y-195735714D01*
X26076190Y-195830952D01*
X26123809Y-195878571D01*
X26219047Y-195926190D01*
X26600000Y-195926190D01*
X25600000Y-196402380D02*
X25600000Y-195735714D01*
X25600000Y-195402380D02*
X25647619Y-195450000D01*
X25600000Y-195497619D01*
X25552380Y-195450000D01*
X25600000Y-195402380D01*
X25600000Y-195497619D01*
X24695238Y-196354761D02*
X24790476Y-196402380D01*
X24980952Y-196402380D01*
X25076190Y-196354761D01*
X25123809Y-196307142D01*
X25171428Y-196211904D01*
X25171428Y-195926190D01*
X25123809Y-195830952D01*
X25076190Y-195783333D01*
X24980952Y-195735714D01*
X24790476Y-195735714D01*
X24695238Y-195783333D01*
X24266666Y-196402380D02*
X24266666Y-195402380D01*
X23838095Y-196402380D02*
X23838095Y-195878571D01*
X23885714Y-195783333D01*
X23980952Y-195735714D01*
X24123809Y-195735714D01*
X24219047Y-195783333D01*
X24266666Y-195830952D01*
X22600000Y-196402380D02*
X22600000Y-195402380D01*
X22600000Y-195878571D02*
X22028571Y-195878571D01*
X22028571Y-196402380D02*
X22028571Y-195402380D01*
X21409523Y-196402380D02*
X21504761Y-196354761D01*
X21552380Y-196307142D01*
X21600000Y-196211904D01*
X21600000Y-195926190D01*
X21552380Y-195830952D01*
X21504761Y-195783333D01*
X21409523Y-195735714D01*
X21266666Y-195735714D01*
X21171428Y-195783333D01*
X21123809Y-195830952D01*
X21076190Y-195926190D01*
X21076190Y-196211904D01*
X21123809Y-196307142D01*
X21171428Y-196354761D01*
X21266666Y-196402380D01*
X21409523Y-196402380D01*
X20504761Y-196402380D02*
X20600000Y-196354761D01*
X20647619Y-196259523D01*
X20647619Y-195402380D01*
X20123809Y-196402380D02*
X20123809Y-195735714D01*
X20123809Y-195830952D02*
X20076190Y-195783333D01*
X19980952Y-195735714D01*
X19838095Y-195735714D01*
X19742857Y-195783333D01*
X19695238Y-195878571D01*
X19695238Y-196402380D01*
X19695238Y-195878571D02*
X19647619Y-195783333D01*
X19552380Y-195735714D01*
X19409523Y-195735714D01*
X19314285Y-195783333D01*
X19266666Y-195878571D01*
X19266666Y-196402380D01*
X18409523Y-196354761D02*
X18504761Y-196402380D01*
X18695238Y-196402380D01*
X18790476Y-196354761D01*
X18838095Y-196259523D01*
X18838095Y-195878571D01*
X18790476Y-195783333D01*
X18695238Y-195735714D01*
X18504761Y-195735714D01*
X18409523Y-195783333D01*
X18361904Y-195878571D01*
X18361904Y-195973809D01*
X18838095Y-196069047D01*
X17980952Y-196354761D02*
X17885714Y-196402380D01*
X17695238Y-196402380D01*
X17600000Y-196354761D01*
X17552380Y-196259523D01*
X17552380Y-196211904D01*
X17600000Y-196116666D01*
X17695238Y-196069047D01*
X17838095Y-196069047D01*
X17933333Y-196021428D01*
X17980952Y-195926190D01*
X17980952Y-195878571D01*
X17933333Y-195783333D01*
X17838095Y-195735714D01*
X17695238Y-195735714D01*
X17600000Y-195783333D01*
X36385714Y-197957142D02*
X36433333Y-198004761D01*
X36576190Y-198052380D01*
X36671428Y-198052380D01*
X36814285Y-198004761D01*
X36909523Y-197909523D01*
X36957142Y-197814285D01*
X37004761Y-197623809D01*
X37004761Y-197480952D01*
X36957142Y-197290476D01*
X36909523Y-197195238D01*
X36814285Y-197100000D01*
X36671428Y-197052380D01*
X36576190Y-197052380D01*
X36433333Y-197100000D01*
X36385714Y-197147619D01*
X35385714Y-197957142D02*
X35433333Y-198004761D01*
X35576190Y-198052380D01*
X35671428Y-198052380D01*
X35814285Y-198004761D01*
X35909523Y-197909523D01*
X35957142Y-197814285D01*
X36004761Y-197623809D01*
X36004761Y-197480952D01*
X35957142Y-197290476D01*
X35909523Y-197195238D01*
X35814285Y-197100000D01*
X35671428Y-197052380D01*
X35576190Y-197052380D01*
X35433333Y-197100000D01*
X35385714Y-197147619D01*
X34766666Y-197052380D02*
X34671428Y-197052380D01*
X34576190Y-197100000D01*
X34528571Y-197147619D01*
X34480952Y-197242857D01*
X34433333Y-197433333D01*
X34433333Y-197671428D01*
X34480952Y-197861904D01*
X34528571Y-197957142D01*
X34576190Y-198004761D01*
X34671428Y-198052380D01*
X34766666Y-198052380D01*
X34861904Y-198004761D01*
X34909523Y-197957142D01*
X34957142Y-197861904D01*
X35004761Y-197671428D01*
X35004761Y-197433333D01*
X34957142Y-197242857D01*
X34909523Y-197147619D01*
X34861904Y-197100000D01*
X34766666Y-197052380D01*
X32719047Y-198052380D02*
X33290476Y-198052380D01*
X33004761Y-198052380D02*
X33004761Y-197052380D01*
X33100000Y-197195238D01*
X33195238Y-197290476D01*
X33290476Y-197338095D01*
X32290476Y-197957142D02*
X32242857Y-198004761D01*
X32290476Y-198052380D01*
X32338095Y-198004761D01*
X32290476Y-197957142D01*
X32290476Y-198052380D01*
X31623809Y-197052380D02*
X31528571Y-197052380D01*
X31433333Y-197100000D01*
X31385714Y-197147619D01*
X31338095Y-197242857D01*
X31290476Y-197433333D01*
X31290476Y-197671428D01*
X31338095Y-197861904D01*
X31385714Y-197957142D01*
X31433333Y-198004761D01*
X31528571Y-198052380D01*
X31623809Y-198052380D01*
X31719047Y-198004761D01*
X31766666Y-197957142D01*
X31814285Y-197861904D01*
X31861904Y-197671428D01*
X31861904Y-197433333D01*
X31814285Y-197242857D01*
X31766666Y-197147619D01*
X31719047Y-197100000D01*
X31623809Y-197052380D01*
X29909523Y-197052380D02*
X29719047Y-197052380D01*
X29623809Y-197100000D01*
X29528571Y-197195238D01*
X29480952Y-197385714D01*
X29480952Y-197719047D01*
X29528571Y-197909523D01*
X29623809Y-198004761D01*
X29719047Y-198052380D01*
X29909523Y-198052380D01*
X30004761Y-198004761D01*
X30100000Y-197909523D01*
X30147619Y-197719047D01*
X30147619Y-197385714D01*
X30100000Y-197195238D01*
X30004761Y-197100000D01*
X29909523Y-197052380D01*
X28623809Y-198004761D02*
X28719047Y-198052380D01*
X28909523Y-198052380D01*
X29004761Y-198004761D01*
X29052380Y-197957142D01*
X29100000Y-197861904D01*
X29100000Y-197576190D01*
X29052380Y-197480952D01*
X29004761Y-197433333D01*
X28909523Y-197385714D01*
X28719047Y-197385714D01*
X28623809Y-197433333D01*
X28338095Y-197385714D02*
X27957142Y-197385714D01*
X28195238Y-197052380D02*
X28195238Y-197909523D01*
X28147619Y-198004761D01*
X28052380Y-198052380D01*
X27957142Y-198052380D01*
X27480952Y-198052380D02*
X27576190Y-198004761D01*
X27623809Y-197957142D01*
X27671428Y-197861904D01*
X27671428Y-197576190D01*
X27623809Y-197480952D01*
X27576190Y-197433333D01*
X27480952Y-197385714D01*
X27338095Y-197385714D01*
X27242857Y-197433333D01*
X27195238Y-197480952D01*
X27147619Y-197576190D01*
X27147619Y-197861904D01*
X27195238Y-197957142D01*
X27242857Y-198004761D01*
X27338095Y-198052380D01*
X27480952Y-198052380D01*
X26719047Y-198052380D02*
X26719047Y-197052380D01*
X26719047Y-197433333D02*
X26623809Y-197385714D01*
X26433333Y-197385714D01*
X26338095Y-197433333D01*
X26290476Y-197480952D01*
X26242857Y-197576190D01*
X26242857Y-197861904D01*
X26290476Y-197957142D01*
X26338095Y-198004761D01*
X26433333Y-198052380D01*
X26623809Y-198052380D01*
X26719047Y-198004761D01*
X25433333Y-198004761D02*
X25528571Y-198052380D01*
X25719047Y-198052380D01*
X25814285Y-198004761D01*
X25861904Y-197909523D01*
X25861904Y-197528571D01*
X25814285Y-197433333D01*
X25719047Y-197385714D01*
X25528571Y-197385714D01*
X25433333Y-197433333D01*
X25385714Y-197528571D01*
X25385714Y-197623809D01*
X25861904Y-197719047D01*
X24957142Y-198052380D02*
X24957142Y-197385714D01*
X24957142Y-197576190D02*
X24909523Y-197480952D01*
X24861904Y-197433333D01*
X24766666Y-197385714D01*
X24671428Y-197385714D01*
X23623809Y-197147619D02*
X23576190Y-197100000D01*
X23480952Y-197052380D01*
X23242857Y-197052380D01*
X23147619Y-197100000D01*
X23100000Y-197147619D01*
X23052380Y-197242857D01*
X23052380Y-197338095D01*
X23100000Y-197480952D01*
X23671428Y-198052380D01*
X23052380Y-198052380D01*
X22433333Y-197052380D02*
X22338095Y-197052380D01*
X22242857Y-197100000D01*
X22195238Y-197147619D01*
X22147619Y-197242857D01*
X22100000Y-197433333D01*
X22100000Y-197671428D01*
X22147619Y-197861904D01*
X22195238Y-197957142D01*
X22242857Y-198004761D01*
X22338095Y-198052380D01*
X22433333Y-198052380D01*
X22528571Y-198004761D01*
X22576190Y-197957142D01*
X22623809Y-197861904D01*
X22671428Y-197671428D01*
X22671428Y-197433333D01*
X22623809Y-197242857D01*
X22576190Y-197147619D01*
X22528571Y-197100000D01*
X22433333Y-197052380D01*
X21719047Y-197147619D02*
X21671428Y-197100000D01*
X21576190Y-197052380D01*
X21338095Y-197052380D01*
X21242857Y-197100000D01*
X21195238Y-197147619D01*
X21147619Y-197242857D01*
X21147619Y-197338095D01*
X21195238Y-197480952D01*
X21766666Y-198052380D01*
X21147619Y-198052380D01*
X20195238Y-198052380D02*
X20766666Y-198052380D01*
X20480952Y-198052380D02*
X20480952Y-197052380D01*
X20576190Y-197195238D01*
X20671428Y-197290476D01*
X20766666Y-197338095D01*
X33219047Y-198702380D02*
X33219047Y-199416666D01*
X33266666Y-199559523D01*
X33361904Y-199654761D01*
X33504761Y-199702380D01*
X33600000Y-199702380D01*
X32266666Y-199702380D02*
X32742857Y-199702380D01*
X32742857Y-198702380D01*
X31361904Y-199607142D02*
X31409523Y-199654761D01*
X31552380Y-199702380D01*
X31647619Y-199702380D01*
X31790476Y-199654761D01*
X31885714Y-199559523D01*
X31933333Y-199464285D01*
X31980952Y-199273809D01*
X31980952Y-199130952D01*
X31933333Y-198940476D01*
X31885714Y-198845238D01*
X31790476Y-198750000D01*
X31647619Y-198702380D01*
X31552380Y-198702380D01*
X31409523Y-198750000D01*
X31361904Y-198797619D01*
X30647619Y-198702380D02*
X30647619Y-199416666D01*
X30695238Y-199559523D01*
X30790476Y-199654761D01*
X30933333Y-199702380D01*
X31028571Y-199702380D01*
X29695238Y-199702380D02*
X30171428Y-199702380D01*
X30171428Y-198702380D01*
X28790476Y-199607142D02*
X28838095Y-199654761D01*
X28980952Y-199702380D01*
X29076190Y-199702380D01*
X29219047Y-199654761D01*
X29314285Y-199559523D01*
X29361904Y-199464285D01*
X29409523Y-199273809D01*
X29409523Y-199130952D01*
X29361904Y-198940476D01*
X29314285Y-198845238D01*
X29219047Y-198750000D01*
X29076190Y-198702380D01*
X28980952Y-198702380D01*
X28838095Y-198750000D01*
X28790476Y-198797619D01*
X28076190Y-198702380D02*
X28076190Y-199416666D01*
X28123809Y-199559523D01*
X28219047Y-199654761D01*
X28361904Y-199702380D01*
X28457142Y-199702380D01*
X27123809Y-199702380D02*
X27600000Y-199702380D01*
X27600000Y-198702380D01*
X26219047Y-199607142D02*
X26266666Y-199654761D01*
X26409523Y-199702380D01*
X26504761Y-199702380D01*
X26647619Y-199654761D01*
X26742857Y-199559523D01*
X26790476Y-199464285D01*
X26838095Y-199273809D01*
X26838095Y-199130952D01*
X26790476Y-198940476D01*
X26742857Y-198845238D01*
X26647619Y-198750000D01*
X26504761Y-198702380D01*
X26409523Y-198702380D01*
X26266666Y-198750000D01*
X26219047Y-198797619D01*
X25504761Y-198702380D02*
X25504761Y-199416666D01*
X25552380Y-199559523D01*
X25647619Y-199654761D01*
X25790476Y-199702380D01*
X25885714Y-199702380D01*
X24552380Y-199702380D02*
X25028571Y-199702380D01*
X25028571Y-198702380D01*
X23647619Y-199607142D02*
X23695238Y-199654761D01*
X23838095Y-199702380D01*
X23933333Y-199702380D01*
X24076190Y-199654761D01*
X24171428Y-199559523D01*
X24219047Y-199464285D01*
X24266666Y-199273809D01*
X24266666Y-199130952D01*
X24219047Y-198940476D01*
X24171428Y-198845238D01*
X24076190Y-198750000D01*
X23933333Y-198702380D01*
X23838095Y-198702380D01*
X23695238Y-198750000D01*
X23647619Y-198797619D01*
D11*
G36*
X29945762Y-201103295D02*
G01*
X29719275Y-201160725D01*
X29506042Y-201250861D01*
X29309636Y-201371823D01*
X29133628Y-201521729D01*
X28981589Y-201698696D01*
X28857089Y-201900844D01*
X28844249Y-201926541D01*
X28793712Y-202037295D01*
X28756951Y-202138132D01*
X28731999Y-202239067D01*
X28716892Y-202350114D01*
X28709665Y-202481287D01*
X28708257Y-202619538D01*
X28709141Y-202739418D01*
X28711786Y-202829550D01*
X28717274Y-202899255D01*
X28726685Y-202957855D01*
X28741101Y-203014672D01*
X28761488Y-203078692D01*
X28852320Y-203289619D01*
X28976092Y-203485212D01*
X29128345Y-203661404D01*
X29304617Y-203814128D01*
X29500450Y-203939317D01*
X29711382Y-204032904D01*
X29853751Y-204074692D01*
X29976333Y-204096312D01*
X30117661Y-204109844D01*
X30261804Y-204114540D01*
X30392831Y-204109650D01*
X30452036Y-204102835D01*
X30665147Y-204051615D01*
X30874960Y-203965903D01*
X31072932Y-203849928D01*
X31250519Y-203707922D01*
X31251575Y-203706935D01*
X31418861Y-203525473D01*
X31552401Y-203326943D01*
X31651194Y-203114250D01*
X31714239Y-202890302D01*
X31740535Y-202658003D01*
X31737084Y-202586371D01*
X31462601Y-202586371D01*
X31460389Y-202719780D01*
X31448612Y-202838052D01*
X31434995Y-202902846D01*
X31360380Y-203100843D01*
X31253427Y-203285299D01*
X31118836Y-203450554D01*
X30961307Y-203590947D01*
X30785539Y-203700816D01*
X30763640Y-203711586D01*
X30676119Y-203749895D01*
X30586608Y-203783320D01*
X30511196Y-203805990D01*
X30495231Y-203809527D01*
X30427822Y-203822939D01*
X30371304Y-203834585D01*
X30348692Y-203839505D01*
X30299174Y-203844004D01*
X30223233Y-203843264D01*
X30133045Y-203838131D01*
X30040787Y-203829448D01*
X29958637Y-203818062D01*
X29915852Y-203809472D01*
X29745852Y-203752534D01*
X29576986Y-203667240D01*
X29419642Y-203560299D01*
X29284202Y-203438415D01*
X29214407Y-203356457D01*
X29112259Y-203206814D01*
X29039983Y-203065157D01*
X28993839Y-202920154D01*
X28970085Y-202760468D01*
X28964724Y-202600000D01*
X28966764Y-202490885D01*
X28972805Y-202407322D01*
X28984761Y-202335844D01*
X29004547Y-202262980D01*
X29018866Y-202219187D01*
X29109318Y-202010739D01*
X29230477Y-201825634D01*
X29380224Y-201666010D01*
X29556439Y-201534010D01*
X29757005Y-201431773D01*
X29823114Y-201406696D01*
X29934844Y-201378184D01*
X30070736Y-201359903D01*
X30217025Y-201352684D01*
X30359944Y-201357356D01*
X30453669Y-201368657D01*
X30641649Y-201419565D01*
X30821627Y-201505315D01*
X30989038Y-201621826D01*
X31139315Y-201765015D01*
X31267892Y-201930800D01*
X31370203Y-202115098D01*
X31415676Y-202228769D01*
X31439862Y-202327521D01*
X31455631Y-202451170D01*
X31462601Y-202586371D01*
X31737084Y-202586371D01*
X31729080Y-202420259D01*
X31718648Y-202351252D01*
X31660541Y-202118286D01*
X31570059Y-201904919D01*
X31445439Y-201707891D01*
X31284913Y-201523940D01*
X31255132Y-201494885D01*
X31074249Y-201343935D01*
X30883837Y-201229231D01*
X30678478Y-201148158D01*
X30452752Y-201098104D01*
X30424219Y-201094081D01*
X30181934Y-201080453D01*
X29945762Y-201103295D01*
G37*
X29945762Y-201103295D02*
X29719275Y-201160725D01*
X29506042Y-201250861D01*
X29309636Y-201371823D01*
X29133628Y-201521729D01*
X28981589Y-201698696D01*
X28857089Y-201900844D01*
X28844249Y-201926541D01*
X28793712Y-202037295D01*
X28756951Y-202138132D01*
X28731999Y-202239067D01*
X28716892Y-202350114D01*
X28709665Y-202481287D01*
X28708257Y-202619538D01*
X28709141Y-202739418D01*
X28711786Y-202829550D01*
X28717274Y-202899255D01*
X28726685Y-202957855D01*
X28741101Y-203014672D01*
X28761488Y-203078692D01*
X28852320Y-203289619D01*
X28976092Y-203485212D01*
X29128345Y-203661404D01*
X29304617Y-203814128D01*
X29500450Y-203939317D01*
X29711382Y-204032904D01*
X29853751Y-204074692D01*
X29976333Y-204096312D01*
X30117661Y-204109844D01*
X30261804Y-204114540D01*
X30392831Y-204109650D01*
X30452036Y-204102835D01*
X30665147Y-204051615D01*
X30874960Y-203965903D01*
X31072932Y-203849928D01*
X31250519Y-203707922D01*
X31251575Y-203706935D01*
X31418861Y-203525473D01*
X31552401Y-203326943D01*
X31651194Y-203114250D01*
X31714239Y-202890302D01*
X31740535Y-202658003D01*
X31737084Y-202586371D01*
X31462601Y-202586371D01*
X31460389Y-202719780D01*
X31448612Y-202838052D01*
X31434995Y-202902846D01*
X31360380Y-203100843D01*
X31253427Y-203285299D01*
X31118836Y-203450554D01*
X30961307Y-203590947D01*
X30785539Y-203700816D01*
X30763640Y-203711586D01*
X30676119Y-203749895D01*
X30586608Y-203783320D01*
X30511196Y-203805990D01*
X30495231Y-203809527D01*
X30427822Y-203822939D01*
X30371304Y-203834585D01*
X30348692Y-203839505D01*
X30299174Y-203844004D01*
X30223233Y-203843264D01*
X30133045Y-203838131D01*
X30040787Y-203829448D01*
X29958637Y-203818062D01*
X29915852Y-203809472D01*
X29745852Y-203752534D01*
X29576986Y-203667240D01*
X29419642Y-203560299D01*
X29284202Y-203438415D01*
X29214407Y-203356457D01*
X29112259Y-203206814D01*
X29039983Y-203065157D01*
X28993839Y-202920154D01*
X28970085Y-202760468D01*
X28964724Y-202600000D01*
X28966764Y-202490885D01*
X28972805Y-202407322D01*
X28984761Y-202335844D01*
X29004547Y-202262980D01*
X29018866Y-202219187D01*
X29109318Y-202010739D01*
X29230477Y-201825634D01*
X29380224Y-201666010D01*
X29556439Y-201534010D01*
X29757005Y-201431773D01*
X29823114Y-201406696D01*
X29934844Y-201378184D01*
X30070736Y-201359903D01*
X30217025Y-201352684D01*
X30359944Y-201357356D01*
X30453669Y-201368657D01*
X30641649Y-201419565D01*
X30821627Y-201505315D01*
X30989038Y-201621826D01*
X31139315Y-201765015D01*
X31267892Y-201930800D01*
X31370203Y-202115098D01*
X31415676Y-202228769D01*
X31439862Y-202327521D01*
X31455631Y-202451170D01*
X31462601Y-202586371D01*
X31737084Y-202586371D01*
X31729080Y-202420259D01*
X31718648Y-202351252D01*
X31660541Y-202118286D01*
X31570059Y-201904919D01*
X31445439Y-201707891D01*
X31284913Y-201523940D01*
X31255132Y-201494885D01*
X31074249Y-201343935D01*
X30883837Y-201229231D01*
X30678478Y-201148158D01*
X30452752Y-201098104D01*
X30424219Y-201094081D01*
X30181934Y-201080453D01*
X29945762Y-201103295D01*
G36*
X26662551Y-201111587D02*
G01*
X26434872Y-201172319D01*
X26222761Y-201263945D01*
X26152602Y-201303708D01*
X26044068Y-201380779D01*
X25928792Y-201481493D01*
X25817359Y-201595134D01*
X25720353Y-201710982D01*
X25653888Y-201808692D01*
X25554077Y-202014999D01*
X25485850Y-202235241D01*
X25449306Y-202463459D01*
X25444543Y-202693698D01*
X25471660Y-202920000D01*
X25530753Y-203136409D01*
X25621923Y-203336967D01*
X25628497Y-203348509D01*
X25753060Y-203527855D01*
X25908404Y-203691903D01*
X26087535Y-203835367D01*
X26283462Y-203952963D01*
X26489193Y-204039403D01*
X26576363Y-204065024D01*
X26706088Y-204090687D01*
X26851603Y-204107309D01*
X26997718Y-204113928D01*
X27129245Y-204109587D01*
X27182701Y-204103333D01*
X27422036Y-204046757D01*
X27648814Y-203953934D01*
X27858665Y-203826800D01*
X27930318Y-203772122D01*
X28101565Y-203609450D01*
X28241960Y-203426151D01*
X28350979Y-203226239D01*
X28428098Y-203013730D01*
X28472791Y-202792639D01*
X28481016Y-202634606D01*
X28219198Y-202634606D01*
X28194064Y-202845751D01*
X28132679Y-203050690D01*
X28048267Y-203223249D01*
X27985076Y-203313441D01*
X27898995Y-203413314D01*
X27800572Y-203512322D01*
X27700350Y-203599920D01*
X27608876Y-203665561D01*
X27601557Y-203669958D01*
X27403936Y-203764254D01*
X27195157Y-203821992D01*
X26979243Y-203842623D01*
X26760214Y-203825598D01*
X26643253Y-203800863D01*
X26472303Y-203740458D01*
X26302582Y-203651041D01*
X26145288Y-203539843D01*
X26011618Y-203414097D01*
X25972085Y-203367478D01*
X25854299Y-203189023D01*
X25771467Y-202998686D01*
X25722905Y-202800620D01*
X25707932Y-202598975D01*
X25725863Y-202397904D01*
X25776017Y-202201558D01*
X25857710Y-202014089D01*
X25970259Y-201839647D01*
X26112983Y-201682385D01*
X26269918Y-201556741D01*
X26450595Y-201456346D01*
X26647052Y-201388856D01*
X26853455Y-201354622D01*
X27063972Y-201353993D01*
X27272769Y-201387319D01*
X27474013Y-201454950D01*
X27530339Y-201481134D01*
X27674147Y-201570458D01*
X27813615Y-201690242D01*
X27941458Y-201831978D01*
X28050390Y-201987160D01*
X28133123Y-202147282D01*
X28158456Y-202214411D01*
X28207517Y-202422433D01*
X28219198Y-202634606D01*
X28481016Y-202634606D01*
X28484536Y-202566982D01*
X28462808Y-202340772D01*
X28407082Y-202118025D01*
X28316833Y-201902756D01*
X28199584Y-201710151D01*
X28071384Y-201557078D01*
X27917123Y-201416554D01*
X27745551Y-201294696D01*
X27565418Y-201197626D01*
X27385476Y-201131460D01*
X27363914Y-201125788D01*
X27134579Y-201087219D01*
X26898289Y-201082853D01*
X26662551Y-201111587D01*
G37*
X26662551Y-201111587D02*
X26434872Y-201172319D01*
X26222761Y-201263945D01*
X26152602Y-201303708D01*
X26044068Y-201380779D01*
X25928792Y-201481493D01*
X25817359Y-201595134D01*
X25720353Y-201710982D01*
X25653888Y-201808692D01*
X25554077Y-202014999D01*
X25485850Y-202235241D01*
X25449306Y-202463459D01*
X25444543Y-202693698D01*
X25471660Y-202920000D01*
X25530753Y-203136409D01*
X25621923Y-203336967D01*
X25628497Y-203348509D01*
X25753060Y-203527855D01*
X25908404Y-203691903D01*
X26087535Y-203835367D01*
X26283462Y-203952963D01*
X26489193Y-204039403D01*
X26576363Y-204065024D01*
X26706088Y-204090687D01*
X26851603Y-204107309D01*
X26997718Y-204113928D01*
X27129245Y-204109587D01*
X27182701Y-204103333D01*
X27422036Y-204046757D01*
X27648814Y-203953934D01*
X27858665Y-203826800D01*
X27930318Y-203772122D01*
X28101565Y-203609450D01*
X28241960Y-203426151D01*
X28350979Y-203226239D01*
X28428098Y-203013730D01*
X28472791Y-202792639D01*
X28481016Y-202634606D01*
X28219198Y-202634606D01*
X28194064Y-202845751D01*
X28132679Y-203050690D01*
X28048267Y-203223249D01*
X27985076Y-203313441D01*
X27898995Y-203413314D01*
X27800572Y-203512322D01*
X27700350Y-203599920D01*
X27608876Y-203665561D01*
X27601557Y-203669958D01*
X27403936Y-203764254D01*
X27195157Y-203821992D01*
X26979243Y-203842623D01*
X26760214Y-203825598D01*
X26643253Y-203800863D01*
X26472303Y-203740458D01*
X26302582Y-203651041D01*
X26145288Y-203539843D01*
X26011618Y-203414097D01*
X25972085Y-203367478D01*
X25854299Y-203189023D01*
X25771467Y-202998686D01*
X25722905Y-202800620D01*
X25707932Y-202598975D01*
X25725863Y-202397904D01*
X25776017Y-202201558D01*
X25857710Y-202014089D01*
X25970259Y-201839647D01*
X26112983Y-201682385D01*
X26269918Y-201556741D01*
X26450595Y-201456346D01*
X26647052Y-201388856D01*
X26853455Y-201354622D01*
X27063972Y-201353993D01*
X27272769Y-201387319D01*
X27474013Y-201454950D01*
X27530339Y-201481134D01*
X27674147Y-201570458D01*
X27813615Y-201690242D01*
X27941458Y-201831978D01*
X28050390Y-201987160D01*
X28133123Y-202147282D01*
X28158456Y-202214411D01*
X28207517Y-202422433D01*
X28219198Y-202634606D01*
X28481016Y-202634606D01*
X28484536Y-202566982D01*
X28462808Y-202340772D01*
X28407082Y-202118025D01*
X28316833Y-201902756D01*
X28199584Y-201710151D01*
X28071384Y-201557078D01*
X27917123Y-201416554D01*
X27745551Y-201294696D01*
X27565418Y-201197626D01*
X27385476Y-201131460D01*
X27363914Y-201125788D01*
X27134579Y-201087219D01*
X26898289Y-201082853D01*
X26662551Y-201111587D01*
G36*
X30485462Y-202152643D02*
G01*
X30407960Y-202183771D01*
X30334173Y-202230000D01*
X30277964Y-202281844D01*
X30261191Y-202306135D01*
X30254405Y-202330461D01*
X30268257Y-202352581D01*
X30309064Y-202380299D01*
X30331679Y-202393211D01*
X30421809Y-202443585D01*
X30488507Y-202385023D01*
X30560737Y-202338519D01*
X30632889Y-202329439D01*
X30708372Y-202354847D01*
X30762338Y-202399575D01*
X30794410Y-202468778D01*
X30805949Y-202566390D01*
X30804160Y-202631687D01*
X30797588Y-202704710D01*
X30785977Y-202752001D01*
X30764231Y-202786901D01*
X30733179Y-202817499D01*
X30657933Y-202864544D01*
X30581404Y-202872549D01*
X30503904Y-202841518D01*
X30467775Y-202813928D01*
X30399883Y-202754317D01*
X30320557Y-202794786D01*
X30273096Y-202822496D01*
X30244755Y-202845796D01*
X30241231Y-202852736D01*
X30254834Y-202874078D01*
X30290081Y-202911448D01*
X30327998Y-202946592D01*
X30441914Y-203023137D01*
X30565441Y-203062801D01*
X30694244Y-203064942D01*
X30823988Y-203028916D01*
X30838695Y-203022334D01*
X30945027Y-202954034D01*
X31020464Y-202862318D01*
X31065242Y-202746736D01*
X31079597Y-202606835D01*
X31078269Y-202564501D01*
X31068911Y-202474717D01*
X31049251Y-202404936D01*
X31013931Y-202336398D01*
X31012411Y-202333898D01*
X30933280Y-202239869D01*
X30830981Y-202174047D01*
X30711332Y-202138433D01*
X30580151Y-202135030D01*
X30485462Y-202152643D01*
G37*
X30485462Y-202152643D02*
X30407960Y-202183771D01*
X30334173Y-202230000D01*
X30277964Y-202281844D01*
X30261191Y-202306135D01*
X30254405Y-202330461D01*
X30268257Y-202352581D01*
X30309064Y-202380299D01*
X30331679Y-202393211D01*
X30421809Y-202443585D01*
X30488507Y-202385023D01*
X30560737Y-202338519D01*
X30632889Y-202329439D01*
X30708372Y-202354847D01*
X30762338Y-202399575D01*
X30794410Y-202468778D01*
X30805949Y-202566390D01*
X30804160Y-202631687D01*
X30797588Y-202704710D01*
X30785977Y-202752001D01*
X30764231Y-202786901D01*
X30733179Y-202817499D01*
X30657933Y-202864544D01*
X30581404Y-202872549D01*
X30503904Y-202841518D01*
X30467775Y-202813928D01*
X30399883Y-202754317D01*
X30320557Y-202794786D01*
X30273096Y-202822496D01*
X30244755Y-202845796D01*
X30241231Y-202852736D01*
X30254834Y-202874078D01*
X30290081Y-202911448D01*
X30327998Y-202946592D01*
X30441914Y-203023137D01*
X30565441Y-203062801D01*
X30694244Y-203064942D01*
X30823988Y-203028916D01*
X30838695Y-203022334D01*
X30945027Y-202954034D01*
X31020464Y-202862318D01*
X31065242Y-202746736D01*
X31079597Y-202606835D01*
X31078269Y-202564501D01*
X31068911Y-202474717D01*
X31049251Y-202404936D01*
X31013931Y-202336398D01*
X31012411Y-202333898D01*
X30933280Y-202239869D01*
X30830981Y-202174047D01*
X30711332Y-202138433D01*
X30580151Y-202135030D01*
X30485462Y-202152643D01*
G36*
X29610240Y-202151947D02*
G01*
X29508378Y-202191970D01*
X29425953Y-202250711D01*
X29379557Y-202310874D01*
X29375227Y-202334377D01*
X29393686Y-202358572D01*
X29440859Y-202390489D01*
X29452388Y-202397323D01*
X29506758Y-202427060D01*
X29538765Y-202436991D01*
X29558361Y-202429280D01*
X29564922Y-202421783D01*
X29613678Y-202375036D01*
X29673913Y-202339854D01*
X29726890Y-202326461D01*
X29808245Y-202343534D01*
X29870310Y-202392865D01*
X29910986Y-202471618D01*
X29928177Y-202576958D01*
X29928616Y-202599038D01*
X29915565Y-202704520D01*
X29879697Y-202787197D01*
X29825937Y-202843996D01*
X29759213Y-202871845D01*
X29684451Y-202867673D01*
X29606578Y-202828406D01*
X29586663Y-202812275D01*
X29516888Y-202751013D01*
X29439444Y-202785935D01*
X29392090Y-202812301D01*
X29364706Y-202837249D01*
X29362000Y-202844709D01*
X29377365Y-202876272D01*
X29417095Y-202919399D01*
X29471639Y-202966241D01*
X29531448Y-203008947D01*
X29586973Y-203039670D01*
X29609070Y-203047792D01*
X29748419Y-203068493D01*
X29880352Y-203050937D01*
X29963723Y-203018395D01*
X30067214Y-202946141D01*
X30142881Y-202848191D01*
X30188536Y-202728345D01*
X30202154Y-202604694D01*
X30185124Y-202473486D01*
X30136905Y-202354228D01*
X30061800Y-202254078D01*
X29964117Y-202180196D01*
X29939475Y-202167928D01*
X29835087Y-202137553D01*
X29722242Y-202133017D01*
X29610240Y-202151947D01*
G37*
X29610240Y-202151947D02*
X29508378Y-202191970D01*
X29425953Y-202250711D01*
X29379557Y-202310874D01*
X29375227Y-202334377D01*
X29393686Y-202358572D01*
X29440859Y-202390489D01*
X29452388Y-202397323D01*
X29506758Y-202427060D01*
X29538765Y-202436991D01*
X29558361Y-202429280D01*
X29564922Y-202421783D01*
X29613678Y-202375036D01*
X29673913Y-202339854D01*
X29726890Y-202326461D01*
X29808245Y-202343534D01*
X29870310Y-202392865D01*
X29910986Y-202471618D01*
X29928177Y-202576958D01*
X29928616Y-202599038D01*
X29915565Y-202704520D01*
X29879697Y-202787197D01*
X29825937Y-202843996D01*
X29759213Y-202871845D01*
X29684451Y-202867673D01*
X29606578Y-202828406D01*
X29586663Y-202812275D01*
X29516888Y-202751013D01*
X29439444Y-202785935D01*
X29392090Y-202812301D01*
X29364706Y-202837249D01*
X29362000Y-202844709D01*
X29377365Y-202876272D01*
X29417095Y-202919399D01*
X29471639Y-202966241D01*
X29531448Y-203008947D01*
X29586973Y-203039670D01*
X29609070Y-203047792D01*
X29748419Y-203068493D01*
X29880352Y-203050937D01*
X29963723Y-203018395D01*
X30067214Y-202946141D01*
X30142881Y-202848191D01*
X30188536Y-202728345D01*
X30202154Y-202604694D01*
X30185124Y-202473486D01*
X30136905Y-202354228D01*
X30061800Y-202254078D01*
X29964117Y-202180196D01*
X29939475Y-202167928D01*
X29835087Y-202137553D01*
X29722242Y-202133017D01*
X29610240Y-202151947D01*
G36*
X26881189Y-201733741D02*
G01*
X26816567Y-201741437D01*
X26758500Y-201759197D01*
X26699562Y-201785884D01*
X26584604Y-201861996D01*
X26492347Y-201966970D01*
X26422002Y-202102151D01*
X26372779Y-202268883D01*
X26354570Y-202373464D01*
X26338268Y-202527178D01*
X26336482Y-202663482D01*
X26349484Y-202801356D01*
X26361779Y-202877732D01*
X26406600Y-203051964D01*
X26473289Y-203198191D01*
X26560509Y-203314342D01*
X26666924Y-203398346D01*
X26712792Y-203421706D01*
X26805941Y-203450276D01*
X26918276Y-203466619D01*
X27031329Y-203468967D01*
X27109283Y-203459705D01*
X27184600Y-203439781D01*
X27246195Y-203411095D01*
X27309094Y-203365485D01*
X27352785Y-203327434D01*
X27442941Y-203222255D01*
X27510807Y-203089080D01*
X27521390Y-203051694D01*
X27115077Y-203051694D01*
X27098366Y-203098731D01*
X27054685Y-203130658D01*
X26993708Y-203145931D01*
X26925111Y-203143004D01*
X26858571Y-203120334D01*
X26825245Y-203097962D01*
X26783099Y-203048793D01*
X26745795Y-202982909D01*
X26735151Y-202956308D01*
X26715890Y-202877223D01*
X26701250Y-202773359D01*
X26692197Y-202658843D01*
X26689697Y-202547802D01*
X26694716Y-202454362D01*
X26698892Y-202425889D01*
X26715027Y-202339702D01*
X26915052Y-202683738D01*
X26975656Y-202789104D01*
X27028881Y-202883798D01*
X27071760Y-202962368D01*
X27101331Y-203019360D01*
X27114629Y-203049321D01*
X27115077Y-203051694D01*
X27521390Y-203051694D01*
X27556836Y-202926483D01*
X27581480Y-202733041D01*
X27584805Y-202634984D01*
X27238146Y-202634984D01*
X27236185Y-202695716D01*
X27234167Y-202741666D01*
X27231418Y-202774212D01*
X27225578Y-202790645D01*
X27214288Y-202788254D01*
X27195189Y-202764330D01*
X27165921Y-202716164D01*
X27124124Y-202641045D01*
X27067438Y-202536263D01*
X27018921Y-202446196D01*
X26959859Y-202335619D01*
X26917835Y-202253656D01*
X26890655Y-202194906D01*
X26876125Y-202153967D01*
X26872053Y-202125434D01*
X26876246Y-202103908D01*
X26878145Y-202099389D01*
X26914080Y-202063197D01*
X26972173Y-202052645D01*
X27044564Y-202068352D01*
X27078683Y-202083617D01*
X27135785Y-202134136D01*
X27181276Y-202218397D01*
X27214163Y-202332535D01*
X27233451Y-202472686D01*
X27238146Y-202634984D01*
X27584805Y-202634984D01*
X27586238Y-202592731D01*
X27575312Y-202379678D01*
X27540721Y-202197138D01*
X27482214Y-202044339D01*
X27399538Y-201920506D01*
X27351492Y-201871396D01*
X27266009Y-201804584D01*
X27179519Y-201762242D01*
X27079434Y-201739819D01*
X26968539Y-201732925D01*
X26881189Y-201733741D01*
G37*
X26881189Y-201733741D02*
X26816567Y-201741437D01*
X26758500Y-201759197D01*
X26699562Y-201785884D01*
X26584604Y-201861996D01*
X26492347Y-201966970D01*
X26422002Y-202102151D01*
X26372779Y-202268883D01*
X26354570Y-202373464D01*
X26338268Y-202527178D01*
X26336482Y-202663482D01*
X26349484Y-202801356D01*
X26361779Y-202877732D01*
X26406600Y-203051964D01*
X26473289Y-203198191D01*
X26560509Y-203314342D01*
X26666924Y-203398346D01*
X26712792Y-203421706D01*
X26805941Y-203450276D01*
X26918276Y-203466619D01*
X27031329Y-203468967D01*
X27109283Y-203459705D01*
X27184600Y-203439781D01*
X27246195Y-203411095D01*
X27309094Y-203365485D01*
X27352785Y-203327434D01*
X27442941Y-203222255D01*
X27510807Y-203089080D01*
X27521390Y-203051694D01*
X27115077Y-203051694D01*
X27098366Y-203098731D01*
X27054685Y-203130658D01*
X26993708Y-203145931D01*
X26925111Y-203143004D01*
X26858571Y-203120334D01*
X26825245Y-203097962D01*
X26783099Y-203048793D01*
X26745795Y-202982909D01*
X26735151Y-202956308D01*
X26715890Y-202877223D01*
X26701250Y-202773359D01*
X26692197Y-202658843D01*
X26689697Y-202547802D01*
X26694716Y-202454362D01*
X26698892Y-202425889D01*
X26715027Y-202339702D01*
X26915052Y-202683738D01*
X26975656Y-202789104D01*
X27028881Y-202883798D01*
X27071760Y-202962368D01*
X27101331Y-203019360D01*
X27114629Y-203049321D01*
X27115077Y-203051694D01*
X27521390Y-203051694D01*
X27556836Y-202926483D01*
X27581480Y-202733041D01*
X27584805Y-202634984D01*
X27238146Y-202634984D01*
X27236185Y-202695716D01*
X27234167Y-202741666D01*
X27231418Y-202774212D01*
X27225578Y-202790645D01*
X27214288Y-202788254D01*
X27195189Y-202764330D01*
X27165921Y-202716164D01*
X27124124Y-202641045D01*
X27067438Y-202536263D01*
X27018921Y-202446196D01*
X26959859Y-202335619D01*
X26917835Y-202253656D01*
X26890655Y-202194906D01*
X26876125Y-202153967D01*
X26872053Y-202125434D01*
X26876246Y-202103908D01*
X26878145Y-202099389D01*
X26914080Y-202063197D01*
X26972173Y-202052645D01*
X27044564Y-202068352D01*
X27078683Y-202083617D01*
X27135785Y-202134136D01*
X27181276Y-202218397D01*
X27214163Y-202332535D01*
X27233451Y-202472686D01*
X27238146Y-202634984D01*
X27584805Y-202634984D01*
X27586238Y-202592731D01*
X27575312Y-202379678D01*
X27540721Y-202197138D01*
X27482214Y-202044339D01*
X27399538Y-201920506D01*
X27351492Y-201871396D01*
X27266009Y-201804584D01*
X27179519Y-201762242D01*
X27079434Y-201739819D01*
X26968539Y-201732925D01*
X26881189Y-201733741D01*
M02*
