G04 #@! TF.GenerationSoftware,KiCad,Pcbnew,6.0.2-378541a8eb~116~ubuntu20.04.1*
G04 #@! TF.CreationDate,2022-03-12T15:32:27-05:00*
G04 #@! TF.ProjectId,irinput_panel,6972696e-7075-4745-9f70-616e656c2e6b,rev?*
G04 #@! TF.SameCoordinates,Original*
G04 #@! TF.FileFunction,Copper,L2,Bot*
G04 #@! TF.FilePolarity,Positive*
%FSLAX46Y46*%
G04 Gerber Fmt 4.6, Leading zero omitted, Abs format (unit mm)*
G04 Created by KiCad (PCBNEW 6.0.2-378541a8eb~116~ubuntu20.04.1) date 2022-03-12 15:32:27*
%MOMM*%
%LPD*%
G01*
G04 APERTURE LIST*
G04 #@! TA.AperFunction,ComponentPad*
%ADD10C,9.000000*%
G04 #@! TD*
G04 #@! TA.AperFunction,ComponentPad*
%ADD11C,14.000000*%
G04 #@! TD*
G04 #@! TA.AperFunction,ComponentPad*
%ADD12C,5.500000*%
G04 #@! TD*
G04 #@! TA.AperFunction,ComponentPad*
%ADD13O,6.800000X4.000000*%
G04 #@! TD*
G04 APERTURE END LIST*
D10*
G04 #@! TO.P,H7,1*
G04 #@! TO.N,GND*
X16100000Y-112600000D03*
G04 #@! TD*
G04 #@! TO.P,H4,1*
G04 #@! TO.N,GND*
X16100000Y-152600000D03*
G04 #@! TD*
D11*
G04 #@! TO.P,H1,1*
G04 #@! TO.N,GND*
X16100000Y-182600000D03*
G04 #@! TD*
D12*
G04 #@! TO.P,H8,1*
G04 #@! TO.N,N/C*
X28600000Y-27600000D03*
G04 #@! TD*
D11*
G04 #@! TO.P,H2,1*
G04 #@! TO.N,GND*
X41100000Y-182600000D03*
G04 #@! TD*
D10*
G04 #@! TO.P,H3,1*
G04 #@! TO.N,GND*
X16100000Y-47600000D03*
G04 #@! TD*
G04 #@! TO.P,H5,1*
G04 #@! TO.N,GND*
X16100000Y-72600000D03*
G04 #@! TD*
D12*
G04 #@! TO.P,H9,1*
G04 #@! TO.N,N/C*
X28600000Y-187600000D03*
G04 #@! TD*
D10*
G04 #@! TO.P,H12,1*
G04 #@! TO.N,GND*
X41100000Y-47600000D03*
G04 #@! TD*
D13*
G04 #@! TO.P,H14,1*
G04 #@! TO.N,GND*
X8000000Y-204600000D03*
X8000000Y-10600000D03*
G04 #@! TD*
D10*
G04 #@! TO.P,H6,1*
G04 #@! TO.N,GND*
X41100000Y-112600000D03*
G04 #@! TD*
D12*
G04 #@! TO.P,H10,1*
G04 #@! TO.N,N/C*
X28600000Y-177600000D03*
G04 #@! TD*
G04 #@! TO.P,H11,1*
G04 #@! TO.N,N/C*
X41100000Y-72600000D03*
G04 #@! TD*
D13*
G04 #@! TO.P,H13,1*
G04 #@! TO.N,GND*
X49200000Y-204600000D03*
X49200000Y-10600000D03*
G04 #@! TD*
G04 #@! TA.AperFunction,Conductor*
G04 #@! TO.N,GND*
G36*
X46709823Y-8128002D02*
G01*
X46756316Y-8181658D01*
X46766420Y-8251932D01*
X46736926Y-8316512D01*
X46695350Y-8348008D01*
X46592959Y-8396189D01*
X46586026Y-8400001D01*
X46326271Y-8564847D01*
X46319868Y-8569498D01*
X46082813Y-8765607D01*
X46077046Y-8771023D01*
X45866443Y-8995293D01*
X45861404Y-9001384D01*
X45680570Y-9250281D01*
X45676330Y-9256961D01*
X45528110Y-9526572D01*
X45524753Y-9533707D01*
X45411492Y-9819770D01*
X45409047Y-9827296D01*
X45332538Y-10125279D01*
X45331055Y-10133050D01*
X45306425Y-10328026D01*
X45308728Y-10342306D01*
X45321720Y-10346000D01*
X49328000Y-10346000D01*
X49396121Y-10366002D01*
X49442614Y-10419658D01*
X49454000Y-10472000D01*
X49454000Y-13089885D01*
X49458475Y-13105124D01*
X49459865Y-13106329D01*
X49467548Y-13108000D01*
X50676829Y-13108000D01*
X50680820Y-13107874D01*
X50910994Y-13093393D01*
X50918855Y-13092400D01*
X51221046Y-13034754D01*
X51228723Y-13032783D01*
X51521309Y-12937716D01*
X51528672Y-12934801D01*
X51807041Y-12803811D01*
X51813974Y-12799999D01*
X52073729Y-12635153D01*
X52080132Y-12630502D01*
X52317187Y-12434393D01*
X52322954Y-12428977D01*
X52533557Y-12204707D01*
X52538596Y-12198616D01*
X52719430Y-11949719D01*
X52723670Y-11943039D01*
X52855585Y-11703086D01*
X52905931Y-11653027D01*
X52975348Y-11638134D01*
X53041797Y-11663135D01*
X53084181Y-11720092D01*
X53092000Y-11763787D01*
X53092000Y-203436213D01*
X53071998Y-203504334D01*
X53018342Y-203550827D01*
X52948068Y-203560931D01*
X52883488Y-203531437D01*
X52855585Y-203496914D01*
X52723670Y-203256961D01*
X52719430Y-203250281D01*
X52538596Y-203001384D01*
X52533557Y-202995293D01*
X52322954Y-202771023D01*
X52317187Y-202765607D01*
X52080132Y-202569498D01*
X52073729Y-202564847D01*
X51813974Y-202400001D01*
X51807041Y-202396189D01*
X51528672Y-202265199D01*
X51521309Y-202262284D01*
X51228723Y-202167217D01*
X51221046Y-202165246D01*
X50918855Y-202107600D01*
X50910994Y-202106607D01*
X50680820Y-202092126D01*
X50676829Y-202092000D01*
X49472115Y-202092000D01*
X49456876Y-202096475D01*
X49455671Y-202097865D01*
X49454000Y-202105548D01*
X49454000Y-204728000D01*
X49433998Y-204796121D01*
X49380342Y-204842614D01*
X49328000Y-204854000D01*
X45322269Y-204854000D01*
X45308392Y-204858075D01*
X45306355Y-204871426D01*
X45331055Y-205066950D01*
X45332538Y-205074721D01*
X45409047Y-205372704D01*
X45411492Y-205380230D01*
X45524753Y-205666293D01*
X45528110Y-205673428D01*
X45676330Y-205943039D01*
X45680570Y-205949719D01*
X45861404Y-206198616D01*
X45866443Y-206204707D01*
X46077046Y-206428977D01*
X46082813Y-206434393D01*
X46319868Y-206630502D01*
X46326271Y-206635153D01*
X46586026Y-206799999D01*
X46592959Y-206803811D01*
X46695350Y-206851992D01*
X46748471Y-206899095D01*
X46767694Y-206967439D01*
X46746915Y-207035327D01*
X46692732Y-207081204D01*
X46641702Y-207092000D01*
X10558298Y-207092000D01*
X10490177Y-207071998D01*
X10443684Y-207018342D01*
X10433580Y-206948068D01*
X10463074Y-206883488D01*
X10504650Y-206851992D01*
X10607041Y-206803811D01*
X10613974Y-206799999D01*
X10873729Y-206635153D01*
X10880132Y-206630502D01*
X11117187Y-206434393D01*
X11122954Y-206428977D01*
X11333557Y-206204707D01*
X11338596Y-206198616D01*
X11519430Y-205949719D01*
X11523670Y-205943039D01*
X11671890Y-205673428D01*
X11675247Y-205666293D01*
X11788508Y-205380230D01*
X11790953Y-205372704D01*
X11867462Y-205074721D01*
X11868945Y-205066950D01*
X11893575Y-204871974D01*
X11891272Y-204857694D01*
X11878280Y-204854000D01*
X7872000Y-204854000D01*
X7803879Y-204833998D01*
X7757386Y-204780342D01*
X7746000Y-204728000D01*
X7746000Y-204327885D01*
X8254000Y-204327885D01*
X8258475Y-204343124D01*
X8259865Y-204344329D01*
X8267548Y-204346000D01*
X11877731Y-204346000D01*
X11891608Y-204341925D01*
X11893645Y-204328574D01*
X11893576Y-204328026D01*
X45306425Y-204328026D01*
X45308728Y-204342306D01*
X45321720Y-204346000D01*
X48927885Y-204346000D01*
X48943124Y-204341525D01*
X48944329Y-204340135D01*
X48946000Y-204332452D01*
X48946000Y-202110115D01*
X48941525Y-202094876D01*
X48940135Y-202093671D01*
X48932452Y-202092000D01*
X47723171Y-202092000D01*
X47719180Y-202092126D01*
X47489006Y-202106607D01*
X47481145Y-202107600D01*
X47178954Y-202165246D01*
X47171277Y-202167217D01*
X46878691Y-202262284D01*
X46871328Y-202265199D01*
X46592959Y-202396189D01*
X46586026Y-202400001D01*
X46326271Y-202564847D01*
X46319868Y-202569498D01*
X46082813Y-202765607D01*
X46077046Y-202771023D01*
X45866443Y-202995293D01*
X45861404Y-203001384D01*
X45680570Y-203250281D01*
X45676330Y-203256961D01*
X45528110Y-203526572D01*
X45524753Y-203533707D01*
X45411492Y-203819770D01*
X45409047Y-203827296D01*
X45332538Y-204125279D01*
X45331055Y-204133050D01*
X45306425Y-204328026D01*
X11893576Y-204328026D01*
X11868945Y-204133050D01*
X11867462Y-204125279D01*
X11790953Y-203827296D01*
X11788508Y-203819770D01*
X11675247Y-203533707D01*
X11671890Y-203526572D01*
X11523670Y-203256961D01*
X11519430Y-203250281D01*
X11338596Y-203001384D01*
X11333557Y-202995293D01*
X11122954Y-202771023D01*
X11117187Y-202765607D01*
X10880132Y-202569498D01*
X10873729Y-202564847D01*
X10613974Y-202400001D01*
X10607041Y-202396189D01*
X10328672Y-202265199D01*
X10321309Y-202262284D01*
X10028723Y-202167217D01*
X10021046Y-202165246D01*
X9718855Y-202107600D01*
X9710994Y-202106607D01*
X9480820Y-202092126D01*
X9476829Y-202092000D01*
X8272115Y-202092000D01*
X8256876Y-202096475D01*
X8255671Y-202097865D01*
X8254000Y-202105548D01*
X8254000Y-204327885D01*
X7746000Y-204327885D01*
X7746000Y-202110115D01*
X7741525Y-202094876D01*
X7740135Y-202093671D01*
X7732452Y-202092000D01*
X6523171Y-202092000D01*
X6519180Y-202092126D01*
X6289006Y-202106607D01*
X6281145Y-202107600D01*
X5978954Y-202165246D01*
X5971277Y-202167217D01*
X5678691Y-202262284D01*
X5671328Y-202265199D01*
X5392959Y-202396189D01*
X5386026Y-202400001D01*
X5126271Y-202564847D01*
X5119868Y-202569498D01*
X4882813Y-202765607D01*
X4877046Y-202771023D01*
X4666443Y-202995293D01*
X4661404Y-203001384D01*
X4480570Y-203250281D01*
X4476330Y-203256961D01*
X4344415Y-203496914D01*
X4294069Y-203546973D01*
X4224652Y-203561866D01*
X4158203Y-203536865D01*
X4115819Y-203479908D01*
X4108000Y-203436213D01*
X4108000Y-188087102D01*
X10978438Y-188087102D01*
X10978462Y-188087441D01*
X10984285Y-188096073D01*
X11228991Y-188319913D01*
X11232445Y-188322852D01*
X11650430Y-188653550D01*
X11654067Y-188656222D01*
X12094618Y-188956182D01*
X12098446Y-188958593D01*
X12559337Y-189226300D01*
X12563309Y-189228421D01*
X13042148Y-189462483D01*
X13046284Y-189464325D01*
X13540627Y-189663551D01*
X13544871Y-189665087D01*
X14052218Y-189828467D01*
X14056539Y-189829689D01*
X14574254Y-189956374D01*
X14578695Y-189957294D01*
X15104141Y-190046637D01*
X15108595Y-190047232D01*
X15639106Y-190098782D01*
X15643579Y-190099056D01*
X16176427Y-190112543D01*
X16180930Y-190112496D01*
X16713352Y-190087853D01*
X16717836Y-190087485D01*
X17247152Y-190024836D01*
X17251591Y-190024149D01*
X17775087Y-189923814D01*
X17779446Y-189922815D01*
X18294414Y-189785311D01*
X18298727Y-189783992D01*
X18802525Y-189610028D01*
X18806740Y-189608402D01*
X19296805Y-189398866D01*
X19300892Y-189396943D01*
X19774731Y-189152900D01*
X19778658Y-189150696D01*
X20233828Y-188873404D01*
X20237624Y-188870901D01*
X20671786Y-188561788D01*
X20675372Y-188559036D01*
X21086362Y-188219640D01*
X21089705Y-188216672D01*
X21213630Y-188098453D01*
X21221568Y-188084695D01*
X21221518Y-188083649D01*
X21216625Y-188075835D01*
X16112812Y-182972022D01*
X16098868Y-182964408D01*
X16097035Y-182964539D01*
X16090420Y-182968790D01*
X10986052Y-188073158D01*
X10978438Y-188087102D01*
X4108000Y-188087102D01*
X4108000Y-182650201D01*
X8587236Y-182650201D01*
X8587267Y-182654699D01*
X8610052Y-183187215D01*
X8610404Y-183191696D01*
X8671206Y-183721240D01*
X8671874Y-183725659D01*
X8770381Y-184249497D01*
X8771370Y-184253884D01*
X8907070Y-184769308D01*
X8908381Y-184773648D01*
X9080581Y-185278039D01*
X9082188Y-185282249D01*
X9290028Y-185773079D01*
X9291917Y-185777129D01*
X9534314Y-186251836D01*
X9536507Y-186255776D01*
X9812217Y-186711925D01*
X9814678Y-186715685D01*
X10122290Y-187150947D01*
X10125036Y-187154552D01*
X10462987Y-187566712D01*
X10465944Y-187570066D01*
X10601751Y-187713428D01*
X10615482Y-187721415D01*
X10616410Y-187721374D01*
X10624399Y-187716391D01*
X15727978Y-182612812D01*
X15734356Y-182601132D01*
X16464408Y-182601132D01*
X16464539Y-182602965D01*
X16468790Y-182609580D01*
X21573389Y-187714179D01*
X21587333Y-187721793D01*
X21587556Y-187721778D01*
X21596338Y-187715831D01*
X21711898Y-187588609D01*
X25336734Y-187588609D01*
X25354591Y-187941106D01*
X25355128Y-187944461D01*
X25355129Y-187944467D01*
X25393957Y-188186878D01*
X25410412Y-188289613D01*
X25503546Y-188630053D01*
X25632903Y-188958443D01*
X25634486Y-188961458D01*
X25795384Y-189267926D01*
X25795389Y-189267934D01*
X25796968Y-189270942D01*
X25798862Y-189273760D01*
X25798867Y-189273769D01*
X25818518Y-189303012D01*
X25993824Y-189563895D01*
X26221167Y-189833873D01*
X26223627Y-189836224D01*
X26223630Y-189836227D01*
X26473875Y-190075366D01*
X26473882Y-190075372D01*
X26476338Y-190077719D01*
X26756351Y-190292581D01*
X26759269Y-190294355D01*
X27055017Y-190474173D01*
X27055022Y-190474176D01*
X27057932Y-190475945D01*
X27061020Y-190477391D01*
X27061019Y-190477391D01*
X27374468Y-190624222D01*
X27374478Y-190624226D01*
X27377552Y-190625666D01*
X27380770Y-190626768D01*
X27380773Y-190626769D01*
X27708241Y-190738887D01*
X27708245Y-190738888D01*
X27711472Y-190739993D01*
X27714802Y-190740743D01*
X27714811Y-190740746D01*
X27958164Y-190795587D01*
X28055786Y-190817587D01*
X28059171Y-190817973D01*
X28059179Y-190817974D01*
X28403083Y-190857157D01*
X28403091Y-190857157D01*
X28406466Y-190857542D01*
X28409870Y-190857560D01*
X28409873Y-190857560D01*
X28601627Y-190858564D01*
X28759411Y-190859390D01*
X28762797Y-190859040D01*
X28762799Y-190859040D01*
X29107098Y-190823461D01*
X29107107Y-190823460D01*
X29110490Y-190823110D01*
X29113823Y-190822396D01*
X29113826Y-190822395D01*
X29283692Y-190785979D01*
X29455598Y-190749125D01*
X29790697Y-190638301D01*
X30111867Y-190491936D01*
X30205405Y-190436397D01*
X30412407Y-190313489D01*
X30412412Y-190313486D01*
X30415352Y-190311740D01*
X30440870Y-190292581D01*
X30694867Y-190101874D01*
X30697600Y-190099822D01*
X30955310Y-189858661D01*
X31185468Y-189591078D01*
X31385380Y-189300203D01*
X31386992Y-189297209D01*
X31386997Y-189297201D01*
X31551087Y-188992452D01*
X31552709Y-188989440D01*
X31685498Y-188662422D01*
X31693816Y-188633223D01*
X31781257Y-188326254D01*
X31782191Y-188322976D01*
X31822510Y-188087102D01*
X35978438Y-188087102D01*
X35978462Y-188087441D01*
X35984285Y-188096073D01*
X36228991Y-188319913D01*
X36232445Y-188322852D01*
X36650430Y-188653550D01*
X36654067Y-188656222D01*
X37094618Y-188956182D01*
X37098446Y-188958593D01*
X37559337Y-189226300D01*
X37563309Y-189228421D01*
X38042148Y-189462483D01*
X38046284Y-189464325D01*
X38540627Y-189663551D01*
X38544871Y-189665087D01*
X39052218Y-189828467D01*
X39056539Y-189829689D01*
X39574254Y-189956374D01*
X39578695Y-189957294D01*
X40104141Y-190046637D01*
X40108595Y-190047232D01*
X40639106Y-190098782D01*
X40643579Y-190099056D01*
X41176427Y-190112543D01*
X41180930Y-190112496D01*
X41713352Y-190087853D01*
X41717836Y-190087485D01*
X42247152Y-190024836D01*
X42251591Y-190024149D01*
X42775087Y-189923814D01*
X42779446Y-189922815D01*
X43294414Y-189785311D01*
X43298727Y-189783992D01*
X43802525Y-189610028D01*
X43806740Y-189608402D01*
X44296805Y-189398866D01*
X44300892Y-189396943D01*
X44774731Y-189152900D01*
X44778658Y-189150696D01*
X45233828Y-188873404D01*
X45237624Y-188870901D01*
X45671786Y-188561788D01*
X45675372Y-188559036D01*
X46086362Y-188219640D01*
X46089705Y-188216672D01*
X46213630Y-188098453D01*
X46221568Y-188084695D01*
X46221518Y-188083649D01*
X46216625Y-188075835D01*
X41112812Y-182972022D01*
X41098868Y-182964408D01*
X41097035Y-182964539D01*
X41090420Y-182968790D01*
X35986052Y-188073158D01*
X35978438Y-188087102D01*
X31822510Y-188087102D01*
X31823100Y-188083649D01*
X31841087Y-187978420D01*
X31841087Y-187978418D01*
X31841659Y-187975073D01*
X31843945Y-187937711D01*
X31863096Y-187624580D01*
X31863206Y-187622782D01*
X31863286Y-187600000D01*
X31844199Y-187247567D01*
X31787161Y-186899257D01*
X31692839Y-186559145D01*
X31689849Y-186551630D01*
X31563597Y-186234372D01*
X31562338Y-186231208D01*
X31397182Y-185919283D01*
X31390579Y-185909530D01*
X31201211Y-185629834D01*
X31201204Y-185629825D01*
X31199305Y-185627020D01*
X31197109Y-185624430D01*
X31197104Y-185624424D01*
X31108715Y-185520201D01*
X30971021Y-185357837D01*
X30715001Y-185114883D01*
X30712294Y-185112821D01*
X30712286Y-185112814D01*
X30553809Y-184992088D01*
X30434239Y-184901000D01*
X30132020Y-184718689D01*
X30128930Y-184717255D01*
X30128925Y-184717252D01*
X29924903Y-184622549D01*
X29811879Y-184570085D01*
X29808654Y-184568993D01*
X29808648Y-184568991D01*
X29480798Y-184458020D01*
X29480793Y-184458018D01*
X29477562Y-184456925D01*
X29463832Y-184453881D01*
X29394730Y-184438562D01*
X29132979Y-184380533D01*
X29008353Y-184366774D01*
X28785543Y-184342175D01*
X28785538Y-184342175D01*
X28782162Y-184341802D01*
X28778763Y-184341796D01*
X28778762Y-184341796D01*
X28612289Y-184341506D01*
X28429213Y-184341186D01*
X28298206Y-184355187D01*
X28081646Y-184378330D01*
X28081640Y-184378331D01*
X28078262Y-184378692D01*
X27733414Y-184453881D01*
X27398704Y-184565873D01*
X27078047Y-184713359D01*
X26775194Y-184894613D01*
X26493687Y-185107515D01*
X26236820Y-185349574D01*
X26007598Y-185617959D01*
X25808702Y-185909530D01*
X25642458Y-186220876D01*
X25641183Y-186224048D01*
X25641181Y-186224052D01*
X25637033Y-186234372D01*
X25510813Y-186548355D01*
X25509894Y-186551623D01*
X25509892Y-186551630D01*
X25464835Y-186711925D01*
X25415304Y-186888136D01*
X25414743Y-186891489D01*
X25414742Y-186891493D01*
X25357614Y-187232880D01*
X25357051Y-187236245D01*
X25336734Y-187588609D01*
X21711898Y-187588609D01*
X21836905Y-187450987D01*
X21839793Y-187447570D01*
X22169044Y-187028414D01*
X22171701Y-187024771D01*
X22470130Y-186583164D01*
X22472526Y-186579329D01*
X22738617Y-186117514D01*
X22740726Y-186113531D01*
X22973116Y-185633878D01*
X22974941Y-185629741D01*
X23172446Y-185134690D01*
X23173961Y-185130460D01*
X23335567Y-184622549D01*
X23336781Y-184618202D01*
X23461661Y-184100034D01*
X23462555Y-184095638D01*
X23550064Y-183569885D01*
X23550649Y-183565380D01*
X23600363Y-183034517D01*
X23600613Y-183030439D01*
X23611566Y-182650201D01*
X33587236Y-182650201D01*
X33587267Y-182654699D01*
X33610052Y-183187215D01*
X33610404Y-183191696D01*
X33671206Y-183721240D01*
X33671874Y-183725659D01*
X33770381Y-184249497D01*
X33771370Y-184253884D01*
X33907070Y-184769308D01*
X33908381Y-184773648D01*
X34080581Y-185278039D01*
X34082188Y-185282249D01*
X34290028Y-185773079D01*
X34291917Y-185777129D01*
X34534314Y-186251836D01*
X34536507Y-186255776D01*
X34812217Y-186711925D01*
X34814678Y-186715685D01*
X35122290Y-187150947D01*
X35125036Y-187154552D01*
X35462987Y-187566712D01*
X35465944Y-187570066D01*
X35601751Y-187713428D01*
X35615482Y-187721415D01*
X35616410Y-187721374D01*
X35624399Y-187716391D01*
X40727978Y-182612812D01*
X40734356Y-182601132D01*
X41464408Y-182601132D01*
X41464539Y-182602965D01*
X41468790Y-182609580D01*
X46573389Y-187714179D01*
X46587333Y-187721793D01*
X46587556Y-187721778D01*
X46596338Y-187715831D01*
X46836905Y-187450987D01*
X46839793Y-187447570D01*
X47169044Y-187028414D01*
X47171701Y-187024771D01*
X47470130Y-186583164D01*
X47472526Y-186579329D01*
X47738617Y-186117514D01*
X47740726Y-186113531D01*
X47973116Y-185633878D01*
X47974941Y-185629741D01*
X48172446Y-185134690D01*
X48173961Y-185130460D01*
X48335567Y-184622549D01*
X48336781Y-184618202D01*
X48461661Y-184100034D01*
X48462555Y-184095638D01*
X48550064Y-183569885D01*
X48550649Y-183565380D01*
X48600363Y-183034517D01*
X48600613Y-183030439D01*
X48612954Y-182602024D01*
X48612939Y-182597967D01*
X48593866Y-182065096D01*
X48593544Y-182060601D01*
X48536442Y-181530662D01*
X48535800Y-181526211D01*
X48440955Y-181001710D01*
X48439999Y-180997327D01*
X48307892Y-180480933D01*
X48306630Y-180476645D01*
X48137938Y-179971015D01*
X48136370Y-179966818D01*
X47931966Y-179474558D01*
X47930088Y-179470456D01*
X47691023Y-178994094D01*
X47688855Y-178990133D01*
X47416347Y-178532090D01*
X47413891Y-178528279D01*
X47109331Y-178090890D01*
X47106624Y-178087284D01*
X46771552Y-177672765D01*
X46768609Y-177669380D01*
X46598034Y-177486780D01*
X46584361Y-177478698D01*
X46583667Y-177478724D01*
X46575320Y-177483890D01*
X41472022Y-182587188D01*
X41464408Y-182601132D01*
X40734356Y-182601132D01*
X40735592Y-182598868D01*
X40735461Y-182597035D01*
X40731210Y-182590420D01*
X35627007Y-177486217D01*
X35613063Y-177478603D01*
X35612606Y-177478635D01*
X35604130Y-177484332D01*
X35397104Y-177709077D01*
X35394190Y-177712477D01*
X35062015Y-178129331D01*
X35059344Y-178132941D01*
X34757831Y-178572465D01*
X34755409Y-178576283D01*
X34486107Y-179036216D01*
X34483964Y-179040196D01*
X34248233Y-179518211D01*
X34246376Y-179522343D01*
X34045427Y-180015984D01*
X34043874Y-180020230D01*
X33878729Y-180526984D01*
X33877484Y-180531326D01*
X33748991Y-181048608D01*
X33748067Y-181052991D01*
X33656885Y-181578152D01*
X33656274Y-181582609D01*
X33602873Y-182112930D01*
X33602583Y-182117413D01*
X33587236Y-182650201D01*
X23611566Y-182650201D01*
X23612954Y-182602024D01*
X23612939Y-182597967D01*
X23593866Y-182065096D01*
X23593544Y-182060601D01*
X23536442Y-181530662D01*
X23535800Y-181526211D01*
X23440955Y-181001710D01*
X23439999Y-180997327D01*
X23307892Y-180480933D01*
X23306630Y-180476645D01*
X23137938Y-179971015D01*
X23136370Y-179966818D01*
X22931966Y-179474558D01*
X22930088Y-179470456D01*
X22691023Y-178994094D01*
X22688855Y-178990133D01*
X22416347Y-178532090D01*
X22413891Y-178528279D01*
X22109331Y-178090890D01*
X22106624Y-178087284D01*
X21771552Y-177672765D01*
X21768609Y-177669380D01*
X21693157Y-177588609D01*
X25336734Y-177588609D01*
X25354591Y-177941106D01*
X25355128Y-177944461D01*
X25355129Y-177944467D01*
X25393957Y-178186878D01*
X25410412Y-178289613D01*
X25503546Y-178630053D01*
X25632903Y-178958443D01*
X25634486Y-178961458D01*
X25795384Y-179267926D01*
X25795389Y-179267934D01*
X25796968Y-179270942D01*
X25798862Y-179273760D01*
X25798867Y-179273769D01*
X25933792Y-179474558D01*
X25993824Y-179563895D01*
X26221167Y-179833873D01*
X26223627Y-179836224D01*
X26223630Y-179836227D01*
X26473875Y-180075366D01*
X26473882Y-180075372D01*
X26476338Y-180077719D01*
X26756351Y-180292581D01*
X26759269Y-180294355D01*
X27055017Y-180474173D01*
X27055022Y-180474176D01*
X27057932Y-180475945D01*
X27061020Y-180477391D01*
X27061019Y-180477391D01*
X27374468Y-180624222D01*
X27374478Y-180624226D01*
X27377552Y-180625666D01*
X27380770Y-180626768D01*
X27380773Y-180626769D01*
X27708241Y-180738887D01*
X27708245Y-180738888D01*
X27711472Y-180739993D01*
X27714802Y-180740743D01*
X27714811Y-180740746D01*
X27958164Y-180795587D01*
X28055786Y-180817587D01*
X28059171Y-180817973D01*
X28059179Y-180817974D01*
X28403083Y-180857157D01*
X28403091Y-180857157D01*
X28406466Y-180857542D01*
X28409870Y-180857560D01*
X28409873Y-180857560D01*
X28601627Y-180858564D01*
X28759411Y-180859390D01*
X28762797Y-180859040D01*
X28762799Y-180859040D01*
X29107098Y-180823461D01*
X29107107Y-180823460D01*
X29110490Y-180823110D01*
X29113823Y-180822396D01*
X29113826Y-180822395D01*
X29283692Y-180785979D01*
X29455598Y-180749125D01*
X29790697Y-180638301D01*
X30111867Y-180491936D01*
X30205405Y-180436397D01*
X30412407Y-180313489D01*
X30412412Y-180313486D01*
X30415352Y-180311740D01*
X30440870Y-180292581D01*
X30694867Y-180101874D01*
X30697600Y-180099822D01*
X30955310Y-179858661D01*
X31185468Y-179591078D01*
X31385380Y-179300203D01*
X31386992Y-179297209D01*
X31386997Y-179297201D01*
X31551087Y-178992452D01*
X31552709Y-178989440D01*
X31685498Y-178662422D01*
X31693816Y-178633223D01*
X31781257Y-178326254D01*
X31782191Y-178322976D01*
X31821862Y-178090890D01*
X31841087Y-177978420D01*
X31841087Y-177978418D01*
X31841659Y-177975073D01*
X31843945Y-177937711D01*
X31863096Y-177624580D01*
X31863206Y-177622782D01*
X31863286Y-177600000D01*
X31844199Y-177247567D01*
X31822587Y-177115591D01*
X35978674Y-177115591D01*
X35978707Y-177116404D01*
X35983783Y-177124573D01*
X41087188Y-182227978D01*
X41101132Y-182235592D01*
X41102965Y-182235461D01*
X41109580Y-182231210D01*
X46213682Y-177127108D01*
X46221296Y-177113164D01*
X46221255Y-177112590D01*
X46215684Y-177104268D01*
X46010818Y-176914228D01*
X46007387Y-176911267D01*
X45591729Y-176577666D01*
X45588115Y-176574972D01*
X45149654Y-176271933D01*
X45145835Y-176269490D01*
X44686846Y-175998585D01*
X44682877Y-175996430D01*
X44205679Y-175759028D01*
X44201575Y-175757166D01*
X43708610Y-175554483D01*
X43704395Y-175552924D01*
X43198199Y-175386006D01*
X43193883Y-175384752D01*
X42677042Y-175254451D01*
X42672665Y-175253513D01*
X42147822Y-175160496D01*
X42143365Y-175159870D01*
X41613241Y-175104620D01*
X41608747Y-175104313D01*
X41076027Y-175087107D01*
X41071530Y-175087122D01*
X40538927Y-175108048D01*
X40534451Y-175108384D01*
X40004713Y-175167336D01*
X40000261Y-175167994D01*
X39476106Y-175264667D01*
X39471701Y-175265643D01*
X38955801Y-175399545D01*
X38951490Y-175400830D01*
X38446471Y-175571278D01*
X38442259Y-175572870D01*
X37950723Y-175778988D01*
X37946647Y-175780871D01*
X37471109Y-176021605D01*
X37467158Y-176023786D01*
X37010063Y-176297893D01*
X37006267Y-176300358D01*
X36569930Y-176606452D01*
X36566347Y-176609162D01*
X36153007Y-176945674D01*
X36149617Y-176948642D01*
X35986708Y-177101891D01*
X35978674Y-177115591D01*
X31822587Y-177115591D01*
X31787161Y-176899257D01*
X31692839Y-176559145D01*
X31689849Y-176551630D01*
X31563597Y-176234372D01*
X31562338Y-176231208D01*
X31397182Y-175919283D01*
X31390579Y-175909530D01*
X31201211Y-175629834D01*
X31201204Y-175629825D01*
X31199305Y-175627020D01*
X31197109Y-175624430D01*
X31197104Y-175624424D01*
X31108715Y-175520201D01*
X30971021Y-175357837D01*
X30715001Y-175114883D01*
X30712294Y-175112821D01*
X30712286Y-175112814D01*
X30553809Y-174992088D01*
X30434239Y-174901000D01*
X30132020Y-174718689D01*
X30128930Y-174717255D01*
X30128925Y-174717252D01*
X29971950Y-174644387D01*
X29811879Y-174570085D01*
X29808654Y-174568993D01*
X29808648Y-174568991D01*
X29480798Y-174458020D01*
X29480793Y-174458018D01*
X29477562Y-174456925D01*
X29463832Y-174453881D01*
X29394730Y-174438562D01*
X29132979Y-174380533D01*
X29008353Y-174366774D01*
X28785543Y-174342175D01*
X28785538Y-174342175D01*
X28782162Y-174341802D01*
X28778763Y-174341796D01*
X28778762Y-174341796D01*
X28612289Y-174341506D01*
X28429213Y-174341186D01*
X28298206Y-174355187D01*
X28081646Y-174378330D01*
X28081640Y-174378331D01*
X28078262Y-174378692D01*
X27733414Y-174453881D01*
X27398704Y-174565873D01*
X27078047Y-174713359D01*
X26775194Y-174894613D01*
X26493687Y-175107515D01*
X26236820Y-175349574D01*
X26234608Y-175352164D01*
X26234607Y-175352165D01*
X26047467Y-175571278D01*
X26007598Y-175617959D01*
X25808702Y-175909530D01*
X25642458Y-176220876D01*
X25641183Y-176224048D01*
X25641181Y-176224052D01*
X25610507Y-176300358D01*
X25510813Y-176548355D01*
X25509894Y-176551623D01*
X25509892Y-176551630D01*
X25416225Y-176884858D01*
X25415304Y-176888136D01*
X25414743Y-176891489D01*
X25414742Y-176891493D01*
X25377241Y-177115591D01*
X25357051Y-177236245D01*
X25336734Y-177588609D01*
X21693157Y-177588609D01*
X21598034Y-177486780D01*
X21584361Y-177478698D01*
X21583667Y-177478724D01*
X21575320Y-177483890D01*
X16472022Y-182587188D01*
X16464408Y-182601132D01*
X15734356Y-182601132D01*
X15735592Y-182598868D01*
X15735461Y-182597035D01*
X15731210Y-182590420D01*
X10627007Y-177486217D01*
X10613063Y-177478603D01*
X10612606Y-177478635D01*
X10604130Y-177484332D01*
X10397104Y-177709077D01*
X10394190Y-177712477D01*
X10062015Y-178129331D01*
X10059344Y-178132941D01*
X9757831Y-178572465D01*
X9755409Y-178576283D01*
X9486107Y-179036216D01*
X9483964Y-179040196D01*
X9248233Y-179518211D01*
X9246376Y-179522343D01*
X9045427Y-180015984D01*
X9043874Y-180020230D01*
X8878729Y-180526984D01*
X8877484Y-180531326D01*
X8748991Y-181048608D01*
X8748067Y-181052991D01*
X8656885Y-181578152D01*
X8656274Y-181582609D01*
X8602873Y-182112930D01*
X8602583Y-182117413D01*
X8587236Y-182650201D01*
X4108000Y-182650201D01*
X4108000Y-177115591D01*
X10978674Y-177115591D01*
X10978707Y-177116404D01*
X10983783Y-177124573D01*
X16087188Y-182227978D01*
X16101132Y-182235592D01*
X16102965Y-182235461D01*
X16109580Y-182231210D01*
X21213682Y-177127108D01*
X21221296Y-177113164D01*
X21221255Y-177112590D01*
X21215684Y-177104268D01*
X21010818Y-176914228D01*
X21007387Y-176911267D01*
X20591729Y-176577666D01*
X20588115Y-176574972D01*
X20149654Y-176271933D01*
X20145835Y-176269490D01*
X19686846Y-175998585D01*
X19682877Y-175996430D01*
X19205679Y-175759028D01*
X19201575Y-175757166D01*
X18708610Y-175554483D01*
X18704395Y-175552924D01*
X18198199Y-175386006D01*
X18193883Y-175384752D01*
X17677042Y-175254451D01*
X17672665Y-175253513D01*
X17147822Y-175160496D01*
X17143365Y-175159870D01*
X16613241Y-175104620D01*
X16608747Y-175104313D01*
X16076027Y-175087107D01*
X16071530Y-175087122D01*
X15538927Y-175108048D01*
X15534451Y-175108384D01*
X15004713Y-175167336D01*
X15000261Y-175167994D01*
X14476106Y-175264667D01*
X14471701Y-175265643D01*
X13955801Y-175399545D01*
X13951490Y-175400830D01*
X13446471Y-175571278D01*
X13442259Y-175572870D01*
X12950723Y-175778988D01*
X12946647Y-175780871D01*
X12471109Y-176021605D01*
X12467158Y-176023786D01*
X12010063Y-176297893D01*
X12006267Y-176300358D01*
X11569930Y-176606452D01*
X11566347Y-176609162D01*
X11153007Y-176945674D01*
X11149617Y-176948642D01*
X10986708Y-177101891D01*
X10978674Y-177115591D01*
X4108000Y-177115591D01*
X4108000Y-156317924D01*
X12747616Y-156317924D01*
X12747665Y-156318616D01*
X12753111Y-156326781D01*
X12842226Y-156410027D01*
X12846503Y-156413681D01*
X13193829Y-156684553D01*
X13198386Y-156687792D01*
X13568432Y-156926727D01*
X13573261Y-156929549D01*
X13963048Y-157134626D01*
X13968150Y-157137027D01*
X14374633Y-157306647D01*
X14379888Y-157308570D01*
X14799860Y-157441389D01*
X14805259Y-157442836D01*
X15235375Y-157537796D01*
X15240886Y-157538758D01*
X15677749Y-157595110D01*
X15683312Y-157595577D01*
X16123453Y-157612869D01*
X16129045Y-157612840D01*
X16568965Y-157590940D01*
X16574548Y-157590412D01*
X17010788Y-157529490D01*
X17016275Y-157528473D01*
X17445381Y-157429012D01*
X17450767Y-157427508D01*
X17869333Y-157290296D01*
X17874550Y-157288324D01*
X18279260Y-157114447D01*
X18284303Y-157112009D01*
X18671943Y-156902850D01*
X18676747Y-156899975D01*
X19044239Y-156657198D01*
X19048802Y-156653883D01*
X19393266Y-156379393D01*
X19397481Y-156375716D01*
X19445286Y-156330112D01*
X19453226Y-156316352D01*
X19453176Y-156315307D01*
X19448285Y-156307495D01*
X16112812Y-152972022D01*
X16098868Y-152964408D01*
X16097035Y-152964539D01*
X16090420Y-152968790D01*
X12755230Y-156303980D01*
X12747616Y-156317924D01*
X4108000Y-156317924D01*
X4108000Y-152471585D01*
X11088722Y-152471585D01*
X11096793Y-152911981D01*
X11097143Y-152917547D01*
X11144333Y-153355491D01*
X11145180Y-153361030D01*
X11231112Y-153793042D01*
X11232441Y-153798453D01*
X11356444Y-154221138D01*
X11358250Y-154226413D01*
X11519326Y-154636377D01*
X11521608Y-154641501D01*
X11718485Y-155035516D01*
X11721209Y-155040409D01*
X11952333Y-155415363D01*
X11955484Y-155419999D01*
X12219031Y-155772931D01*
X12222564Y-155777248D01*
X12371583Y-155943625D01*
X12385079Y-155951989D01*
X12394491Y-155946299D01*
X15727978Y-152612812D01*
X15734356Y-152601132D01*
X16464408Y-152601132D01*
X16464539Y-152602965D01*
X16468790Y-152609580D01*
X19803870Y-155944660D01*
X19817631Y-155952174D01*
X19826992Y-155945716D01*
X20010483Y-155736482D01*
X20013988Y-155732109D01*
X20273825Y-155376435D01*
X20276920Y-155371777D01*
X20504101Y-154994431D01*
X20506782Y-154989492D01*
X20699515Y-154593455D01*
X20701750Y-154588289D01*
X20858519Y-154176675D01*
X20860275Y-154171363D01*
X20979838Y-153747427D01*
X20981114Y-153741991D01*
X21062520Y-153309092D01*
X21063307Y-153303555D01*
X21105963Y-152864580D01*
X21106236Y-152860143D01*
X21112990Y-152602234D01*
X21112948Y-152597762D01*
X21093327Y-152157177D01*
X21092829Y-152151590D01*
X21034193Y-151715047D01*
X21033200Y-151709524D01*
X20935990Y-151279920D01*
X20934517Y-151274533D01*
X20799499Y-150855261D01*
X20797544Y-150850003D01*
X20625801Y-150444419D01*
X20623382Y-150439348D01*
X20416253Y-150050614D01*
X20413418Y-150045819D01*
X20172538Y-149677013D01*
X20169287Y-149672489D01*
X19896582Y-149326564D01*
X19892934Y-149322338D01*
X19829587Y-149255233D01*
X19815871Y-149247222D01*
X19815000Y-149247259D01*
X19806923Y-149252287D01*
X16472022Y-152587188D01*
X16464408Y-152601132D01*
X15734356Y-152601132D01*
X15735592Y-152598868D01*
X15735461Y-152597035D01*
X15731210Y-152590420D01*
X12393542Y-149252752D01*
X12380234Y-149245485D01*
X12370195Y-149252607D01*
X12108756Y-149566953D01*
X12105361Y-149571425D01*
X11854932Y-149933765D01*
X11851953Y-149938515D01*
X11634719Y-150321695D01*
X11632188Y-150326662D01*
X11449866Y-150727656D01*
X11447788Y-150732824D01*
X11301840Y-151148426D01*
X11300219Y-151153795D01*
X11191798Y-151580705D01*
X11190664Y-151586178D01*
X11120621Y-152021044D01*
X11119976Y-152026622D01*
X11088869Y-152465964D01*
X11088722Y-152471585D01*
X4108000Y-152471585D01*
X4108000Y-148882502D01*
X12746077Y-148882502D01*
X12752184Y-148892974D01*
X16087188Y-152227978D01*
X16101132Y-152235592D01*
X16102965Y-152235461D01*
X16109580Y-152231210D01*
X19444435Y-148896355D01*
X19451998Y-148882505D01*
X19445671Y-148873283D01*
X19256913Y-148705992D01*
X19252551Y-148702459D01*
X18898262Y-148440778D01*
X18893609Y-148437651D01*
X18517453Y-148208495D01*
X18512536Y-148205791D01*
X18117488Y-148010974D01*
X18112379Y-148008732D01*
X17701563Y-147849799D01*
X17696273Y-147848019D01*
X17272954Y-147726234D01*
X17267530Y-147724932D01*
X16835068Y-147641261D01*
X16829539Y-147640445D01*
X16391353Y-147595550D01*
X16385771Y-147595228D01*
X15945346Y-147589463D01*
X15939735Y-147589639D01*
X15500541Y-147623048D01*
X15494984Y-147623720D01*
X15060504Y-147696037D01*
X15055007Y-147697205D01*
X14628680Y-147807858D01*
X14623314Y-147809510D01*
X14208509Y-147957622D01*
X14203321Y-147959739D01*
X13803311Y-148144147D01*
X13798342Y-148146711D01*
X13416308Y-148365948D01*
X13411575Y-148368951D01*
X13050545Y-148621278D01*
X13046104Y-148624686D01*
X12754521Y-148869785D01*
X12746077Y-148882502D01*
X4108000Y-148882502D01*
X4108000Y-116317924D01*
X12747616Y-116317924D01*
X12747665Y-116318616D01*
X12753111Y-116326781D01*
X12842226Y-116410027D01*
X12846503Y-116413681D01*
X13193829Y-116684553D01*
X13198386Y-116687792D01*
X13568432Y-116926727D01*
X13573261Y-116929549D01*
X13963048Y-117134626D01*
X13968150Y-117137027D01*
X14374633Y-117306647D01*
X14379888Y-117308570D01*
X14799860Y-117441389D01*
X14805259Y-117442836D01*
X15235375Y-117537796D01*
X15240886Y-117538758D01*
X15677749Y-117595110D01*
X15683312Y-117595577D01*
X16123453Y-117612869D01*
X16129045Y-117612840D01*
X16568965Y-117590940D01*
X16574548Y-117590412D01*
X17010788Y-117529490D01*
X17016275Y-117528473D01*
X17445381Y-117429012D01*
X17450767Y-117427508D01*
X17869333Y-117290296D01*
X17874550Y-117288324D01*
X18279260Y-117114447D01*
X18284303Y-117112009D01*
X18671943Y-116902850D01*
X18676747Y-116899975D01*
X19044239Y-116657198D01*
X19048802Y-116653883D01*
X19393266Y-116379393D01*
X19397481Y-116375716D01*
X19445286Y-116330112D01*
X19452319Y-116317924D01*
X37747616Y-116317924D01*
X37747665Y-116318616D01*
X37753111Y-116326781D01*
X37842226Y-116410027D01*
X37846503Y-116413681D01*
X38193829Y-116684553D01*
X38198386Y-116687792D01*
X38568432Y-116926727D01*
X38573261Y-116929549D01*
X38963048Y-117134626D01*
X38968150Y-117137027D01*
X39374633Y-117306647D01*
X39379888Y-117308570D01*
X39799860Y-117441389D01*
X39805259Y-117442836D01*
X40235375Y-117537796D01*
X40240886Y-117538758D01*
X40677749Y-117595110D01*
X40683312Y-117595577D01*
X41123453Y-117612869D01*
X41129045Y-117612840D01*
X41568965Y-117590940D01*
X41574548Y-117590412D01*
X42010788Y-117529490D01*
X42016275Y-117528473D01*
X42445381Y-117429012D01*
X42450767Y-117427508D01*
X42869333Y-117290296D01*
X42874550Y-117288324D01*
X43279260Y-117114447D01*
X43284303Y-117112009D01*
X43671943Y-116902850D01*
X43676747Y-116899975D01*
X44044239Y-116657198D01*
X44048802Y-116653883D01*
X44393266Y-116379393D01*
X44397481Y-116375716D01*
X44445286Y-116330112D01*
X44453226Y-116316352D01*
X44453176Y-116315307D01*
X44448285Y-116307495D01*
X41112812Y-112972022D01*
X41098868Y-112964408D01*
X41097035Y-112964539D01*
X41090420Y-112968790D01*
X37755230Y-116303980D01*
X37747616Y-116317924D01*
X19452319Y-116317924D01*
X19453226Y-116316352D01*
X19453176Y-116315307D01*
X19448285Y-116307495D01*
X16112812Y-112972022D01*
X16098868Y-112964408D01*
X16097035Y-112964539D01*
X16090420Y-112968790D01*
X12755230Y-116303980D01*
X12747616Y-116317924D01*
X4108000Y-116317924D01*
X4108000Y-112471585D01*
X11088722Y-112471585D01*
X11096793Y-112911981D01*
X11097143Y-112917547D01*
X11144333Y-113355491D01*
X11145180Y-113361030D01*
X11231112Y-113793042D01*
X11232441Y-113798453D01*
X11356444Y-114221138D01*
X11358250Y-114226413D01*
X11519326Y-114636377D01*
X11521608Y-114641501D01*
X11718485Y-115035516D01*
X11721209Y-115040409D01*
X11952333Y-115415363D01*
X11955484Y-115419999D01*
X12219031Y-115772931D01*
X12222564Y-115777248D01*
X12371583Y-115943625D01*
X12385079Y-115951989D01*
X12394491Y-115946299D01*
X15727978Y-112612812D01*
X15734356Y-112601132D01*
X16464408Y-112601132D01*
X16464539Y-112602965D01*
X16468790Y-112609580D01*
X19803870Y-115944660D01*
X19817631Y-115952174D01*
X19826992Y-115945716D01*
X20010483Y-115736482D01*
X20013988Y-115732109D01*
X20273825Y-115376435D01*
X20276920Y-115371777D01*
X20504101Y-114994431D01*
X20506782Y-114989492D01*
X20699515Y-114593455D01*
X20701750Y-114588289D01*
X20858519Y-114176675D01*
X20860275Y-114171363D01*
X20979838Y-113747427D01*
X20981114Y-113741991D01*
X21062520Y-113309092D01*
X21063307Y-113303555D01*
X21105963Y-112864580D01*
X21106236Y-112860143D01*
X21112990Y-112602234D01*
X21112948Y-112597762D01*
X21107329Y-112471585D01*
X36088722Y-112471585D01*
X36096793Y-112911981D01*
X36097143Y-112917547D01*
X36144333Y-113355491D01*
X36145180Y-113361030D01*
X36231112Y-113793042D01*
X36232441Y-113798453D01*
X36356444Y-114221138D01*
X36358250Y-114226413D01*
X36519326Y-114636377D01*
X36521608Y-114641501D01*
X36718485Y-115035516D01*
X36721209Y-115040409D01*
X36952333Y-115415363D01*
X36955484Y-115419999D01*
X37219031Y-115772931D01*
X37222564Y-115777248D01*
X37371583Y-115943625D01*
X37385079Y-115951989D01*
X37394491Y-115946299D01*
X40727978Y-112612812D01*
X40734356Y-112601132D01*
X41464408Y-112601132D01*
X41464539Y-112602965D01*
X41468790Y-112609580D01*
X44803870Y-115944660D01*
X44817631Y-115952174D01*
X44826992Y-115945716D01*
X45010483Y-115736482D01*
X45013988Y-115732109D01*
X45273825Y-115376435D01*
X45276920Y-115371777D01*
X45504101Y-114994431D01*
X45506782Y-114989492D01*
X45699515Y-114593455D01*
X45701750Y-114588289D01*
X45858519Y-114176675D01*
X45860275Y-114171363D01*
X45979838Y-113747427D01*
X45981114Y-113741991D01*
X46062520Y-113309092D01*
X46063307Y-113303555D01*
X46105963Y-112864580D01*
X46106236Y-112860143D01*
X46112990Y-112602234D01*
X46112948Y-112597762D01*
X46093327Y-112157177D01*
X46092829Y-112151590D01*
X46034193Y-111715047D01*
X46033200Y-111709524D01*
X45935990Y-111279920D01*
X45934517Y-111274533D01*
X45799499Y-110855261D01*
X45797544Y-110850003D01*
X45625801Y-110444419D01*
X45623382Y-110439348D01*
X45416253Y-110050614D01*
X45413418Y-110045819D01*
X45172538Y-109677013D01*
X45169287Y-109672489D01*
X44896582Y-109326564D01*
X44892934Y-109322338D01*
X44829587Y-109255233D01*
X44815871Y-109247222D01*
X44815000Y-109247259D01*
X44806923Y-109252287D01*
X41472022Y-112587188D01*
X41464408Y-112601132D01*
X40734356Y-112601132D01*
X40735592Y-112598868D01*
X40735461Y-112597035D01*
X40731210Y-112590420D01*
X37393542Y-109252752D01*
X37380234Y-109245485D01*
X37370195Y-109252607D01*
X37108756Y-109566953D01*
X37105361Y-109571425D01*
X36854932Y-109933765D01*
X36851953Y-109938515D01*
X36634719Y-110321695D01*
X36632188Y-110326662D01*
X36449866Y-110727656D01*
X36447788Y-110732824D01*
X36301840Y-111148426D01*
X36300219Y-111153795D01*
X36191798Y-111580705D01*
X36190664Y-111586178D01*
X36120621Y-112021044D01*
X36119976Y-112026622D01*
X36088869Y-112465964D01*
X36088722Y-112471585D01*
X21107329Y-112471585D01*
X21093327Y-112157177D01*
X21092829Y-112151590D01*
X21034193Y-111715047D01*
X21033200Y-111709524D01*
X20935990Y-111279920D01*
X20934517Y-111274533D01*
X20799499Y-110855261D01*
X20797544Y-110850003D01*
X20625801Y-110444419D01*
X20623382Y-110439348D01*
X20416253Y-110050614D01*
X20413418Y-110045819D01*
X20172538Y-109677013D01*
X20169287Y-109672489D01*
X19896582Y-109326564D01*
X19892934Y-109322338D01*
X19829587Y-109255233D01*
X19815871Y-109247222D01*
X19815000Y-109247259D01*
X19806923Y-109252287D01*
X16472022Y-112587188D01*
X16464408Y-112601132D01*
X15734356Y-112601132D01*
X15735592Y-112598868D01*
X15735461Y-112597035D01*
X15731210Y-112590420D01*
X12393542Y-109252752D01*
X12380234Y-109245485D01*
X12370195Y-109252607D01*
X12108756Y-109566953D01*
X12105361Y-109571425D01*
X11854932Y-109933765D01*
X11851953Y-109938515D01*
X11634719Y-110321695D01*
X11632188Y-110326662D01*
X11449866Y-110727656D01*
X11447788Y-110732824D01*
X11301840Y-111148426D01*
X11300219Y-111153795D01*
X11191798Y-111580705D01*
X11190664Y-111586178D01*
X11120621Y-112021044D01*
X11119976Y-112026622D01*
X11088869Y-112465964D01*
X11088722Y-112471585D01*
X4108000Y-112471585D01*
X4108000Y-108882502D01*
X12746077Y-108882502D01*
X12752184Y-108892974D01*
X16087188Y-112227978D01*
X16101132Y-112235592D01*
X16102965Y-112235461D01*
X16109580Y-112231210D01*
X19444435Y-108896355D01*
X19451998Y-108882505D01*
X19451996Y-108882502D01*
X37746077Y-108882502D01*
X37752184Y-108892974D01*
X41087188Y-112227978D01*
X41101132Y-112235592D01*
X41102965Y-112235461D01*
X41109580Y-112231210D01*
X44444435Y-108896355D01*
X44451998Y-108882505D01*
X44445671Y-108873283D01*
X44256913Y-108705992D01*
X44252551Y-108702459D01*
X43898262Y-108440778D01*
X43893609Y-108437651D01*
X43517453Y-108208495D01*
X43512536Y-108205791D01*
X43117488Y-108010974D01*
X43112379Y-108008732D01*
X42701563Y-107849799D01*
X42696273Y-107848019D01*
X42272954Y-107726234D01*
X42267530Y-107724932D01*
X41835068Y-107641261D01*
X41829539Y-107640445D01*
X41391353Y-107595550D01*
X41385771Y-107595228D01*
X40945346Y-107589463D01*
X40939735Y-107589639D01*
X40500541Y-107623048D01*
X40494984Y-107623720D01*
X40060504Y-107696037D01*
X40055007Y-107697205D01*
X39628680Y-107807858D01*
X39623314Y-107809510D01*
X39208509Y-107957622D01*
X39203321Y-107959739D01*
X38803311Y-108144147D01*
X38798342Y-108146711D01*
X38416308Y-108365948D01*
X38411575Y-108368951D01*
X38050545Y-108621278D01*
X38046104Y-108624686D01*
X37754521Y-108869785D01*
X37746077Y-108882502D01*
X19451996Y-108882502D01*
X19445671Y-108873283D01*
X19256913Y-108705992D01*
X19252551Y-108702459D01*
X18898262Y-108440778D01*
X18893609Y-108437651D01*
X18517453Y-108208495D01*
X18512536Y-108205791D01*
X18117488Y-108010974D01*
X18112379Y-108008732D01*
X17701563Y-107849799D01*
X17696273Y-107848019D01*
X17272954Y-107726234D01*
X17267530Y-107724932D01*
X16835068Y-107641261D01*
X16829539Y-107640445D01*
X16391353Y-107595550D01*
X16385771Y-107595228D01*
X15945346Y-107589463D01*
X15939735Y-107589639D01*
X15500541Y-107623048D01*
X15494984Y-107623720D01*
X15060504Y-107696037D01*
X15055007Y-107697205D01*
X14628680Y-107807858D01*
X14623314Y-107809510D01*
X14208509Y-107957622D01*
X14203321Y-107959739D01*
X13803311Y-108144147D01*
X13798342Y-108146711D01*
X13416308Y-108365948D01*
X13411575Y-108368951D01*
X13050545Y-108621278D01*
X13046104Y-108624686D01*
X12754521Y-108869785D01*
X12746077Y-108882502D01*
X4108000Y-108882502D01*
X4108000Y-76317924D01*
X12747616Y-76317924D01*
X12747665Y-76318616D01*
X12753111Y-76326781D01*
X12842226Y-76410027D01*
X12846503Y-76413681D01*
X13193829Y-76684553D01*
X13198386Y-76687792D01*
X13568432Y-76926727D01*
X13573261Y-76929549D01*
X13963048Y-77134626D01*
X13968150Y-77137027D01*
X14374633Y-77306647D01*
X14379888Y-77308570D01*
X14799860Y-77441389D01*
X14805259Y-77442836D01*
X15235375Y-77537796D01*
X15240886Y-77538758D01*
X15677749Y-77595110D01*
X15683312Y-77595577D01*
X16123453Y-77612869D01*
X16129045Y-77612840D01*
X16568965Y-77590940D01*
X16574548Y-77590412D01*
X17010788Y-77529490D01*
X17016275Y-77528473D01*
X17445381Y-77429012D01*
X17450767Y-77427508D01*
X17869333Y-77290296D01*
X17874550Y-77288324D01*
X18279260Y-77114447D01*
X18284303Y-77112009D01*
X18671943Y-76902850D01*
X18676747Y-76899975D01*
X19044239Y-76657198D01*
X19048802Y-76653883D01*
X19393266Y-76379393D01*
X19397481Y-76375716D01*
X19445286Y-76330112D01*
X19453226Y-76316352D01*
X19453176Y-76315307D01*
X19448285Y-76307495D01*
X16112812Y-72972022D01*
X16098868Y-72964408D01*
X16097035Y-72964539D01*
X16090420Y-72968790D01*
X12755230Y-76303980D01*
X12747616Y-76317924D01*
X4108000Y-76317924D01*
X4108000Y-72471585D01*
X11088722Y-72471585D01*
X11096793Y-72911981D01*
X11097143Y-72917547D01*
X11144333Y-73355491D01*
X11145180Y-73361030D01*
X11231112Y-73793042D01*
X11232441Y-73798453D01*
X11356444Y-74221138D01*
X11358250Y-74226413D01*
X11519326Y-74636377D01*
X11521608Y-74641501D01*
X11718485Y-75035516D01*
X11721209Y-75040409D01*
X11952333Y-75415363D01*
X11955484Y-75419999D01*
X12219031Y-75772931D01*
X12222564Y-75777248D01*
X12371583Y-75943625D01*
X12385079Y-75951989D01*
X12394491Y-75946299D01*
X15727978Y-72612812D01*
X15734356Y-72601132D01*
X16464408Y-72601132D01*
X16464539Y-72602965D01*
X16468790Y-72609580D01*
X19803870Y-75944660D01*
X19817631Y-75952174D01*
X19826992Y-75945716D01*
X20010483Y-75736482D01*
X20013988Y-75732109D01*
X20273825Y-75376435D01*
X20276920Y-75371777D01*
X20504101Y-74994431D01*
X20506782Y-74989492D01*
X20699515Y-74593455D01*
X20701750Y-74588289D01*
X20858519Y-74176675D01*
X20860275Y-74171363D01*
X20979838Y-73747427D01*
X20981114Y-73741991D01*
X21062520Y-73309092D01*
X21063307Y-73303555D01*
X21105963Y-72864580D01*
X21106236Y-72860143D01*
X21112990Y-72602234D01*
X21112948Y-72597762D01*
X21112540Y-72588609D01*
X37836734Y-72588609D01*
X37836906Y-72592004D01*
X37836906Y-72592005D01*
X37838465Y-72622782D01*
X37854591Y-72941106D01*
X37855128Y-72944461D01*
X37855129Y-72944467D01*
X37893957Y-73186878D01*
X37910412Y-73289613D01*
X38003546Y-73630053D01*
X38132903Y-73958443D01*
X38134486Y-73961458D01*
X38295384Y-74267926D01*
X38295389Y-74267934D01*
X38296968Y-74270942D01*
X38298862Y-74273760D01*
X38298867Y-74273769D01*
X38318518Y-74303012D01*
X38493824Y-74563895D01*
X38721167Y-74833873D01*
X38723627Y-74836224D01*
X38723630Y-74836227D01*
X38973875Y-75075366D01*
X38973882Y-75075372D01*
X38976338Y-75077719D01*
X39256351Y-75292581D01*
X39259269Y-75294355D01*
X39555017Y-75474173D01*
X39555022Y-75474176D01*
X39557932Y-75475945D01*
X39561020Y-75477391D01*
X39561019Y-75477391D01*
X39874468Y-75624222D01*
X39874478Y-75624226D01*
X39877552Y-75625666D01*
X39880770Y-75626768D01*
X39880773Y-75626769D01*
X40208241Y-75738887D01*
X40208245Y-75738888D01*
X40211472Y-75739993D01*
X40214802Y-75740743D01*
X40214811Y-75740746D01*
X40458164Y-75795587D01*
X40555786Y-75817587D01*
X40559171Y-75817973D01*
X40559179Y-75817974D01*
X40903083Y-75857157D01*
X40903091Y-75857157D01*
X40906466Y-75857542D01*
X40909870Y-75857560D01*
X40909873Y-75857560D01*
X41101627Y-75858564D01*
X41259411Y-75859390D01*
X41262797Y-75859040D01*
X41262799Y-75859040D01*
X41607098Y-75823461D01*
X41607107Y-75823460D01*
X41610490Y-75823110D01*
X41613823Y-75822396D01*
X41613826Y-75822395D01*
X41844553Y-75772931D01*
X41955598Y-75749125D01*
X42290697Y-75638301D01*
X42611867Y-75491936D01*
X42814238Y-75371777D01*
X42912407Y-75313489D01*
X42912412Y-75313486D01*
X42915352Y-75311740D01*
X42940870Y-75292581D01*
X43194867Y-75101874D01*
X43197600Y-75099822D01*
X43455310Y-74858661D01*
X43685468Y-74591078D01*
X43885380Y-74300203D01*
X43886992Y-74297209D01*
X43886997Y-74297201D01*
X44051087Y-73992452D01*
X44052709Y-73989440D01*
X44185498Y-73662422D01*
X44193816Y-73633223D01*
X44281257Y-73326254D01*
X44282191Y-73322976D01*
X44341659Y-72975073D01*
X44342044Y-72968790D01*
X44363096Y-72624580D01*
X44363206Y-72622782D01*
X44363276Y-72602965D01*
X44363280Y-72601819D01*
X44363280Y-72601806D01*
X44363286Y-72600000D01*
X44344199Y-72247567D01*
X44287161Y-71899257D01*
X44192839Y-71559145D01*
X44189849Y-71551630D01*
X44063597Y-71234372D01*
X44062338Y-71231208D01*
X43897182Y-70919283D01*
X43890579Y-70909530D01*
X43701211Y-70629834D01*
X43701204Y-70629825D01*
X43699305Y-70627020D01*
X43697109Y-70624430D01*
X43697104Y-70624424D01*
X43540147Y-70439348D01*
X43471021Y-70357837D01*
X43215001Y-70114883D01*
X43212294Y-70112821D01*
X43212286Y-70112814D01*
X43053809Y-69992088D01*
X42934239Y-69901000D01*
X42632020Y-69718689D01*
X42628930Y-69717255D01*
X42628925Y-69717252D01*
X42471949Y-69644387D01*
X42311879Y-69570085D01*
X42308654Y-69568993D01*
X42308648Y-69568991D01*
X41980798Y-69458020D01*
X41980793Y-69458018D01*
X41977562Y-69456925D01*
X41963832Y-69453881D01*
X41894730Y-69438562D01*
X41632979Y-69380533D01*
X41508353Y-69366774D01*
X41285543Y-69342175D01*
X41285538Y-69342175D01*
X41282162Y-69341802D01*
X41278763Y-69341796D01*
X41278762Y-69341796D01*
X41112289Y-69341506D01*
X40929213Y-69341186D01*
X40798206Y-69355187D01*
X40581646Y-69378330D01*
X40581640Y-69378331D01*
X40578262Y-69378692D01*
X40233414Y-69453881D01*
X39898704Y-69565873D01*
X39578047Y-69713359D01*
X39275194Y-69894613D01*
X38993687Y-70107515D01*
X38736820Y-70349574D01*
X38507598Y-70617959D01*
X38308702Y-70909530D01*
X38142458Y-71220876D01*
X38141183Y-71224048D01*
X38141181Y-71224052D01*
X38118723Y-71279920D01*
X38010813Y-71548355D01*
X38009894Y-71551623D01*
X38009892Y-71551630D01*
X37916225Y-71884858D01*
X37915304Y-71888136D01*
X37914743Y-71891489D01*
X37914742Y-71891493D01*
X37857614Y-72232880D01*
X37857051Y-72236245D01*
X37836734Y-72588609D01*
X21112540Y-72588609D01*
X21093327Y-72157177D01*
X21092829Y-72151590D01*
X21034193Y-71715047D01*
X21033200Y-71709524D01*
X20935990Y-71279920D01*
X20934517Y-71274533D01*
X20799499Y-70855261D01*
X20797544Y-70850003D01*
X20625801Y-70444419D01*
X20623382Y-70439348D01*
X20416253Y-70050614D01*
X20413418Y-70045819D01*
X20172538Y-69677013D01*
X20169287Y-69672489D01*
X19896582Y-69326564D01*
X19892934Y-69322338D01*
X19829587Y-69255233D01*
X19815871Y-69247222D01*
X19815000Y-69247259D01*
X19806923Y-69252287D01*
X16472022Y-72587188D01*
X16464408Y-72601132D01*
X15734356Y-72601132D01*
X15735592Y-72598868D01*
X15735461Y-72597035D01*
X15731210Y-72590420D01*
X12393542Y-69252752D01*
X12380234Y-69245485D01*
X12370195Y-69252607D01*
X12108756Y-69566953D01*
X12105361Y-69571425D01*
X11854932Y-69933765D01*
X11851953Y-69938515D01*
X11634719Y-70321695D01*
X11632188Y-70326662D01*
X11449866Y-70727656D01*
X11447788Y-70732824D01*
X11301840Y-71148426D01*
X11300219Y-71153795D01*
X11191798Y-71580705D01*
X11190664Y-71586178D01*
X11120621Y-72021044D01*
X11119976Y-72026622D01*
X11088869Y-72465964D01*
X11088722Y-72471585D01*
X4108000Y-72471585D01*
X4108000Y-68882502D01*
X12746077Y-68882502D01*
X12752184Y-68892974D01*
X16087188Y-72227978D01*
X16101132Y-72235592D01*
X16102965Y-72235461D01*
X16109580Y-72231210D01*
X19444435Y-68896355D01*
X19451998Y-68882505D01*
X19445671Y-68873283D01*
X19256913Y-68705992D01*
X19252551Y-68702459D01*
X18898262Y-68440778D01*
X18893609Y-68437651D01*
X18517453Y-68208495D01*
X18512536Y-68205791D01*
X18117488Y-68010974D01*
X18112379Y-68008732D01*
X17701563Y-67849799D01*
X17696273Y-67848019D01*
X17272954Y-67726234D01*
X17267530Y-67724932D01*
X16835068Y-67641261D01*
X16829539Y-67640445D01*
X16391353Y-67595550D01*
X16385771Y-67595228D01*
X15945346Y-67589463D01*
X15939735Y-67589639D01*
X15500541Y-67623048D01*
X15494984Y-67623720D01*
X15060504Y-67696037D01*
X15055007Y-67697205D01*
X14628680Y-67807858D01*
X14623314Y-67809510D01*
X14208509Y-67957622D01*
X14203321Y-67959739D01*
X13803311Y-68144147D01*
X13798342Y-68146711D01*
X13416308Y-68365948D01*
X13411575Y-68368951D01*
X13050545Y-68621278D01*
X13046104Y-68624686D01*
X12754521Y-68869785D01*
X12746077Y-68882502D01*
X4108000Y-68882502D01*
X4108000Y-51317924D01*
X12747616Y-51317924D01*
X12747665Y-51318616D01*
X12753111Y-51326781D01*
X12842226Y-51410027D01*
X12846503Y-51413681D01*
X13193829Y-51684553D01*
X13198386Y-51687792D01*
X13568432Y-51926727D01*
X13573261Y-51929549D01*
X13963048Y-52134626D01*
X13968150Y-52137027D01*
X14374633Y-52306647D01*
X14379888Y-52308570D01*
X14799860Y-52441389D01*
X14805259Y-52442836D01*
X15235375Y-52537796D01*
X15240886Y-52538758D01*
X15677749Y-52595110D01*
X15683312Y-52595577D01*
X16123453Y-52612869D01*
X16129045Y-52612840D01*
X16568965Y-52590940D01*
X16574548Y-52590412D01*
X17010788Y-52529490D01*
X17016275Y-52528473D01*
X17445381Y-52429012D01*
X17450767Y-52427508D01*
X17869333Y-52290296D01*
X17874550Y-52288324D01*
X18279260Y-52114447D01*
X18284303Y-52112009D01*
X18671943Y-51902850D01*
X18676747Y-51899975D01*
X19044239Y-51657198D01*
X19048802Y-51653883D01*
X19393266Y-51379393D01*
X19397481Y-51375716D01*
X19445286Y-51330112D01*
X19452319Y-51317924D01*
X37747616Y-51317924D01*
X37747665Y-51318616D01*
X37753111Y-51326781D01*
X37842226Y-51410027D01*
X37846503Y-51413681D01*
X38193829Y-51684553D01*
X38198386Y-51687792D01*
X38568432Y-51926727D01*
X38573261Y-51929549D01*
X38963048Y-52134626D01*
X38968150Y-52137027D01*
X39374633Y-52306647D01*
X39379888Y-52308570D01*
X39799860Y-52441389D01*
X39805259Y-52442836D01*
X40235375Y-52537796D01*
X40240886Y-52538758D01*
X40677749Y-52595110D01*
X40683312Y-52595577D01*
X41123453Y-52612869D01*
X41129045Y-52612840D01*
X41568965Y-52590940D01*
X41574548Y-52590412D01*
X42010788Y-52529490D01*
X42016275Y-52528473D01*
X42445381Y-52429012D01*
X42450767Y-52427508D01*
X42869333Y-52290296D01*
X42874550Y-52288324D01*
X43279260Y-52114447D01*
X43284303Y-52112009D01*
X43671943Y-51902850D01*
X43676747Y-51899975D01*
X44044239Y-51657198D01*
X44048802Y-51653883D01*
X44393266Y-51379393D01*
X44397481Y-51375716D01*
X44445286Y-51330112D01*
X44453226Y-51316352D01*
X44453176Y-51315307D01*
X44448285Y-51307495D01*
X41112812Y-47972022D01*
X41098868Y-47964408D01*
X41097035Y-47964539D01*
X41090420Y-47968790D01*
X37755230Y-51303980D01*
X37747616Y-51317924D01*
X19452319Y-51317924D01*
X19453226Y-51316352D01*
X19453176Y-51315307D01*
X19448285Y-51307495D01*
X16112812Y-47972022D01*
X16098868Y-47964408D01*
X16097035Y-47964539D01*
X16090420Y-47968790D01*
X12755230Y-51303980D01*
X12747616Y-51317924D01*
X4108000Y-51317924D01*
X4108000Y-47471585D01*
X11088722Y-47471585D01*
X11096793Y-47911981D01*
X11097143Y-47917547D01*
X11144333Y-48355491D01*
X11145180Y-48361030D01*
X11231112Y-48793042D01*
X11232441Y-48798453D01*
X11356444Y-49221138D01*
X11358250Y-49226413D01*
X11519326Y-49636377D01*
X11521608Y-49641501D01*
X11718485Y-50035516D01*
X11721209Y-50040409D01*
X11952333Y-50415363D01*
X11955484Y-50419999D01*
X12219031Y-50772931D01*
X12222564Y-50777248D01*
X12371583Y-50943625D01*
X12385079Y-50951989D01*
X12394491Y-50946299D01*
X15727978Y-47612812D01*
X15734356Y-47601132D01*
X16464408Y-47601132D01*
X16464539Y-47602965D01*
X16468790Y-47609580D01*
X19803870Y-50944660D01*
X19817631Y-50952174D01*
X19826992Y-50945716D01*
X20010483Y-50736482D01*
X20013988Y-50732109D01*
X20273825Y-50376435D01*
X20276920Y-50371777D01*
X20504101Y-49994431D01*
X20506782Y-49989492D01*
X20699515Y-49593455D01*
X20701750Y-49588289D01*
X20858519Y-49176675D01*
X20860275Y-49171363D01*
X20979838Y-48747427D01*
X20981114Y-48741991D01*
X21062520Y-48309092D01*
X21063307Y-48303555D01*
X21105963Y-47864580D01*
X21106236Y-47860143D01*
X21112990Y-47602234D01*
X21112948Y-47597762D01*
X21107329Y-47471585D01*
X36088722Y-47471585D01*
X36096793Y-47911981D01*
X36097143Y-47917547D01*
X36144333Y-48355491D01*
X36145180Y-48361030D01*
X36231112Y-48793042D01*
X36232441Y-48798453D01*
X36356444Y-49221138D01*
X36358250Y-49226413D01*
X36519326Y-49636377D01*
X36521608Y-49641501D01*
X36718485Y-50035516D01*
X36721209Y-50040409D01*
X36952333Y-50415363D01*
X36955484Y-50419999D01*
X37219031Y-50772931D01*
X37222564Y-50777248D01*
X37371583Y-50943625D01*
X37385079Y-50951989D01*
X37394491Y-50946299D01*
X40727978Y-47612812D01*
X40734356Y-47601132D01*
X41464408Y-47601132D01*
X41464539Y-47602965D01*
X41468790Y-47609580D01*
X44803870Y-50944660D01*
X44817631Y-50952174D01*
X44826992Y-50945716D01*
X45010483Y-50736482D01*
X45013988Y-50732109D01*
X45273825Y-50376435D01*
X45276920Y-50371777D01*
X45504101Y-49994431D01*
X45506782Y-49989492D01*
X45699515Y-49593455D01*
X45701750Y-49588289D01*
X45858519Y-49176675D01*
X45860275Y-49171363D01*
X45979838Y-48747427D01*
X45981114Y-48741991D01*
X46062520Y-48309092D01*
X46063307Y-48303555D01*
X46105963Y-47864580D01*
X46106236Y-47860143D01*
X46112990Y-47602234D01*
X46112948Y-47597762D01*
X46093327Y-47157177D01*
X46092829Y-47151590D01*
X46034193Y-46715047D01*
X46033200Y-46709524D01*
X45935990Y-46279920D01*
X45934517Y-46274533D01*
X45799499Y-45855261D01*
X45797544Y-45850003D01*
X45625801Y-45444419D01*
X45623382Y-45439348D01*
X45416253Y-45050614D01*
X45413418Y-45045819D01*
X45172538Y-44677013D01*
X45169287Y-44672489D01*
X44896582Y-44326564D01*
X44892934Y-44322338D01*
X44829587Y-44255233D01*
X44815871Y-44247222D01*
X44815000Y-44247259D01*
X44806923Y-44252287D01*
X41472022Y-47587188D01*
X41464408Y-47601132D01*
X40734356Y-47601132D01*
X40735592Y-47598868D01*
X40735461Y-47597035D01*
X40731210Y-47590420D01*
X37393542Y-44252752D01*
X37380234Y-44245485D01*
X37370195Y-44252607D01*
X37108756Y-44566953D01*
X37105361Y-44571425D01*
X36854932Y-44933765D01*
X36851953Y-44938515D01*
X36634719Y-45321695D01*
X36632188Y-45326662D01*
X36449866Y-45727656D01*
X36447788Y-45732824D01*
X36301840Y-46148426D01*
X36300219Y-46153795D01*
X36191798Y-46580705D01*
X36190664Y-46586178D01*
X36120621Y-47021044D01*
X36119976Y-47026622D01*
X36088869Y-47465964D01*
X36088722Y-47471585D01*
X21107329Y-47471585D01*
X21093327Y-47157177D01*
X21092829Y-47151590D01*
X21034193Y-46715047D01*
X21033200Y-46709524D01*
X20935990Y-46279920D01*
X20934517Y-46274533D01*
X20799499Y-45855261D01*
X20797544Y-45850003D01*
X20625801Y-45444419D01*
X20623382Y-45439348D01*
X20416253Y-45050614D01*
X20413418Y-45045819D01*
X20172538Y-44677013D01*
X20169287Y-44672489D01*
X19896582Y-44326564D01*
X19892934Y-44322338D01*
X19829587Y-44255233D01*
X19815871Y-44247222D01*
X19815000Y-44247259D01*
X19806923Y-44252287D01*
X16472022Y-47587188D01*
X16464408Y-47601132D01*
X15734356Y-47601132D01*
X15735592Y-47598868D01*
X15735461Y-47597035D01*
X15731210Y-47590420D01*
X12393542Y-44252752D01*
X12380234Y-44245485D01*
X12370195Y-44252607D01*
X12108756Y-44566953D01*
X12105361Y-44571425D01*
X11854932Y-44933765D01*
X11851953Y-44938515D01*
X11634719Y-45321695D01*
X11632188Y-45326662D01*
X11449866Y-45727656D01*
X11447788Y-45732824D01*
X11301840Y-46148426D01*
X11300219Y-46153795D01*
X11191798Y-46580705D01*
X11190664Y-46586178D01*
X11120621Y-47021044D01*
X11119976Y-47026622D01*
X11088869Y-47465964D01*
X11088722Y-47471585D01*
X4108000Y-47471585D01*
X4108000Y-43882502D01*
X12746077Y-43882502D01*
X12752184Y-43892974D01*
X16087188Y-47227978D01*
X16101132Y-47235592D01*
X16102965Y-47235461D01*
X16109580Y-47231210D01*
X19444435Y-43896355D01*
X19451998Y-43882505D01*
X19451996Y-43882502D01*
X37746077Y-43882502D01*
X37752184Y-43892974D01*
X41087188Y-47227978D01*
X41101132Y-47235592D01*
X41102965Y-47235461D01*
X41109580Y-47231210D01*
X44444435Y-43896355D01*
X44451998Y-43882505D01*
X44445671Y-43873283D01*
X44256913Y-43705992D01*
X44252551Y-43702459D01*
X43898262Y-43440778D01*
X43893609Y-43437651D01*
X43517453Y-43208495D01*
X43512536Y-43205791D01*
X43117488Y-43010974D01*
X43112379Y-43008732D01*
X42701563Y-42849799D01*
X42696273Y-42848019D01*
X42272954Y-42726234D01*
X42267530Y-42724932D01*
X41835068Y-42641261D01*
X41829539Y-42640445D01*
X41391353Y-42595550D01*
X41385771Y-42595228D01*
X40945346Y-42589463D01*
X40939735Y-42589639D01*
X40500541Y-42623048D01*
X40494984Y-42623720D01*
X40060504Y-42696037D01*
X40055007Y-42697205D01*
X39628680Y-42807858D01*
X39623314Y-42809510D01*
X39208509Y-42957622D01*
X39203321Y-42959739D01*
X38803311Y-43144147D01*
X38798342Y-43146711D01*
X38416308Y-43365948D01*
X38411575Y-43368951D01*
X38050545Y-43621278D01*
X38046104Y-43624686D01*
X37754521Y-43869785D01*
X37746077Y-43882502D01*
X19451996Y-43882502D01*
X19445671Y-43873283D01*
X19256913Y-43705992D01*
X19252551Y-43702459D01*
X18898262Y-43440778D01*
X18893609Y-43437651D01*
X18517453Y-43208495D01*
X18512536Y-43205791D01*
X18117488Y-43010974D01*
X18112379Y-43008732D01*
X17701563Y-42849799D01*
X17696273Y-42848019D01*
X17272954Y-42726234D01*
X17267530Y-42724932D01*
X16835068Y-42641261D01*
X16829539Y-42640445D01*
X16391353Y-42595550D01*
X16385771Y-42595228D01*
X15945346Y-42589463D01*
X15939735Y-42589639D01*
X15500541Y-42623048D01*
X15494984Y-42623720D01*
X15060504Y-42696037D01*
X15055007Y-42697205D01*
X14628680Y-42807858D01*
X14623314Y-42809510D01*
X14208509Y-42957622D01*
X14203321Y-42959739D01*
X13803311Y-43144147D01*
X13798342Y-43146711D01*
X13416308Y-43365948D01*
X13411575Y-43368951D01*
X13050545Y-43621278D01*
X13046104Y-43624686D01*
X12754521Y-43869785D01*
X12746077Y-43882502D01*
X4108000Y-43882502D01*
X4108000Y-27588609D01*
X25336734Y-27588609D01*
X25354591Y-27941106D01*
X25355128Y-27944461D01*
X25355129Y-27944467D01*
X25393957Y-28186878D01*
X25410412Y-28289613D01*
X25503546Y-28630053D01*
X25632903Y-28958443D01*
X25634486Y-28961458D01*
X25795384Y-29267926D01*
X25795389Y-29267934D01*
X25796968Y-29270942D01*
X25798862Y-29273760D01*
X25798867Y-29273769D01*
X25818518Y-29303012D01*
X25993824Y-29563895D01*
X26221167Y-29833873D01*
X26223627Y-29836224D01*
X26223630Y-29836227D01*
X26473875Y-30075366D01*
X26473882Y-30075372D01*
X26476338Y-30077719D01*
X26756351Y-30292581D01*
X26759269Y-30294355D01*
X27055017Y-30474173D01*
X27055022Y-30474176D01*
X27057932Y-30475945D01*
X27061020Y-30477391D01*
X27061019Y-30477391D01*
X27374468Y-30624222D01*
X27374478Y-30624226D01*
X27377552Y-30625666D01*
X27380770Y-30626768D01*
X27380773Y-30626769D01*
X27708241Y-30738887D01*
X27708245Y-30738888D01*
X27711472Y-30739993D01*
X27714802Y-30740743D01*
X27714811Y-30740746D01*
X27958164Y-30795587D01*
X28055786Y-30817587D01*
X28059171Y-30817973D01*
X28059179Y-30817974D01*
X28403083Y-30857157D01*
X28403091Y-30857157D01*
X28406466Y-30857542D01*
X28409870Y-30857560D01*
X28409873Y-30857560D01*
X28601627Y-30858564D01*
X28759411Y-30859390D01*
X28762797Y-30859040D01*
X28762799Y-30859040D01*
X29107098Y-30823461D01*
X29107107Y-30823460D01*
X29110490Y-30823110D01*
X29113823Y-30822396D01*
X29113826Y-30822395D01*
X29283692Y-30785979D01*
X29455598Y-30749125D01*
X29790697Y-30638301D01*
X30111867Y-30491936D01*
X30205405Y-30436397D01*
X30412407Y-30313489D01*
X30412412Y-30313486D01*
X30415352Y-30311740D01*
X30440870Y-30292581D01*
X30694867Y-30101874D01*
X30697600Y-30099822D01*
X30955310Y-29858661D01*
X31185468Y-29591078D01*
X31385380Y-29300203D01*
X31386992Y-29297209D01*
X31386997Y-29297201D01*
X31551087Y-28992452D01*
X31552709Y-28989440D01*
X31685498Y-28662422D01*
X31693816Y-28633223D01*
X31781257Y-28326254D01*
X31782191Y-28322976D01*
X31841659Y-27975073D01*
X31843945Y-27937711D01*
X31863096Y-27624580D01*
X31863206Y-27622782D01*
X31863286Y-27600000D01*
X31844199Y-27247567D01*
X31787161Y-26899257D01*
X31692839Y-26559145D01*
X31689849Y-26551630D01*
X31563597Y-26234372D01*
X31562338Y-26231208D01*
X31397182Y-25919283D01*
X31390579Y-25909530D01*
X31201211Y-25629834D01*
X31201204Y-25629825D01*
X31199305Y-25627020D01*
X31197109Y-25624430D01*
X31197104Y-25624424D01*
X31108715Y-25520201D01*
X30971021Y-25357837D01*
X30715001Y-25114883D01*
X30712294Y-25112821D01*
X30712286Y-25112814D01*
X30553809Y-24992088D01*
X30434239Y-24901000D01*
X30132020Y-24718689D01*
X30128930Y-24717255D01*
X30128925Y-24717252D01*
X29971949Y-24644387D01*
X29811879Y-24570085D01*
X29808654Y-24568993D01*
X29808648Y-24568991D01*
X29480798Y-24458020D01*
X29480793Y-24458018D01*
X29477562Y-24456925D01*
X29463832Y-24453881D01*
X29394730Y-24438562D01*
X29132979Y-24380533D01*
X29008353Y-24366774D01*
X28785543Y-24342175D01*
X28785538Y-24342175D01*
X28782162Y-24341802D01*
X28778763Y-24341796D01*
X28778762Y-24341796D01*
X28612289Y-24341506D01*
X28429213Y-24341186D01*
X28298206Y-24355187D01*
X28081646Y-24378330D01*
X28081640Y-24378331D01*
X28078262Y-24378692D01*
X27733414Y-24453881D01*
X27398704Y-24565873D01*
X27078047Y-24713359D01*
X26775194Y-24894613D01*
X26493687Y-25107515D01*
X26236820Y-25349574D01*
X26007598Y-25617959D01*
X25808702Y-25909530D01*
X25642458Y-26220876D01*
X25641183Y-26224048D01*
X25641181Y-26224052D01*
X25637033Y-26234372D01*
X25510813Y-26548355D01*
X25415304Y-26888136D01*
X25414743Y-26891489D01*
X25414742Y-26891493D01*
X25357614Y-27232880D01*
X25357051Y-27236245D01*
X25336734Y-27588609D01*
X4108000Y-27588609D01*
X4108000Y-11763787D01*
X4128002Y-11695666D01*
X4181658Y-11649173D01*
X4251932Y-11639069D01*
X4316512Y-11668563D01*
X4344415Y-11703086D01*
X4476330Y-11943039D01*
X4480570Y-11949719D01*
X4661404Y-12198616D01*
X4666443Y-12204707D01*
X4877046Y-12428977D01*
X4882813Y-12434393D01*
X5119868Y-12630502D01*
X5126271Y-12635153D01*
X5386026Y-12799999D01*
X5392959Y-12803811D01*
X5671328Y-12934801D01*
X5678691Y-12937716D01*
X5971277Y-13032783D01*
X5978954Y-13034754D01*
X6281145Y-13092400D01*
X6289006Y-13093393D01*
X6519180Y-13107874D01*
X6523171Y-13108000D01*
X7727885Y-13108000D01*
X7743124Y-13103525D01*
X7744329Y-13102135D01*
X7746000Y-13094452D01*
X7746000Y-13089885D01*
X8254000Y-13089885D01*
X8258475Y-13105124D01*
X8259865Y-13106329D01*
X8267548Y-13108000D01*
X9476829Y-13108000D01*
X9480820Y-13107874D01*
X9710994Y-13093393D01*
X9718855Y-13092400D01*
X10021046Y-13034754D01*
X10028723Y-13032783D01*
X10321309Y-12937716D01*
X10328672Y-12934801D01*
X10607041Y-12803811D01*
X10613974Y-12799999D01*
X10873729Y-12635153D01*
X10880132Y-12630502D01*
X11117187Y-12434393D01*
X11122954Y-12428977D01*
X11333557Y-12204707D01*
X11338596Y-12198616D01*
X11519430Y-11949719D01*
X11523670Y-11943039D01*
X11671890Y-11673428D01*
X11675247Y-11666293D01*
X11788508Y-11380230D01*
X11790953Y-11372704D01*
X11867462Y-11074721D01*
X11868945Y-11066950D01*
X11893575Y-10871974D01*
X11893487Y-10871426D01*
X45306355Y-10871426D01*
X45331055Y-11066950D01*
X45332538Y-11074721D01*
X45409047Y-11372704D01*
X45411492Y-11380230D01*
X45524753Y-11666293D01*
X45528110Y-11673428D01*
X45676330Y-11943039D01*
X45680570Y-11949719D01*
X45861404Y-12198616D01*
X45866443Y-12204707D01*
X46077046Y-12428977D01*
X46082813Y-12434393D01*
X46319868Y-12630502D01*
X46326271Y-12635153D01*
X46586026Y-12799999D01*
X46592959Y-12803811D01*
X46871328Y-12934801D01*
X46878691Y-12937716D01*
X47171277Y-13032783D01*
X47178954Y-13034754D01*
X47481145Y-13092400D01*
X47489006Y-13093393D01*
X47719180Y-13107874D01*
X47723171Y-13108000D01*
X48927885Y-13108000D01*
X48943124Y-13103525D01*
X48944329Y-13102135D01*
X48946000Y-13094452D01*
X48946000Y-10872115D01*
X48941525Y-10856876D01*
X48940135Y-10855671D01*
X48932452Y-10854000D01*
X45322269Y-10854000D01*
X45308392Y-10858075D01*
X45306355Y-10871426D01*
X11893487Y-10871426D01*
X11891272Y-10857694D01*
X11878280Y-10854000D01*
X8272115Y-10854000D01*
X8256876Y-10858475D01*
X8255671Y-10859865D01*
X8254000Y-10867548D01*
X8254000Y-13089885D01*
X7746000Y-13089885D01*
X7746000Y-10472000D01*
X7766002Y-10403879D01*
X7819658Y-10357386D01*
X7872000Y-10346000D01*
X11877731Y-10346000D01*
X11891608Y-10341925D01*
X11893645Y-10328574D01*
X11868945Y-10133050D01*
X11867462Y-10125279D01*
X11790953Y-9827296D01*
X11788508Y-9819770D01*
X11675247Y-9533707D01*
X11671890Y-9526572D01*
X11523670Y-9256961D01*
X11519430Y-9250281D01*
X11338596Y-9001384D01*
X11333557Y-8995293D01*
X11122954Y-8771023D01*
X11117187Y-8765607D01*
X10880132Y-8569498D01*
X10873729Y-8564847D01*
X10613974Y-8400001D01*
X10607041Y-8396189D01*
X10504650Y-8348008D01*
X10451529Y-8300905D01*
X10432306Y-8232561D01*
X10453085Y-8164673D01*
X10507268Y-8118796D01*
X10558298Y-8108000D01*
X46641702Y-8108000D01*
X46709823Y-8128002D01*
G37*
G04 #@! TD.AperFunction*
G04 #@! TD*
M02*
