G04 #@! TF.GenerationSoftware,KiCad,Pcbnew,6.0.2-378541a8eb~116~ubuntu20.04.1*
G04 #@! TF.CreationDate,2022-03-12T15:32:27-05:00*
G04 #@! TF.ProjectId,irinput_panel,6972696e-7075-4745-9f70-616e656c2e6b,rev?*
G04 #@! TF.SameCoordinates,Original*
G04 #@! TF.FileFunction,Legend,Top*
G04 #@! TF.FilePolarity,Positive*
%FSLAX46Y46*%
G04 Gerber Fmt 4.6, Leading zero omitted, Abs format (unit mm)*
G04 Created by KiCad (PCBNEW 6.0.2-378541a8eb~116~ubuntu20.04.1) date 2022-03-12 15:32:27*
%MOMM*%
%LPD*%
G01*
G04 APERTURE LIST*
G04 APERTURE END LIST*
G04 #@! TO.C,GRAF2*
G36*
X11650636Y-111673901D02*
G01*
X11667926Y-111583954D01*
X11785502Y-111129380D01*
X11949342Y-110692571D01*
X12156993Y-110276717D01*
X12406002Y-109885008D01*
X12693915Y-109520634D01*
X13018280Y-109186784D01*
X13376644Y-108886647D01*
X13766553Y-108623413D01*
X14075578Y-108453440D01*
X14510626Y-108263731D01*
X14959011Y-108122041D01*
X15417195Y-108028421D01*
X15881643Y-107982922D01*
X16348815Y-107985593D01*
X16815177Y-108036485D01*
X17277190Y-108135648D01*
X17731317Y-108283132D01*
X18004697Y-108397643D01*
X18368657Y-108588971D01*
X18723679Y-108824634D01*
X19062469Y-109098143D01*
X19377731Y-109403008D01*
X19662171Y-109732740D01*
X19908494Y-110080849D01*
X19923291Y-110104405D01*
X20152196Y-110518111D01*
X20333938Y-110946147D01*
X20468989Y-111385041D01*
X20557819Y-111831321D01*
X20600900Y-112281515D01*
X20598702Y-112732152D01*
X20551696Y-113179760D01*
X20460353Y-113620867D01*
X20325144Y-114052001D01*
X20146540Y-114469691D01*
X19925011Y-114870464D01*
X19661029Y-115250850D01*
X19355064Y-115607376D01*
X19149383Y-115810386D01*
X18797139Y-116103574D01*
X18412942Y-116361512D01*
X18003910Y-116580464D01*
X17577159Y-116756690D01*
X17139808Y-116886453D01*
X17069570Y-116902600D01*
X16745537Y-116959168D01*
X16396289Y-116993738D01*
X16041975Y-117005280D01*
X15702744Y-116992761D01*
X15565360Y-116979588D01*
X15320986Y-116942598D01*
X15057356Y-116888167D01*
X14800469Y-116822054D01*
X14660294Y-116779142D01*
X14485314Y-116713765D01*
X14283996Y-116625854D01*
X14070890Y-116522802D01*
X13860545Y-116412000D01*
X13667510Y-116300841D01*
X13506336Y-116196715D01*
X13487158Y-116183131D01*
X13111258Y-115883029D01*
X12773369Y-115551412D01*
X12474750Y-115191462D01*
X12216662Y-114806364D01*
X12000362Y-114399301D01*
X11827109Y-113973455D01*
X11698164Y-113532010D01*
X11614785Y-113078149D01*
X11578231Y-112615055D01*
X11582578Y-112438212D01*
X11609579Y-112438212D01*
X11628370Y-112896764D01*
X11691506Y-113350561D01*
X11798532Y-113793330D01*
X11948992Y-114218799D01*
X12069514Y-114482401D01*
X12307622Y-114901780D01*
X12583450Y-115288292D01*
X12894440Y-115640109D01*
X13238035Y-115955407D01*
X13611680Y-116232359D01*
X14012816Y-116469140D01*
X14438887Y-116663924D01*
X14887337Y-116814886D01*
X15355607Y-116920199D01*
X15518619Y-116945247D01*
X15689552Y-116961393D01*
X15895418Y-116969705D01*
X16120956Y-116970503D01*
X16350904Y-116964108D01*
X16570002Y-116950838D01*
X16762990Y-116931015D01*
X16853454Y-116917262D01*
X17312636Y-116811283D01*
X17751725Y-116660709D01*
X18168294Y-116468235D01*
X18559914Y-116236557D01*
X18924157Y-115968370D01*
X19258595Y-115666369D01*
X19560799Y-115333249D01*
X19828342Y-114971705D01*
X20058795Y-114584432D01*
X20249729Y-114174126D01*
X20398718Y-113743481D01*
X20503332Y-113295193D01*
X20561144Y-112831957D01*
X20563346Y-112799500D01*
X20569687Y-112324428D01*
X20528583Y-111861485D01*
X20442293Y-111413092D01*
X20313079Y-110981672D01*
X20143202Y-110569646D01*
X19934921Y-110179438D01*
X19690498Y-109813468D01*
X19412194Y-109474158D01*
X19102269Y-109163932D01*
X18762984Y-108885210D01*
X18396600Y-108640415D01*
X18005378Y-108431969D01*
X17591577Y-108262293D01*
X17157460Y-108133810D01*
X16705287Y-108048942D01*
X16237318Y-108010111D01*
X16090691Y-108007800D01*
X15612855Y-108032528D01*
X15147346Y-108105794D01*
X14696788Y-108226217D01*
X14263803Y-108392420D01*
X13851014Y-108603022D01*
X13461045Y-108856645D01*
X13096519Y-109151910D01*
X12760059Y-109487437D01*
X12454288Y-109861848D01*
X12387580Y-109954740D01*
X12300906Y-110090049D01*
X12204321Y-110260039D01*
X12104445Y-110451300D01*
X12007897Y-110650423D01*
X11921296Y-110843999D01*
X11851261Y-111018619D01*
X11823830Y-111096743D01*
X11706854Y-111531930D01*
X11635589Y-111981177D01*
X11609579Y-112438212D01*
X11582578Y-112438212D01*
X11589762Y-112145911D01*
X11650636Y-111673901D01*
G37*
G36*
X35919361Y-203749914D02*
G01*
X35943026Y-203748894D01*
X36032657Y-203746247D01*
X36514847Y-202299740D01*
X36614021Y-202003727D01*
X36704464Y-201736783D01*
X36785258Y-201501495D01*
X36855484Y-201300449D01*
X36914224Y-201136232D01*
X36960558Y-201011431D01*
X36993569Y-200928632D01*
X37012337Y-200890422D01*
X37015992Y-200888629D01*
X37028180Y-200918287D01*
X37056293Y-200990575D01*
X37098616Y-201100934D01*
X37153438Y-201244811D01*
X37219044Y-201417647D01*
X37293722Y-201614889D01*
X37375759Y-201831978D01*
X37463441Y-202064360D01*
X37555055Y-202307478D01*
X37648889Y-202556776D01*
X37743228Y-202807699D01*
X37836360Y-203055689D01*
X37926572Y-203296192D01*
X38012151Y-203524650D01*
X38091382Y-203736509D01*
X38162555Y-203927211D01*
X38223954Y-204092201D01*
X38273868Y-204226922D01*
X38310582Y-204326820D01*
X38332384Y-204387337D01*
X38337938Y-204404323D01*
X38313784Y-204409103D01*
X38246406Y-204413296D01*
X38143430Y-204416666D01*
X38012481Y-204418977D01*
X37861185Y-204419993D01*
X37831346Y-204420020D01*
X37324753Y-204420020D01*
X37243186Y-204203904D01*
X37161618Y-203987788D01*
X36110510Y-203987788D01*
X36051784Y-204172123D01*
X36000943Y-204308800D01*
X35950684Y-204399696D01*
X35902280Y-204443581D01*
X35857009Y-204439224D01*
X35820901Y-204394745D01*
X35809622Y-204352500D01*
X35820058Y-204295689D01*
X35854642Y-204210411D01*
X35901730Y-204104830D01*
X35927724Y-204035615D01*
X35933238Y-203993149D01*
X35918888Y-203967814D01*
X35885288Y-203949992D01*
X35871622Y-203944701D01*
X35814099Y-203910427D01*
X35795561Y-203859113D01*
X35795396Y-203851657D01*
X35805841Y-203794328D01*
X35833083Y-203771672D01*
X36184671Y-203771672D01*
X36250644Y-203787733D01*
X36298646Y-203793553D01*
X36386745Y-203798847D01*
X36504187Y-203803167D01*
X36640219Y-203806064D01*
X36707075Y-203806802D01*
X36855590Y-203807564D01*
X36960305Y-203806664D01*
X37028261Y-203803320D01*
X37066501Y-203796748D01*
X37082066Y-203786165D01*
X37082000Y-203770787D01*
X37080061Y-203765316D01*
X37066414Y-203729738D01*
X37037495Y-203653781D01*
X36996032Y-203544627D01*
X36944751Y-203409458D01*
X36886378Y-203255453D01*
X36845962Y-203148749D01*
X36784768Y-202987747D01*
X36729039Y-202842259D01*
X36681441Y-202719154D01*
X36644638Y-202625300D01*
X36621299Y-202567565D01*
X36614519Y-202552508D01*
X36602890Y-202568934D01*
X36577766Y-202627656D01*
X36541401Y-202722617D01*
X36496049Y-202847762D01*
X36443963Y-202997034D01*
X36392188Y-203150005D01*
X36184671Y-203771672D01*
X35833083Y-203771672D01*
X35843834Y-203762731D01*
X35919361Y-203749914D01*
G37*
G36*
X10515036Y-164443611D02*
G01*
X10685906Y-164448846D01*
X10821213Y-164460374D01*
X10936151Y-164481429D01*
X11045915Y-164515246D01*
X11165700Y-164565059D01*
X11232888Y-164596396D01*
X11354241Y-164662425D01*
X11465982Y-164743156D01*
X11584936Y-164851114D01*
X11614373Y-164880396D01*
X11795175Y-165094620D01*
X11927608Y-165324134D01*
X12011536Y-165568626D01*
X12046825Y-165827783D01*
X12048048Y-165887788D01*
X12023471Y-166135106D01*
X11952869Y-166377986D01*
X11840940Y-166608358D01*
X11692380Y-166818150D01*
X11511886Y-166999292D01*
X11323728Y-167132497D01*
X11153833Y-167231855D01*
X11213203Y-167278305D01*
X11338456Y-167357540D01*
X11497135Y-167430520D01*
X11671815Y-167491292D01*
X11845072Y-167533901D01*
X11999481Y-167552394D01*
X12016266Y-167552712D01*
X12098899Y-167553154D01*
X12098899Y-168163364D01*
X11974009Y-168163364D01*
X11749663Y-168144300D01*
X11510015Y-168090477D01*
X11271393Y-168006951D01*
X11050129Y-167898775D01*
X10978688Y-167855301D01*
X10902162Y-167806833D01*
X10843618Y-167771609D01*
X10814787Y-167756667D01*
X10814057Y-167756557D01*
X10808551Y-167779975D01*
X10804406Y-167842206D01*
X10802321Y-167931216D01*
X10802202Y-167959960D01*
X10802202Y-168163364D01*
X10191662Y-168163364D01*
X10196734Y-166714797D01*
X10802202Y-166714797D01*
X10897548Y-166675198D01*
X10982644Y-166634192D01*
X11072384Y-166582915D01*
X11089697Y-166571829D01*
X11221199Y-166456247D01*
X11324333Y-166307096D01*
X11395585Y-166135169D01*
X11431445Y-165951259D01*
X11428399Y-165766158D01*
X11396813Y-165628066D01*
X11326914Y-165479114D01*
X11225769Y-165340424D01*
X11103915Y-165222628D01*
X10971890Y-165136361D01*
X10872122Y-165098644D01*
X10802202Y-165081375D01*
X10802202Y-166714797D01*
X10196734Y-166714797D01*
X10198183Y-166300951D01*
X10202454Y-165081375D01*
X10204705Y-164438539D01*
X10515036Y-164443611D01*
G37*
G36*
X31918018Y-46210311D02*
G01*
X31918018Y-46642543D01*
X30989990Y-46656403D01*
X30989990Y-46782383D01*
X31930731Y-46782383D01*
X31930731Y-47240040D01*
X30984223Y-47240040D01*
X30994140Y-47500651D01*
X31002025Y-47638182D01*
X31015200Y-47739518D01*
X31036266Y-47819245D01*
X31061777Y-47879804D01*
X31177706Y-48061454D01*
X31330836Y-48211363D01*
X31515764Y-48325551D01*
X31727086Y-48400041D01*
X31784806Y-48412253D01*
X31956156Y-48443825D01*
X31956156Y-48867268D01*
X31822673Y-48865594D01*
X31715232Y-48857202D01*
X31598114Y-48837926D01*
X31552205Y-48827082D01*
X31322399Y-48739646D01*
X31105942Y-48606178D01*
X30939139Y-48460977D01*
X30784478Y-48280509D01*
X30672650Y-48090551D01*
X30600269Y-47882471D01*
X30563951Y-47647638D01*
X30558060Y-47489549D01*
X30557758Y-47243262D01*
X30475125Y-47235295D01*
X30392493Y-47227328D01*
X30392493Y-46795095D01*
X30475125Y-46787128D01*
X30557758Y-46779161D01*
X30557758Y-46196767D01*
X31918018Y-46210311D01*
G37*
G36*
X26229612Y-10693671D02*
G01*
X26288956Y-10738082D01*
X26381311Y-10808869D01*
X26503287Y-10903385D01*
X26651496Y-11018985D01*
X26822549Y-11153023D01*
X27013056Y-11302854D01*
X27219630Y-11465832D01*
X27438880Y-11639313D01*
X27508880Y-11694801D01*
X27731432Y-11871030D01*
X27942414Y-12037588D01*
X28138431Y-12191828D01*
X28316086Y-12331101D01*
X28471983Y-12452759D01*
X28602728Y-12554156D01*
X28704924Y-12632642D01*
X28775175Y-12685571D01*
X28810087Y-12710295D01*
X28813197Y-12711818D01*
X28818288Y-12687342D01*
X28822389Y-12616964D01*
X28825434Y-12505623D01*
X28827355Y-12358259D01*
X28828086Y-12179812D01*
X28827561Y-11975222D01*
X28825910Y-11768032D01*
X28823507Y-11523170D01*
X28822005Y-11324224D01*
X28821581Y-11166261D01*
X28822409Y-11044351D01*
X28824666Y-10953564D01*
X28828529Y-10888968D01*
X28834172Y-10845633D01*
X28841772Y-10818628D01*
X28851505Y-10803021D01*
X28860611Y-10795639D01*
X28915190Y-10781107D01*
X28949600Y-10795592D01*
X28958276Y-10803568D01*
X28965781Y-10818147D01*
X28972214Y-10842892D01*
X28977679Y-10881367D01*
X28982277Y-10937137D01*
X28986109Y-11013765D01*
X28989278Y-11114817D01*
X28991886Y-11243856D01*
X28994034Y-11404447D01*
X28995824Y-11600154D01*
X28997358Y-11834540D01*
X28998738Y-12111171D01*
X29000065Y-12433610D01*
X29000625Y-12581598D01*
X29001445Y-12875420D01*
X29001697Y-13153794D01*
X29001410Y-13412633D01*
X29000613Y-13647850D01*
X28999336Y-13855360D01*
X28997609Y-14031074D01*
X28995461Y-14170907D01*
X28992921Y-14270771D01*
X28990020Y-14326581D01*
X28987912Y-14337296D01*
X28965115Y-14321578D01*
X28905812Y-14276980D01*
X28813399Y-14206144D01*
X28691274Y-14111712D01*
X28542832Y-13996325D01*
X28371470Y-13862626D01*
X28180584Y-13713256D01*
X27973571Y-13550857D01*
X27753827Y-13378071D01*
X27684685Y-13323624D01*
X26400701Y-12312195D01*
X26387988Y-13252862D01*
X26384622Y-13496294D01*
X26381541Y-13693891D01*
X26378405Y-13850663D01*
X26374875Y-13971622D01*
X26370609Y-14061779D01*
X26365267Y-14126145D01*
X26358511Y-14169732D01*
X26349998Y-14197550D01*
X26339389Y-14214611D01*
X26326345Y-14225926D01*
X26321720Y-14229072D01*
X26276203Y-14250743D01*
X26238673Y-14235854D01*
X26220018Y-14219446D01*
X26210641Y-14209104D01*
X26202590Y-14194554D01*
X26195783Y-14172163D01*
X26190137Y-14138303D01*
X26185570Y-14089343D01*
X26181997Y-14021653D01*
X26179337Y-13931603D01*
X26177507Y-13815562D01*
X26176423Y-13669902D01*
X26176002Y-13490991D01*
X26176163Y-13275200D01*
X26176821Y-13018898D01*
X26177894Y-12718456D01*
X26179068Y-12426277D01*
X26180564Y-12133232D01*
X26182541Y-11855593D01*
X26184936Y-11597464D01*
X26187683Y-11362952D01*
X26190718Y-11156162D01*
X26193976Y-10981198D01*
X26197392Y-10842167D01*
X26200901Y-10743173D01*
X26204439Y-10688322D01*
X26206667Y-10678279D01*
X26229612Y-10693671D01*
G37*
G36*
X36475526Y-10795631D02*
G01*
X36486451Y-10805481D01*
X36495435Y-10823006D01*
X36502667Y-10852828D01*
X36508333Y-10899570D01*
X36512623Y-10967854D01*
X36515725Y-11062302D01*
X36517826Y-11187537D01*
X36519115Y-11348180D01*
X36519779Y-11548855D01*
X36520008Y-11794182D01*
X36520020Y-11888794D01*
X36519853Y-12169250D01*
X36518907Y-12404495D01*
X36516514Y-12600166D01*
X36512009Y-12761902D01*
X36504723Y-12895344D01*
X36493989Y-13006128D01*
X36479140Y-13099894D01*
X36459510Y-13182281D01*
X36434431Y-13258928D01*
X36403235Y-13335473D01*
X36365257Y-13417555D01*
X36330754Y-13488522D01*
X36194533Y-13710237D01*
X36020428Y-13899840D01*
X35812278Y-14054285D01*
X35573922Y-14170528D01*
X35402316Y-14224743D01*
X35253945Y-14249980D01*
X35075111Y-14261299D01*
X34884183Y-14258971D01*
X34699527Y-14243271D01*
X34539511Y-14214470D01*
X34528970Y-14211778D01*
X34277648Y-14121053D01*
X34055001Y-13988896D01*
X33862757Y-13816997D01*
X33702642Y-13607046D01*
X33576384Y-13360733D01*
X33529443Y-13233534D01*
X33515463Y-13189471D01*
X33503857Y-13146783D01*
X33494359Y-13100331D01*
X33486703Y-13044973D01*
X33480623Y-12975570D01*
X33475854Y-12886981D01*
X33472128Y-12774066D01*
X33469179Y-12631684D01*
X33466743Y-12454695D01*
X33464552Y-12237958D01*
X33462340Y-11976333D01*
X33461967Y-11930025D01*
X33452928Y-10804494D01*
X34071159Y-10811306D01*
X34689390Y-10818119D01*
X34695933Y-12436073D01*
X34702477Y-14054027D01*
X34759497Y-14069309D01*
X34839457Y-14080873D01*
X34953310Y-14085096D01*
X35084717Y-14082565D01*
X35217343Y-14073867D01*
X35334849Y-14059587D01*
X35400412Y-14046311D01*
X35627679Y-13962377D01*
X35825305Y-13837367D01*
X35991456Y-13672782D01*
X36124295Y-13470121D01*
X36137747Y-13443646D01*
X36177966Y-13361477D01*
X36211479Y-13288615D01*
X36238970Y-13219507D01*
X36261120Y-13148600D01*
X36278612Y-13070340D01*
X36292127Y-12979175D01*
X36302349Y-12869552D01*
X36309958Y-12735918D01*
X36315639Y-12572719D01*
X36320072Y-12374403D01*
X36323940Y-12135417D01*
X36327221Y-11901437D01*
X36330978Y-11637853D01*
X36334487Y-11420537D01*
X36337993Y-11244908D01*
X36341742Y-11106386D01*
X36345979Y-11000389D01*
X36350950Y-10922338D01*
X36356901Y-10867651D01*
X36364078Y-10831748D01*
X36372725Y-10810048D01*
X36383090Y-10797971D01*
X36386537Y-10795561D01*
X36441186Y-10781133D01*
X36475526Y-10795631D01*
G37*
G36*
X43067067Y-128118319D02*
G01*
X42456857Y-128118319D01*
X42456857Y-124406207D01*
X43067067Y-124406207D01*
X43067067Y-128118319D01*
G37*
G36*
X17708616Y-102827328D02*
G01*
X17733716Y-102858393D01*
X17742488Y-102918649D01*
X17743371Y-103013196D01*
X17743343Y-103034984D01*
X17743343Y-103249948D01*
X17647998Y-103264843D01*
X17414328Y-103319429D01*
X17218028Y-103405272D01*
X17054833Y-103524431D01*
X17002752Y-103576546D01*
X16877887Y-103746294D01*
X16799820Y-103929714D01*
X16768529Y-104120638D01*
X16783992Y-104312897D01*
X16846185Y-104500325D01*
X16955087Y-104676751D01*
X17006968Y-104737739D01*
X17139237Y-104850722D01*
X17305120Y-104945322D01*
X17488379Y-105013179D01*
X17584435Y-105034995D01*
X17743343Y-105062891D01*
X17743343Y-105489690D01*
X17635285Y-105487669D01*
X17549623Y-105480849D01*
X17442646Y-105465401D01*
X17368640Y-105451193D01*
X17141169Y-105376593D01*
X16930487Y-105258630D01*
X16742402Y-105103592D01*
X16582719Y-104917769D01*
X16457244Y-104707447D01*
X16371784Y-104478915D01*
X16342797Y-104340208D01*
X16331556Y-104099580D01*
X16367389Y-103865518D01*
X16446541Y-103643044D01*
X16565259Y-103437177D01*
X16719788Y-103252938D01*
X16906374Y-103095347D01*
X17121264Y-102969423D01*
X17360704Y-102880188D01*
X17450951Y-102858270D01*
X17575672Y-102832367D01*
X17658748Y-102820352D01*
X17708616Y-102827328D01*
G37*
G36*
X22949199Y-164431376D02*
G01*
X23247948Y-164438539D01*
X23254500Y-165995846D01*
X23261052Y-167553154D01*
X24379379Y-167553154D01*
X24379379Y-168163364D01*
X22650451Y-168163364D01*
X22650451Y-164424212D01*
X22949199Y-164431376D01*
G37*
G36*
X36405606Y-77470871D02*
G01*
X35719119Y-77470871D01*
X35719119Y-80572773D01*
X35108909Y-80572773D01*
X35108909Y-77470871D01*
X34422423Y-77470871D01*
X34422423Y-76860661D01*
X36405606Y-76860661D01*
X36405606Y-77470871D01*
G37*
G36*
X40248344Y-125530290D02*
G01*
X40594438Y-124418919D01*
X40862338Y-124411726D01*
X41130239Y-124404532D01*
X41156861Y-124488002D01*
X41183225Y-124571297D01*
X41221263Y-124692384D01*
X41269550Y-124846673D01*
X41326664Y-125029575D01*
X41391179Y-125236502D01*
X41461671Y-125462864D01*
X41536716Y-125704072D01*
X41614890Y-125955537D01*
X41694769Y-126212670D01*
X41774928Y-126470883D01*
X41853943Y-126725586D01*
X41930391Y-126972190D01*
X42002846Y-127206107D01*
X42069885Y-127422747D01*
X42130083Y-127617521D01*
X42182016Y-127785841D01*
X42224261Y-127923117D01*
X42255392Y-128024761D01*
X42273986Y-128086182D01*
X42278879Y-128103308D01*
X42255065Y-128109011D01*
X42190059Y-128113718D01*
X42093520Y-128116970D01*
X41975104Y-128118308D01*
X41963033Y-128118319D01*
X41647187Y-128118319D01*
X41621248Y-128035686D01*
X41604145Y-127981006D01*
X41575613Y-127889576D01*
X41539332Y-127773201D01*
X41498985Y-127643684D01*
X41490258Y-127615656D01*
X41385206Y-127278260D01*
X40861633Y-127285126D01*
X40338059Y-127291992D01*
X40210531Y-127705156D01*
X40083002Y-128118319D01*
X39436456Y-128118319D01*
X39570264Y-127700155D01*
X39704073Y-127281992D01*
X39624860Y-127274279D01*
X39545646Y-127266567D01*
X39545646Y-126656357D01*
X39723947Y-126649008D01*
X39854106Y-126643644D01*
X40544437Y-126643644D01*
X40865012Y-126643644D01*
X40985926Y-126642227D01*
X41085914Y-126638356D01*
X41155408Y-126632602D01*
X41184835Y-126625533D01*
X41185220Y-126624575D01*
X41177604Y-126595653D01*
X41156553Y-126525908D01*
X41124416Y-126422855D01*
X41083544Y-126294008D01*
X41036285Y-126146884D01*
X41024260Y-126109710D01*
X40863666Y-125613914D01*
X40721117Y-126058859D01*
X40674366Y-126205673D01*
X40632120Y-126340006D01*
X40597236Y-126452639D01*
X40572571Y-126534353D01*
X40561503Y-126573724D01*
X40544437Y-126643644D01*
X39854106Y-126643644D01*
X39902249Y-126641660D01*
X40248344Y-125530290D01*
G37*
G36*
X40351740Y-200985413D02*
G01*
X40588467Y-201053803D01*
X40802586Y-201165286D01*
X40992275Y-201317819D01*
X41155710Y-201509356D01*
X41291070Y-201737853D01*
X41396532Y-202001266D01*
X41470271Y-202297549D01*
X41503981Y-202543497D01*
X41507942Y-202773554D01*
X41482038Y-203023035D01*
X41429780Y-203275969D01*
X41354678Y-203516380D01*
X41260242Y-203728295D01*
X41233011Y-203776660D01*
X41142259Y-203907138D01*
X41027029Y-204040111D01*
X40901685Y-204160784D01*
X40780590Y-204254362D01*
X40751863Y-204272260D01*
X40586338Y-204351150D01*
X40397984Y-204411409D01*
X40204100Y-204449231D01*
X40021984Y-204460810D01*
X39927027Y-204453784D01*
X39676420Y-204393892D01*
X39447141Y-204289640D01*
X39411118Y-204264090D01*
X39888889Y-204264090D01*
X39958809Y-204275169D01*
X40047856Y-204280103D01*
X40163719Y-204274619D01*
X40283892Y-204260679D01*
X40385867Y-204240240D01*
X40397398Y-204236976D01*
X40609913Y-204147676D01*
X40803480Y-204013794D01*
X40974608Y-203839189D01*
X41119810Y-203627723D01*
X41235598Y-203383256D01*
X41277284Y-203263164D01*
X41296710Y-203189761D01*
X41310268Y-203108233D01*
X41318857Y-203007981D01*
X41323374Y-202878405D01*
X41324720Y-202708906D01*
X41324721Y-202703804D01*
X41323446Y-202533110D01*
X41319024Y-202402619D01*
X41310554Y-202301730D01*
X41297139Y-202219845D01*
X41277879Y-202146364D01*
X41277284Y-202144445D01*
X41176382Y-201887456D01*
X41044461Y-201660891D01*
X40885224Y-201469434D01*
X40702377Y-201317765D01*
X40558221Y-201235843D01*
X40465197Y-201195414D01*
X40383163Y-201169711D01*
X40293263Y-201154640D01*
X40176644Y-201146106D01*
X40136787Y-201144337D01*
X39888889Y-201134226D01*
X39888889Y-204264090D01*
X39411118Y-204264090D01*
X39241638Y-204143885D01*
X39062360Y-203959483D01*
X38911756Y-203739292D01*
X38792273Y-203486168D01*
X38706360Y-203202967D01*
X38666854Y-202983484D01*
X38647886Y-202694612D01*
X38665224Y-202405010D01*
X38717064Y-202126929D01*
X38801599Y-201872622D01*
X38844278Y-201780072D01*
X38992321Y-201534538D01*
X39166499Y-201331329D01*
X39365250Y-201171466D01*
X39436755Y-201134226D01*
X39587014Y-201055970D01*
X39830232Y-200985862D01*
X40093342Y-200962163D01*
X40094229Y-200962163D01*
X40351740Y-200985413D01*
G37*
G36*
X14800350Y-118844784D02*
G01*
X15062188Y-118881597D01*
X15296295Y-118959901D01*
X15507047Y-119081749D01*
X15698820Y-119249198D01*
X15728442Y-119280805D01*
X15885653Y-119487996D01*
X15996900Y-119711127D01*
X16062344Y-119944738D01*
X16082148Y-120183370D01*
X16056477Y-120421561D01*
X15985492Y-120653852D01*
X15869357Y-120874783D01*
X15708235Y-121078892D01*
X15673716Y-121114168D01*
X15470950Y-121282281D01*
X15249587Y-121403320D01*
X15007992Y-121477951D01*
X14744531Y-121506842D01*
X14711361Y-121507267D01*
X14565165Y-121507708D01*
X14565165Y-120170117D01*
X14997398Y-120170117D01*
X14998168Y-120438747D01*
X15000483Y-120656674D01*
X15004346Y-120824025D01*
X15009760Y-120940925D01*
X15016730Y-121007498D01*
X15023668Y-121024625D01*
X15059531Y-121013846D01*
X15123776Y-120986124D01*
X15175371Y-120961064D01*
X15340872Y-120851034D01*
X15471027Y-120711259D01*
X15565404Y-120548965D01*
X15623569Y-120371377D01*
X15645091Y-120185721D01*
X15629536Y-119999222D01*
X15576473Y-119819106D01*
X15485469Y-119652600D01*
X15356091Y-119506928D01*
X15266592Y-119437061D01*
X15184744Y-119386407D01*
X15108408Y-119347428D01*
X15067317Y-119332350D01*
X14997398Y-119315609D01*
X14997398Y-120170117D01*
X14565165Y-120170117D01*
X14565165Y-118830567D01*
X14800350Y-118844784D01*
G37*
G36*
X11590827Y-72198020D02*
G01*
X11653064Y-71730665D01*
X11668087Y-71654257D01*
X11786629Y-71201286D01*
X11950714Y-70766452D01*
X12157596Y-70352862D01*
X12404530Y-69963625D01*
X12688769Y-69601846D01*
X13007569Y-69270633D01*
X13358183Y-68973093D01*
X13737865Y-68712333D01*
X14143871Y-68491460D01*
X14573455Y-68313582D01*
X14640556Y-68290533D01*
X15109902Y-68158874D01*
X15578635Y-68078041D01*
X16047167Y-68048035D01*
X16515911Y-68068857D01*
X16985279Y-68140506D01*
X17455684Y-68262983D01*
X17545624Y-68292137D01*
X17978967Y-68463570D01*
X18391423Y-68680099D01*
X18779472Y-68939027D01*
X19139595Y-69237657D01*
X19468275Y-69573293D01*
X19761993Y-69943238D01*
X19831955Y-70044349D01*
X20075749Y-70450723D01*
X20272553Y-70871479D01*
X20423031Y-71303287D01*
X20527844Y-71742816D01*
X20587654Y-72186735D01*
X20603126Y-72631712D01*
X20574920Y-73074417D01*
X20503701Y-73511520D01*
X20390130Y-73939688D01*
X20234870Y-74355591D01*
X20038584Y-74755898D01*
X19801933Y-75137278D01*
X19525582Y-75496401D01*
X19210192Y-75829934D01*
X18856427Y-76134548D01*
X18581149Y-76332219D01*
X18181830Y-76567491D01*
X17758712Y-76760436D01*
X17317422Y-76909664D01*
X16863586Y-77013784D01*
X16402831Y-77071404D01*
X15940782Y-77081134D01*
X15635757Y-77060427D01*
X15168846Y-76986547D01*
X14714472Y-76864992D01*
X14276432Y-76697903D01*
X13858522Y-76487420D01*
X13464536Y-76235685D01*
X13098272Y-75944837D01*
X12763525Y-75617019D01*
X12486409Y-75284285D01*
X12222281Y-74891825D01*
X12002014Y-74476414D01*
X11826530Y-74042134D01*
X11696748Y-73593070D01*
X11613590Y-73133307D01*
X11578072Y-72668179D01*
X11608051Y-72668179D01*
X11639011Y-73105859D01*
X11712561Y-73539662D01*
X11828894Y-73966150D01*
X11988204Y-74381884D01*
X12190685Y-74783427D01*
X12436531Y-75167340D01*
X12725935Y-75530185D01*
X12845305Y-75659673D01*
X13197319Y-75991826D01*
X13573816Y-76279421D01*
X13974677Y-76522409D01*
X14399786Y-76720737D01*
X14849027Y-76874354D01*
X15322283Y-76983209D01*
X15819437Y-77047251D01*
X16029791Y-77060527D01*
X16085030Y-77059864D01*
X16178226Y-77055481D01*
X16296680Y-77048090D01*
X16427691Y-77038404D01*
X16436598Y-77037691D01*
X16906268Y-76975344D01*
X17359450Y-76866652D01*
X17793563Y-76714020D01*
X18206020Y-76519852D01*
X18594240Y-76286553D01*
X18955638Y-76016527D01*
X19287630Y-75712179D01*
X19587632Y-75375914D01*
X19853061Y-75010136D01*
X20081334Y-74617248D01*
X20269865Y-74199657D01*
X20416072Y-73759766D01*
X20517370Y-73299980D01*
X20528492Y-73229709D01*
X20551788Y-73019057D01*
X20564988Y-72776039D01*
X20568104Y-72518126D01*
X20561146Y-72262787D01*
X20544127Y-72027493D01*
X20527597Y-71893059D01*
X20434466Y-71436349D01*
X20295999Y-70997908D01*
X20114945Y-70580272D01*
X19894050Y-70185973D01*
X19636063Y-69817547D01*
X19343732Y-69477528D01*
X19019805Y-69168450D01*
X18667030Y-68892847D01*
X18288154Y-68653255D01*
X17885925Y-68452206D01*
X17463092Y-68292237D01*
X17022402Y-68175880D01*
X16566604Y-68105670D01*
X16406921Y-68092650D01*
X15918599Y-68086191D01*
X15441849Y-68128596D01*
X14978645Y-68219230D01*
X14530959Y-68357456D01*
X14100767Y-68542639D01*
X13690039Y-68774142D01*
X13300751Y-69051329D01*
X13213943Y-69121904D01*
X12870322Y-69439756D01*
X12567547Y-69784676D01*
X12305810Y-70153225D01*
X12085305Y-70541964D01*
X11906226Y-70947455D01*
X11768768Y-71366261D01*
X11673123Y-71794942D01*
X11619486Y-72230061D01*
X11608051Y-72668179D01*
X11578072Y-72668179D01*
X11577976Y-72666928D01*
X11590827Y-72198020D01*
G37*
G36*
X30175008Y-201018356D02*
G01*
X30228461Y-201068529D01*
X30313778Y-201150051D01*
X30426540Y-201258641D01*
X30562331Y-201390016D01*
X30716732Y-201539896D01*
X30885327Y-201703998D01*
X31063696Y-201878043D01*
X31243491Y-202053896D01*
X32137656Y-202929514D01*
X32131995Y-201968818D01*
X32130632Y-201711989D01*
X32130179Y-201501704D01*
X32131116Y-201333655D01*
X32133922Y-201203538D01*
X32139075Y-201107046D01*
X32147054Y-201039873D01*
X32158338Y-200997714D01*
X32173407Y-200976263D01*
X32192738Y-200971214D01*
X32216810Y-200978260D01*
X32240822Y-200990257D01*
X32249756Y-200997072D01*
X32257450Y-201009643D01*
X32263997Y-201031542D01*
X32269490Y-201066340D01*
X32274021Y-201117610D01*
X32277680Y-201188924D01*
X32280562Y-201283854D01*
X32282757Y-201405973D01*
X32284359Y-201558854D01*
X32285459Y-201746067D01*
X32286149Y-201971185D01*
X32286521Y-202237781D01*
X32286668Y-202549428D01*
X32286687Y-202768262D01*
X32286418Y-203061729D01*
X32285640Y-203339761D01*
X32284399Y-203598265D01*
X32282739Y-203833145D01*
X32280704Y-204040308D01*
X32278339Y-204215658D01*
X32275688Y-204355102D01*
X32272797Y-204454545D01*
X32269709Y-204509893D01*
X32267618Y-204520284D01*
X32246372Y-204502777D01*
X32192061Y-204452919D01*
X32108002Y-204373880D01*
X31997512Y-204268835D01*
X31863910Y-204140956D01*
X31710512Y-203993415D01*
X31540636Y-203829387D01*
X31357599Y-203652044D01*
X31218819Y-203517205D01*
X31028339Y-203332214D01*
X30848628Y-203158248D01*
X30683002Y-202998480D01*
X30534778Y-202856080D01*
X30407271Y-202734222D01*
X30303799Y-202636077D01*
X30227677Y-202564817D01*
X30182221Y-202523614D01*
X30170330Y-202514339D01*
X30165917Y-202538550D01*
X30161520Y-202608035D01*
X30157289Y-202717220D01*
X30153375Y-202860528D01*
X30149928Y-203032383D01*
X30147097Y-203227211D01*
X30145035Y-203439434D01*
X30144904Y-203457448D01*
X30143013Y-203702818D01*
X30140981Y-203902245D01*
X30138551Y-204060634D01*
X30135468Y-204182894D01*
X30131477Y-204273930D01*
X30126321Y-204338649D01*
X30119744Y-204381959D01*
X30111491Y-204408765D01*
X30101306Y-204423976D01*
X30094221Y-204429539D01*
X30073698Y-204441625D01*
X30055944Y-204447982D01*
X30040777Y-204445324D01*
X30028011Y-204430360D01*
X30017465Y-204399805D01*
X30008954Y-204350368D01*
X30002294Y-204278763D01*
X29997303Y-204181700D01*
X29993796Y-204055893D01*
X29991589Y-203898053D01*
X29990500Y-203704891D01*
X29990345Y-203473120D01*
X29990939Y-203199451D01*
X29992100Y-202880596D01*
X29993188Y-202620157D01*
X30000689Y-200858433D01*
X30175008Y-201018356D01*
G37*
G36*
X53618619Y-198089089D02*
G01*
X3581382Y-198089089D01*
X3581382Y-197300901D01*
X53618619Y-197300901D01*
X53618619Y-198089089D01*
G37*
G36*
X14412613Y-165035178D02*
G01*
X13757908Y-165041964D01*
X13103203Y-165048749D01*
X13095337Y-165143669D01*
X13087472Y-165238590D01*
X13756399Y-165245371D01*
X14425325Y-165252153D01*
X14439603Y-165875075D01*
X13083183Y-165875075D01*
X13097559Y-166199250D01*
X13109379Y-166383882D01*
X13129054Y-166531580D01*
X13160535Y-166656112D01*
X13207776Y-166771244D01*
X13274727Y-166890743D01*
X13313453Y-166951306D01*
X13471478Y-167146523D01*
X13664189Y-167305200D01*
X13889930Y-167426366D01*
X14147046Y-167509051D01*
X14317267Y-167540001D01*
X14438038Y-167556269D01*
X14438038Y-168163364D01*
X14304555Y-168159554D01*
X14210615Y-168155237D01*
X14124954Y-168148646D01*
X14094795Y-168145196D01*
X13812602Y-168081054D01*
X13542530Y-167970546D01*
X13290416Y-167817771D01*
X13062099Y-167626824D01*
X12863417Y-167401803D01*
X12717802Y-167178984D01*
X12631043Y-167002811D01*
X12567256Y-166821069D01*
X12523459Y-166621569D01*
X12496673Y-166392121D01*
X12487626Y-166237388D01*
X12472508Y-165875075D01*
X12276877Y-165875075D01*
X12276877Y-165239440D01*
X12478989Y-165239440D01*
X12485991Y-164838989D01*
X12492993Y-164438539D01*
X14412613Y-164425215D01*
X14412613Y-165035178D01*
G37*
G36*
X48482683Y-48867268D02*
G01*
X48050451Y-48867268D01*
X48050451Y-46912098D01*
X47967818Y-46850242D01*
X47834546Y-46764768D01*
X47700030Y-46703103D01*
X47675426Y-46694901D01*
X47618218Y-46677254D01*
X47618218Y-48867268D01*
X47160107Y-48867268D01*
X47166690Y-47538789D01*
X47173273Y-46210311D01*
X47402102Y-46217878D01*
X47576197Y-46231646D01*
X47733464Y-46264073D01*
X47839341Y-46297017D01*
X48047750Y-46368587D01*
X48055457Y-46289449D01*
X48063163Y-46210311D01*
X48482683Y-46195541D01*
X48482683Y-48867268D01*
G37*
G36*
X33982335Y-46200505D02*
G01*
X34059098Y-46208812D01*
X34091239Y-46221899D01*
X34091892Y-46224410D01*
X34079592Y-46252830D01*
X34044957Y-46318979D01*
X33991386Y-46416728D01*
X33922278Y-46539948D01*
X33841031Y-46682508D01*
X33761361Y-46820521D01*
X33672146Y-46975275D01*
X33592056Y-47116293D01*
X33524494Y-47237413D01*
X33472862Y-47332474D01*
X33440562Y-47395314D01*
X33430831Y-47419123D01*
X33443199Y-47447533D01*
X33478258Y-47514296D01*
X33532940Y-47613917D01*
X33604176Y-47740906D01*
X33688899Y-47889769D01*
X33784040Y-48055014D01*
X33837638Y-48147355D01*
X33936843Y-48318115D01*
X34027301Y-48474432D01*
X34105966Y-48610990D01*
X34169790Y-48722475D01*
X34215725Y-48803572D01*
X34240723Y-48848966D01*
X34244445Y-48856776D01*
X34220837Y-48861190D01*
X34157283Y-48864593D01*
X34064682Y-48866543D01*
X33996547Y-48866827D01*
X33748649Y-48866387D01*
X33457533Y-48358330D01*
X33166418Y-47850273D01*
X33043959Y-48060022D01*
X32981557Y-48167331D01*
X32904117Y-48301132D01*
X32821837Y-48443773D01*
X32750290Y-48568238D01*
X32579079Y-48866706D01*
X32331181Y-48866987D01*
X32225908Y-48866108D01*
X32142836Y-48863513D01*
X32092864Y-48859653D01*
X32083283Y-48856782D01*
X32095567Y-48833052D01*
X32130393Y-48770686D01*
X32184727Y-48674994D01*
X32255532Y-48551290D01*
X32339771Y-48404885D01*
X32434409Y-48241091D01*
X32490090Y-48145004D01*
X32589353Y-47973092D01*
X32679857Y-47814822D01*
X32758549Y-47675655D01*
X32822376Y-47561049D01*
X32868286Y-47476465D01*
X32893225Y-47427362D01*
X32896897Y-47417518D01*
X32884577Y-47389276D01*
X32849889Y-47323324D01*
X32796239Y-47225787D01*
X32727034Y-47102787D01*
X32645683Y-46960450D01*
X32566366Y-46823401D01*
X32477078Y-46668905D01*
X32396934Y-46528160D01*
X32329344Y-46407326D01*
X32277721Y-46312562D01*
X32245475Y-46250029D01*
X32235836Y-46226538D01*
X32259929Y-46210566D01*
X32332771Y-46200957D01*
X32455209Y-46197604D01*
X32461552Y-46197598D01*
X32577864Y-46199680D01*
X32653794Y-46207031D01*
X32699685Y-46221309D01*
X32722162Y-46239358D01*
X32746981Y-46275507D01*
X32791660Y-46346705D01*
X32850681Y-46443937D01*
X32918528Y-46558185D01*
X32947748Y-46608078D01*
X33016230Y-46723227D01*
X33077180Y-46821478D01*
X33125504Y-46894942D01*
X33156110Y-46935728D01*
X33162835Y-46941342D01*
X33183313Y-46922691D01*
X33223678Y-46867108D01*
X33278993Y-46782040D01*
X33344321Y-46674934D01*
X33381241Y-46611910D01*
X33451233Y-46491877D01*
X33514484Y-46385421D01*
X33565670Y-46301352D01*
X33599470Y-46248478D01*
X33607856Y-46236885D01*
X33638141Y-46216583D01*
X33694175Y-46204271D01*
X33785413Y-46198511D01*
X33866176Y-46197598D01*
X33982335Y-46200505D01*
G37*
G36*
X26975508Y-203962288D02*
G01*
X26830308Y-203756724D01*
X26776706Y-203657258D01*
X26705116Y-203501657D01*
X26652844Y-203361128D01*
X26616519Y-203221071D01*
X26592773Y-203066886D01*
X26578233Y-202883975D01*
X26573330Y-202776298D01*
X26570277Y-202548600D01*
X26581879Y-202355702D01*
X26610896Y-202182964D01*
X26660088Y-202015743D01*
X26732215Y-201839401D01*
X26761969Y-201775776D01*
X26831160Y-201641161D01*
X26899046Y-201535020D01*
X26979758Y-201437377D01*
X27058752Y-201356185D01*
X27249345Y-201192514D01*
X27444342Y-201075642D01*
X27652928Y-201001741D01*
X27884293Y-200966985D01*
X28002503Y-200963086D01*
X28261425Y-200986292D01*
X28500595Y-201055794D01*
X28717782Y-201170151D01*
X28910756Y-201327921D01*
X29077289Y-201527664D01*
X29200223Y-201737071D01*
X29303824Y-201982837D01*
X29370897Y-202233024D01*
X29403853Y-202500053D01*
X29405260Y-202792793D01*
X29385391Y-203043017D01*
X29346222Y-203262085D01*
X29283546Y-203467399D01*
X29193153Y-203676364D01*
X29190062Y-203682683D01*
X29104947Y-203825921D01*
X28992539Y-203971933D01*
X28864571Y-204108198D01*
X28732777Y-204222194D01*
X28611627Y-204300026D01*
X28374216Y-204394663D01*
X28126483Y-204446953D01*
X27880276Y-204454863D01*
X27774577Y-204443622D01*
X27556244Y-204385597D01*
X27345564Y-204282310D01*
X27304657Y-204252463D01*
X27799099Y-204252463D01*
X27862663Y-204270404D01*
X27944232Y-204279974D01*
X28056605Y-204275896D01*
X28182162Y-204260049D01*
X28303284Y-204234310D01*
X28359077Y-204217499D01*
X28567386Y-204119620D01*
X28755368Y-203978006D01*
X28919493Y-203796917D01*
X29056233Y-203580614D01*
X29162058Y-203333358D01*
X29202236Y-203199600D01*
X29226823Y-203065269D01*
X29241877Y-202897950D01*
X29247388Y-202713819D01*
X29243344Y-202529052D01*
X29229733Y-202359826D01*
X29206544Y-202222316D01*
X29202930Y-202208008D01*
X29112649Y-201944138D01*
X28992054Y-201713094D01*
X28844231Y-201517568D01*
X28672262Y-201360252D01*
X28479234Y-201243840D01*
X28268228Y-201171023D01*
X28042331Y-201144495D01*
X27985654Y-201145338D01*
X27799099Y-201152853D01*
X27799099Y-204252463D01*
X27304657Y-204252463D01*
X27149622Y-204139345D01*
X26975508Y-203962288D01*
G37*
G36*
X11615548Y-46936988D02*
G01*
X11700977Y-46478632D01*
X11834834Y-46028487D01*
X11900914Y-45854355D01*
X12099905Y-45427888D01*
X12341162Y-45026541D01*
X12621495Y-44653327D01*
X12937713Y-44311257D01*
X13286623Y-44003345D01*
X13665037Y-43732601D01*
X14069762Y-43502039D01*
X14497608Y-43314671D01*
X14647765Y-43261344D01*
X15114040Y-43131457D01*
X15584326Y-43052071D01*
X16056687Y-43023188D01*
X16529186Y-43044806D01*
X16999890Y-43116927D01*
X17466861Y-43239549D01*
X17533616Y-43261344D01*
X17966713Y-43432559D01*
X18377210Y-43647321D01*
X18762166Y-43902437D01*
X19118644Y-44194713D01*
X19443702Y-44520956D01*
X19734403Y-44877972D01*
X19987807Y-45262568D01*
X20200974Y-45671550D01*
X20370965Y-46101725D01*
X20472879Y-46454781D01*
X20498477Y-46568186D01*
X20524729Y-46697986D01*
X20549367Y-46831263D01*
X20570125Y-46955098D01*
X20584732Y-47056572D01*
X20590922Y-47122768D01*
X20590991Y-47127466D01*
X20615990Y-47128612D01*
X20689281Y-47129724D01*
X20808306Y-47130797D01*
X20970506Y-47131824D01*
X21173323Y-47132799D01*
X21414197Y-47133715D01*
X21690571Y-47134568D01*
X21999885Y-47135349D01*
X22339582Y-47136054D01*
X22707102Y-47136676D01*
X23099887Y-47137209D01*
X23515379Y-47137647D01*
X23951018Y-47137983D01*
X24404247Y-47138211D01*
X24872506Y-47138326D01*
X25091291Y-47138339D01*
X29591592Y-47138339D01*
X29591592Y-47926527D01*
X20594650Y-47926527D01*
X20577877Y-48072723D01*
X20555850Y-48219665D01*
X20521288Y-48397509D01*
X20478183Y-48589070D01*
X20430527Y-48777159D01*
X20382314Y-48944591D01*
X20358335Y-49017821D01*
X20181408Y-49452219D01*
X19961488Y-49862681D01*
X19701690Y-50246486D01*
X19405127Y-50600912D01*
X19074912Y-50923240D01*
X18714159Y-51210749D01*
X18325982Y-51460718D01*
X17913494Y-51670427D01*
X17479810Y-51837155D01*
X17028041Y-51958182D01*
X16982473Y-51967569D01*
X16879928Y-51987131D01*
X16783204Y-52002879D01*
X16681600Y-52015978D01*
X16564411Y-52027592D01*
X16420934Y-52038884D01*
X16240468Y-52051017D01*
X16179680Y-52054860D01*
X16100033Y-52056469D01*
X15987066Y-52054434D01*
X15858146Y-52049213D01*
X15771840Y-52044181D01*
X15310562Y-51988439D01*
X14859340Y-51884433D01*
X14421959Y-51734362D01*
X14002203Y-51540426D01*
X13603854Y-51304823D01*
X13230698Y-51029752D01*
X12886517Y-50717411D01*
X12575096Y-50370001D01*
X12339492Y-50049550D01*
X12097273Y-49642328D01*
X11900645Y-49216164D01*
X11750012Y-48774938D01*
X11645780Y-48322529D01*
X11588355Y-47862815D01*
X11584908Y-47706497D01*
X11611615Y-47706497D01*
X11653143Y-48173750D01*
X11740591Y-48626555D01*
X11871931Y-49062380D01*
X12045135Y-49478694D01*
X12258173Y-49872964D01*
X12509018Y-50242658D01*
X12795640Y-50585244D01*
X13116011Y-50898191D01*
X13468103Y-51178965D01*
X13849888Y-51425036D01*
X14259335Y-51633871D01*
X14694417Y-51802938D01*
X15153106Y-51929705D01*
X15427811Y-51982631D01*
X15576576Y-51999603D01*
X15762941Y-52009765D01*
X15974326Y-52013428D01*
X16198148Y-52010900D01*
X16421827Y-52002492D01*
X16632781Y-51988513D01*
X16818429Y-51969274D01*
X16966189Y-51945082D01*
X16967868Y-51944723D01*
X17433065Y-51820208D01*
X17874980Y-51652901D01*
X18291411Y-51445310D01*
X18680156Y-51199942D01*
X19039012Y-50919307D01*
X19365779Y-50605911D01*
X19658253Y-50262264D01*
X19914233Y-49890874D01*
X20131517Y-49494248D01*
X20307903Y-49074895D01*
X20441188Y-48635323D01*
X20529172Y-48178041D01*
X20562529Y-47850251D01*
X20570293Y-47367644D01*
X20529417Y-46899088D01*
X20439479Y-46442473D01*
X20300052Y-45995690D01*
X20110713Y-45556627D01*
X20094426Y-45523824D01*
X19859868Y-45111784D01*
X19584876Y-44729494D01*
X19271855Y-44379310D01*
X18923215Y-44063591D01*
X18541361Y-43784695D01*
X18128703Y-43544979D01*
X18017245Y-43489640D01*
X17582355Y-43308662D01*
X17134589Y-43175675D01*
X16677886Y-43090679D01*
X16216179Y-43053676D01*
X15753406Y-43064664D01*
X15293501Y-43123644D01*
X14840402Y-43230616D01*
X14398044Y-43385580D01*
X14164137Y-43489640D01*
X13749551Y-43715829D01*
X13364948Y-43980680D01*
X13012492Y-44281019D01*
X12694347Y-44613670D01*
X12412675Y-44975456D01*
X12169639Y-45363203D01*
X11967404Y-45773735D01*
X11808132Y-46203875D01*
X11693987Y-46650448D01*
X11627132Y-47110279D01*
X11618036Y-47227328D01*
X11611615Y-47706497D01*
X11584908Y-47706497D01*
X11578143Y-47399675D01*
X11615548Y-46936988D01*
G37*
G36*
X43834972Y-124427532D02*
G01*
X44124434Y-124491938D01*
X44332775Y-124571474D01*
X44407873Y-124605179D01*
X44462046Y-124628225D01*
X44481251Y-124635035D01*
X44487003Y-124612288D01*
X44490451Y-124554741D01*
X44490891Y-124520621D01*
X44490891Y-124406207D01*
X45101101Y-124406207D01*
X45101101Y-128118319D01*
X44490891Y-128118319D01*
X44490891Y-125377782D01*
X44319269Y-125260795D01*
X44215789Y-125196373D01*
X44105817Y-125137493D01*
X44012233Y-125096349D01*
X44007808Y-125094771D01*
X43867968Y-125045734D01*
X43861415Y-126582026D01*
X43854861Y-128118319D01*
X43245045Y-128118319D01*
X43245045Y-124406207D01*
X43520658Y-124406207D01*
X43834972Y-124427532D01*
G37*
G36*
X53618619Y-17899099D02*
G01*
X3581382Y-17899099D01*
X3581382Y-17110911D01*
X53618619Y-17110911D01*
X53618619Y-17899099D01*
G37*
G36*
X41325426Y-79097111D02*
G01*
X41670269Y-77985242D01*
X42015113Y-76873374D01*
X42284856Y-76866177D01*
X42405931Y-76863797D01*
X42485507Y-76865223D01*
X42532872Y-76871706D01*
X42557314Y-76884497D01*
X42567965Y-76904315D01*
X42577541Y-76935437D01*
X42601039Y-77011203D01*
X42637243Y-77127708D01*
X42684939Y-77281051D01*
X42742911Y-77467329D01*
X42809945Y-77682639D01*
X42884826Y-77923078D01*
X42966339Y-78184744D01*
X43053270Y-78463733D01*
X43142017Y-78748490D01*
X43232696Y-79039581D01*
X43318828Y-79316402D01*
X43399234Y-79575143D01*
X43472735Y-79811994D01*
X43538153Y-80023146D01*
X43594306Y-80204788D01*
X43640017Y-80353111D01*
X43674106Y-80464304D01*
X43695395Y-80534557D01*
X43702703Y-80560051D01*
X43678887Y-80564883D01*
X43613877Y-80568871D01*
X43517325Y-80571628D01*
X43398885Y-80572764D01*
X43386616Y-80572773D01*
X43070528Y-80572773D01*
X42965638Y-80235886D01*
X42924910Y-80105128D01*
X42887448Y-79984945D01*
X42856943Y-79887179D01*
X42837089Y-79823666D01*
X42834640Y-79815857D01*
X42808533Y-79732715D01*
X41760019Y-79746447D01*
X41631711Y-80159283D01*
X41503404Y-80572118D01*
X41180027Y-80572446D01*
X41040623Y-80571394D01*
X40946065Y-80567508D01*
X40890397Y-80560191D01*
X40867664Y-80548842D01*
X40866932Y-80540991D01*
X40943908Y-80302270D01*
X41005420Y-80109783D01*
X41052092Y-79961529D01*
X41084548Y-79855504D01*
X41103410Y-79789705D01*
X41109309Y-79762428D01*
X41087317Y-79741507D01*
X41039390Y-79729067D01*
X40969470Y-79721021D01*
X40962331Y-79409560D01*
X40955192Y-79098098D01*
X41954860Y-79098098D01*
X42284855Y-79098098D01*
X42425668Y-79096947D01*
X42521601Y-79093100D01*
X42578580Y-79085965D01*
X42602533Y-79074952D01*
X42603546Y-79066317D01*
X42592760Y-79033109D01*
X42569383Y-78959350D01*
X42535933Y-78853046D01*
X42494928Y-78722200D01*
X42448885Y-78574816D01*
X42443689Y-78558155D01*
X42397617Y-78412911D01*
X42356110Y-78286773D01*
X42321632Y-78186848D01*
X42296646Y-78120244D01*
X42283616Y-78094067D01*
X42282819Y-78094092D01*
X42271726Y-78120989D01*
X42247861Y-78188972D01*
X42213710Y-78290621D01*
X42171758Y-78418514D01*
X42124488Y-78565229D01*
X42112681Y-78602254D01*
X41954860Y-79098098D01*
X40955192Y-79098098D01*
X41140309Y-79097605D01*
X41325426Y-79097111D01*
G37*
G36*
X46276819Y-78441159D02*
G01*
X46303760Y-78287185D01*
X46304450Y-78284485D01*
X46335102Y-78187655D01*
X46381842Y-78065697D01*
X46436847Y-77938361D01*
X46465578Y-77877678D01*
X46524968Y-77762901D01*
X46582415Y-77669500D01*
X46648823Y-77582808D01*
X46735093Y-77488154D01*
X46815151Y-77407308D01*
X47046518Y-77205307D01*
X47285758Y-77051884D01*
X47538104Y-76944835D01*
X47808787Y-76881955D01*
X48103040Y-76861040D01*
X48111725Y-76861037D01*
X48354750Y-76873227D01*
X48570539Y-76911537D01*
X48777527Y-76979726D01*
X48853610Y-77012390D01*
X49120830Y-77159921D01*
X49356988Y-77343881D01*
X49558971Y-77559526D01*
X49723666Y-77802113D01*
X49847958Y-78066897D01*
X49928734Y-78349134D01*
X49962881Y-78644080D01*
X49963841Y-78704004D01*
X49949539Y-78961929D01*
X49904278Y-79194419D01*
X49824009Y-79419187D01*
X49777849Y-79517618D01*
X49624674Y-79778441D01*
X49443679Y-79999538D01*
X49229323Y-80186381D01*
X48976063Y-80344441D01*
X48902202Y-80381964D01*
X48615955Y-80494356D01*
X48322385Y-80556699D01*
X48023525Y-80568725D01*
X47742640Y-80534523D01*
X47464314Y-80453771D01*
X47202888Y-80328242D01*
X46963144Y-80162550D01*
X46749866Y-79961303D01*
X46567837Y-79729114D01*
X46421841Y-79470593D01*
X46316660Y-79190351D01*
X46305281Y-79148949D01*
X46277769Y-78997016D01*
X46263842Y-78815473D01*
X46263732Y-78749939D01*
X46861624Y-78749939D01*
X46878903Y-78918915D01*
X46944974Y-79154282D01*
X47051714Y-79366606D01*
X47193634Y-79552306D01*
X47365246Y-79707800D01*
X47561063Y-79829506D01*
X47775596Y-79913843D01*
X48003358Y-79957228D01*
X48238861Y-79956079D01*
X48418230Y-79923588D01*
X48647167Y-79838425D01*
X48858783Y-79706252D01*
X48955291Y-79625364D01*
X49121875Y-79441206D01*
X49245212Y-79236196D01*
X49325139Y-79016491D01*
X49361493Y-78788248D01*
X49354112Y-78557626D01*
X49302834Y-78330780D01*
X49207495Y-78113870D01*
X49067933Y-77913051D01*
X49002404Y-77841359D01*
X48810326Y-77678553D01*
X48600346Y-77563109D01*
X48370408Y-77494170D01*
X48118457Y-77470878D01*
X48114014Y-77470871D01*
X47991742Y-77476300D01*
X47868970Y-77490604D01*
X47771007Y-77510811D01*
X47769029Y-77511386D01*
X47546184Y-77601635D01*
X47347903Y-77731071D01*
X47178090Y-77893518D01*
X47040652Y-78082803D01*
X46939491Y-78292751D01*
X46878514Y-78517188D01*
X46861624Y-78749939D01*
X46263732Y-78749939D01*
X46263519Y-78623721D01*
X46276819Y-78441159D01*
G37*
G36*
X18471030Y-203754765D02*
G01*
X18552295Y-203760238D01*
X19028174Y-202329419D01*
X19114323Y-202070909D01*
X19196001Y-201826805D01*
X19271757Y-201601376D01*
X19340143Y-201398892D01*
X19399705Y-201223622D01*
X19448995Y-201079836D01*
X19486561Y-200971803D01*
X19510953Y-200903793D01*
X19520551Y-200880195D01*
X19531938Y-200900354D01*
X19559679Y-200964482D01*
X19602343Y-201068906D01*
X19658500Y-201209955D01*
X19726717Y-201383959D01*
X19805563Y-201587245D01*
X19893608Y-201816144D01*
X19989420Y-202066983D01*
X20091567Y-202336091D01*
X20194602Y-202609124D01*
X20301728Y-202893791D01*
X20403757Y-203164913D01*
X20499254Y-203418679D01*
X20586788Y-203651278D01*
X20664922Y-203858902D01*
X20732224Y-204037739D01*
X20787260Y-204183979D01*
X20828596Y-204293813D01*
X20854798Y-204363430D01*
X20864338Y-204388774D01*
X20858766Y-204399943D01*
X20828846Y-204407981D01*
X20769276Y-204413155D01*
X20674754Y-204415735D01*
X20539980Y-204415987D01*
X20361088Y-204414200D01*
X19845654Y-204407308D01*
X19689524Y-203987788D01*
X18637379Y-203987788D01*
X18581556Y-204159410D01*
X18531531Y-204298518D01*
X18486305Y-204390225D01*
X18443332Y-204437449D01*
X18400067Y-204443107D01*
X18358639Y-204414935D01*
X18334189Y-204378377D01*
X18333046Y-204331728D01*
X18356862Y-204262873D01*
X18388399Y-204196703D01*
X18437456Y-204095685D01*
X18462706Y-204029574D01*
X18464764Y-203988675D01*
X18444244Y-203963291D01*
X18404355Y-203944701D01*
X18346832Y-203910427D01*
X18328294Y-203859113D01*
X18328128Y-203851657D01*
X18341705Y-203789800D01*
X18368569Y-203771672D01*
X18715621Y-203771672D01*
X18782485Y-203787733D01*
X18830910Y-203793577D01*
X18919342Y-203798890D01*
X19036937Y-203803216D01*
X19172850Y-203806099D01*
X19236716Y-203806802D01*
X19624083Y-203809810D01*
X19577169Y-203689039D01*
X19553837Y-203628155D01*
X19516246Y-203529093D01*
X19467963Y-203401295D01*
X19412554Y-203254208D01*
X19353589Y-203097277D01*
X19344283Y-203072473D01*
X19287644Y-202922801D01*
X19236104Y-202789096D01*
X19192601Y-202678782D01*
X19160074Y-202599287D01*
X19141465Y-202558036D01*
X19139197Y-202554406D01*
X19126547Y-202571395D01*
X19100799Y-202630746D01*
X19064217Y-202726345D01*
X19019067Y-202852080D01*
X18967613Y-203001838D01*
X18917852Y-203151904D01*
X18715621Y-203771672D01*
X18368569Y-203771672D01*
X18387168Y-203759121D01*
X18471030Y-203754765D01*
G37*
G36*
X13217618Y-84654352D02*
G01*
X13215823Y-84792734D01*
X13210063Y-84885719D01*
X13199777Y-84938647D01*
X13185836Y-84956553D01*
X13143195Y-84968394D01*
X13073067Y-84987650D01*
X13040909Y-84996438D01*
X12942506Y-85038896D01*
X12852790Y-85102662D01*
X12843862Y-85111214D01*
X12787751Y-85177965D01*
X12763709Y-85243356D01*
X12759960Y-85301031D01*
X12766574Y-85382940D01*
X12782939Y-85451685D01*
X12787562Y-85462483D01*
X12814100Y-85497444D01*
X12871057Y-85560815D01*
X12952062Y-85645899D01*
X13050746Y-85745998D01*
X13154710Y-85848549D01*
X13279011Y-85970718D01*
X13372714Y-86066553D01*
X13442530Y-86144270D01*
X13495176Y-86212083D01*
X13537364Y-86278205D01*
X13575809Y-86350851D01*
X13591122Y-86382483D01*
X13634827Y-86476931D01*
X13662920Y-86550268D01*
X13678841Y-86619204D01*
X13686032Y-86700447D01*
X13687934Y-86810707D01*
X13687988Y-86852853D01*
X13687001Y-86975487D01*
X13681782Y-87063877D01*
X13668944Y-87134623D01*
X13645101Y-87204324D01*
X13606868Y-87289580D01*
X13592900Y-87318964D01*
X13477195Y-87510957D01*
X13326364Y-87683943D01*
X13148950Y-87832157D01*
X12953499Y-87949834D01*
X12748554Y-88031208D01*
X12542660Y-88070516D01*
X12474939Y-88073274D01*
X12378579Y-88073274D01*
X12378579Y-87463063D01*
X12454582Y-87463063D01*
X12555405Y-87447552D01*
X12675386Y-87406199D01*
X12795524Y-87346778D01*
X12884343Y-87287259D01*
X12984663Y-87180811D01*
X13053771Y-87051651D01*
X13088307Y-86912271D01*
X13084913Y-86775163D01*
X13050167Y-86670650D01*
X13020191Y-86628304D01*
X12960774Y-86556895D01*
X12878214Y-86463535D01*
X12778808Y-86355336D01*
X12668854Y-86239409D01*
X12662430Y-86232748D01*
X12511283Y-86073281D01*
X12393537Y-85940683D01*
X12304969Y-85827610D01*
X12241359Y-85726720D01*
X12198483Y-85630670D01*
X12172121Y-85532116D01*
X12158052Y-85423717D01*
X12153627Y-85347742D01*
X12151055Y-85231644D01*
X12156270Y-85147790D01*
X12172086Y-85077817D01*
X12201317Y-85003363D01*
X12208993Y-84986378D01*
X12298072Y-84822725D01*
X12404494Y-84692662D01*
X12542737Y-84579012D01*
X12565457Y-84563431D01*
X12690803Y-84491732D01*
X12833194Y-84430207D01*
X12975222Y-84385081D01*
X13099484Y-84362573D01*
X13131307Y-84361162D01*
X13217618Y-84361162D01*
X13217618Y-84654352D01*
G37*
G36*
X36614646Y-112185486D02*
G01*
X36680865Y-111730709D01*
X36792461Y-111285932D01*
X36948155Y-110854935D01*
X37146663Y-110441500D01*
X37386705Y-110049406D01*
X37666999Y-109682435D01*
X37986263Y-109344368D01*
X38198098Y-109155214D01*
X38579843Y-108865623D01*
X38976739Y-108623648D01*
X39392831Y-108427284D01*
X39832166Y-108274523D01*
X40126108Y-108199004D01*
X40592747Y-108119932D01*
X41060989Y-108090489D01*
X41527117Y-108109732D01*
X41987415Y-108176718D01*
X42438164Y-108290506D01*
X42875650Y-108450151D01*
X43296154Y-108654711D01*
X43695961Y-108903244D01*
X44071353Y-109194807D01*
X44079418Y-109201792D01*
X44399324Y-109511976D01*
X44690253Y-109859650D01*
X44948236Y-110238025D01*
X45169306Y-110640315D01*
X45349494Y-111059733D01*
X45484830Y-111489490D01*
X45529497Y-111681802D01*
X45600920Y-112149842D01*
X45623082Y-112616765D01*
X45597382Y-113079133D01*
X45525219Y-113533509D01*
X45407992Y-113976455D01*
X45247102Y-114404533D01*
X45043949Y-114814306D01*
X44799931Y-115202335D01*
X44516449Y-115565185D01*
X44194902Y-115899415D01*
X43836690Y-116201590D01*
X43628855Y-116349988D01*
X43218292Y-116595764D01*
X42787777Y-116795646D01*
X42340801Y-116948718D01*
X41880852Y-117054063D01*
X41411421Y-117110763D01*
X40935995Y-117117900D01*
X40749452Y-117107031D01*
X40281906Y-117045366D01*
X39829862Y-116936847D01*
X39396021Y-116783831D01*
X38983085Y-116588677D01*
X38593754Y-116353745D01*
X38230729Y-116081391D01*
X37896711Y-115773975D01*
X37594402Y-115433855D01*
X37326502Y-115063390D01*
X37095712Y-114664938D01*
X36904733Y-114240858D01*
X36756266Y-113793508D01*
X36701074Y-113572005D01*
X36623469Y-113109915D01*
X36602189Y-112762453D01*
X36628975Y-112762453D01*
X36668546Y-113225473D01*
X36754076Y-113675221D01*
X36883430Y-114109024D01*
X37054474Y-114524212D01*
X37265072Y-114918111D01*
X37513090Y-115288051D01*
X37796394Y-115631358D01*
X38112847Y-115945362D01*
X38460315Y-116227389D01*
X38836664Y-116474768D01*
X39239758Y-116684828D01*
X39667462Y-116854895D01*
X40117643Y-116982298D01*
X40436233Y-117043311D01*
X40603639Y-117062405D01*
X40806375Y-117074706D01*
X41029372Y-117080207D01*
X41257566Y-117078897D01*
X41475887Y-117070770D01*
X41669270Y-117055815D01*
X41763626Y-117044076D01*
X42225791Y-116950435D01*
X42670596Y-116810683D01*
X43095120Y-116627264D01*
X43496437Y-116402626D01*
X43871626Y-116139216D01*
X44217762Y-115839479D01*
X44531922Y-115505862D01*
X44811183Y-115140811D01*
X45052621Y-114746774D01*
X45253313Y-114326195D01*
X45363180Y-114031812D01*
X45489382Y-113574076D01*
X45566122Y-113109386D01*
X45593667Y-112641413D01*
X45572283Y-112173829D01*
X45502238Y-111710306D01*
X45383797Y-111254514D01*
X45217228Y-110810125D01*
X45113045Y-110587488D01*
X44969602Y-110320422D01*
X44818404Y-110080371D01*
X44649608Y-109853888D01*
X44453374Y-109627525D01*
X44275329Y-109442790D01*
X44028979Y-109209005D01*
X43791091Y-109011110D01*
X43548218Y-108839104D01*
X43286912Y-108682989D01*
X43168769Y-108619928D01*
X42739058Y-108425440D01*
X42296175Y-108278711D01*
X41843866Y-108179550D01*
X41385879Y-108127762D01*
X40925963Y-108123157D01*
X40467865Y-108165539D01*
X40015332Y-108254717D01*
X39572113Y-108390498D01*
X39141955Y-108572688D01*
X38728607Y-108801095D01*
X38647759Y-108852648D01*
X38406228Y-109022774D01*
X38176072Y-109212217D01*
X37943753Y-109432431D01*
X37854855Y-109523671D01*
X37546559Y-109882246D01*
X37280423Y-110268142D01*
X37057743Y-110678412D01*
X36879817Y-111110108D01*
X36747942Y-111560284D01*
X36663416Y-112025993D01*
X36637499Y-112288834D01*
X36628975Y-112762453D01*
X36602189Y-112762453D01*
X36595087Y-112646481D01*
X36614646Y-112185486D01*
G37*
G36*
X26256541Y-201051494D02*
G01*
X26251670Y-201110991D01*
X26231115Y-201143349D01*
X26193152Y-201152013D01*
X26116153Y-201159073D01*
X26011927Y-201163722D01*
X25911261Y-201165177D01*
X25625225Y-201165566D01*
X25625225Y-204420020D01*
X25133667Y-204420020D01*
X24980459Y-204419182D01*
X24844972Y-204416847D01*
X24735308Y-204413284D01*
X24659567Y-204408765D01*
X24625851Y-204403559D01*
X24625159Y-204403070D01*
X24622198Y-204375339D01*
X24619401Y-204301096D01*
X24616814Y-204184676D01*
X24614482Y-204030419D01*
X24612449Y-203842660D01*
X24610762Y-203625739D01*
X24609465Y-203383992D01*
X24608604Y-203121757D01*
X24608223Y-202843372D01*
X24608208Y-202775843D01*
X24608208Y-201165566D01*
X24433701Y-201165566D01*
X24319133Y-201169479D01*
X24202364Y-201179610D01*
X24128839Y-201190287D01*
X24024724Y-201204706D01*
X23961006Y-201197969D01*
X23930610Y-201167155D01*
X23926465Y-201109342D01*
X23926709Y-201106789D01*
X23944251Y-201045695D01*
X23991033Y-201014585D01*
X24007241Y-201009760D01*
X24047671Y-201005537D01*
X24133263Y-201001414D01*
X24258325Y-200997509D01*
X24417167Y-200993939D01*
X24604100Y-200990822D01*
X24813433Y-200988278D01*
X25039476Y-200986423D01*
X25164097Y-200985760D01*
X26248148Y-200981077D01*
X26256541Y-201051494D01*
G37*
G36*
X10439890Y-84366466D02*
G01*
X10585544Y-84373287D01*
X10697395Y-84383232D01*
X10792493Y-84399291D01*
X10887887Y-84424453D01*
X11000624Y-84461709D01*
X11018318Y-84467904D01*
X11128263Y-84506869D01*
X11223529Y-84541206D01*
X11291801Y-84566444D01*
X11317067Y-84576360D01*
X11344258Y-84581581D01*
X11357467Y-84559597D01*
X11361450Y-84499926D01*
X11361562Y-84478296D01*
X11361562Y-84361162D01*
X11971772Y-84361162D01*
X11971772Y-88073274D01*
X11361562Y-88073274D01*
X11361562Y-85356455D01*
X11266216Y-85277315D01*
X11193716Y-85224919D01*
X11099630Y-85167443D01*
X10997069Y-85111671D01*
X10899138Y-85064386D01*
X10818945Y-85032373D01*
X10773361Y-85022223D01*
X10763518Y-85023813D01*
X10755139Y-85031107D01*
X10748106Y-85047886D01*
X10742301Y-85077932D01*
X10737606Y-85125028D01*
X10733905Y-85192955D01*
X10731080Y-85285498D01*
X10729012Y-85406436D01*
X10727585Y-85559554D01*
X10726680Y-85748632D01*
X10726180Y-85977455D01*
X10725968Y-86249802D01*
X10725926Y-86547748D01*
X10725926Y-88073274D01*
X10115716Y-88073274D01*
X10115716Y-84354412D01*
X10439890Y-84366466D01*
G37*
G36*
X39095359Y-76860661D02*
G01*
X39349460Y-76872189D01*
X39568395Y-76909514D01*
X39762994Y-76976748D01*
X39944085Y-77078005D01*
X40122498Y-77217396D01*
X40184575Y-77274305D01*
X40365804Y-77478379D01*
X40500604Y-77702587D01*
X40588393Y-77945594D01*
X40628589Y-78206070D01*
X40631311Y-78297198D01*
X40606552Y-78557961D01*
X40534578Y-78808412D01*
X40418848Y-79042497D01*
X40262822Y-79254160D01*
X40069956Y-79437347D01*
X39920241Y-79542123D01*
X39839271Y-79592931D01*
X39795382Y-79626199D01*
X39781891Y-79650280D01*
X39792113Y-79673525D01*
X39803977Y-79687388D01*
X39877848Y-79745432D01*
X39989392Y-79804446D01*
X40125721Y-79859951D01*
X40273951Y-79907467D01*
X40421195Y-79942517D01*
X40554567Y-79960622D01*
X40594445Y-79962121D01*
X40677077Y-79962563D01*
X40677077Y-80572773D01*
X40552187Y-80572773D01*
X40335586Y-80554344D01*
X40102631Y-80502576D01*
X39870050Y-80422753D01*
X39654568Y-80320155D01*
X39549898Y-80256266D01*
X39418519Y-80168113D01*
X39403749Y-80572773D01*
X38795596Y-80572773D01*
X38795596Y-79122265D01*
X39405806Y-79122265D01*
X39475443Y-79095790D01*
X39546231Y-79063468D01*
X39622853Y-79021228D01*
X39626888Y-79018753D01*
X39687938Y-78972354D01*
X39763120Y-78903398D01*
X39822427Y-78841698D01*
X39933249Y-78682414D01*
X40000838Y-78504723D01*
X40025265Y-78316873D01*
X40006600Y-78127110D01*
X39944917Y-77943683D01*
X39840285Y-77774839D01*
X39812911Y-77742063D01*
X39717353Y-77653217D01*
X39600866Y-77573426D01*
X39485817Y-77517527D01*
X39463013Y-77509936D01*
X39405806Y-77492870D01*
X39405806Y-79122265D01*
X38795596Y-79122265D01*
X38795596Y-76860661D01*
X39095359Y-76860661D01*
G37*
G36*
X17420415Y-191585655D02*
G01*
X17502989Y-191597987D01*
X17587089Y-191621066D01*
X17615246Y-191630368D01*
X17809450Y-191709387D01*
X17972007Y-191807518D01*
X18121543Y-191936241D01*
X18137312Y-191952065D01*
X18295400Y-192145729D01*
X18408331Y-192355201D01*
X18477098Y-192574942D01*
X18502699Y-192799413D01*
X18486128Y-193023076D01*
X18428381Y-193240391D01*
X18330452Y-193445819D01*
X18193339Y-193633822D01*
X18018035Y-193798860D01*
X17805536Y-193935395D01*
X17778410Y-193949192D01*
X17677523Y-193997722D01*
X17599423Y-194028992D01*
X17526300Y-194047254D01*
X17440346Y-194056762D01*
X17323752Y-194061770D01*
X17304720Y-194062333D01*
X17182336Y-194063131D01*
X17067835Y-194059077D01*
X16977964Y-194050980D01*
X16944596Y-194044970D01*
X16722370Y-193964546D01*
X16522147Y-193843460D01*
X16348053Y-193688005D01*
X16204216Y-193504477D01*
X16094760Y-193299169D01*
X16023814Y-193078376D01*
X15995502Y-192848392D01*
X16012547Y-192623207D01*
X16079830Y-192387683D01*
X16191931Y-192170258D01*
X16344287Y-191976897D01*
X16532335Y-191813562D01*
X16716935Y-191702737D01*
X16819051Y-191653814D01*
X16899167Y-191622164D01*
X16975461Y-191603304D01*
X17066112Y-191592750D01*
X17189296Y-191586019D01*
X17190375Y-191585972D01*
X17321999Y-191582255D01*
X17420415Y-191585655D01*
G37*
G36*
X18627056Y-12514813D02*
G01*
X18620521Y-14225126D01*
X18016046Y-14231944D01*
X17815631Y-14233609D01*
X17661046Y-14233392D01*
X17547300Y-14231087D01*
X17469398Y-14226488D01*
X17422349Y-14219390D01*
X17401159Y-14209586D01*
X17399250Y-14206518D01*
X17397236Y-14176161D01*
X17395520Y-14099252D01*
X17394116Y-13980089D01*
X17393040Y-13822969D01*
X17392305Y-13632191D01*
X17391926Y-13412053D01*
X17391917Y-13166852D01*
X17392292Y-12900886D01*
X17393067Y-12618453D01*
X17393514Y-12496197D01*
X17400100Y-10818119D01*
X18633592Y-10804501D01*
X18627056Y-12514813D01*
G37*
G36*
X30818368Y-10812505D02*
G01*
X31094136Y-10816609D01*
X31324921Y-10821425D01*
X31516593Y-10827684D01*
X31675021Y-10836115D01*
X31806074Y-10847447D01*
X31915621Y-10862410D01*
X32009530Y-10881734D01*
X32093671Y-10906147D01*
X32173913Y-10936379D01*
X32256124Y-10973159D01*
X32306334Y-10997442D01*
X32521592Y-11128847D01*
X32696358Y-11289842D01*
X32829339Y-11477623D01*
X32919244Y-11689387D01*
X32964779Y-11922332D01*
X32964651Y-12173655D01*
X32935944Y-12362604D01*
X32858626Y-12613181D01*
X32740744Y-12835493D01*
X32585688Y-13026841D01*
X32396853Y-13184525D01*
X32177628Y-13305847D01*
X31931408Y-13388107D01*
X31661583Y-13428607D01*
X31592206Y-13431853D01*
X31455427Y-13427032D01*
X31366029Y-13403844D01*
X31323965Y-13362259D01*
X31329186Y-13302246D01*
X31345383Y-13271672D01*
X31369470Y-13253869D01*
X31420934Y-13240150D01*
X31506887Y-13229377D01*
X31634443Y-13220414D01*
X31681880Y-13217909D01*
X31877511Y-13201866D01*
X32035355Y-13172531D01*
X32167730Y-13125290D01*
X32286953Y-13055529D01*
X32405343Y-12958635D01*
X32426338Y-12939071D01*
X32576047Y-12765052D01*
X32682380Y-12566581D01*
X32745842Y-12342260D01*
X32766936Y-12090690D01*
X32764696Y-12001638D01*
X32732418Y-11775349D01*
X32658886Y-11578312D01*
X32543044Y-11408920D01*
X32383835Y-11265564D01*
X32213888Y-11163117D01*
X32072986Y-11101034D01*
X31923383Y-11054901D01*
X31753429Y-11022220D01*
X31551478Y-11000492D01*
X31415866Y-10991964D01*
X31091692Y-10975529D01*
X31091692Y-14237838D01*
X29871271Y-14237838D01*
X29871271Y-10799918D01*
X30818368Y-10812505D01*
G37*
G36*
X50033634Y-46655256D02*
G01*
X49550551Y-46655256D01*
X49550551Y-48867268D01*
X49118318Y-48867268D01*
X49118318Y-46657097D01*
X48870421Y-46649820D01*
X48622523Y-46642543D01*
X48622523Y-46210311D01*
X49328078Y-46203552D01*
X50033634Y-46196794D01*
X50033634Y-46655256D01*
G37*
G36*
X52627027Y-171672072D02*
G01*
X52627027Y-196690691D01*
X4572973Y-196690691D01*
X4572973Y-192887916D01*
X8719187Y-192887916D01*
X8727850Y-193061700D01*
X8747262Y-193212420D01*
X8755492Y-193251712D01*
X8845314Y-193527742D01*
X8977215Y-193783910D01*
X9146151Y-194016093D01*
X9347077Y-194220168D01*
X9574947Y-194392014D01*
X9824716Y-194527506D01*
X10091339Y-194622523D01*
X10369771Y-194672941D01*
X10503454Y-194680061D01*
X10675075Y-194682082D01*
X10675075Y-194071872D01*
X10570687Y-194071872D01*
X10430513Y-194057609D01*
X10268695Y-194018419D01*
X10104407Y-193959702D01*
X10001301Y-193911502D01*
X9851975Y-193815063D01*
X9703884Y-193687191D01*
X9570762Y-193541889D01*
X9466348Y-193393165D01*
X9434718Y-193333806D01*
X9350562Y-193101957D01*
X9316105Y-192868619D01*
X9330539Y-192638209D01*
X9393056Y-192415143D01*
X9502847Y-192203839D01*
X9659105Y-192008713D01*
X9681229Y-191986309D01*
X9860991Y-191835179D01*
X10060293Y-191714779D01*
X10268464Y-191629978D01*
X10474834Y-191585651D01*
X10570687Y-191580181D01*
X10675075Y-191580181D01*
X10675075Y-190982683D01*
X10861114Y-190982683D01*
X11353089Y-192546347D01*
X11441348Y-192826882D01*
X11527378Y-193100364D01*
X11609577Y-193361698D01*
X11686343Y-193605790D01*
X11756073Y-193827546D01*
X11817167Y-194021872D01*
X11868023Y-194183674D01*
X11907038Y-194307857D01*
X11932611Y-194389328D01*
X11934983Y-194396895D01*
X12024902Y-194683780D01*
X12563966Y-194669370D01*
X13125475Y-192886607D01*
X15406791Y-192886607D01*
X15415270Y-193062049D01*
X15434161Y-193212178D01*
X15442379Y-193251712D01*
X15533710Y-193531047D01*
X15669015Y-193791088D01*
X15843579Y-194027215D01*
X16052689Y-194234814D01*
X16291632Y-194409265D01*
X16555695Y-194545953D01*
X16840164Y-194640260D01*
X16866166Y-194646411D01*
X17034629Y-194670808D01*
X17231442Y-194676902D01*
X17437917Y-194665716D01*
X17635368Y-194638271D01*
X17805109Y-194595588D01*
X17806907Y-194594985D01*
X18094005Y-194472565D01*
X18352575Y-194309558D01*
X18579288Y-194109474D01*
X18770813Y-193875821D01*
X18923823Y-193612109D01*
X19034987Y-193321845D01*
X19043659Y-193291549D01*
X19080425Y-193105883D01*
X19097892Y-192895995D01*
X19095813Y-192682014D01*
X19073945Y-192484071D01*
X19054576Y-192393794D01*
X18953858Y-192107399D01*
X18809520Y-191841943D01*
X18626145Y-191602183D01*
X18408320Y-191392871D01*
X18160628Y-191218763D01*
X17887654Y-191084614D01*
X17743343Y-191034077D01*
X17599298Y-191002522D01*
X17424013Y-190982919D01*
X17235819Y-190975885D01*
X17053047Y-190982035D01*
X16894028Y-191001985D01*
X16878879Y-191005026D01*
X16710404Y-191053812D01*
X16523638Y-191129977D01*
X16336229Y-191224928D01*
X16165823Y-191330066D01*
X16078594Y-191394858D01*
X15890696Y-191574007D01*
X15723137Y-191786631D01*
X15584079Y-192019891D01*
X15481683Y-192260949D01*
X15443577Y-192393794D01*
X15420971Y-192533939D01*
X15408700Y-192704390D01*
X15406791Y-192886607D01*
X13125475Y-192886607D01*
X13144556Y-192826026D01*
X13237270Y-192531601D01*
X13325425Y-192251534D01*
X13407846Y-191989568D01*
X13483356Y-191749443D01*
X13550782Y-191534900D01*
X13608947Y-191349680D01*
X13656678Y-191197523D01*
X13692797Y-191082171D01*
X13716131Y-191007364D01*
X13725504Y-190976843D01*
X13725636Y-190976327D01*
X13702015Y-190973912D01*
X13637183Y-190971919D01*
X13540779Y-190970542D01*
X13422443Y-190969975D01*
X13410381Y-190969970D01*
X19292727Y-190969970D01*
X19307007Y-193932032D01*
X19375149Y-194077417D01*
X19458218Y-194217639D01*
X19570397Y-194356287D01*
X19696461Y-194476379D01*
X19796488Y-194547336D01*
X19933489Y-194616878D01*
X20066005Y-194657742D01*
X20213493Y-194674498D01*
X20337177Y-194674292D01*
X20463079Y-194666469D01*
X20560880Y-194649616D01*
X20653170Y-194618729D01*
X20718631Y-194589822D01*
X20908153Y-194473918D01*
X21067418Y-194320835D01*
X21191191Y-194137659D01*
X21274239Y-193931478D01*
X21302400Y-193799272D01*
X21307254Y-193740416D01*
X21311814Y-193636267D01*
X21315988Y-193492386D01*
X21319681Y-193314330D01*
X21322799Y-193107659D01*
X21325247Y-192877930D01*
X21326932Y-192630703D01*
X21327760Y-192371536D01*
X21327825Y-192298449D01*
X21328097Y-191580181D01*
X21506306Y-191580181D01*
X22192793Y-191580181D01*
X22192793Y-194682082D01*
X22777578Y-194682082D01*
X22777578Y-192827992D01*
X31687865Y-192827992D01*
X31709703Y-193117246D01*
X31779301Y-193402727D01*
X31896850Y-193679701D01*
X31988143Y-193836232D01*
X32158228Y-194063370D01*
X32353201Y-194253598D01*
X32581455Y-194414167D01*
X32778106Y-194518815D01*
X32968518Y-194596432D01*
X33161808Y-194646887D01*
X33374352Y-194673594D01*
X33551602Y-194680061D01*
X33812212Y-194682082D01*
X33812212Y-194650301D01*
X34016064Y-194650301D01*
X34029867Y-194664490D01*
X34075591Y-194674109D01*
X34159004Y-194679745D01*
X34285874Y-194681984D01*
X34328315Y-194682082D01*
X34641015Y-194682082D01*
X34899501Y-193855756D01*
X35422694Y-193848887D01*
X35945886Y-193842018D01*
X36211546Y-194682082D01*
X36524692Y-194682082D01*
X36644137Y-194681018D01*
X36742583Y-194678114D01*
X36810332Y-194673804D01*
X36837685Y-194668522D01*
X36837838Y-194668083D01*
X36830515Y-194642956D01*
X36809490Y-194573841D01*
X36776180Y-194465303D01*
X36732001Y-194321905D01*
X36678370Y-194148212D01*
X36616701Y-193948788D01*
X36548413Y-193728196D01*
X36474921Y-193491002D01*
X36397642Y-193241769D01*
X36317991Y-192985060D01*
X36237386Y-192725441D01*
X36157242Y-192467475D01*
X36078976Y-192215727D01*
X36004004Y-191974759D01*
X35933742Y-191749137D01*
X35881067Y-191580181D01*
X36456457Y-191580181D01*
X37142943Y-191580181D01*
X37142943Y-194682082D01*
X37753153Y-194682082D01*
X37753153Y-192393794D01*
X38617618Y-192393794D01*
X38840476Y-192393794D01*
X38852831Y-192806957D01*
X38859131Y-192977312D01*
X38867299Y-193107764D01*
X38878630Y-193209257D01*
X38894422Y-193292735D01*
X38915971Y-193369143D01*
X38921373Y-193385386D01*
X39041704Y-193662242D01*
X39211437Y-193931084D01*
X39242498Y-193972430D01*
X39430697Y-194179093D01*
X39651614Y-194356006D01*
X39896775Y-194498814D01*
X40157702Y-194603162D01*
X40425921Y-194664697D01*
X40619870Y-194680061D01*
X40778779Y-194682082D01*
X40778779Y-194071872D01*
X40708859Y-194071496D01*
X40550155Y-194053094D01*
X40372131Y-194003592D01*
X40189990Y-193929223D01*
X40018935Y-193836224D01*
X39874170Y-193730828D01*
X39870652Y-193727767D01*
X39721323Y-193577474D01*
X39607346Y-193415341D01*
X39525201Y-193233131D01*
X39471367Y-193022609D01*
X39442324Y-192775536D01*
X39439032Y-192717968D01*
X39438280Y-192702400D01*
X42461857Y-192702400D01*
X42462721Y-192911141D01*
X42486593Y-193162212D01*
X42538750Y-193385933D01*
X42624508Y-193598425D01*
X42749179Y-193815809D01*
X42772731Y-193851581D01*
X42953744Y-194083370D01*
X43163549Y-194277520D01*
X43409019Y-194440006D01*
X43511976Y-194494147D01*
X43692933Y-194575789D01*
X43857594Y-194630457D01*
X44023509Y-194661813D01*
X44208228Y-194673515D01*
X44363764Y-194671792D01*
X44526610Y-194663105D01*
X44658054Y-194647159D01*
X44777360Y-194621030D01*
X44859560Y-194596544D01*
X45076333Y-194512475D01*
X45271428Y-194404534D01*
X45458469Y-194264121D01*
X45613777Y-194120321D01*
X45716666Y-194014757D01*
X45792812Y-193926501D01*
X45853792Y-193839434D01*
X45911184Y-193737437D01*
X45961054Y-193636841D01*
X46040454Y-193462140D01*
X46095620Y-193313268D01*
X46130503Y-193173732D01*
X46149055Y-193027037D01*
X46155229Y-192856689D01*
X46155332Y-192826026D01*
X46148676Y-192626372D01*
X46125904Y-192456151D01*
X46107954Y-192389179D01*
X46346947Y-192389179D01*
X46347021Y-192710453D01*
X46347492Y-192985209D01*
X46348738Y-193217785D01*
X46351134Y-193412512D01*
X46355057Y-193573727D01*
X46360883Y-193705764D01*
X46368988Y-193812958D01*
X46379749Y-193899642D01*
X46393542Y-193970151D01*
X46410743Y-194028821D01*
X46431729Y-194079984D01*
X46456876Y-194127977D01*
X46486559Y-194177134D01*
X46504648Y-194205752D01*
X46629539Y-194362193D01*
X46787399Y-194497910D01*
X46964163Y-194602522D01*
X47119440Y-194659407D01*
X47183123Y-194668386D01*
X47278558Y-194673395D01*
X47386739Y-194673520D01*
X47403256Y-194673049D01*
X47528752Y-194664620D01*
X47629029Y-194645080D01*
X47729443Y-194608583D01*
X47778046Y-194586658D01*
X47970151Y-194469775D01*
X48130659Y-194316479D01*
X48254472Y-194133316D01*
X48336487Y-193926832D01*
X48355200Y-193845929D01*
X48360823Y-193789917D01*
X48365892Y-193686900D01*
X48370340Y-193540720D01*
X48374102Y-193355221D01*
X48377112Y-193134245D01*
X48379304Y-192881636D01*
X48380612Y-192601236D01*
X48380981Y-192339473D01*
X48380981Y-191580181D01*
X48558959Y-191580181D01*
X49245446Y-191580181D01*
X49245446Y-194682082D01*
X49855656Y-194682082D01*
X49855656Y-191581657D01*
X50192543Y-191574562D01*
X50529430Y-191567468D01*
X50543756Y-190969970D01*
X48558959Y-190969970D01*
X48558959Y-191580181D01*
X48380981Y-191580181D01*
X48380981Y-190969970D01*
X47770771Y-190969970D01*
X47770771Y-193784673D01*
X47712959Y-193870460D01*
X47614730Y-193977803D01*
X47497523Y-194045426D01*
X47370771Y-194072752D01*
X47243910Y-194059208D01*
X47126375Y-194004218D01*
X47031143Y-193911996D01*
X46969870Y-193830331D01*
X46962899Y-192400151D01*
X46955929Y-190969970D01*
X46346947Y-190969970D01*
X46346947Y-192389179D01*
X46107954Y-192389179D01*
X46082809Y-192295359D01*
X46015185Y-192123995D01*
X46001119Y-192092750D01*
X45849984Y-191818294D01*
X45664422Y-191577713D01*
X45448249Y-191373646D01*
X45205280Y-191208738D01*
X44939330Y-191085630D01*
X44654215Y-191006965D01*
X44389189Y-190976544D01*
X44142928Y-190978332D01*
X43922974Y-191008612D01*
X43711206Y-191071141D01*
X43512012Y-191158406D01*
X43248186Y-191312275D01*
X43023710Y-191494794D01*
X42833653Y-191710983D01*
X42673082Y-191965862D01*
X42624558Y-192061748D01*
X42538536Y-192271418D01*
X42485343Y-192479506D01*
X42461857Y-192702400D01*
X39438280Y-192702400D01*
X39423376Y-192393794D01*
X40778779Y-192393794D01*
X40778779Y-191784428D01*
X40111361Y-191777650D01*
X39443944Y-191770871D01*
X39428162Y-191580181D01*
X40753353Y-191580181D01*
X40753353Y-190969970D01*
X38846447Y-190969970D01*
X38846447Y-191783584D01*
X38617618Y-191783584D01*
X38617618Y-192393794D01*
X37753153Y-192393794D01*
X37753153Y-191580181D01*
X38439640Y-191580181D01*
X38439640Y-190969970D01*
X36456457Y-190969970D01*
X36456457Y-191580181D01*
X35881067Y-191580181D01*
X35869608Y-191543425D01*
X35813016Y-191362186D01*
X35765384Y-191209985D01*
X35728127Y-191091386D01*
X35715886Y-191052603D01*
X35689750Y-190969970D01*
X35161683Y-190969970D01*
X35100856Y-191167017D01*
X35079266Y-191236662D01*
X35044651Y-191347958D01*
X34999155Y-191494021D01*
X34944926Y-191667968D01*
X34884110Y-191862915D01*
X34818851Y-192071978D01*
X34752090Y-192285736D01*
X34464151Y-193207408D01*
X34117317Y-193207408D01*
X34117317Y-193839822D01*
X34265021Y-193855756D01*
X34140766Y-194237138D01*
X34098170Y-194369731D01*
X34061809Y-194486439D01*
X34034416Y-194578208D01*
X34018725Y-194635982D01*
X34016064Y-194650301D01*
X33812212Y-194650301D01*
X33812212Y-191784757D01*
X32909610Y-191770871D01*
X33036606Y-191709721D01*
X33192508Y-191645950D01*
X33349922Y-191601358D01*
X33489673Y-191581142D01*
X33513464Y-191580482D01*
X33608809Y-191580181D01*
X33608809Y-190962668D01*
X33433840Y-190978930D01*
X33164251Y-191027410D01*
X32893935Y-191119591D01*
X32633430Y-191249665D01*
X32393276Y-191411828D01*
X32184009Y-191600272D01*
X32074229Y-191727978D01*
X31906967Y-191984959D01*
X31786690Y-192257113D01*
X31713592Y-192539703D01*
X31687865Y-192827992D01*
X22777578Y-192827992D01*
X22777578Y-191580181D01*
X23464064Y-191580181D01*
X23464064Y-190969970D01*
X21506306Y-190969970D01*
X21506306Y-191580181D01*
X21328097Y-191580181D01*
X21328328Y-190969970D01*
X20719357Y-190969970D01*
X20712381Y-192391949D01*
X20710845Y-192696747D01*
X20709358Y-192954822D01*
X20707754Y-193170301D01*
X20705867Y-193347313D01*
X20703531Y-193489984D01*
X20700579Y-193602442D01*
X20696846Y-193688814D01*
X20692165Y-193753229D01*
X20686369Y-193799813D01*
X20679293Y-193832693D01*
X20670770Y-193855999D01*
X20660634Y-193873855D01*
X20652217Y-193885692D01*
X20544598Y-193994794D01*
X20418812Y-194056680D01*
X20306289Y-194071872D01*
X20167603Y-194054337D01*
X20058085Y-193998664D01*
X19968797Y-193900429D01*
X19904505Y-193805814D01*
X19904505Y-190969970D01*
X19292727Y-190969970D01*
X13410381Y-190969970D01*
X13094637Y-190969970D01*
X13043013Y-191128879D01*
X13024628Y-191186589D01*
X12993043Y-191286998D01*
X12950093Y-191424230D01*
X12897611Y-191592405D01*
X12837428Y-191785647D01*
X12771380Y-191998076D01*
X12701298Y-192223814D01*
X12656474Y-192368369D01*
X12586456Y-192593742D01*
X12520604Y-192804678D01*
X12460527Y-192996097D01*
X12407835Y-193162916D01*
X12364137Y-193300054D01*
X12331043Y-193402430D01*
X12310162Y-193464963D01*
X12303587Y-193482476D01*
X12292783Y-193465616D01*
X12268552Y-193404290D01*
X12232291Y-193302673D01*
X12185392Y-193164943D01*
X12129250Y-192995277D01*
X12065259Y-192797849D01*
X11994814Y-192576838D01*
X11919310Y-192336420D01*
X11896166Y-192262055D01*
X11820637Y-192019554D01*
X11749273Y-191791739D01*
X11683548Y-191583235D01*
X11624941Y-191398664D01*
X11574929Y-191242650D01*
X11534988Y-191119818D01*
X11506595Y-191034790D01*
X11491228Y-190992192D01*
X11489258Y-190988223D01*
X11458416Y-190981071D01*
X11387335Y-190976289D01*
X11286587Y-190974295D01*
X11166747Y-190975503D01*
X11166457Y-190975510D01*
X10861114Y-190982683D01*
X10675075Y-190982683D01*
X10675075Y-190962509D01*
X10490741Y-190978381D01*
X10192203Y-191028055D01*
X9907455Y-191122070D01*
X9641385Y-191256388D01*
X9398880Y-191426971D01*
X9184830Y-191629783D01*
X9004120Y-191860786D01*
X8861640Y-192115943D01*
X8762276Y-192391216D01*
X8757307Y-192410177D01*
X8733955Y-192543955D01*
X8721235Y-192709268D01*
X8719187Y-192887916D01*
X4572973Y-192887916D01*
X4572973Y-182791659D01*
X9102164Y-182791659D01*
X9135665Y-183372105D01*
X9217397Y-183947143D01*
X9346992Y-184513997D01*
X9524081Y-185069888D01*
X9748294Y-185612041D01*
X10019263Y-186137677D01*
X10263513Y-186535441D01*
X10556864Y-186942107D01*
X10891313Y-187338678D01*
X11258152Y-187716656D01*
X11648675Y-188067545D01*
X12054175Y-188382848D01*
X12381845Y-188602724D01*
X12900382Y-188896309D01*
X13438235Y-189143671D01*
X13992518Y-189344097D01*
X14560349Y-189496876D01*
X15138842Y-189601297D01*
X15725113Y-189656647D01*
X16316278Y-189662216D01*
X16611912Y-189646177D01*
X17197231Y-189577248D01*
X17767420Y-189461220D01*
X18320326Y-189300031D01*
X18853796Y-189095620D01*
X19365677Y-188849924D01*
X19853815Y-188564883D01*
X20316057Y-188242435D01*
X20750251Y-187884518D01*
X20924668Y-187715516D01*
X26126220Y-187715516D01*
X26127537Y-187875340D01*
X26132571Y-187999512D01*
X26142941Y-188103188D01*
X26160269Y-188201522D01*
X26186175Y-188309672D01*
X26192229Y-188332685D01*
X26307159Y-188669859D01*
X26464358Y-188981612D01*
X26660462Y-189264969D01*
X26892112Y-189516952D01*
X27155944Y-189734586D01*
X27448597Y-189914894D01*
X27766710Y-190054900D01*
X28106921Y-190151627D01*
X28281471Y-190182436D01*
X28456841Y-190196136D01*
X28661598Y-190194199D01*
X28877164Y-190177874D01*
X29084963Y-190148411D01*
X29221578Y-190119197D01*
X29551685Y-190009937D01*
X29858844Y-189857126D01*
X30139788Y-189664103D01*
X30391254Y-189434203D01*
X30609974Y-189170765D01*
X30792683Y-188877125D01*
X30936115Y-188556621D01*
X31021066Y-188280390D01*
X31061365Y-188052233D01*
X31078612Y-187797015D01*
X31073037Y-187532884D01*
X31044867Y-187277987D01*
X31006131Y-187092593D01*
X30892507Y-186758693D01*
X30736595Y-186449281D01*
X30697260Y-186392313D01*
X30778315Y-186392313D01*
X30778931Y-186422971D01*
X30799542Y-186485921D01*
X30835900Y-186568755D01*
X30845017Y-186587271D01*
X30899962Y-186706737D01*
X30954659Y-186841617D01*
X30991280Y-186944855D01*
X31049857Y-187127647D01*
X31127981Y-187095557D01*
X31163825Y-187081093D01*
X31243021Y-187049312D01*
X31361702Y-187001761D01*
X31515998Y-186939989D01*
X31702040Y-186865543D01*
X31915960Y-186779971D01*
X32153888Y-186684822D01*
X32411956Y-186581642D01*
X32686295Y-186471980D01*
X32973035Y-186357384D01*
X32976070Y-186356171D01*
X34746035Y-185648874D01*
X34651538Y-185429993D01*
X34603078Y-185314167D01*
X34556970Y-185197845D01*
X34521163Y-185101258D01*
X34513213Y-185077927D01*
X34485640Y-185002124D01*
X34461233Y-184948511D01*
X34449807Y-184932642D01*
X34424097Y-184940091D01*
X34355628Y-184964812D01*
X34248802Y-185005054D01*
X34108019Y-185059069D01*
X33937680Y-185125106D01*
X33742185Y-185201417D01*
X33525937Y-185286250D01*
X33293334Y-185377857D01*
X33048779Y-185474489D01*
X32796672Y-185574394D01*
X32541413Y-185675825D01*
X32287405Y-185777031D01*
X32039047Y-185876262D01*
X31800740Y-185971769D01*
X31576885Y-186061803D01*
X31371883Y-186144613D01*
X31190136Y-186218451D01*
X31036042Y-186281565D01*
X30914005Y-186332208D01*
X30828423Y-186368628D01*
X30783699Y-186389077D01*
X30778315Y-186392313D01*
X30697260Y-186392313D01*
X30542045Y-186167517D01*
X30312503Y-185916559D01*
X30051619Y-185699563D01*
X29763042Y-185519689D01*
X29450419Y-185380093D01*
X29117400Y-185283936D01*
X28870126Y-185243714D01*
X28523126Y-185229501D01*
X28184418Y-185263262D01*
X27857890Y-185342310D01*
X27547433Y-185463957D01*
X27256934Y-185625518D01*
X26990284Y-185824306D01*
X26751371Y-186057634D01*
X26544085Y-186322815D01*
X26372315Y-186617163D01*
X26239949Y-186937992D01*
X26193665Y-187092593D01*
X26165423Y-187206096D01*
X26146218Y-187305633D01*
X26134395Y-187406481D01*
X26128301Y-187523918D01*
X26126282Y-187673220D01*
X26126220Y-187715516D01*
X20924668Y-187715516D01*
X21154242Y-187493070D01*
X21525878Y-187070031D01*
X21863005Y-186617338D01*
X22163470Y-186136929D01*
X22425120Y-185630744D01*
X22645802Y-185100720D01*
X22823362Y-184548797D01*
X22955647Y-183976911D01*
X22964792Y-183927128D01*
X23046727Y-183331505D01*
X23069863Y-182896319D01*
X34123172Y-182896319D01*
X34163592Y-183457838D01*
X34249539Y-184016484D01*
X34381293Y-184569447D01*
X34559135Y-185113920D01*
X34783346Y-185647094D01*
X35054206Y-186166163D01*
X35282132Y-186535441D01*
X35575483Y-186942107D01*
X35909932Y-187338678D01*
X36276771Y-187716656D01*
X36667294Y-188067545D01*
X37072793Y-188382848D01*
X37400464Y-188602724D01*
X37919001Y-188896309D01*
X38456853Y-189143671D01*
X39011137Y-189344097D01*
X39578967Y-189496876D01*
X40157460Y-189601297D01*
X40743731Y-189656647D01*
X41334896Y-189662216D01*
X41630531Y-189646177D01*
X42224932Y-189576344D01*
X42804781Y-189458265D01*
X43368041Y-189292872D01*
X43912675Y-189081097D01*
X44436648Y-188823870D01*
X44937922Y-188522122D01*
X45414462Y-188176785D01*
X45864231Y-187788789D01*
X46018218Y-187639829D01*
X46236188Y-187416977D01*
X46423474Y-187212251D01*
X46590296Y-187013567D01*
X46746874Y-186808840D01*
X46878736Y-186622223D01*
X47189265Y-186124897D01*
X47454217Y-185608291D01*
X47673561Y-185075475D01*
X47847271Y-184529518D01*
X47975318Y-183973488D01*
X48057673Y-183410457D01*
X48094310Y-182843492D01*
X48085199Y-182275664D01*
X48030312Y-181710041D01*
X47929622Y-181149694D01*
X47783100Y-180597692D01*
X47590717Y-180057103D01*
X47352446Y-179530998D01*
X47068259Y-179022445D01*
X46950200Y-178837427D01*
X46599048Y-178351192D01*
X46212778Y-177900967D01*
X45793441Y-177488053D01*
X45343086Y-177113754D01*
X44863761Y-176779373D01*
X44357518Y-176486214D01*
X43826405Y-176235580D01*
X43272471Y-176028774D01*
X42697767Y-175867099D01*
X42104341Y-175751859D01*
X42095906Y-175750581D01*
X41934605Y-175731450D01*
X41735219Y-175715922D01*
X41510408Y-175704284D01*
X41272829Y-175696823D01*
X41035141Y-175693826D01*
X40810001Y-175695581D01*
X40610070Y-175702375D01*
X40458299Y-175713422D01*
X39856593Y-175799100D01*
X39272504Y-175931811D01*
X38707686Y-176110774D01*
X38163794Y-176335210D01*
X37642483Y-176604337D01*
X37145408Y-176917375D01*
X36674223Y-177273543D01*
X36230582Y-177672061D01*
X36161199Y-177740772D01*
X35761788Y-178176601D01*
X35405097Y-178637634D01*
X35091406Y-179121064D01*
X34820998Y-179624083D01*
X34594151Y-180143883D01*
X34411147Y-180677655D01*
X34272266Y-181222593D01*
X34177790Y-181775888D01*
X34127998Y-182334733D01*
X34123172Y-182896319D01*
X23069863Y-182896319D01*
X23078291Y-182737779D01*
X23059799Y-182148044D01*
X22991563Y-181564395D01*
X22873898Y-180988928D01*
X22707118Y-180423738D01*
X22491538Y-179870921D01*
X22412589Y-179705782D01*
X22445644Y-179705782D01*
X22493834Y-179801490D01*
X22522124Y-179863313D01*
X22562670Y-179958919D01*
X22609895Y-180074470D01*
X22658219Y-180196129D01*
X22702064Y-180310059D01*
X22734125Y-180397503D01*
X22742427Y-180403255D01*
X22763306Y-180402807D01*
X22799682Y-180395065D01*
X22854477Y-180378939D01*
X22930614Y-180353335D01*
X23031012Y-180317160D01*
X23158595Y-180269323D01*
X23316284Y-180208731D01*
X23507000Y-180134291D01*
X23733664Y-180044911D01*
X23999200Y-179939499D01*
X24306527Y-179816962D01*
X24593161Y-179702381D01*
X26437183Y-178964611D01*
X26352239Y-178795269D01*
X26299469Y-178679488D01*
X26246128Y-178545568D01*
X26207930Y-178435236D01*
X26179496Y-178344669D01*
X26157263Y-178275284D01*
X26145161Y-178239309D01*
X26144199Y-178237001D01*
X26120497Y-178244999D01*
X26053241Y-178270497D01*
X25946072Y-178312057D01*
X25802629Y-178368242D01*
X25626552Y-178437614D01*
X25421481Y-178518736D01*
X25191056Y-178610171D01*
X24938916Y-178710480D01*
X24668701Y-178818226D01*
X24384051Y-178931972D01*
X24350647Y-178945336D01*
X24062896Y-179060458D01*
X23787960Y-179170431D01*
X23529630Y-179273740D01*
X23291692Y-179368871D01*
X23077934Y-179454311D01*
X22892146Y-179528545D01*
X22738116Y-179590060D01*
X22619631Y-179637342D01*
X22540480Y-179668877D01*
X22504451Y-179683151D01*
X22503553Y-179683499D01*
X22445644Y-179705782D01*
X22412589Y-179705782D01*
X22295255Y-179460350D01*
X22000491Y-178945501D01*
X21665759Y-178460795D01*
X21293362Y-178008203D01*
X21042079Y-177750295D01*
X26124245Y-177750295D01*
X26137026Y-177966953D01*
X26163055Y-178161497D01*
X26180081Y-178241355D01*
X26289691Y-178581980D01*
X26441820Y-178897607D01*
X26633151Y-179185240D01*
X26860364Y-179441879D01*
X27120140Y-179664528D01*
X27409161Y-179850188D01*
X27724109Y-179995863D01*
X28061664Y-180098555D01*
X28281471Y-180139413D01*
X28424337Y-180151093D01*
X28598221Y-180152292D01*
X28784581Y-180143911D01*
X28964875Y-180126851D01*
X29120560Y-180102013D01*
X29140664Y-180097668D01*
X29478200Y-179996247D01*
X29792857Y-179851110D01*
X30081421Y-179665432D01*
X30340679Y-179442392D01*
X30567418Y-179185165D01*
X30758425Y-178896930D01*
X30910486Y-178580862D01*
X31020388Y-178240139D01*
X31020720Y-178238807D01*
X31061062Y-178010709D01*
X31078497Y-177755648D01*
X31073237Y-177491952D01*
X31045496Y-177237947D01*
X31006935Y-177052810D01*
X30891384Y-176711219D01*
X30733945Y-176397117D01*
X30536855Y-176112723D01*
X30302354Y-175860255D01*
X30032680Y-175641929D01*
X29730071Y-175459965D01*
X29396766Y-175316580D01*
X29189245Y-175251689D01*
X29035116Y-175221378D01*
X28846940Y-175202332D01*
X28640257Y-175194550D01*
X28430609Y-175198032D01*
X28233535Y-175212779D01*
X28064577Y-175238791D01*
X28010755Y-175251689D01*
X27662546Y-175371199D01*
X27342574Y-175531022D01*
X27053371Y-175728560D01*
X26797466Y-175961214D01*
X26577390Y-176226383D01*
X26395673Y-176521470D01*
X26254845Y-176843876D01*
X26167438Y-177145086D01*
X26139247Y-177321616D01*
X26124917Y-177529267D01*
X26124245Y-177750295D01*
X21042079Y-177750295D01*
X20885607Y-177589697D01*
X20444799Y-177207250D01*
X19973243Y-176862832D01*
X19473244Y-176558417D01*
X18947109Y-176295975D01*
X18397141Y-176077479D01*
X18302703Y-176045267D01*
X17924839Y-175928824D01*
X17565075Y-175838936D01*
X17208212Y-175772986D01*
X16839052Y-175728360D01*
X16442393Y-175702440D01*
X16278720Y-175696883D01*
X15972719Y-175692647D01*
X15700486Y-175698063D01*
X15445642Y-175714332D01*
X15191812Y-175742656D01*
X14922617Y-175784236D01*
X14806707Y-175804898D01*
X14236520Y-175935148D01*
X13683760Y-176111884D01*
X13150828Y-176333009D01*
X12640127Y-176596428D01*
X12154058Y-176900046D01*
X11695024Y-177241766D01*
X11265426Y-177619494D01*
X10867667Y-178031133D01*
X10504149Y-178474589D01*
X10177273Y-178947765D01*
X9889441Y-179448566D01*
X9643057Y-179974897D01*
X9457858Y-180471341D01*
X9294742Y-181045647D01*
X9181334Y-181625653D01*
X9117264Y-182208582D01*
X9102164Y-182791659D01*
X4572973Y-182791659D01*
X4572973Y-171672072D01*
X52627027Y-171672072D01*
G37*
G36*
X22021171Y-200995155D02*
G01*
X22289480Y-201001946D01*
X22513155Y-201011290D01*
X22698400Y-201024698D01*
X22851422Y-201043677D01*
X22978426Y-201069738D01*
X23085618Y-201104387D01*
X23179202Y-201149135D01*
X23265386Y-201205489D01*
X23350373Y-201274958D01*
X23414185Y-201333828D01*
X23560484Y-201507129D01*
X23668098Y-201706229D01*
X23736959Y-201923840D01*
X23766998Y-202152678D01*
X23758147Y-202385454D01*
X23710337Y-202614884D01*
X23623500Y-202833680D01*
X23497567Y-203034556D01*
X23430925Y-203114106D01*
X23353931Y-203186222D01*
X23257851Y-203258955D01*
X23155630Y-203324293D01*
X23060212Y-203374223D01*
X22984541Y-203400734D01*
X22964207Y-203403003D01*
X22932976Y-203409426D01*
X22930130Y-203413690D01*
X22939171Y-203451428D01*
X22963086Y-203523467D01*
X22997062Y-203617224D01*
X23036287Y-203720115D01*
X23075949Y-203819556D01*
X23111236Y-203902962D01*
X23137335Y-203957750D01*
X23139948Y-203962363D01*
X23240026Y-204103044D01*
X23349604Y-204204610D01*
X23463595Y-204263974D01*
X23576912Y-204278052D01*
X23638634Y-204264846D01*
X23724629Y-204247839D01*
X23776619Y-204268620D01*
X23794582Y-204327179D01*
X23794595Y-204329339D01*
X23771728Y-204389936D01*
X23709316Y-204433073D01*
X23616639Y-204455500D01*
X23502977Y-204453963D01*
X23458957Y-204446966D01*
X23325884Y-204402256D01*
X23205772Y-204321319D01*
X23096044Y-204200967D01*
X22994123Y-204038016D01*
X22897431Y-203829279D01*
X22842208Y-203684520D01*
X22764132Y-203466567D01*
X22652667Y-203453854D01*
X22560840Y-203430937D01*
X22508612Y-203390380D01*
X22500364Y-203336778D01*
X22513379Y-203307658D01*
X22538807Y-203284479D01*
X22587185Y-203268372D01*
X22668375Y-203257091D01*
X22767503Y-203249799D01*
X22906799Y-203237052D01*
X23012718Y-203215443D01*
X23102473Y-203181251D01*
X23116493Y-203174359D01*
X23271098Y-203068856D01*
X23399785Y-202926280D01*
X23500568Y-202754427D01*
X23571458Y-202561092D01*
X23610471Y-202354072D01*
X23615618Y-202141160D01*
X23584913Y-201930153D01*
X23516371Y-201728846D01*
X23495774Y-201686161D01*
X23424587Y-201581307D01*
X23321164Y-201471644D01*
X23200606Y-201370946D01*
X23078011Y-201292987D01*
X23049300Y-201278887D01*
X22918482Y-201232759D01*
X22756110Y-201196271D01*
X22581107Y-201172934D01*
X22440879Y-201166070D01*
X22320296Y-201165566D01*
X22313752Y-202786437D01*
X22307207Y-204407308D01*
X21805055Y-204414202D01*
X21302903Y-204421095D01*
X21302903Y-200980393D01*
X22021171Y-200995155D01*
G37*
G36*
X38638437Y-72112992D02*
G01*
X38718501Y-71796753D01*
X38838891Y-71492754D01*
X38998570Y-71205312D01*
X39196506Y-70938742D01*
X39431662Y-70697363D01*
X39703005Y-70485490D01*
X39946268Y-70339699D01*
X40263113Y-70200084D01*
X40591757Y-70106895D01*
X40926995Y-70059462D01*
X41263621Y-70057117D01*
X41596430Y-70099188D01*
X41920215Y-70185008D01*
X42229773Y-70313907D01*
X42519896Y-70485215D01*
X42785380Y-70698262D01*
X42793510Y-70705855D01*
X42979049Y-70892470D01*
X43130205Y-71074699D01*
X43259262Y-71268351D01*
X43333375Y-71400723D01*
X43473885Y-71720315D01*
X43567278Y-72052824D01*
X43613913Y-72392949D01*
X43614148Y-72735388D01*
X43568343Y-73074842D01*
X43476855Y-73406008D01*
X43340043Y-73723586D01*
X43158266Y-74022273D01*
X43155809Y-74025726D01*
X43068302Y-74135678D01*
X42953540Y-74261812D01*
X42824412Y-74391445D01*
X42693805Y-74511896D01*
X42574608Y-74610481D01*
X42524952Y-74646501D01*
X42377859Y-74735113D01*
X42199964Y-74824822D01*
X42010401Y-74907118D01*
X41828303Y-74973491D01*
X41718412Y-75005210D01*
X41536207Y-75039594D01*
X41326731Y-75061849D01*
X41107787Y-75071345D01*
X40897172Y-75067451D01*
X40712688Y-75049535D01*
X40670465Y-75042364D01*
X40353643Y-74961049D01*
X40044746Y-74841056D01*
X39760032Y-74689015D01*
X39685486Y-74640673D01*
X39582519Y-74561797D01*
X39461113Y-74454823D01*
X39333717Y-74332046D01*
X39212780Y-74205763D01*
X39110753Y-74088267D01*
X39062809Y-74025726D01*
X38879198Y-73726699D01*
X38742119Y-73414012D01*
X38650538Y-73091981D01*
X38603421Y-72764923D01*
X38601157Y-72563764D01*
X38635529Y-72563764D01*
X38636816Y-72722993D01*
X38641781Y-72846688D01*
X38652077Y-72950126D01*
X38669358Y-73048584D01*
X38695279Y-73157339D01*
X38702974Y-73186687D01*
X38817888Y-73523719D01*
X38975832Y-73836199D01*
X39173699Y-74120797D01*
X39408386Y-74374179D01*
X39676786Y-74593013D01*
X39975794Y-74773968D01*
X40302306Y-74913711D01*
X40317105Y-74918810D01*
X40642719Y-75007567D01*
X40965340Y-75048939D01*
X41294972Y-75043751D01*
X41508974Y-75017235D01*
X41851339Y-74936802D01*
X42173208Y-74811568D01*
X42471207Y-74644614D01*
X42741966Y-74439021D01*
X42982111Y-74197867D01*
X43188272Y-73924234D01*
X43357077Y-73621201D01*
X43485153Y-73291850D01*
X43516448Y-73183427D01*
X43544401Y-73070935D01*
X43563401Y-72971707D01*
X43575084Y-72870535D01*
X43581085Y-72752212D01*
X43583040Y-72601530D01*
X43583090Y-72563764D01*
X43581772Y-72403940D01*
X43576739Y-72279768D01*
X43566369Y-72176092D01*
X43549041Y-72077758D01*
X43523134Y-71969608D01*
X43517081Y-71946595D01*
X43402210Y-71610223D01*
X43244384Y-71298095D01*
X43046964Y-71013572D01*
X42813312Y-70760016D01*
X42546790Y-70540789D01*
X42250760Y-70359251D01*
X41928584Y-70218764D01*
X41726478Y-70156197D01*
X41497466Y-70111254D01*
X41243461Y-70087999D01*
X40982787Y-70086642D01*
X40733770Y-70107392D01*
X40544435Y-70142698D01*
X40200544Y-70253206D01*
X39882354Y-70405765D01*
X39592813Y-70597495D01*
X39334870Y-70825517D01*
X39111475Y-71086951D01*
X38925576Y-71378916D01*
X38780122Y-71698535D01*
X38702974Y-71940841D01*
X38674732Y-72054344D01*
X38655527Y-72153881D01*
X38643705Y-72254729D01*
X38637611Y-72372166D01*
X38635591Y-72521468D01*
X38635529Y-72563764D01*
X38601157Y-72563764D01*
X38599732Y-72437154D01*
X38638437Y-72112992D01*
G37*
G36*
X11623629Y-151995551D02*
G01*
X11709435Y-151556704D01*
X11838119Y-151128817D01*
X12008745Y-150715167D01*
X12220381Y-150319035D01*
X12472091Y-149943699D01*
X12762942Y-149592437D01*
X13091999Y-149268528D01*
X13458328Y-148975250D01*
X13738839Y-148788459D01*
X14146185Y-148567494D01*
X14574715Y-148390989D01*
X15019800Y-148259592D01*
X15476809Y-148173955D01*
X15941112Y-148134724D01*
X16408077Y-148142551D01*
X16873075Y-148198084D01*
X17290247Y-148290526D01*
X17731423Y-148436165D01*
X18149589Y-148624767D01*
X18542563Y-148853240D01*
X18908160Y-149118490D01*
X19244197Y-149417423D01*
X19548489Y-149746947D01*
X19818855Y-150103968D01*
X20053109Y-150485392D01*
X20249068Y-150888126D01*
X20404548Y-151309078D01*
X20517366Y-151745152D01*
X20585339Y-152193256D01*
X20606281Y-152650297D01*
X20592257Y-152968168D01*
X20528695Y-153457232D01*
X20419306Y-153924438D01*
X20264271Y-154369402D01*
X20063769Y-154791744D01*
X19817979Y-155191078D01*
X19527080Y-155567023D01*
X19226540Y-155885362D01*
X18876170Y-156194634D01*
X18508865Y-156459038D01*
X18120046Y-156680990D01*
X17705135Y-156862910D01*
X17259553Y-157007215D01*
X16967178Y-157078574D01*
X16820559Y-157102918D01*
X16635849Y-157122308D01*
X16425592Y-157136431D01*
X16202335Y-157144976D01*
X15978624Y-157147632D01*
X15767004Y-157144088D01*
X15580022Y-157134033D01*
X15430223Y-157117155D01*
X15427811Y-157116765D01*
X14945349Y-157014232D01*
X14488572Y-156867841D01*
X14057074Y-156677381D01*
X13650447Y-156442641D01*
X13268285Y-156163409D01*
X12910182Y-155839473D01*
X12848808Y-155776984D01*
X12605411Y-155508336D01*
X12398816Y-155242311D01*
X12218192Y-154963747D01*
X12061530Y-154675176D01*
X11870454Y-154239424D01*
X11727861Y-153794960D01*
X11632816Y-153345062D01*
X11584385Y-152893009D01*
X11582408Y-152569012D01*
X11608503Y-152569012D01*
X11622997Y-153031092D01*
X11685206Y-153494162D01*
X11769761Y-153861562D01*
X11914644Y-154295759D01*
X12104278Y-154710120D01*
X12335449Y-155101694D01*
X12604941Y-155467528D01*
X12909541Y-155804672D01*
X13246034Y-156110174D01*
X13611205Y-156381083D01*
X14001840Y-156614448D01*
X14414724Y-156807316D01*
X14846643Y-156956738D01*
X15243165Y-157050551D01*
X15376582Y-157075123D01*
X15483974Y-157093434D01*
X15576556Y-157106273D01*
X15665540Y-157114427D01*
X15762142Y-157118686D01*
X15877574Y-157119839D01*
X16023051Y-157118675D01*
X16179680Y-157116438D01*
X16387965Y-157111619D01*
X16558013Y-157103474D01*
X16702388Y-157090967D01*
X16833651Y-157073063D01*
X16939355Y-157053820D01*
X17404430Y-156935738D01*
X17848607Y-156772714D01*
X18269208Y-156566817D01*
X18663557Y-156320118D01*
X19028979Y-156034687D01*
X19362796Y-155712595D01*
X19662332Y-155355912D01*
X19924911Y-154966708D01*
X20129403Y-154586187D01*
X20313285Y-154149354D01*
X20447594Y-153710955D01*
X20533350Y-153265693D01*
X20571575Y-152808274D01*
X20563460Y-152336036D01*
X20509140Y-151874593D01*
X20407370Y-151425997D01*
X20260604Y-150993355D01*
X20071296Y-150579771D01*
X19841901Y-150188352D01*
X19574872Y-149822201D01*
X19272663Y-149484425D01*
X18937729Y-149178129D01*
X18572524Y-148906419D01*
X18179502Y-148672399D01*
X17761117Y-148479174D01*
X17420709Y-148359376D01*
X16952458Y-148241938D01*
X16482587Y-148174684D01*
X16013888Y-148157141D01*
X15549153Y-148188836D01*
X15091173Y-148269293D01*
X14642741Y-148398040D01*
X14206649Y-148574601D01*
X13785687Y-148798503D01*
X13425237Y-149037780D01*
X13064845Y-149331969D01*
X12741257Y-149658944D01*
X12455686Y-150015171D01*
X12209344Y-150397119D01*
X12003443Y-150801254D01*
X11839196Y-151224044D01*
X11717816Y-151661955D01*
X11640514Y-152111456D01*
X11608503Y-152569012D01*
X11582408Y-152569012D01*
X11581634Y-152442079D01*
X11623629Y-151995551D01*
G37*
G36*
X47033434Y-48867268D02*
G01*
X46600748Y-48867268D01*
X46607331Y-47538789D01*
X46613914Y-46210311D01*
X47033434Y-46195541D01*
X47033434Y-48867268D01*
G37*
G36*
X32680457Y-191985481D02*
G01*
X32689241Y-192051347D01*
X32693328Y-192150322D01*
X32693494Y-192177678D01*
X32693494Y-192393794D01*
X33202002Y-192393794D01*
X33202002Y-193207408D01*
X33201585Y-193442244D01*
X33200224Y-193630435D01*
X33197754Y-193776181D01*
X33194013Y-193883681D01*
X33188834Y-193957134D01*
X33182054Y-194000740D01*
X33173508Y-194018699D01*
X33170220Y-194019711D01*
X33128112Y-194009869D01*
X33061209Y-193986832D01*
X33036737Y-193977244D01*
X32840323Y-193871486D01*
X32663853Y-193725053D01*
X32514075Y-193546382D01*
X32397734Y-193343907D01*
X32321578Y-193126064D01*
X32309122Y-193067568D01*
X32291604Y-192880632D01*
X32301494Y-192681304D01*
X32336894Y-192492942D01*
X32362305Y-192413505D01*
X32398776Y-192333011D01*
X32450068Y-192240552D01*
X32508973Y-192146783D01*
X32568284Y-192062358D01*
X32620792Y-191997935D01*
X32659291Y-191964167D01*
X32668016Y-191961562D01*
X32680457Y-191985481D01*
G37*
G36*
X34899149Y-46203552D02*
G01*
X35604705Y-46210311D01*
X35604705Y-46642543D01*
X35108909Y-46657097D01*
X35108909Y-48867268D01*
X34676677Y-48867268D01*
X34676677Y-46655256D01*
X34193594Y-46655256D01*
X34193594Y-46196794D01*
X34899149Y-46203552D01*
G37*
G36*
X17616216Y-119264837D02*
G01*
X17458192Y-119292673D01*
X17241886Y-119354680D01*
X17048301Y-119458218D01*
X16883815Y-119598744D01*
X16754804Y-119771716D01*
X16734831Y-119807872D01*
X16698079Y-119885167D01*
X16676429Y-119955616D01*
X16666057Y-120037997D01*
X16663142Y-120151089D01*
X16663120Y-120160161D01*
X16665770Y-120280291D01*
X16676703Y-120369858D01*
X16699684Y-120448950D01*
X16730931Y-120521719D01*
X16829950Y-120680042D01*
X16965178Y-120820468D01*
X17124824Y-120933922D01*
X17297092Y-121011335D01*
X17400100Y-121036465D01*
X17503724Y-121053013D01*
X17567707Y-121069010D01*
X17601520Y-121095659D01*
X17614637Y-121144163D01*
X17616529Y-121225727D01*
X17616216Y-121292076D01*
X17616216Y-121507708D01*
X17520871Y-121505687D01*
X17442088Y-121498816D01*
X17340987Y-121483297D01*
X17272973Y-121469738D01*
X17031989Y-121392586D01*
X16816936Y-121277249D01*
X16630460Y-121129064D01*
X16475207Y-120953369D01*
X16353824Y-120755500D01*
X16268958Y-120540797D01*
X16223255Y-120314594D01*
X16219362Y-120082231D01*
X16259925Y-119849044D01*
X16347590Y-119620370D01*
X16351801Y-119612009D01*
X16489407Y-119395992D01*
X16665137Y-119209658D01*
X16873300Y-119056882D01*
X17108206Y-118941534D01*
X17364167Y-118867488D01*
X17470927Y-118850332D01*
X17616216Y-118832179D01*
X17616216Y-119264837D01*
G37*
G36*
X37174275Y-125862102D02*
G01*
X37258850Y-125598154D01*
X37383673Y-125348475D01*
X37547244Y-125117555D01*
X37748062Y-124909880D01*
X37984628Y-124729939D01*
X38255441Y-124582219D01*
X38302730Y-124561500D01*
X38455644Y-124500893D01*
X38589136Y-124459488D01*
X38727659Y-124430785D01*
X38866262Y-124411678D01*
X39051343Y-124389795D01*
X39044240Y-124696749D01*
X39040958Y-124825764D01*
X39036897Y-124912563D01*
X39030113Y-124965769D01*
X39018660Y-124994004D01*
X39000594Y-125005891D01*
X38973971Y-125010051D01*
X38973574Y-125010091D01*
X38798014Y-125039231D01*
X38621260Y-125088346D01*
X38490491Y-125140380D01*
X38350651Y-125207108D01*
X39253253Y-125220994D01*
X39253253Y-128118319D01*
X38992643Y-128116297D01*
X38859710Y-128111685D01*
X38724520Y-128101054D01*
X38608727Y-128086319D01*
X38568598Y-128078833D01*
X38303056Y-127996115D01*
X38048462Y-127867993D01*
X37812165Y-127699784D01*
X37601517Y-127496807D01*
X37423867Y-127264380D01*
X37407639Y-127238821D01*
X37268466Y-126970840D01*
X37177044Y-126694689D01*
X37131872Y-126414857D01*
X37131506Y-126173274D01*
X37735365Y-126173274D01*
X37740827Y-126418942D01*
X37792094Y-126654043D01*
X37885693Y-126872299D01*
X38018153Y-127067433D01*
X38186003Y-127233166D01*
X38385770Y-127363222D01*
X38396399Y-127368608D01*
X38485236Y-127410930D01*
X38559084Y-127442262D01*
X38604192Y-127456853D01*
X38608321Y-127457258D01*
X38618155Y-127449588D01*
X38626018Y-127423443D01*
X38632110Y-127374124D01*
X38636633Y-127296930D01*
X38639786Y-127187159D01*
X38641771Y-127040112D01*
X38642788Y-126851086D01*
X38643043Y-126644534D01*
X38643043Y-125831809D01*
X38382433Y-125824564D01*
X38121822Y-125817318D01*
X38109109Y-125601202D01*
X38096397Y-125385085D01*
X37977212Y-125544636D01*
X37849064Y-125751358D01*
X37768871Y-125966648D01*
X37735365Y-126173274D01*
X37131506Y-126173274D01*
X37131449Y-126135832D01*
X37174275Y-125862102D01*
G37*
G36*
X16505781Y-26824051D02*
G01*
X16594286Y-26314773D01*
X16729733Y-25813566D01*
X16910882Y-25321687D01*
X17136491Y-24840391D01*
X17405317Y-24370937D01*
X17716119Y-23914579D01*
X18067655Y-23472574D01*
X18458683Y-23046179D01*
X18887962Y-22636651D01*
X19354249Y-22245245D01*
X19856303Y-21873218D01*
X20392882Y-21521826D01*
X20962743Y-21192327D01*
X21564647Y-20885975D01*
X22197349Y-20604029D01*
X22859609Y-20347743D01*
X23550185Y-20118376D01*
X24267835Y-19917182D01*
X24346480Y-19897299D01*
X25243769Y-19698733D01*
X26154391Y-19548061D01*
X27074676Y-19445283D01*
X28000954Y-19390400D01*
X28929554Y-19383414D01*
X29856805Y-19424325D01*
X30779037Y-19513133D01*
X31692580Y-19649840D01*
X32593764Y-19834447D01*
X32846046Y-19895386D01*
X33616715Y-20108257D01*
X34360078Y-20354598D01*
X35073945Y-20633272D01*
X35756128Y-20943141D01*
X36404438Y-21283065D01*
X37016686Y-21651908D01*
X37590682Y-22048530D01*
X38124239Y-22471794D01*
X38559697Y-22866481D01*
X38994209Y-23316137D01*
X39381362Y-23779143D01*
X39720774Y-24254742D01*
X40012066Y-24742178D01*
X40254857Y-25240695D01*
X40448769Y-25749536D01*
X40593420Y-26267944D01*
X40688431Y-26795164D01*
X40725863Y-27179380D01*
X40734073Y-27703342D01*
X40692861Y-28221440D01*
X40603444Y-28732439D01*
X40467040Y-29235103D01*
X40284868Y-29728197D01*
X40058144Y-30210484D01*
X39788087Y-30680728D01*
X39475913Y-31137695D01*
X39122842Y-31580147D01*
X38730090Y-32006850D01*
X38298875Y-32416568D01*
X37830415Y-32808065D01*
X37325927Y-33180105D01*
X36786630Y-33531452D01*
X36213741Y-33860870D01*
X35608477Y-34167125D01*
X34972057Y-34448979D01*
X34305698Y-34705198D01*
X33610618Y-34934546D01*
X32888034Y-35135786D01*
X32884989Y-35136558D01*
X32141911Y-35306428D01*
X31383539Y-35442508D01*
X30602754Y-35545805D01*
X29792440Y-35617324D01*
X29286487Y-35645518D01*
X29063750Y-35654898D01*
X28875423Y-35661454D01*
X28708837Y-35665172D01*
X28551319Y-35666039D01*
X28390198Y-35664041D01*
X28212803Y-35659165D01*
X28006463Y-35651397D01*
X27832298Y-35643982D01*
X27032857Y-35591313D01*
X26247519Y-35504574D01*
X25478236Y-35384773D01*
X24726963Y-35232916D01*
X23995652Y-35050013D01*
X23286256Y-34837070D01*
X22600728Y-34595093D01*
X21941021Y-34325092D01*
X21309088Y-34028073D01*
X20706882Y-33705043D01*
X20136356Y-33357011D01*
X19599463Y-32984982D01*
X19098156Y-32589966D01*
X18634388Y-32172968D01*
X18210111Y-31734998D01*
X17827280Y-31277061D01*
X17487846Y-30800165D01*
X17193764Y-30305318D01*
X17089213Y-30102470D01*
X16886445Y-29655280D01*
X16726584Y-29219693D01*
X16606746Y-28785196D01*
X16524048Y-28341279D01*
X16475607Y-27877429D01*
X16474568Y-27861796D01*
X16471388Y-27679663D01*
X16739361Y-27679663D01*
X16743929Y-27887010D01*
X16753262Y-28071530D01*
X16767449Y-28221254D01*
X16773045Y-28259960D01*
X16874781Y-28758745D01*
X17016834Y-29239162D01*
X17202867Y-29712557D01*
X17328562Y-29980719D01*
X17602833Y-30477897D01*
X17925249Y-30959259D01*
X18295516Y-31424462D01*
X18713339Y-31873162D01*
X19178423Y-32305015D01*
X19650250Y-32689031D01*
X20186845Y-33071623D01*
X20765224Y-33430666D01*
X21381263Y-33764473D01*
X22030834Y-34071358D01*
X22709813Y-34349636D01*
X23414073Y-34597622D01*
X24139488Y-34813628D01*
X24881933Y-34995969D01*
X25637283Y-35142960D01*
X25668642Y-35148236D01*
X25966103Y-35195613D01*
X26257926Y-35236913D01*
X26554464Y-35273265D01*
X26866068Y-35305801D01*
X27203089Y-35335649D01*
X27575879Y-35363940D01*
X27760961Y-35376659D01*
X27864641Y-35380939D01*
X28011158Y-35383251D01*
X28192541Y-35383753D01*
X28400822Y-35382606D01*
X28628030Y-35379968D01*
X28866195Y-35376000D01*
X29107349Y-35370860D01*
X29343520Y-35364709D01*
X29566740Y-35357706D01*
X29769039Y-35350011D01*
X29942447Y-35341784D01*
X30078994Y-35333183D01*
X30125526Y-35329305D01*
X30986276Y-35229515D01*
X31823936Y-35092546D01*
X32636743Y-34919076D01*
X33422930Y-34709782D01*
X34180736Y-34465342D01*
X34908394Y-34186432D01*
X35604142Y-33873730D01*
X36266215Y-33527915D01*
X36892849Y-33149662D01*
X37482280Y-32739650D01*
X38032744Y-32298557D01*
X38044803Y-32288162D01*
X38210553Y-32138856D01*
X38392828Y-31964094D01*
X38580386Y-31775435D01*
X38761986Y-31584434D01*
X38926386Y-31402647D01*
X39059874Y-31244700D01*
X39283397Y-30948748D01*
X39500145Y-30626359D01*
X39703292Y-30289414D01*
X39886012Y-29949792D01*
X40041478Y-29619373D01*
X40149024Y-29349275D01*
X40302955Y-28847110D01*
X40407176Y-28337792D01*
X40461563Y-27824032D01*
X40465989Y-27308543D01*
X40420326Y-26794035D01*
X40324449Y-26283220D01*
X40297146Y-26173681D01*
X40141716Y-25676190D01*
X39937519Y-25187449D01*
X39686140Y-24709112D01*
X39389166Y-24242836D01*
X39048181Y-23790277D01*
X38664772Y-23353089D01*
X38240525Y-22932929D01*
X37777025Y-22531453D01*
X37275860Y-22150315D01*
X36738613Y-21791172D01*
X36166872Y-21455680D01*
X35562223Y-21145493D01*
X35414014Y-21075751D01*
X34635267Y-20743164D01*
X33831167Y-20454289D01*
X33001532Y-20209081D01*
X32146175Y-20007496D01*
X31264912Y-19849487D01*
X30357557Y-19735011D01*
X29680581Y-19679033D01*
X29485768Y-19669174D01*
X29251660Y-19661871D01*
X28989746Y-19657121D01*
X28711518Y-19654925D01*
X28428467Y-19655279D01*
X28152082Y-19658182D01*
X27893856Y-19663632D01*
X27665278Y-19671627D01*
X27518986Y-19679371D01*
X26660119Y-19754294D01*
X25820039Y-19867897D01*
X25000847Y-20019427D01*
X24204645Y-20208132D01*
X23433535Y-20433258D01*
X22689619Y-20694051D01*
X21974999Y-20989758D01*
X21291778Y-21319627D01*
X20642058Y-21682903D01*
X20027939Y-22078834D01*
X19451525Y-22506666D01*
X19310725Y-22620860D01*
X19125266Y-22781611D01*
X18922587Y-22970406D01*
X18712727Y-23176938D01*
X18505723Y-23390898D01*
X18311614Y-23601981D01*
X18140437Y-23799878D01*
X18035736Y-23930081D01*
X17698116Y-24405748D01*
X17409750Y-24893959D01*
X17170580Y-25394842D01*
X16980548Y-25908528D01*
X16839595Y-26435147D01*
X16784780Y-26719484D01*
X16766898Y-26861413D01*
X16753324Y-27040365D01*
X16744149Y-27244371D01*
X16739464Y-27461460D01*
X16739361Y-27679663D01*
X16471388Y-27679663D01*
X16465461Y-27340144D01*
X16505781Y-26824051D01*
G37*
G36*
X15671171Y-165047419D02*
G01*
X15560255Y-165066315D01*
X15428846Y-165109081D01*
X15326376Y-165183358D01*
X15258982Y-165281627D01*
X15232799Y-165396369D01*
X15237765Y-165461489D01*
X15249095Y-165500348D01*
X15272334Y-165543716D01*
X15312295Y-165597314D01*
X15373792Y-165666865D01*
X15461637Y-165758089D01*
X15580645Y-165876709D01*
X15617764Y-165913214D01*
X15777223Y-166073830D01*
X15901930Y-166210396D01*
X15996858Y-166330603D01*
X16066984Y-166442140D01*
X16117284Y-166552697D01*
X16152733Y-166669965D01*
X16173443Y-166772017D01*
X16185883Y-166988532D01*
X16151730Y-167200958D01*
X16075232Y-167404330D01*
X15960639Y-167593682D01*
X15812200Y-167764048D01*
X15634164Y-167910465D01*
X15430780Y-168027966D01*
X15206298Y-168111587D01*
X14991041Y-168153625D01*
X14844845Y-168170365D01*
X14844845Y-167559705D01*
X14967564Y-167543425D01*
X15130189Y-167501804D01*
X15280991Y-167425934D01*
X15409726Y-167323594D01*
X15506152Y-167202562D01*
X15552675Y-167099095D01*
X15574491Y-167011897D01*
X15581534Y-166933732D01*
X15570529Y-166858276D01*
X15538199Y-166779205D01*
X15481268Y-166690191D01*
X15396461Y-166584912D01*
X15280502Y-166457041D01*
X15148972Y-166319655D01*
X14990239Y-166151534D01*
X14866530Y-166008621D01*
X14773502Y-165883939D01*
X14706808Y-165770513D01*
X14662104Y-165661364D01*
X14635046Y-165549518D01*
X14625577Y-165479225D01*
X14629174Y-165296914D01*
X14672232Y-165111494D01*
X14749674Y-164944393D01*
X14753873Y-164937669D01*
X14875906Y-164787332D01*
X15035071Y-164655400D01*
X15218749Y-164549748D01*
X15414323Y-164478249D01*
X15525915Y-164455846D01*
X15685383Y-164434037D01*
X15671171Y-165047419D01*
G37*
G36*
X20013956Y-26845658D02*
G01*
X20108222Y-26348088D01*
X20159932Y-26149613D01*
X20321133Y-25668665D01*
X20529655Y-25201945D01*
X20783550Y-24751088D01*
X21080871Y-24317726D01*
X21419673Y-23903497D01*
X21798007Y-23510034D01*
X22213928Y-23138973D01*
X22665489Y-22791948D01*
X23150742Y-22470594D01*
X23667742Y-22176546D01*
X24214540Y-21911438D01*
X24789192Y-21676907D01*
X25389749Y-21474585D01*
X25892192Y-21335854D01*
X26349876Y-21233459D01*
X26841925Y-21145641D01*
X27353285Y-21075012D01*
X27481281Y-21060466D01*
X27699601Y-21041805D01*
X27956576Y-21028234D01*
X28240267Y-21019743D01*
X28538735Y-21016324D01*
X28840041Y-21017968D01*
X29132245Y-21024669D01*
X29403407Y-21036416D01*
X29641589Y-21053202D01*
X29731432Y-21062026D01*
X30439780Y-21158520D01*
X31115019Y-21290554D01*
X31761577Y-21459364D01*
X32383880Y-21666184D01*
X32986357Y-21912250D01*
X33290991Y-22055003D01*
X33831179Y-22341746D01*
X34335709Y-22654889D01*
X34803519Y-22992661D01*
X35233547Y-23353294D01*
X35624732Y-23735016D01*
X35976012Y-24136059D01*
X36286325Y-24554654D01*
X36554610Y-24989029D01*
X36779805Y-25437416D01*
X36960849Y-25898044D01*
X37096679Y-26369144D01*
X37186234Y-26848947D01*
X37228453Y-27335683D01*
X37222273Y-27827581D01*
X37166633Y-28322873D01*
X37140241Y-28471322D01*
X37036594Y-28893998D01*
X36888915Y-29324428D01*
X36701307Y-29753965D01*
X36477871Y-30173963D01*
X36222708Y-30575776D01*
X35998129Y-30878779D01*
X35868847Y-31032695D01*
X35711079Y-31206692D01*
X35536154Y-31389220D01*
X35355399Y-31568725D01*
X35180142Y-31733656D01*
X35032633Y-31863322D01*
X34531410Y-32251782D01*
X33995701Y-32604198D01*
X33427663Y-32919784D01*
X32829451Y-33197756D01*
X32203224Y-33437327D01*
X31551136Y-33637713D01*
X30875344Y-33798128D01*
X30178004Y-33917786D01*
X29461273Y-33995903D01*
X29116459Y-34018138D01*
X28944273Y-34026769D01*
X28808321Y-34033067D01*
X28696898Y-34037017D01*
X28598298Y-34038607D01*
X28500816Y-34037823D01*
X28392747Y-34034651D01*
X28262386Y-34029078D01*
X28098026Y-34021090D01*
X28012998Y-34016861D01*
X27324681Y-33960681D01*
X26644152Y-33861774D01*
X25975558Y-33721514D01*
X25323050Y-33541277D01*
X24690776Y-33322439D01*
X24082886Y-33066374D01*
X23503528Y-32774458D01*
X22956852Y-32448067D01*
X22650451Y-32239258D01*
X22188048Y-31880874D01*
X21763494Y-31495451D01*
X21379012Y-31085542D01*
X21036823Y-30653697D01*
X20739151Y-30202470D01*
X20512899Y-29785486D01*
X20303265Y-29303554D01*
X20144154Y-28817710D01*
X20035617Y-28328476D01*
X19977704Y-27836375D01*
X19973904Y-27576763D01*
X20236739Y-27576763D01*
X20267252Y-28055203D01*
X20346664Y-28530906D01*
X20474968Y-29001511D01*
X20652161Y-29464663D01*
X20878238Y-29918002D01*
X21092004Y-30268569D01*
X21416338Y-30713449D01*
X21783246Y-31133388D01*
X22190304Y-31527129D01*
X22635088Y-31893416D01*
X23115176Y-32230995D01*
X23628143Y-32538609D01*
X24171565Y-32815002D01*
X24743020Y-33058920D01*
X25340083Y-33269105D01*
X25960331Y-33444303D01*
X26601340Y-33583257D01*
X27260687Y-33684712D01*
X27786387Y-33737026D01*
X27981610Y-33748296D01*
X28212302Y-33755844D01*
X28463789Y-33759655D01*
X28721395Y-33759711D01*
X28970443Y-33755995D01*
X29196259Y-33748490D01*
X29362763Y-33738839D01*
X30062958Y-33665663D01*
X30744037Y-33552538D01*
X31403681Y-33400424D01*
X32039571Y-33210281D01*
X32649387Y-32983069D01*
X33230810Y-32719747D01*
X33781520Y-32421274D01*
X34299198Y-32088611D01*
X34781525Y-31722717D01*
X35226180Y-31324553D01*
X35246950Y-31304239D01*
X35628799Y-30899148D01*
X35961967Y-30481195D01*
X36247384Y-30048691D01*
X36485977Y-29599945D01*
X36678673Y-29133267D01*
X36826402Y-28646969D01*
X36905141Y-28285386D01*
X36930290Y-28105701D01*
X36947787Y-27890897D01*
X36957358Y-27656165D01*
X36958729Y-27416699D01*
X36951625Y-27187691D01*
X36935771Y-26984335D01*
X36929571Y-26932880D01*
X36839834Y-26446109D01*
X36702182Y-25971797D01*
X36518353Y-25511440D01*
X36290089Y-25066537D01*
X36019127Y-24638584D01*
X35707209Y-24229081D01*
X35356074Y-23839524D01*
X34967461Y-23471410D01*
X34543110Y-23126238D01*
X34084762Y-22805505D01*
X33594155Y-22510709D01*
X33073030Y-22243347D01*
X32523126Y-22004918D01*
X31946184Y-21796917D01*
X31343942Y-21620844D01*
X30718140Y-21478196D01*
X30557758Y-21447850D01*
X30324983Y-21407012D01*
X30115361Y-21373889D01*
X29919229Y-21347724D01*
X29726924Y-21327759D01*
X29528784Y-21313235D01*
X29315146Y-21303394D01*
X29076347Y-21297479D01*
X28802725Y-21294732D01*
X28600000Y-21294286D01*
X28298332Y-21295369D01*
X28037817Y-21299124D01*
X27808791Y-21306307D01*
X27601591Y-21317678D01*
X27406556Y-21333994D01*
X27214023Y-21356013D01*
X27014328Y-21384493D01*
X26797810Y-21420192D01*
X26642242Y-21447850D01*
X25996928Y-21585533D01*
X25372842Y-21759728D01*
X24772434Y-21968967D01*
X24198153Y-22211781D01*
X23652448Y-22486702D01*
X23137768Y-22792264D01*
X22656563Y-23126999D01*
X22211282Y-23489438D01*
X21804373Y-23878114D01*
X21438287Y-24291560D01*
X21115472Y-24728307D01*
X21080790Y-24780636D01*
X20817814Y-25225997D01*
X20603764Y-25682766D01*
X20438637Y-26148585D01*
X20322427Y-26621095D01*
X20255129Y-27097941D01*
X20236739Y-27576763D01*
X19973904Y-27576763D01*
X19970467Y-27341928D01*
X20013956Y-26845658D01*
G37*
G36*
X24821830Y-27152867D02*
G01*
X24889223Y-26740423D01*
X25002457Y-26333749D01*
X25161873Y-25936539D01*
X25367810Y-25552489D01*
X25451070Y-25421671D01*
X25575043Y-25253699D01*
X25731146Y-25070927D01*
X25907946Y-24884783D01*
X26094009Y-24706693D01*
X26277899Y-24548085D01*
X26448182Y-24420386D01*
X26462910Y-24410494D01*
X26851275Y-24181653D01*
X27253368Y-24001043D01*
X27666835Y-23869073D01*
X28089322Y-23786149D01*
X28518474Y-23752679D01*
X28951937Y-23769070D01*
X29387358Y-23835730D01*
X29556235Y-23875194D01*
X29969596Y-24006960D01*
X30361069Y-24184582D01*
X30730305Y-24407856D01*
X31076956Y-24676574D01*
X31349404Y-24936194D01*
X31629986Y-25263942D01*
X31867452Y-25615257D01*
X32061539Y-25986330D01*
X32211984Y-26373354D01*
X32318526Y-26772522D01*
X32380902Y-27180025D01*
X32398851Y-27592057D01*
X32372109Y-28004810D01*
X32300415Y-28414476D01*
X32183506Y-28817249D01*
X32021120Y-29209319D01*
X31812994Y-29586881D01*
X31683124Y-29781107D01*
X31562861Y-29934795D01*
X31412592Y-30103859D01*
X31244835Y-30275795D01*
X31072110Y-30438098D01*
X30906938Y-30578263D01*
X30816623Y-30646566D01*
X30477010Y-30860469D01*
X30104953Y-31043100D01*
X29711482Y-31189567D01*
X29400901Y-31274612D01*
X29280815Y-31295479D01*
X29122416Y-31313032D01*
X28938159Y-31326832D01*
X28740502Y-31336434D01*
X28541901Y-31341398D01*
X28354813Y-31341283D01*
X28191693Y-31335644D01*
X28064998Y-31324042D01*
X28053889Y-31322394D01*
X27619746Y-31229363D01*
X27202989Y-31089195D01*
X26806682Y-30903460D01*
X26433894Y-30673725D01*
X26087691Y-30401560D01*
X25892192Y-30216711D01*
X25605090Y-29891134D01*
X25361110Y-29541766D01*
X25160592Y-29172301D01*
X25003876Y-28786436D01*
X24891302Y-28387865D01*
X24823210Y-27980283D01*
X24807503Y-27701592D01*
X25859043Y-27701592D01*
X25881271Y-27953241D01*
X25930420Y-28200240D01*
X25996514Y-28425226D01*
X26134327Y-28763493D01*
X26314300Y-29076607D01*
X26532799Y-29361519D01*
X26786187Y-29615180D01*
X27070831Y-29834539D01*
X27383094Y-30016549D01*
X27719342Y-30158159D01*
X28075939Y-30256321D01*
X28208061Y-30280351D01*
X28373323Y-30296181D01*
X28570552Y-30299019D01*
X28782818Y-30289836D01*
X28993192Y-30269604D01*
X29184743Y-30239292D01*
X29273774Y-30219234D01*
X29473235Y-30156485D01*
X29689693Y-30068847D01*
X29905895Y-29964574D01*
X30104589Y-29851921D01*
X30254474Y-29749974D01*
X30401058Y-29627458D01*
X30553834Y-29480732D01*
X30698916Y-29324367D01*
X30822419Y-29172936D01*
X30874843Y-29098959D01*
X31064626Y-28770128D01*
X31204779Y-28431132D01*
X31295873Y-28079908D01*
X31338479Y-27714392D01*
X31338662Y-27423191D01*
X31296977Y-27053065D01*
X31208824Y-26699563D01*
X31076774Y-26365863D01*
X30903398Y-26055142D01*
X30691270Y-25770578D01*
X30442961Y-25515348D01*
X30161042Y-25292631D01*
X29848087Y-25105603D01*
X29506666Y-24957442D01*
X29286487Y-24887772D01*
X29136571Y-24856934D01*
X28951575Y-24834605D01*
X28746627Y-24821239D01*
X28536854Y-24817291D01*
X28337386Y-24823216D01*
X28163349Y-24839467D01*
X28089563Y-24851815D01*
X27720349Y-24951137D01*
X27376195Y-25093487D01*
X27059562Y-25276999D01*
X26772910Y-25499804D01*
X26518698Y-25760036D01*
X26299387Y-26055826D01*
X26145315Y-26327628D01*
X26014383Y-26628836D01*
X25925604Y-26925916D01*
X25874686Y-27235433D01*
X25860923Y-27424530D01*
X25859043Y-27701592D01*
X24807503Y-27701592D01*
X24799939Y-27567385D01*
X24821830Y-27152867D01*
G37*
G36*
X21252052Y-88073274D02*
G01*
X20667267Y-88073274D01*
X20667267Y-84361162D01*
X21252052Y-84361162D01*
X21252052Y-88073274D01*
G37*
G36*
X18272587Y-84443794D02*
G01*
X18291775Y-84509528D01*
X18322995Y-84613047D01*
X18364483Y-84748724D01*
X18414476Y-84910936D01*
X18471209Y-85094055D01*
X18532919Y-85292456D01*
X18597842Y-85500514D01*
X18664213Y-85712603D01*
X18730270Y-85923097D01*
X18794249Y-86126371D01*
X18854385Y-86316799D01*
X18908915Y-86488756D01*
X18956075Y-86636615D01*
X18994100Y-86754752D01*
X19021229Y-86837540D01*
X19035696Y-86879355D01*
X19037444Y-86883271D01*
X19047662Y-86863173D01*
X19071347Y-86798879D01*
X19107053Y-86694809D01*
X19153336Y-86555380D01*
X19208751Y-86385014D01*
X19271852Y-86188128D01*
X19341196Y-85969142D01*
X19415336Y-85732476D01*
X19446847Y-85631156D01*
X19840941Y-84361335D01*
X20166616Y-84361248D01*
X20287335Y-84362601D01*
X20386008Y-84366364D01*
X20453561Y-84371987D01*
X20480925Y-84378925D01*
X20480906Y-84380231D01*
X20471607Y-84407036D01*
X20448334Y-84478491D01*
X20412317Y-84590720D01*
X20364783Y-84739848D01*
X20306963Y-84921999D01*
X20240083Y-85133297D01*
X20165373Y-85369867D01*
X20084061Y-85627834D01*
X19997377Y-85903320D01*
X19918727Y-86153654D01*
X19827824Y-86443186D01*
X19740889Y-86720070D01*
X19659197Y-86980243D01*
X19584024Y-87219642D01*
X19516646Y-87434206D01*
X19458339Y-87619871D01*
X19410377Y-87772576D01*
X19374038Y-87888257D01*
X19350597Y-87962852D01*
X19341854Y-87990641D01*
X19315776Y-88073274D01*
X19044425Y-88073236D01*
X18773073Y-88073198D01*
X18203408Y-86261674D01*
X18111297Y-85968667D01*
X18023494Y-85689182D01*
X17941214Y-85427098D01*
X17865674Y-85186298D01*
X17798090Y-84970661D01*
X17739676Y-84784069D01*
X17691649Y-84630402D01*
X17655224Y-84513542D01*
X17631617Y-84437370D01*
X17622044Y-84405766D01*
X17622014Y-84405656D01*
X17621156Y-84387201D01*
X17635274Y-84374670D01*
X17672177Y-84366933D01*
X17739672Y-84362863D01*
X17845565Y-84361332D01*
X17929874Y-84361162D01*
X18249462Y-84361162D01*
X18272587Y-84443794D01*
G37*
G36*
X14488889Y-88073274D02*
G01*
X13878679Y-88073274D01*
X13878679Y-84361162D01*
X14488889Y-84361162D01*
X14488889Y-88073274D01*
G37*
G36*
X24842821Y-164435519D02*
G01*
X25061219Y-164454853D01*
X25245653Y-164486153D01*
X25412356Y-164533238D01*
X25577559Y-164599928D01*
X25614064Y-164617012D01*
X25876612Y-164770015D01*
X26107463Y-164962358D01*
X26304842Y-165192268D01*
X26466972Y-165457970D01*
X26478496Y-165480981D01*
X26567124Y-165677076D01*
X26626622Y-165853056D01*
X26661343Y-166027078D01*
X26675639Y-166217298D01*
X26676597Y-166307308D01*
X26650774Y-166614796D01*
X26576892Y-166907727D01*
X26456539Y-167182557D01*
X26291298Y-167435742D01*
X26082756Y-167663739D01*
X26060535Y-167684154D01*
X25838204Y-167860168D01*
X25605423Y-167992600D01*
X25354315Y-168084573D01*
X25077004Y-168139210D01*
X24868819Y-168156659D01*
X24557357Y-168170762D01*
X24557357Y-166831216D01*
X25146420Y-166831216D01*
X25146835Y-167029098D01*
X25148237Y-167186958D01*
X25150702Y-167308402D01*
X25154309Y-167397037D01*
X25159132Y-167456471D01*
X25165248Y-167490312D01*
X25172733Y-167502166D01*
X25173675Y-167502283D01*
X25211354Y-167491960D01*
X25280125Y-167464840D01*
X25365495Y-167426664D01*
X25370338Y-167424379D01*
X25559052Y-167318140D01*
X25710941Y-167192107D01*
X25839302Y-167035052D01*
X25849708Y-167019680D01*
X25968391Y-166799965D01*
X26042112Y-166568617D01*
X26071511Y-166332186D01*
X26057232Y-166097221D01*
X25999915Y-165870270D01*
X25900203Y-165657883D01*
X25758738Y-165466607D01*
X25690737Y-165397600D01*
X25573605Y-165299606D01*
X25448047Y-165213916D01*
X25327270Y-165148432D01*
X25224481Y-165111055D01*
X25205706Y-165107406D01*
X25193932Y-165106664D01*
X25184103Y-165111197D01*
X25176013Y-165125249D01*
X25169459Y-165153060D01*
X25164237Y-165198872D01*
X25160143Y-165266926D01*
X25156971Y-165361463D01*
X25154519Y-165486726D01*
X25152581Y-165646956D01*
X25150954Y-165846393D01*
X25149434Y-166089280D01*
X25148250Y-166300951D01*
X25146918Y-166589702D01*
X25146420Y-166831216D01*
X24557357Y-166831216D01*
X24557357Y-164418181D01*
X24842821Y-164435519D01*
G37*
G36*
X44511827Y-191597323D02*
G01*
X44680913Y-191631167D01*
X44750860Y-191654192D01*
X44951522Y-191756564D01*
X45137609Y-191898756D01*
X45299148Y-192070777D01*
X45426166Y-192262638D01*
X45483549Y-192388079D01*
X45524339Y-192535894D01*
X45548667Y-192708687D01*
X45554977Y-192884911D01*
X45541709Y-193043020D01*
X45533801Y-193083170D01*
X45454545Y-193317417D01*
X45332810Y-193530991D01*
X45174232Y-193717877D01*
X44984450Y-193872060D01*
X44769102Y-193987523D01*
X44645185Y-194031358D01*
X44516651Y-194056250D01*
X44360309Y-194067748D01*
X44197437Y-194065731D01*
X44049316Y-194050078D01*
X43980141Y-194035145D01*
X43759753Y-193949317D01*
X43557556Y-193821825D01*
X43380753Y-193659723D01*
X43236547Y-193470068D01*
X43132142Y-193259916D01*
X43104882Y-193177821D01*
X43070329Y-192999870D01*
X43060228Y-192805031D01*
X43074277Y-192613447D01*
X43112175Y-192445266D01*
X43116031Y-192433985D01*
X43222840Y-192204560D01*
X43369878Y-192004009D01*
X43553216Y-191835987D01*
X43768928Y-191704147D01*
X43993498Y-191617689D01*
X44147807Y-191589605D01*
X44327354Y-191583142D01*
X44511827Y-191597323D01*
G37*
G36*
X9912312Y-84971372D02*
G01*
X8590190Y-84971372D01*
X8590190Y-85174775D01*
X9937738Y-85174775D01*
X9937738Y-85784985D01*
X8590190Y-85784985D01*
X8590190Y-86050701D01*
X8599346Y-86287048D01*
X8629423Y-86486397D01*
X8684339Y-86659670D01*
X8768012Y-86817794D01*
X8884357Y-86971691D01*
X8944196Y-87038002D01*
X9052436Y-87144364D01*
X9156208Y-87223738D01*
X9277679Y-87292457D01*
X9312865Y-87309626D01*
X9508870Y-87390875D01*
X9692319Y-87443046D01*
X9851811Y-87462959D01*
X9862713Y-87463063D01*
X9937738Y-87463063D01*
X9937738Y-88073274D01*
X9753404Y-88071874D01*
X9626543Y-88063715D01*
X9486398Y-88044000D01*
X9388055Y-88023014D01*
X9107345Y-87923729D01*
X8846431Y-87780576D01*
X8610346Y-87598346D01*
X8404126Y-87381833D01*
X8232806Y-87135830D01*
X8101420Y-86865129D01*
X8065292Y-86763864D01*
X8037817Y-86671562D01*
X8018035Y-86582797D01*
X8004210Y-86484600D01*
X7994608Y-86364000D01*
X7987496Y-86208028D01*
X7986262Y-86172723D01*
X7973173Y-85784985D01*
X7751151Y-85784985D01*
X7751151Y-85174775D01*
X7979980Y-85174775D01*
X7979980Y-84361162D01*
X9912312Y-84361162D01*
X9912312Y-84971372D01*
G37*
G36*
X34685017Y-200974082D02*
G01*
X34706554Y-201013550D01*
X34700855Y-201086129D01*
X34670939Y-201190991D01*
X34656552Y-201240798D01*
X34631562Y-201335244D01*
X34597167Y-201469511D01*
X34554567Y-201638777D01*
X34504962Y-201838219D01*
X34449552Y-202063019D01*
X34389536Y-202308353D01*
X34326113Y-202569402D01*
X34266048Y-202818219D01*
X34201116Y-203086791D01*
X34138847Y-203341974D01*
X34080386Y-203579238D01*
X34026875Y-203794054D01*
X33979457Y-203981891D01*
X33939277Y-204138218D01*
X33907476Y-204258507D01*
X33885199Y-204338226D01*
X33873803Y-204372445D01*
X33826934Y-204435909D01*
X33777192Y-204456555D01*
X33739034Y-204438374D01*
X33716462Y-204397316D01*
X33713982Y-204333717D01*
X33732368Y-204239857D01*
X33772036Y-204109094D01*
X33789485Y-204049598D01*
X33817253Y-203945849D01*
X33854031Y-203803099D01*
X33898512Y-203626600D01*
X33949390Y-203421603D01*
X34005356Y-203193361D01*
X34065104Y-202947125D01*
X34127327Y-202688146D01*
X34162995Y-202538539D01*
X34225200Y-202278171D01*
X34284990Y-202030360D01*
X34341159Y-201799951D01*
X34392497Y-201591786D01*
X34437796Y-201410711D01*
X34475848Y-201261570D01*
X34505444Y-201149207D01*
X34525377Y-201078466D01*
X34532405Y-201057508D01*
X34568053Y-200991984D01*
X34609128Y-200964946D01*
X34635377Y-200962163D01*
X34685017Y-200974082D01*
G37*
G36*
X10014014Y-168164978D02*
G01*
X9715265Y-168157814D01*
X9416517Y-168150651D01*
X9409899Y-167012863D01*
X9403280Y-165875075D01*
X8513914Y-165875075D01*
X8513914Y-168163364D01*
X7903704Y-168163364D01*
X7903704Y-165875075D01*
X7647884Y-165875075D01*
X7662162Y-165252153D01*
X7782933Y-165244403D01*
X7903704Y-165236654D01*
X7903704Y-164425826D01*
X8513914Y-164425826D01*
X8513914Y-165239440D01*
X9402513Y-165239440D01*
X9409515Y-164838989D01*
X9416517Y-164438539D01*
X9715265Y-164431376D01*
X10014014Y-164424212D01*
X10014014Y-168164978D01*
G37*
G36*
X50736732Y-76880439D02*
G01*
X51016724Y-76941381D01*
X51241504Y-77024920D01*
X51381181Y-77086692D01*
X51381181Y-76860661D01*
X51991392Y-76860661D01*
X51991392Y-80572773D01*
X51381619Y-80572773D01*
X51368469Y-77814115D01*
X51210375Y-77708138D01*
X51115622Y-77650070D01*
X51013652Y-77596299D01*
X50915821Y-77551792D01*
X50833484Y-77521517D01*
X50777997Y-77510440D01*
X50764615Y-77513160D01*
X50761194Y-77539968D01*
X50757970Y-77613185D01*
X50754998Y-77728371D01*
X50752333Y-77881083D01*
X50750031Y-78066881D01*
X50748146Y-78281324D01*
X50746733Y-78519969D01*
X50745848Y-78778377D01*
X50745546Y-79048748D01*
X50745546Y-80572773D01*
X50160761Y-80572773D01*
X50160761Y-76860661D01*
X50435652Y-76860661D01*
X50736732Y-76880439D01*
G37*
G36*
X39782519Y-10864697D02*
G01*
X39779869Y-10907303D01*
X39756405Y-10938712D01*
X39706189Y-10960475D01*
X39623285Y-10974141D01*
X39501758Y-10981260D01*
X39335671Y-10983381D01*
X39327874Y-10983384D01*
X38998999Y-10983384D01*
X38998999Y-14237838D01*
X37778579Y-14237838D01*
X37778579Y-10975581D01*
X37360680Y-10990398D01*
X37200186Y-10995344D01*
X37083278Y-10996862D01*
X37002786Y-10994612D01*
X36951540Y-10988255D01*
X36922369Y-10977451D01*
X36912891Y-10969197D01*
X36894477Y-10915405D01*
X36921038Y-10864384D01*
X36973708Y-10832340D01*
X37010154Y-10827837D01*
X37092535Y-10823396D01*
X37215934Y-10819119D01*
X37375436Y-10815107D01*
X37566124Y-10811459D01*
X37783081Y-10808277D01*
X38021393Y-10805662D01*
X38276142Y-10803713D01*
X38404540Y-10803037D01*
X39774475Y-10796886D01*
X39782519Y-10864697D01*
G37*
G36*
X25738650Y-84362081D02*
G01*
X25841959Y-84365190D01*
X25906018Y-84371015D01*
X25936613Y-84380084D01*
X25939533Y-84392922D01*
X25939520Y-84392943D01*
X25920119Y-84421225D01*
X25874990Y-84485142D01*
X25808139Y-84579078D01*
X25723572Y-84697418D01*
X25625297Y-84834545D01*
X25517320Y-84984845D01*
X25505787Y-85000878D01*
X25091291Y-85577031D01*
X25091291Y-88073274D01*
X24481081Y-88073274D01*
X24480440Y-86821071D01*
X24479799Y-85568869D01*
X24045450Y-84971372D01*
X23611101Y-84373874D01*
X23972704Y-84366802D01*
X24110679Y-84365813D01*
X24227204Y-84368275D01*
X24313204Y-84373784D01*
X24359606Y-84381938D01*
X24363787Y-84384197D01*
X24389074Y-84413358D01*
X24436946Y-84475416D01*
X24500817Y-84561616D01*
X24574105Y-84663200D01*
X24583370Y-84676221D01*
X24655421Y-84776350D01*
X24716972Y-84859484D01*
X24762123Y-84917830D01*
X24784975Y-84943593D01*
X24786186Y-84944171D01*
X24804838Y-84924864D01*
X24847404Y-84871553D01*
X24908220Y-84791598D01*
X24981622Y-84692357D01*
X25010375Y-84652862D01*
X25221851Y-84361162D01*
X25590304Y-84361162D01*
X25738650Y-84362081D01*
G37*
G36*
X15024483Y-103638879D02*
G01*
X15267533Y-102858159D01*
X15664499Y-102858159D01*
X16068286Y-104154166D01*
X16144966Y-104400641D01*
X16216882Y-104632500D01*
X16282642Y-104845206D01*
X16340854Y-105034223D01*
X16390125Y-105195014D01*
X16429064Y-105323043D01*
X16456277Y-105413773D01*
X16470374Y-105462667D01*
X16472072Y-105469931D01*
X16448566Y-105478730D01*
X16385702Y-105485513D01*
X16294966Y-105489263D01*
X16248819Y-105489690D01*
X16025566Y-105489690D01*
X15930424Y-105183909D01*
X15835282Y-104878127D01*
X15092360Y-104892193D01*
X14906828Y-105476977D01*
X14685146Y-105484324D01*
X14572394Y-105486123D01*
X14502975Y-105481897D01*
X14469641Y-105470813D01*
X14463884Y-105458898D01*
X14471368Y-105422550D01*
X14491341Y-105349059D01*
X14520620Y-105249662D01*
X14550571Y-105152803D01*
X14636839Y-104879480D01*
X14574587Y-104879480D01*
X14544853Y-104877669D01*
X14526904Y-104865626D01*
X14518291Y-104833436D01*
X14516568Y-104771182D01*
X14519287Y-104668951D01*
X14519681Y-104657007D01*
X14527027Y-104434535D01*
X14654230Y-104427068D01*
X14743585Y-104421822D01*
X15232454Y-104421822D01*
X15689397Y-104421822D01*
X15672367Y-104351902D01*
X15653721Y-104283207D01*
X15626033Y-104190632D01*
X15592750Y-104084629D01*
X15557323Y-103975645D01*
X15523199Y-103874130D01*
X15493829Y-103790533D01*
X15472661Y-103735304D01*
X15463329Y-103718587D01*
X15452630Y-103744915D01*
X15429653Y-103810845D01*
X15397400Y-103907479D01*
X15358872Y-104025917D01*
X15343165Y-104074931D01*
X15232454Y-104421822D01*
X14743585Y-104421822D01*
X14781432Y-104419600D01*
X15024483Y-103638879D01*
G37*
G36*
X37193794Y-79675363D02*
G01*
X37251001Y-79759418D01*
X37336018Y-79862096D01*
X37428373Y-79922232D01*
X37542428Y-79947648D01*
X37600601Y-79949850D01*
X37726805Y-79937177D01*
X37825810Y-79893693D01*
X37913618Y-79811198D01*
X37942273Y-79774812D01*
X37953516Y-79758530D01*
X37963052Y-79739477D01*
X37971045Y-79713530D01*
X37977659Y-79676564D01*
X37983059Y-79624457D01*
X37987409Y-79553086D01*
X37990872Y-79458326D01*
X37993614Y-79336056D01*
X37995797Y-79182151D01*
X37997586Y-78992488D01*
X37999146Y-78762945D01*
X38000640Y-78489396D01*
X38001670Y-78282639D01*
X38008646Y-76860661D01*
X38617618Y-76860661D01*
X38617618Y-78253718D01*
X38617509Y-78575088D01*
X38616926Y-78850006D01*
X38615485Y-79082872D01*
X38612803Y-79278085D01*
X38608494Y-79440043D01*
X38602175Y-79573147D01*
X38593462Y-79681795D01*
X38581970Y-79770386D01*
X38567316Y-79843320D01*
X38549116Y-79904996D01*
X38526985Y-79959813D01*
X38500540Y-80012170D01*
X38469396Y-80066466D01*
X38457632Y-80086210D01*
X38324155Y-80261768D01*
X38158194Y-80400044D01*
X37964774Y-80498095D01*
X37748916Y-80552978D01*
X37644067Y-80562891D01*
X37495103Y-80563166D01*
X37376025Y-80549715D01*
X37333634Y-80538777D01*
X37113170Y-80440582D01*
X36925764Y-80304840D01*
X36773774Y-80133602D01*
X36677483Y-79968684D01*
X36596296Y-79797298D01*
X36589150Y-78328979D01*
X36582004Y-76860661D01*
X37193794Y-76860661D01*
X37193794Y-79675363D01*
G37*
G36*
X18270921Y-164431376D02*
G01*
X18569670Y-164438539D01*
X18569670Y-168150651D01*
X18270921Y-168157814D01*
X17972172Y-168164978D01*
X17972172Y-165875075D01*
X17056857Y-165875075D01*
X17056857Y-168163364D01*
X16446647Y-168163364D01*
X16446647Y-165877862D01*
X16325876Y-165870112D01*
X16205105Y-165862363D01*
X16205105Y-165252153D01*
X16325876Y-165244403D01*
X16446647Y-165236654D01*
X16446647Y-164425826D01*
X17056857Y-164425826D01*
X17056857Y-165239440D01*
X17972172Y-165239440D01*
X17972172Y-164424212D01*
X18270921Y-164431376D01*
G37*
G36*
X7471472Y-165034560D02*
G01*
X7134585Y-165041655D01*
X6797698Y-165048749D01*
X6791146Y-166606056D01*
X6784594Y-168163364D01*
X6496635Y-168163364D01*
X6380355Y-168161949D01*
X6283413Y-168158108D01*
X6216733Y-168152449D01*
X6191725Y-168146413D01*
X6188705Y-168118636D01*
X6185858Y-168044437D01*
X6183230Y-167928243D01*
X6180871Y-167774483D01*
X6178827Y-167587586D01*
X6177148Y-167371980D01*
X6175881Y-167132092D01*
X6175074Y-166872352D01*
X6174776Y-166597188D01*
X6174775Y-166582750D01*
X6174775Y-165036036D01*
X5486675Y-165036036D01*
X5493838Y-164737288D01*
X5501001Y-164438539D01*
X6486236Y-164431884D01*
X7471472Y-164425229D01*
X7471472Y-165034560D01*
G37*
G36*
X23413213Y-84971372D02*
G01*
X22726727Y-84971372D01*
X22726727Y-88073274D01*
X22141942Y-88073274D01*
X22141942Y-84972807D01*
X21792342Y-84965733D01*
X21442743Y-84958659D01*
X21435580Y-84659910D01*
X21428416Y-84361162D01*
X23413213Y-84361162D01*
X23413213Y-84971372D01*
G37*
G36*
X16370370Y-201001107D02*
G01*
X16607952Y-201002259D01*
X16801057Y-201005659D01*
X16956041Y-201012164D01*
X17079259Y-201022633D01*
X17177068Y-201037924D01*
X17255822Y-201058893D01*
X17321877Y-201086398D01*
X17381589Y-201121297D01*
X17410643Y-201141492D01*
X17484108Y-201208375D01*
X17555609Y-201294810D01*
X17582735Y-201336116D01*
X17618935Y-201403645D01*
X17640437Y-201465474D01*
X17650904Y-201538964D01*
X17653999Y-201641475D01*
X17654049Y-201674074D01*
X17640599Y-201854055D01*
X17598160Y-202001491D01*
X17522750Y-202128113D01*
X17484705Y-202173121D01*
X17435209Y-202227223D01*
X17599478Y-202304094D01*
X17786672Y-202417749D01*
X17936685Y-202566067D01*
X18049368Y-202748901D01*
X18050262Y-202750809D01*
X18124617Y-202962846D01*
X18157189Y-203183150D01*
X18150173Y-203404309D01*
X18105762Y-203618908D01*
X18026149Y-203819537D01*
X17913527Y-203998781D01*
X17770091Y-204149227D01*
X17603504Y-204260678D01*
X17527837Y-204298070D01*
X17457193Y-204328239D01*
X17384878Y-204352071D01*
X17304197Y-204370452D01*
X17208456Y-204384271D01*
X17090960Y-204394413D01*
X16945016Y-204401765D01*
X16763928Y-204407214D01*
X16541003Y-204411647D01*
X16452823Y-204413107D01*
X15683524Y-204425464D01*
X15684224Y-204242042D01*
X16700901Y-204242042D01*
X16813476Y-204242042D01*
X16895540Y-204238434D01*
X17004945Y-204228947D01*
X17118793Y-204215588D01*
X17124937Y-204214752D01*
X17357371Y-204161742D01*
X17557076Y-204071586D01*
X17722420Y-203945399D01*
X17851771Y-203784295D01*
X17907304Y-203680499D01*
X17969550Y-203490007D01*
X17992233Y-203287701D01*
X17976867Y-203084463D01*
X17924964Y-202891180D01*
X17838040Y-202718735D01*
X17759672Y-202618901D01*
X17642629Y-202517285D01*
X17508783Y-202447999D01*
X17347670Y-202406904D01*
X17183984Y-202391160D01*
X17053172Y-202382881D01*
X16965223Y-202369969D01*
X16912170Y-202349266D01*
X16886046Y-202317611D01*
X16878884Y-202271845D01*
X16878879Y-202270172D01*
X16899788Y-202215538D01*
X16958541Y-202189219D01*
X17049178Y-202193701D01*
X17057781Y-202195499D01*
X17147510Y-202192869D01*
X17247863Y-202156029D01*
X17341790Y-202093431D01*
X17406284Y-202022730D01*
X17463546Y-201900488D01*
X17492831Y-201754891D01*
X17490210Y-201607390D01*
X17486507Y-201584722D01*
X17447265Y-201450150D01*
X17382558Y-201346735D01*
X17287059Y-201270717D01*
X17155438Y-201218336D01*
X16982369Y-201185834D01*
X16910661Y-201178428D01*
X16700901Y-201160273D01*
X16700901Y-204242042D01*
X15684224Y-204242042D01*
X15690061Y-202712882D01*
X15695986Y-201160273D01*
X15696597Y-201000301D01*
X16370370Y-201001107D01*
G37*
G36*
X20355806Y-10812538D02*
G01*
X20626228Y-10816814D01*
X20851899Y-10821866D01*
X21038920Y-10828464D01*
X21193393Y-10837375D01*
X21321416Y-10849368D01*
X21429092Y-10865210D01*
X21522520Y-10885671D01*
X21607801Y-10911519D01*
X21691036Y-10943521D01*
X21778325Y-10982447D01*
X21805097Y-10995059D01*
X22008500Y-11117879D01*
X22176782Y-11272934D01*
X22308191Y-11454084D01*
X22400972Y-11655192D01*
X22453372Y-11870118D01*
X22463638Y-12092724D01*
X22430017Y-12316873D01*
X22350754Y-12536425D01*
X22281309Y-12662211D01*
X22165587Y-12809397D01*
X22014721Y-12948181D01*
X21842874Y-13068402D01*
X21664210Y-13159898D01*
X21522897Y-13206285D01*
X21472545Y-13224682D01*
X21460587Y-13258235D01*
X21466348Y-13291848D01*
X21494261Y-13374926D01*
X21542916Y-13484788D01*
X21604339Y-13606247D01*
X21670560Y-13724118D01*
X21733607Y-13823217D01*
X21771588Y-13873291D01*
X21884439Y-13981062D01*
X22008088Y-14048126D01*
X22153981Y-14079089D01*
X22288242Y-14081248D01*
X22387103Y-14077541D01*
X22445699Y-14079144D01*
X22474560Y-14088950D01*
X22484215Y-14109853D01*
X22485185Y-14135386D01*
X22462063Y-14199774D01*
X22421622Y-14230356D01*
X22343582Y-14251961D01*
X22234726Y-14259754D01*
X22113057Y-14254157D01*
X21996575Y-14235591D01*
X21938539Y-14219063D01*
X21834768Y-14163978D01*
X21713722Y-14064923D01*
X21658663Y-14011311D01*
X21587452Y-13936774D01*
X21530281Y-13868994D01*
X21480540Y-13797334D01*
X21431618Y-13711159D01*
X21376903Y-13599834D01*
X21309782Y-13452723D01*
X21305560Y-13443294D01*
X21228754Y-13271672D01*
X21104504Y-13271672D01*
X21011409Y-13263881D01*
X20951965Y-13237523D01*
X20935091Y-13221768D01*
X20902429Y-13162651D01*
X20915070Y-13113427D01*
X20967912Y-13077282D01*
X21055850Y-13057404D01*
X21173782Y-13056979D01*
X21195730Y-13058996D01*
X21394322Y-13055427D01*
X21594816Y-13007078D01*
X21785916Y-12918278D01*
X21956325Y-12793354D01*
X22000714Y-12750522D01*
X22127295Y-12586998D01*
X22215722Y-12401747D01*
X22266075Y-12203051D01*
X22278436Y-11999189D01*
X22252888Y-11798443D01*
X22189513Y-11609092D01*
X22088392Y-11439417D01*
X21986646Y-11328989D01*
X21836505Y-11211909D01*
X21673910Y-11122703D01*
X21490140Y-11058412D01*
X21276470Y-11016073D01*
X21024180Y-10992724D01*
X20991442Y-10991083D01*
X20667267Y-10976077D01*
X20667267Y-14237838D01*
X19446847Y-14237838D01*
X19446847Y-10799764D01*
X20355806Y-10812538D01*
G37*
G36*
X32730408Y-78132826D02*
G01*
X32796679Y-77920204D01*
X32861003Y-77714022D01*
X32920197Y-77524478D01*
X32971078Y-77361770D01*
X33010463Y-77236094D01*
X33014583Y-77222973D01*
X33128405Y-76860661D01*
X33657476Y-76860661D01*
X33784251Y-77261112D01*
X33844635Y-77452340D01*
X33912034Y-77666647D01*
X33985034Y-77899469D01*
X34062221Y-78146245D01*
X34142180Y-78402412D01*
X34223496Y-78663410D01*
X34304757Y-78924677D01*
X34384546Y-79181649D01*
X34461451Y-79429766D01*
X34534056Y-79664466D01*
X34600947Y-79881187D01*
X34660710Y-80075367D01*
X34711931Y-80242443D01*
X34753194Y-80377856D01*
X34783087Y-80477041D01*
X34800194Y-80535439D01*
X34803804Y-80549594D01*
X34779998Y-80558432D01*
X34715042Y-80565718D01*
X34618630Y-80570733D01*
X34500457Y-80572761D01*
X34490448Y-80572773D01*
X34177093Y-80572773D01*
X34048385Y-80159610D01*
X33919676Y-79746447D01*
X32873534Y-79732709D01*
X32607874Y-80572773D01*
X31962579Y-80572773D01*
X32229339Y-79746447D01*
X32156311Y-79738480D01*
X32083283Y-79730512D01*
X32083283Y-79098098D01*
X32429987Y-79098098D01*
X32435921Y-79079029D01*
X33075259Y-79079029D01*
X33098926Y-79086252D01*
X33163828Y-79092220D01*
X33260355Y-79096355D01*
X33378894Y-79098081D01*
X33392693Y-79098098D01*
X33513087Y-79096436D01*
X33612556Y-79091896D01*
X33681474Y-79085150D01*
X33710215Y-79076871D01*
X33710511Y-79075912D01*
X33703018Y-79044168D01*
X33681963Y-78970978D01*
X33649482Y-78863262D01*
X33607708Y-78727944D01*
X33558778Y-78571942D01*
X33504827Y-78402180D01*
X33452131Y-78238366D01*
X33424606Y-78159063D01*
X33402265Y-78105102D01*
X33389917Y-78088096D01*
X33389881Y-78088131D01*
X33379469Y-78114320D01*
X33356900Y-78180148D01*
X33325018Y-78276664D01*
X33286662Y-78394917D01*
X33244676Y-78525958D01*
X33201900Y-78660837D01*
X33161178Y-78790601D01*
X33125350Y-78906303D01*
X33097259Y-78998990D01*
X33079746Y-79059714D01*
X33075259Y-79079029D01*
X32435921Y-79079029D01*
X32665374Y-78341692D01*
X32730408Y-78132826D01*
G37*
G36*
X31295095Y-77153851D02*
G01*
X31293274Y-77292632D01*
X31287443Y-77385960D01*
X31277048Y-77439115D01*
X31263313Y-77456976D01*
X31218901Y-77467386D01*
X31148946Y-77480655D01*
X31131086Y-77483712D01*
X31025463Y-77523607D01*
X30934039Y-77597116D01*
X30874550Y-77663644D01*
X30845734Y-77721089D01*
X30837518Y-77790789D01*
X30837438Y-77801766D01*
X30844851Y-77879175D01*
X30870509Y-77953124D01*
X30919541Y-78030992D01*
X30997076Y-78120160D01*
X31108243Y-78228010D01*
X31176796Y-78290136D01*
X31370217Y-78473042D01*
X31521210Y-78639281D01*
X31633561Y-78793400D01*
X31703063Y-78921698D01*
X31731745Y-78991958D01*
X31750146Y-79059307D01*
X31760436Y-79138280D01*
X31764786Y-79243412D01*
X31765457Y-79339640D01*
X31764607Y-79465038D01*
X31760031Y-79555081D01*
X31748705Y-79625260D01*
X31727607Y-79691065D01*
X31693712Y-79767987D01*
X31673646Y-79810010D01*
X31614643Y-79919449D01*
X31545659Y-80028245D01*
X31480924Y-80114084D01*
X31476636Y-80118975D01*
X31305283Y-80276496D01*
X31100553Y-80406585D01*
X30875488Y-80502561D01*
X30643134Y-80557747D01*
X30611982Y-80561700D01*
X30456056Y-80579341D01*
X30456056Y-79969475D01*
X30569401Y-79953939D01*
X30743855Y-79908801D01*
X30899584Y-79827446D01*
X31028072Y-79716545D01*
X31120803Y-79582771D01*
X31155630Y-79494666D01*
X31175530Y-79412971D01*
X31182236Y-79339094D01*
X31172540Y-79267466D01*
X31143230Y-79192516D01*
X31091096Y-79108677D01*
X31012926Y-79010378D01*
X30905510Y-78892051D01*
X30765638Y-78748127D01*
X30670033Y-78652378D01*
X30547956Y-78526839D01*
X30457085Y-78422929D01*
X30389142Y-78330230D01*
X30335850Y-78238326D01*
X30326913Y-78220532D01*
X30285469Y-78132233D01*
X30259801Y-78060995D01*
X30246198Y-77988880D01*
X30240948Y-77897954D01*
X30240265Y-77801788D01*
X30246724Y-77646231D01*
X30269851Y-77522051D01*
X30315986Y-77410833D01*
X30391469Y-77294164D01*
X30434390Y-77237909D01*
X30540848Y-77131904D01*
X30681042Y-77033825D01*
X30839860Y-76951193D01*
X31002187Y-76891527D01*
X31152910Y-76862347D01*
X31192591Y-76860661D01*
X31295095Y-76860661D01*
X31295095Y-77153851D01*
G37*
G36*
X18777445Y-165992889D02*
G01*
X18843701Y-165716098D01*
X18955827Y-165457080D01*
X19115348Y-165212248D01*
X19305988Y-164995732D01*
X19416149Y-164888277D01*
X19507857Y-164808461D01*
X19595823Y-164745376D01*
X19694755Y-164688113D01*
X19777377Y-164646159D01*
X19978150Y-164555890D01*
X20158492Y-164495118D01*
X20335968Y-164459546D01*
X20528140Y-164444873D01*
X20603704Y-164443879D01*
X20805385Y-164452128D01*
X20986095Y-164479740D01*
X21163396Y-164531015D01*
X21354853Y-164610253D01*
X21430030Y-164646159D01*
X21545590Y-164706052D01*
X21640265Y-164764465D01*
X21728811Y-164832314D01*
X21825988Y-164920518D01*
X21902567Y-164995732D01*
X22010329Y-165106801D01*
X22090484Y-165199436D01*
X22153949Y-165288394D01*
X22211641Y-165388433D01*
X22252140Y-165468269D01*
X22340333Y-165662348D01*
X22400558Y-165834066D01*
X22436960Y-166000485D01*
X22453685Y-166178672D01*
X22455976Y-166307308D01*
X22445515Y-166529168D01*
X22412823Y-166725074D01*
X22353011Y-166915806D01*
X22267020Y-167110310D01*
X22109448Y-167375635D01*
X21914429Y-167607350D01*
X21684384Y-167803411D01*
X21421734Y-167961772D01*
X21128900Y-168080390D01*
X21112212Y-168085644D01*
X20974657Y-168117688D01*
X20807950Y-168140545D01*
X20630934Y-168152974D01*
X20462455Y-168153730D01*
X20321356Y-168141573D01*
X20305295Y-168138850D01*
X20013767Y-168060522D01*
X19737973Y-167937029D01*
X19485121Y-167772670D01*
X19262416Y-167571743D01*
X19164065Y-167458210D01*
X18992467Y-167209738D01*
X18869213Y-166954358D01*
X18791794Y-166684908D01*
X18757704Y-166394223D01*
X18756538Y-166338747D01*
X19351949Y-166338747D01*
X19380162Y-166565109D01*
X19449933Y-166778610D01*
X19556697Y-166974869D01*
X19695892Y-167149505D01*
X19862953Y-167298137D01*
X20053316Y-167416384D01*
X20262419Y-167499866D01*
X20485697Y-167544201D01*
X20718585Y-167545009D01*
X20850350Y-167525056D01*
X21077843Y-167452480D01*
X21287990Y-167336584D01*
X21474466Y-167183694D01*
X21630950Y-167000133D01*
X21751117Y-166792223D01*
X21828644Y-166566288D01*
X21834165Y-166541241D01*
X21859469Y-166303855D01*
X21838290Y-166074013D01*
X21774908Y-165856294D01*
X21673607Y-165655277D01*
X21538666Y-165475540D01*
X21374367Y-165321663D01*
X21184991Y-165198222D01*
X20974820Y-165109797D01*
X20748134Y-165060967D01*
X20509215Y-165056309D01*
X20451151Y-165062195D01*
X20212457Y-165116626D01*
X19992981Y-165215118D01*
X19797643Y-165352930D01*
X19631360Y-165525324D01*
X19499054Y-165727561D01*
X19405642Y-165954901D01*
X19369858Y-166103904D01*
X19351949Y-166338747D01*
X18756538Y-166338747D01*
X18755536Y-166291040D01*
X18777445Y-165992889D01*
G37*
G36*
X7293494Y-84654352D02*
G01*
X7291699Y-84792734D01*
X7285939Y-84885719D01*
X7275653Y-84938647D01*
X7261712Y-84956553D01*
X7218563Y-84968502D01*
X7148956Y-84987523D01*
X7123018Y-84994571D01*
X7005684Y-85043905D01*
X6910800Y-85117441D01*
X6850683Y-85204777D01*
X6841137Y-85232621D01*
X6827762Y-85295177D01*
X6825646Y-85350490D01*
X6838701Y-85404947D01*
X6870842Y-85464932D01*
X6925982Y-85536833D01*
X7008035Y-85627034D01*
X7120916Y-85741922D01*
X7203425Y-85823738D01*
X7332998Y-85952831D01*
X7431822Y-86054963D01*
X7506303Y-86137892D01*
X7562846Y-86209375D01*
X7607855Y-86277168D01*
X7647738Y-86349030D01*
X7664292Y-86381868D01*
X7708940Y-86474576D01*
X7737746Y-86546097D01*
X7754177Y-86612788D01*
X7761699Y-86691004D01*
X7763779Y-86797100D01*
X7763864Y-86851624D01*
X7762894Y-86974500D01*
X7757744Y-87063039D01*
X7745055Y-87133748D01*
X7721470Y-87203135D01*
X7683628Y-87287708D01*
X7668776Y-87318964D01*
X7553071Y-87510957D01*
X7402240Y-87683943D01*
X7224826Y-87832157D01*
X7029375Y-87949834D01*
X6824430Y-88031208D01*
X6618535Y-88070516D01*
X6550814Y-88073274D01*
X6454455Y-88073274D01*
X6454455Y-87463063D01*
X6529777Y-87463063D01*
X6660259Y-87442019D01*
X6798474Y-87385002D01*
X6930488Y-87301185D01*
X7042365Y-87199741D01*
X7120170Y-87089842D01*
X7130391Y-87067716D01*
X7159488Y-86953595D01*
X7163406Y-86826863D01*
X7142440Y-86710954D01*
X7125376Y-86669360D01*
X7095101Y-86626638D01*
X7035285Y-86555012D01*
X6952270Y-86461610D01*
X6852399Y-86353559D01*
X6742012Y-86237986D01*
X6736230Y-86232034D01*
X6582872Y-86070459D01*
X6463763Y-85934852D01*
X6374394Y-85818260D01*
X6310259Y-85713730D01*
X6266849Y-85614308D01*
X6239658Y-85513040D01*
X6229492Y-85450335D01*
X6224238Y-85230949D01*
X6266702Y-85027459D01*
X6355315Y-84843241D01*
X6488511Y-84681667D01*
X6643311Y-84559625D01*
X6771079Y-84488758D01*
X6914091Y-84428261D01*
X7055276Y-84384145D01*
X7177559Y-84362417D01*
X7207183Y-84361162D01*
X7293494Y-84361162D01*
X7293494Y-84654352D01*
G37*
G36*
X36634167Y-46936988D02*
G01*
X36719595Y-46478632D01*
X36853453Y-46028487D01*
X36919532Y-45854355D01*
X37120425Y-45422818D01*
X37361895Y-45019969D01*
X37641197Y-44647870D01*
X37955586Y-44308584D01*
X38302316Y-44004175D01*
X38678641Y-43736704D01*
X39081815Y-43508236D01*
X39509093Y-43320832D01*
X39957729Y-43176555D01*
X40424977Y-43077470D01*
X40657006Y-43046353D01*
X41112370Y-43021897D01*
X41570511Y-43046290D01*
X42026035Y-43118190D01*
X42473549Y-43236254D01*
X42907659Y-43399143D01*
X43322971Y-43605513D01*
X43607251Y-43780218D01*
X43987872Y-44064262D01*
X44332285Y-44381511D01*
X44639131Y-44728602D01*
X44907052Y-45102170D01*
X45134688Y-45498851D01*
X45320680Y-45915281D01*
X45463671Y-46348096D01*
X45562301Y-46793930D01*
X45615211Y-47249421D01*
X45621043Y-47711204D01*
X45578438Y-48175914D01*
X45517256Y-48509313D01*
X45389818Y-48967836D01*
X45217996Y-49404771D01*
X45004380Y-49817575D01*
X44751558Y-50203705D01*
X44462119Y-50560620D01*
X44138652Y-50885777D01*
X43783744Y-51176633D01*
X43399985Y-51430647D01*
X42989963Y-51645276D01*
X42556267Y-51817978D01*
X42101486Y-51946211D01*
X41994358Y-51969110D01*
X41849000Y-51994437D01*
X41687706Y-52016438D01*
X41538027Y-52031526D01*
X41490691Y-52034662D01*
X41375494Y-52041034D01*
X41271364Y-52047259D01*
X41194475Y-52052350D01*
X41172873Y-52054026D01*
X41116933Y-52055195D01*
X41024054Y-52053320D01*
X40908030Y-52048800D01*
X40804204Y-52043338D01*
X40347696Y-51991308D01*
X39900024Y-51890920D01*
X39465080Y-51744429D01*
X39046760Y-51554086D01*
X38648959Y-51322146D01*
X38275570Y-51050862D01*
X37930488Y-50742486D01*
X37617607Y-50399271D01*
X37358111Y-50049550D01*
X37115892Y-49642328D01*
X36919263Y-49216164D01*
X36768630Y-48774938D01*
X36664399Y-48322529D01*
X36606974Y-47862815D01*
X36603527Y-47706497D01*
X36630233Y-47706497D01*
X36671761Y-48173750D01*
X36759210Y-48626555D01*
X36890550Y-49062380D01*
X37063753Y-49478694D01*
X37276792Y-49872964D01*
X37527636Y-50242658D01*
X37814259Y-50585244D01*
X38134630Y-50898191D01*
X38486722Y-51178965D01*
X38868506Y-51425036D01*
X39277954Y-51633871D01*
X39713036Y-51802938D01*
X40171725Y-51929705D01*
X40446429Y-51982631D01*
X40595194Y-51999603D01*
X40781560Y-52009765D01*
X40992944Y-52013428D01*
X41216767Y-52010900D01*
X41440446Y-52002492D01*
X41651400Y-51988513D01*
X41837048Y-51969274D01*
X41984808Y-51945082D01*
X41986487Y-51944723D01*
X42462021Y-51817720D01*
X42912751Y-51646925D01*
X43336993Y-51433547D01*
X43733062Y-51178793D01*
X44099275Y-50883872D01*
X44433947Y-50549994D01*
X44735394Y-50178367D01*
X44991258Y-49788406D01*
X45201217Y-49382557D01*
X45366681Y-48955927D01*
X45487170Y-48513203D01*
X45562205Y-48059067D01*
X45591307Y-47598204D01*
X45573997Y-47135298D01*
X45509796Y-46675033D01*
X45398224Y-46222094D01*
X45366428Y-46121322D01*
X45283816Y-45900089D01*
X45176537Y-45657896D01*
X45053218Y-45411831D01*
X44922487Y-45178978D01*
X44792972Y-44976424D01*
X44776359Y-44952766D01*
X44658088Y-44798062D01*
X44513731Y-44627324D01*
X44354657Y-44452698D01*
X44192237Y-44286329D01*
X44037841Y-44140365D01*
X43928685Y-44047203D01*
X43543199Y-43770321D01*
X43136696Y-43537850D01*
X42712811Y-43350215D01*
X42275175Y-43207844D01*
X41827421Y-43111163D01*
X41373182Y-43060600D01*
X40916089Y-43056580D01*
X40459776Y-43099531D01*
X40007874Y-43189879D01*
X39564017Y-43328051D01*
X39182755Y-43489640D01*
X38768169Y-43715829D01*
X38383567Y-43980680D01*
X38031111Y-44281019D01*
X37712966Y-44613670D01*
X37431293Y-44975456D01*
X37188258Y-45363203D01*
X36986023Y-45773735D01*
X36826751Y-46203875D01*
X36712606Y-46650448D01*
X36645751Y-47110279D01*
X36636654Y-47227328D01*
X36630233Y-47706497D01*
X36603527Y-47706497D01*
X36596762Y-47399675D01*
X36634167Y-46936988D01*
G37*
G36*
X16650050Y-84971372D02*
G01*
X15963564Y-84971372D01*
X15963564Y-88073274D01*
X15353353Y-88073274D01*
X15353353Y-84971372D01*
X14666867Y-84971372D01*
X14666867Y-84361162D01*
X16650050Y-84361162D01*
X16650050Y-84971372D01*
G37*
G36*
X46067267Y-80572773D02*
G01*
X45482483Y-80572773D01*
X45482483Y-76860661D01*
X46067267Y-76860661D01*
X46067267Y-80572773D01*
G37*
G36*
X17438238Y-88073274D02*
G01*
X16828028Y-88073274D01*
X16828028Y-84361162D01*
X17438238Y-84361162D01*
X17438238Y-88073274D01*
G37*
G36*
X45291792Y-77458159D02*
G01*
X44618018Y-77472347D01*
X44618018Y-80572773D01*
X44007808Y-80572773D01*
X44007808Y-77470871D01*
X43321321Y-77470871D01*
X43321321Y-76860661D01*
X45306118Y-76860661D01*
X45291792Y-77458159D01*
G37*
G36*
X35429539Y-192197440D02*
G01*
X35439951Y-192223630D01*
X35462519Y-192289457D01*
X35494402Y-192385973D01*
X35532758Y-192504227D01*
X35574744Y-192635268D01*
X35617519Y-192770146D01*
X35658242Y-192899911D01*
X35694069Y-193015612D01*
X35722160Y-193108300D01*
X35739673Y-193169023D01*
X35744161Y-193188339D01*
X35720494Y-193195562D01*
X35655591Y-193201529D01*
X35559065Y-193205665D01*
X35440525Y-193207390D01*
X35426727Y-193207408D01*
X35306333Y-193205745D01*
X35206863Y-193201205D01*
X35137945Y-193194459D01*
X35109204Y-193186181D01*
X35108909Y-193185221D01*
X35116402Y-193153477D01*
X35137457Y-193080287D01*
X35169938Y-192972572D01*
X35211711Y-192837253D01*
X35260641Y-192681252D01*
X35314592Y-192511489D01*
X35367289Y-192347676D01*
X35394814Y-192268372D01*
X35417155Y-192214412D01*
X35429502Y-192197405D01*
X35429539Y-192197440D01*
G37*
G36*
X25345546Y-14237838D02*
G01*
X24125125Y-14237838D01*
X24125125Y-10805406D01*
X25345546Y-10805406D01*
X25345546Y-14237838D01*
G37*
G04 #@! TD*
M02*
