G04 #@! TF.GenerationSoftware,KiCad,Pcbnew,6.0.2-378541a8eb~116~ubuntu20.04.1*
G04 #@! TF.CreationDate,2022-03-12T15:32:27-05:00*
G04 #@! TF.ProjectId,irinput_panel,6972696e-7075-4745-9f70-616e656c2e6b,rev?*
G04 #@! TF.SameCoordinates,Original*
G04 #@! TF.FileFunction,Other,Comment*
%FSLAX46Y46*%
G04 Gerber Fmt 4.6, Leading zero omitted, Abs format (unit mm)*
G04 Created by KiCad (PCBNEW 6.0.2-378541a8eb~116~ubuntu20.04.1) date 2022-03-12 15:32:27*
%MOMM*%
%LPD*%
G01*
G04 APERTURE LIST*
%ADD10C,0.150000*%
%ADD11C,0.120000*%
G04 APERTURE END LIST*
D10*
G04 #@! TO.C,H7*
X22100000Y-112600000D02*
G75*
G03*
X22100000Y-112600000I-6000000J0D01*
G01*
G04 #@! TO.C,H4*
X22100000Y-152600000D02*
G75*
G03*
X22100000Y-152600000I-6000000J0D01*
G01*
G04 #@! TO.C,H1*
X25600000Y-182600000D02*
G75*
G03*
X25600000Y-182600000I-9500000J0D01*
G01*
G04 #@! TO.C,H8*
X32600000Y-27600000D02*
G75*
G03*
X32600000Y-27600000I-4000000J0D01*
G01*
G04 #@! TO.C,H2*
X50600000Y-182600000D02*
G75*
G03*
X50600000Y-182600000I-9500000J0D01*
G01*
G04 #@! TO.C,H3*
X20850000Y-47600000D02*
G75*
G03*
X20850000Y-47600000I-4750000J0D01*
G01*
G04 #@! TO.C,H5*
X22100000Y-72600000D02*
G75*
G03*
X22100000Y-72600000I-6000000J0D01*
G01*
G04 #@! TO.C,H9*
X32600000Y-187600000D02*
G75*
G03*
X32600000Y-187600000I-4000000J0D01*
G01*
G04 #@! TO.C,H12*
X47100000Y-47600000D02*
G75*
G03*
X47100000Y-47600000I-6000000J0D01*
G01*
D11*
G04 #@! TO.C,H14*
X6600000Y-201600000D02*
X9400000Y-201600000D01*
X6600000Y-7600000D02*
X9400000Y-7600000D01*
X6600000Y-207600000D02*
X9400000Y-207600000D01*
X6600000Y-13600000D02*
X9400000Y-13600000D01*
X6600000Y-7600000D02*
G75*
G03*
X6600000Y-13600000I0J-3000000D01*
G01*
X6600000Y-201600000D02*
G75*
G03*
X6600000Y-207600000I0J-3000000D01*
G01*
X9400000Y-13600000D02*
G75*
G03*
X9400000Y-7600000I0J3000000D01*
G01*
X9400000Y-207600000D02*
G75*
G03*
X9400000Y-201600000I0J3000000D01*
G01*
D10*
G04 #@! TO.C,H6*
X47100000Y-112600000D02*
G75*
G03*
X47100000Y-112600000I-6000000J0D01*
G01*
G04 #@! TO.C,H10*
X32600000Y-177600000D02*
G75*
G03*
X32600000Y-177600000I-4000000J0D01*
G01*
G04 #@! TO.C,H11*
X45100000Y-72600000D02*
G75*
G03*
X45100000Y-72600000I-4000000J0D01*
G01*
D11*
G04 #@! TO.C,H13*
X50600000Y-201600000D02*
X47800000Y-201600000D01*
X50600000Y-13600000D02*
X47800000Y-13600000D01*
X50600000Y-7600000D02*
X47800000Y-7600000D01*
X50600000Y-207600000D02*
X47800000Y-207600000D01*
X50600000Y-13600000D02*
G75*
G03*
X50600000Y-7600000I0J3000000D01*
G01*
X47800000Y-7600000D02*
G75*
G03*
X47800000Y-13600000I0J-3000000D01*
G01*
X50600000Y-207600000D02*
G75*
G03*
X50600000Y-201600000I0J3000000D01*
G01*
X47800000Y-201600000D02*
G75*
G03*
X47800000Y-207600000I0J-3000000D01*
G01*
G04 #@! TD*
M02*
