G04 #@! TF.GenerationSoftware,KiCad,Pcbnew,5.1.10-88a1d61d58~90~ubuntu20.04.1*
G04 #@! TF.CreationDate,2021-10-02T17:31:35-04:00*
G04 #@! TF.ProjectId,irinput_panel,6972696e-7075-4745-9f70-616e656c2e6b,rev?*
G04 #@! TF.SameCoordinates,Original*
G04 #@! TF.FileFunction,Copper,L1,Top*
G04 #@! TF.FilePolarity,Positive*
%FSLAX46Y46*%
G04 Gerber Fmt 4.6, Leading zero omitted, Abs format (unit mm)*
G04 Created by KiCad (PCBNEW 5.1.10-88a1d61d58~90~ubuntu20.04.1) date 2021-10-02 17:31:35*
%MOMM*%
%LPD*%
G01*
G04 APERTURE LIST*
G04 #@! TA.AperFunction,ComponentPad*
%ADD10C,5.500000*%
G04 #@! TD*
G04 #@! TA.AperFunction,ComponentPad*
%ADD11C,9.000000*%
G04 #@! TD*
G04 #@! TA.AperFunction,ComponentPad*
%ADD12C,14.000000*%
G04 #@! TD*
G04 #@! TA.AperFunction,ComponentPad*
%ADD13O,6.800000X4.000000*%
G04 #@! TD*
G04 #@! TA.AperFunction,Conductor*
%ADD14C,0.254000*%
G04 #@! TD*
G04 #@! TA.AperFunction,Conductor*
%ADD15C,0.100000*%
G04 #@! TD*
G04 APERTURE END LIST*
D10*
X36100000Y-173600000D03*
D11*
X28600000Y-47600000D03*
D12*
X28600000Y-132600000D03*
X28600000Y-182600000D03*
D13*
X36700000Y-204600000D03*
X36700000Y-10600000D03*
X20500000Y-10600000D03*
X20500000Y-204600000D03*
D11*
X28600000Y-77600000D03*
D12*
X28600000Y-157600000D03*
D10*
X28600000Y-27600000D03*
D11*
X28600000Y-112600000D03*
D14*
X33730475Y-8479635D02*
X33346970Y-8826576D01*
X33038519Y-9241669D01*
X32816975Y-9708962D01*
X32720333Y-10062838D01*
X32827009Y-10473000D01*
X36573000Y-10473000D01*
X36573000Y-10453000D01*
X36827000Y-10453000D01*
X36827000Y-10473000D01*
X36847000Y-10473000D01*
X36847000Y-10727000D01*
X36827000Y-10727000D01*
X36827000Y-13235000D01*
X38227000Y-13235000D01*
X38738623Y-13159593D01*
X39225704Y-12985822D01*
X39669525Y-12720365D01*
X40053030Y-12373424D01*
X40361481Y-11958331D01*
X40415001Y-11845444D01*
X40415000Y-203354554D01*
X40361481Y-203241669D01*
X40053030Y-202826576D01*
X39669525Y-202479635D01*
X39225704Y-202214178D01*
X38738623Y-202040407D01*
X38227000Y-201965000D01*
X36827000Y-201965000D01*
X36827000Y-204473000D01*
X36847000Y-204473000D01*
X36847000Y-204727000D01*
X36827000Y-204727000D01*
X36827000Y-204747000D01*
X36573000Y-204747000D01*
X36573000Y-204727000D01*
X32827009Y-204727000D01*
X32720333Y-205137162D01*
X32816975Y-205491038D01*
X33038519Y-205958331D01*
X33346970Y-206373424D01*
X33730475Y-206720365D01*
X34055888Y-206915000D01*
X23144112Y-206915000D01*
X23469525Y-206720365D01*
X23853030Y-206373424D01*
X24161481Y-205958331D01*
X24383025Y-205491038D01*
X24479667Y-205137162D01*
X24372991Y-204727000D01*
X20627000Y-204727000D01*
X20627000Y-204747000D01*
X20373000Y-204747000D01*
X20373000Y-204727000D01*
X20353000Y-204727000D01*
X20353000Y-204473000D01*
X20373000Y-204473000D01*
X20373000Y-201965000D01*
X20627000Y-201965000D01*
X20627000Y-204473000D01*
X24372991Y-204473000D01*
X24479667Y-204062838D01*
X32720333Y-204062838D01*
X32827009Y-204473000D01*
X36573000Y-204473000D01*
X36573000Y-201965000D01*
X35173000Y-201965000D01*
X34661377Y-202040407D01*
X34174296Y-202214178D01*
X33730475Y-202479635D01*
X33346970Y-202826576D01*
X33038519Y-203241669D01*
X32816975Y-203708962D01*
X32720333Y-204062838D01*
X24479667Y-204062838D01*
X24383025Y-203708962D01*
X24161481Y-203241669D01*
X23853030Y-202826576D01*
X23469525Y-202479635D01*
X23025704Y-202214178D01*
X22538623Y-202040407D01*
X22027000Y-201965000D01*
X20627000Y-201965000D01*
X20373000Y-201965000D01*
X18973000Y-201965000D01*
X18461377Y-202040407D01*
X17974296Y-202214178D01*
X17530475Y-202479635D01*
X17146970Y-202826576D01*
X16838519Y-203241669D01*
X16785000Y-203354554D01*
X16785000Y-188001674D01*
X23377932Y-188001674D01*
X24193908Y-188880530D01*
X25503840Y-189619437D01*
X26932756Y-190088591D01*
X28425743Y-190269963D01*
X29925428Y-190156583D01*
X31374176Y-189752807D01*
X32716314Y-189074153D01*
X33006092Y-188880530D01*
X33822068Y-188001674D01*
X28600000Y-182779605D01*
X23377932Y-188001674D01*
X16785000Y-188001674D01*
X16785000Y-182425743D01*
X20930037Y-182425743D01*
X21043417Y-183925428D01*
X21447193Y-185374176D01*
X22125847Y-186716314D01*
X22319470Y-187006092D01*
X23198326Y-187822068D01*
X28420395Y-182600000D01*
X28779605Y-182600000D01*
X34001674Y-187822068D01*
X34880530Y-187006092D01*
X35619437Y-185696160D01*
X36088591Y-184267244D01*
X36269963Y-182774257D01*
X36156583Y-181274572D01*
X35752807Y-179825824D01*
X35074153Y-178483686D01*
X34880530Y-178193908D01*
X34001674Y-177377932D01*
X28779605Y-182600000D01*
X28420395Y-182600000D01*
X23198326Y-177377932D01*
X22319470Y-178193908D01*
X21580563Y-179503840D01*
X21111409Y-180932756D01*
X20930037Y-182425743D01*
X16785000Y-182425743D01*
X16785000Y-177198326D01*
X23377932Y-177198326D01*
X28600000Y-182420395D01*
X33822068Y-177198326D01*
X33006092Y-176319470D01*
X31696160Y-175580563D01*
X30267244Y-175111409D01*
X28774257Y-174930037D01*
X27274572Y-175043417D01*
X25825824Y-175447193D01*
X24483686Y-176125847D01*
X24193908Y-176319470D01*
X23377932Y-177198326D01*
X16785000Y-177198326D01*
X16785000Y-173266607D01*
X32715000Y-173266607D01*
X32715000Y-173933393D01*
X32845083Y-174587368D01*
X33100252Y-175203399D01*
X33470698Y-175757812D01*
X33942188Y-176229302D01*
X34496601Y-176599748D01*
X35112632Y-176854917D01*
X35766607Y-176985000D01*
X36433393Y-176985000D01*
X37087368Y-176854917D01*
X37703399Y-176599748D01*
X38257812Y-176229302D01*
X38729302Y-175757812D01*
X39099748Y-175203399D01*
X39354917Y-174587368D01*
X39485000Y-173933393D01*
X39485000Y-173266607D01*
X39354917Y-172612632D01*
X39099748Y-171996601D01*
X38729302Y-171442188D01*
X38257812Y-170970698D01*
X37703399Y-170600252D01*
X37087368Y-170345083D01*
X36433393Y-170215000D01*
X35766607Y-170215000D01*
X35112632Y-170345083D01*
X34496601Y-170600252D01*
X33942188Y-170970698D01*
X33470698Y-171442188D01*
X33100252Y-171996601D01*
X32845083Y-172612632D01*
X32715000Y-173266607D01*
X16785000Y-173266607D01*
X16785000Y-163001674D01*
X23377932Y-163001674D01*
X24193908Y-163880530D01*
X25503840Y-164619437D01*
X26932756Y-165088591D01*
X28425743Y-165269963D01*
X29925428Y-165156583D01*
X31374176Y-164752807D01*
X32716314Y-164074153D01*
X33006092Y-163880530D01*
X33822068Y-163001674D01*
X28600000Y-157779605D01*
X23377932Y-163001674D01*
X16785000Y-163001674D01*
X16785000Y-157425743D01*
X20930037Y-157425743D01*
X21043417Y-158925428D01*
X21447193Y-160374176D01*
X22125847Y-161716314D01*
X22319470Y-162006092D01*
X23198326Y-162822068D01*
X28420395Y-157600000D01*
X28779605Y-157600000D01*
X34001674Y-162822068D01*
X34880530Y-162006092D01*
X35619437Y-160696160D01*
X36088591Y-159267244D01*
X36269963Y-157774257D01*
X36156583Y-156274572D01*
X35752807Y-154825824D01*
X35074153Y-153483686D01*
X34880530Y-153193908D01*
X34001674Y-152377932D01*
X28779605Y-157600000D01*
X28420395Y-157600000D01*
X23198326Y-152377932D01*
X22319470Y-153193908D01*
X21580563Y-154503840D01*
X21111409Y-155932756D01*
X20930037Y-157425743D01*
X16785000Y-157425743D01*
X16785000Y-152198326D01*
X23377932Y-152198326D01*
X28600000Y-157420395D01*
X33822068Y-152198326D01*
X33006092Y-151319470D01*
X31696160Y-150580563D01*
X30267244Y-150111409D01*
X28774257Y-149930037D01*
X27274572Y-150043417D01*
X25825824Y-150447193D01*
X24483686Y-151125847D01*
X24193908Y-151319470D01*
X23377932Y-152198326D01*
X16785000Y-152198326D01*
X16785000Y-138001674D01*
X23377932Y-138001674D01*
X24193908Y-138880530D01*
X25503840Y-139619437D01*
X26932756Y-140088591D01*
X28425743Y-140269963D01*
X29925428Y-140156583D01*
X31374176Y-139752807D01*
X32716314Y-139074153D01*
X33006092Y-138880530D01*
X33822068Y-138001674D01*
X28600000Y-132779605D01*
X23377932Y-138001674D01*
X16785000Y-138001674D01*
X16785000Y-132425743D01*
X20930037Y-132425743D01*
X21043417Y-133925428D01*
X21447193Y-135374176D01*
X22125847Y-136716314D01*
X22319470Y-137006092D01*
X23198326Y-137822068D01*
X28420395Y-132600000D01*
X28779605Y-132600000D01*
X34001674Y-137822068D01*
X34880530Y-137006092D01*
X35619437Y-135696160D01*
X36088591Y-134267244D01*
X36269963Y-132774257D01*
X36156583Y-131274572D01*
X35752807Y-129825824D01*
X35074153Y-128483686D01*
X34880530Y-128193908D01*
X34001674Y-127377932D01*
X28779605Y-132600000D01*
X28420395Y-132600000D01*
X23198326Y-127377932D01*
X22319470Y-128193908D01*
X21580563Y-129503840D01*
X21111409Y-130932756D01*
X20930037Y-132425743D01*
X16785000Y-132425743D01*
X16785000Y-127198326D01*
X23377932Y-127198326D01*
X28600000Y-132420395D01*
X33822068Y-127198326D01*
X33006092Y-126319470D01*
X31696160Y-125580563D01*
X30267244Y-125111409D01*
X28774257Y-124930037D01*
X27274572Y-125043417D01*
X25825824Y-125447193D01*
X24483686Y-126125847D01*
X24193908Y-126319470D01*
X23377932Y-127198326D01*
X16785000Y-127198326D01*
X16785000Y-116224971D01*
X25154634Y-116224971D01*
X25670783Y-116847788D01*
X26555768Y-117337630D01*
X27519314Y-117645407D01*
X28524389Y-117759293D01*
X29532370Y-117674910D01*
X30504520Y-117395501D01*
X31403481Y-116931803D01*
X31529217Y-116847788D01*
X32045366Y-116224971D01*
X28600000Y-112779605D01*
X25154634Y-116224971D01*
X16785000Y-116224971D01*
X16785000Y-112524389D01*
X23440707Y-112524389D01*
X23525090Y-113532370D01*
X23804499Y-114504520D01*
X24268197Y-115403481D01*
X24352212Y-115529217D01*
X24975029Y-116045366D01*
X28420395Y-112600000D01*
X28779605Y-112600000D01*
X32224971Y-116045366D01*
X32847788Y-115529217D01*
X33337630Y-114644232D01*
X33645407Y-113680686D01*
X33759293Y-112675611D01*
X33674910Y-111667630D01*
X33395501Y-110695480D01*
X32931803Y-109796519D01*
X32847788Y-109670783D01*
X32224971Y-109154634D01*
X28779605Y-112600000D01*
X28420395Y-112600000D01*
X24975029Y-109154634D01*
X24352212Y-109670783D01*
X23862370Y-110555768D01*
X23554593Y-111519314D01*
X23440707Y-112524389D01*
X16785000Y-112524389D01*
X16785000Y-108975029D01*
X25154634Y-108975029D01*
X28600000Y-112420395D01*
X32045366Y-108975029D01*
X31529217Y-108352212D01*
X30644232Y-107862370D01*
X29680686Y-107554593D01*
X28675611Y-107440707D01*
X27667630Y-107525090D01*
X26695480Y-107804499D01*
X25796519Y-108268197D01*
X25670783Y-108352212D01*
X25154634Y-108975029D01*
X16785000Y-108975029D01*
X16785000Y-81224971D01*
X25154634Y-81224971D01*
X25670783Y-81847788D01*
X26555768Y-82337630D01*
X27519314Y-82645407D01*
X28524389Y-82759293D01*
X29532370Y-82674910D01*
X30504520Y-82395501D01*
X31403481Y-81931803D01*
X31529217Y-81847788D01*
X32045366Y-81224971D01*
X28600000Y-77779605D01*
X25154634Y-81224971D01*
X16785000Y-81224971D01*
X16785000Y-77524389D01*
X23440707Y-77524389D01*
X23525090Y-78532370D01*
X23804499Y-79504520D01*
X24268197Y-80403481D01*
X24352212Y-80529217D01*
X24975029Y-81045366D01*
X28420395Y-77600000D01*
X28779605Y-77600000D01*
X32224971Y-81045366D01*
X32847788Y-80529217D01*
X33337630Y-79644232D01*
X33645407Y-78680686D01*
X33759293Y-77675611D01*
X33674910Y-76667630D01*
X33395501Y-75695480D01*
X32931803Y-74796519D01*
X32847788Y-74670783D01*
X32224971Y-74154634D01*
X28779605Y-77600000D01*
X28420395Y-77600000D01*
X24975029Y-74154634D01*
X24352212Y-74670783D01*
X23862370Y-75555768D01*
X23554593Y-76519314D01*
X23440707Y-77524389D01*
X16785000Y-77524389D01*
X16785000Y-73975029D01*
X25154634Y-73975029D01*
X28600000Y-77420395D01*
X32045366Y-73975029D01*
X31529217Y-73352212D01*
X30644232Y-72862370D01*
X29680686Y-72554593D01*
X28675611Y-72440707D01*
X27667630Y-72525090D01*
X26695480Y-72804499D01*
X25796519Y-73268197D01*
X25670783Y-73352212D01*
X25154634Y-73975029D01*
X16785000Y-73975029D01*
X16785000Y-51224971D01*
X25154634Y-51224971D01*
X25670783Y-51847788D01*
X26555768Y-52337630D01*
X27519314Y-52645407D01*
X28524389Y-52759293D01*
X29532370Y-52674910D01*
X30504520Y-52395501D01*
X31403481Y-51931803D01*
X31529217Y-51847788D01*
X32045366Y-51224971D01*
X28600000Y-47779605D01*
X25154634Y-51224971D01*
X16785000Y-51224971D01*
X16785000Y-47524389D01*
X23440707Y-47524389D01*
X23525090Y-48532370D01*
X23804499Y-49504520D01*
X24268197Y-50403481D01*
X24352212Y-50529217D01*
X24975029Y-51045366D01*
X28420395Y-47600000D01*
X28779605Y-47600000D01*
X32224971Y-51045366D01*
X32847788Y-50529217D01*
X33337630Y-49644232D01*
X33645407Y-48680686D01*
X33759293Y-47675611D01*
X33674910Y-46667630D01*
X33395501Y-45695480D01*
X32931803Y-44796519D01*
X32847788Y-44670783D01*
X32224971Y-44154634D01*
X28779605Y-47600000D01*
X28420395Y-47600000D01*
X24975029Y-44154634D01*
X24352212Y-44670783D01*
X23862370Y-45555768D01*
X23554593Y-46519314D01*
X23440707Y-47524389D01*
X16785000Y-47524389D01*
X16785000Y-43975029D01*
X25154634Y-43975029D01*
X28600000Y-47420395D01*
X32045366Y-43975029D01*
X31529217Y-43352212D01*
X30644232Y-42862370D01*
X29680686Y-42554593D01*
X28675611Y-42440707D01*
X27667630Y-42525090D01*
X26695480Y-42804499D01*
X25796519Y-43268197D01*
X25670783Y-43352212D01*
X25154634Y-43975029D01*
X16785000Y-43975029D01*
X16785000Y-27266607D01*
X25215000Y-27266607D01*
X25215000Y-27933393D01*
X25345083Y-28587368D01*
X25600252Y-29203399D01*
X25970698Y-29757812D01*
X26442188Y-30229302D01*
X26996601Y-30599748D01*
X27612632Y-30854917D01*
X28266607Y-30985000D01*
X28933393Y-30985000D01*
X29587368Y-30854917D01*
X30203399Y-30599748D01*
X30757812Y-30229302D01*
X31229302Y-29757812D01*
X31599748Y-29203399D01*
X31854917Y-28587368D01*
X31985000Y-27933393D01*
X31985000Y-27266607D01*
X31854917Y-26612632D01*
X31599748Y-25996601D01*
X31229302Y-25442188D01*
X30757812Y-24970698D01*
X30203399Y-24600252D01*
X29587368Y-24345083D01*
X28933393Y-24215000D01*
X28266607Y-24215000D01*
X27612632Y-24345083D01*
X26996601Y-24600252D01*
X26442188Y-24970698D01*
X25970698Y-25442188D01*
X25600252Y-25996601D01*
X25345083Y-26612632D01*
X25215000Y-27266607D01*
X16785000Y-27266607D01*
X16785000Y-11845446D01*
X16838519Y-11958331D01*
X17146970Y-12373424D01*
X17530475Y-12720365D01*
X17974296Y-12985822D01*
X18461377Y-13159593D01*
X18973000Y-13235000D01*
X20373000Y-13235000D01*
X20373000Y-10727000D01*
X20627000Y-10727000D01*
X20627000Y-13235000D01*
X22027000Y-13235000D01*
X22538623Y-13159593D01*
X23025704Y-12985822D01*
X23469525Y-12720365D01*
X23853030Y-12373424D01*
X24161481Y-11958331D01*
X24383025Y-11491038D01*
X24479667Y-11137162D01*
X32720333Y-11137162D01*
X32816975Y-11491038D01*
X33038519Y-11958331D01*
X33346970Y-12373424D01*
X33730475Y-12720365D01*
X34174296Y-12985822D01*
X34661377Y-13159593D01*
X35173000Y-13235000D01*
X36573000Y-13235000D01*
X36573000Y-10727000D01*
X32827009Y-10727000D01*
X32720333Y-11137162D01*
X24479667Y-11137162D01*
X24372991Y-10727000D01*
X20627000Y-10727000D01*
X20373000Y-10727000D01*
X20353000Y-10727000D01*
X20353000Y-10473000D01*
X20373000Y-10473000D01*
X20373000Y-10453000D01*
X20627000Y-10453000D01*
X20627000Y-10473000D01*
X24372991Y-10473000D01*
X24479667Y-10062838D01*
X24383025Y-9708962D01*
X24161481Y-9241669D01*
X23853030Y-8826576D01*
X23469525Y-8479635D01*
X23144112Y-8285000D01*
X34055888Y-8285000D01*
X33730475Y-8479635D01*
G04 #@! TA.AperFunction,Conductor*
D15*
G36*
X33730475Y-8479635D02*
G01*
X33346970Y-8826576D01*
X33038519Y-9241669D01*
X32816975Y-9708962D01*
X32720333Y-10062838D01*
X32827009Y-10473000D01*
X36573000Y-10473000D01*
X36573000Y-10453000D01*
X36827000Y-10453000D01*
X36827000Y-10473000D01*
X36847000Y-10473000D01*
X36847000Y-10727000D01*
X36827000Y-10727000D01*
X36827000Y-13235000D01*
X38227000Y-13235000D01*
X38738623Y-13159593D01*
X39225704Y-12985822D01*
X39669525Y-12720365D01*
X40053030Y-12373424D01*
X40361481Y-11958331D01*
X40415001Y-11845444D01*
X40415000Y-203354554D01*
X40361481Y-203241669D01*
X40053030Y-202826576D01*
X39669525Y-202479635D01*
X39225704Y-202214178D01*
X38738623Y-202040407D01*
X38227000Y-201965000D01*
X36827000Y-201965000D01*
X36827000Y-204473000D01*
X36847000Y-204473000D01*
X36847000Y-204727000D01*
X36827000Y-204727000D01*
X36827000Y-204747000D01*
X36573000Y-204747000D01*
X36573000Y-204727000D01*
X32827009Y-204727000D01*
X32720333Y-205137162D01*
X32816975Y-205491038D01*
X33038519Y-205958331D01*
X33346970Y-206373424D01*
X33730475Y-206720365D01*
X34055888Y-206915000D01*
X23144112Y-206915000D01*
X23469525Y-206720365D01*
X23853030Y-206373424D01*
X24161481Y-205958331D01*
X24383025Y-205491038D01*
X24479667Y-205137162D01*
X24372991Y-204727000D01*
X20627000Y-204727000D01*
X20627000Y-204747000D01*
X20373000Y-204747000D01*
X20373000Y-204727000D01*
X20353000Y-204727000D01*
X20353000Y-204473000D01*
X20373000Y-204473000D01*
X20373000Y-201965000D01*
X20627000Y-201965000D01*
X20627000Y-204473000D01*
X24372991Y-204473000D01*
X24479667Y-204062838D01*
X32720333Y-204062838D01*
X32827009Y-204473000D01*
X36573000Y-204473000D01*
X36573000Y-201965000D01*
X35173000Y-201965000D01*
X34661377Y-202040407D01*
X34174296Y-202214178D01*
X33730475Y-202479635D01*
X33346970Y-202826576D01*
X33038519Y-203241669D01*
X32816975Y-203708962D01*
X32720333Y-204062838D01*
X24479667Y-204062838D01*
X24383025Y-203708962D01*
X24161481Y-203241669D01*
X23853030Y-202826576D01*
X23469525Y-202479635D01*
X23025704Y-202214178D01*
X22538623Y-202040407D01*
X22027000Y-201965000D01*
X20627000Y-201965000D01*
X20373000Y-201965000D01*
X18973000Y-201965000D01*
X18461377Y-202040407D01*
X17974296Y-202214178D01*
X17530475Y-202479635D01*
X17146970Y-202826576D01*
X16838519Y-203241669D01*
X16785000Y-203354554D01*
X16785000Y-188001674D01*
X23377932Y-188001674D01*
X24193908Y-188880530D01*
X25503840Y-189619437D01*
X26932756Y-190088591D01*
X28425743Y-190269963D01*
X29925428Y-190156583D01*
X31374176Y-189752807D01*
X32716314Y-189074153D01*
X33006092Y-188880530D01*
X33822068Y-188001674D01*
X28600000Y-182779605D01*
X23377932Y-188001674D01*
X16785000Y-188001674D01*
X16785000Y-182425743D01*
X20930037Y-182425743D01*
X21043417Y-183925428D01*
X21447193Y-185374176D01*
X22125847Y-186716314D01*
X22319470Y-187006092D01*
X23198326Y-187822068D01*
X28420395Y-182600000D01*
X28779605Y-182600000D01*
X34001674Y-187822068D01*
X34880530Y-187006092D01*
X35619437Y-185696160D01*
X36088591Y-184267244D01*
X36269963Y-182774257D01*
X36156583Y-181274572D01*
X35752807Y-179825824D01*
X35074153Y-178483686D01*
X34880530Y-178193908D01*
X34001674Y-177377932D01*
X28779605Y-182600000D01*
X28420395Y-182600000D01*
X23198326Y-177377932D01*
X22319470Y-178193908D01*
X21580563Y-179503840D01*
X21111409Y-180932756D01*
X20930037Y-182425743D01*
X16785000Y-182425743D01*
X16785000Y-177198326D01*
X23377932Y-177198326D01*
X28600000Y-182420395D01*
X33822068Y-177198326D01*
X33006092Y-176319470D01*
X31696160Y-175580563D01*
X30267244Y-175111409D01*
X28774257Y-174930037D01*
X27274572Y-175043417D01*
X25825824Y-175447193D01*
X24483686Y-176125847D01*
X24193908Y-176319470D01*
X23377932Y-177198326D01*
X16785000Y-177198326D01*
X16785000Y-173266607D01*
X32715000Y-173266607D01*
X32715000Y-173933393D01*
X32845083Y-174587368D01*
X33100252Y-175203399D01*
X33470698Y-175757812D01*
X33942188Y-176229302D01*
X34496601Y-176599748D01*
X35112632Y-176854917D01*
X35766607Y-176985000D01*
X36433393Y-176985000D01*
X37087368Y-176854917D01*
X37703399Y-176599748D01*
X38257812Y-176229302D01*
X38729302Y-175757812D01*
X39099748Y-175203399D01*
X39354917Y-174587368D01*
X39485000Y-173933393D01*
X39485000Y-173266607D01*
X39354917Y-172612632D01*
X39099748Y-171996601D01*
X38729302Y-171442188D01*
X38257812Y-170970698D01*
X37703399Y-170600252D01*
X37087368Y-170345083D01*
X36433393Y-170215000D01*
X35766607Y-170215000D01*
X35112632Y-170345083D01*
X34496601Y-170600252D01*
X33942188Y-170970698D01*
X33470698Y-171442188D01*
X33100252Y-171996601D01*
X32845083Y-172612632D01*
X32715000Y-173266607D01*
X16785000Y-173266607D01*
X16785000Y-163001674D01*
X23377932Y-163001674D01*
X24193908Y-163880530D01*
X25503840Y-164619437D01*
X26932756Y-165088591D01*
X28425743Y-165269963D01*
X29925428Y-165156583D01*
X31374176Y-164752807D01*
X32716314Y-164074153D01*
X33006092Y-163880530D01*
X33822068Y-163001674D01*
X28600000Y-157779605D01*
X23377932Y-163001674D01*
X16785000Y-163001674D01*
X16785000Y-157425743D01*
X20930037Y-157425743D01*
X21043417Y-158925428D01*
X21447193Y-160374176D01*
X22125847Y-161716314D01*
X22319470Y-162006092D01*
X23198326Y-162822068D01*
X28420395Y-157600000D01*
X28779605Y-157600000D01*
X34001674Y-162822068D01*
X34880530Y-162006092D01*
X35619437Y-160696160D01*
X36088591Y-159267244D01*
X36269963Y-157774257D01*
X36156583Y-156274572D01*
X35752807Y-154825824D01*
X35074153Y-153483686D01*
X34880530Y-153193908D01*
X34001674Y-152377932D01*
X28779605Y-157600000D01*
X28420395Y-157600000D01*
X23198326Y-152377932D01*
X22319470Y-153193908D01*
X21580563Y-154503840D01*
X21111409Y-155932756D01*
X20930037Y-157425743D01*
X16785000Y-157425743D01*
X16785000Y-152198326D01*
X23377932Y-152198326D01*
X28600000Y-157420395D01*
X33822068Y-152198326D01*
X33006092Y-151319470D01*
X31696160Y-150580563D01*
X30267244Y-150111409D01*
X28774257Y-149930037D01*
X27274572Y-150043417D01*
X25825824Y-150447193D01*
X24483686Y-151125847D01*
X24193908Y-151319470D01*
X23377932Y-152198326D01*
X16785000Y-152198326D01*
X16785000Y-138001674D01*
X23377932Y-138001674D01*
X24193908Y-138880530D01*
X25503840Y-139619437D01*
X26932756Y-140088591D01*
X28425743Y-140269963D01*
X29925428Y-140156583D01*
X31374176Y-139752807D01*
X32716314Y-139074153D01*
X33006092Y-138880530D01*
X33822068Y-138001674D01*
X28600000Y-132779605D01*
X23377932Y-138001674D01*
X16785000Y-138001674D01*
X16785000Y-132425743D01*
X20930037Y-132425743D01*
X21043417Y-133925428D01*
X21447193Y-135374176D01*
X22125847Y-136716314D01*
X22319470Y-137006092D01*
X23198326Y-137822068D01*
X28420395Y-132600000D01*
X28779605Y-132600000D01*
X34001674Y-137822068D01*
X34880530Y-137006092D01*
X35619437Y-135696160D01*
X36088591Y-134267244D01*
X36269963Y-132774257D01*
X36156583Y-131274572D01*
X35752807Y-129825824D01*
X35074153Y-128483686D01*
X34880530Y-128193908D01*
X34001674Y-127377932D01*
X28779605Y-132600000D01*
X28420395Y-132600000D01*
X23198326Y-127377932D01*
X22319470Y-128193908D01*
X21580563Y-129503840D01*
X21111409Y-130932756D01*
X20930037Y-132425743D01*
X16785000Y-132425743D01*
X16785000Y-127198326D01*
X23377932Y-127198326D01*
X28600000Y-132420395D01*
X33822068Y-127198326D01*
X33006092Y-126319470D01*
X31696160Y-125580563D01*
X30267244Y-125111409D01*
X28774257Y-124930037D01*
X27274572Y-125043417D01*
X25825824Y-125447193D01*
X24483686Y-126125847D01*
X24193908Y-126319470D01*
X23377932Y-127198326D01*
X16785000Y-127198326D01*
X16785000Y-116224971D01*
X25154634Y-116224971D01*
X25670783Y-116847788D01*
X26555768Y-117337630D01*
X27519314Y-117645407D01*
X28524389Y-117759293D01*
X29532370Y-117674910D01*
X30504520Y-117395501D01*
X31403481Y-116931803D01*
X31529217Y-116847788D01*
X32045366Y-116224971D01*
X28600000Y-112779605D01*
X25154634Y-116224971D01*
X16785000Y-116224971D01*
X16785000Y-112524389D01*
X23440707Y-112524389D01*
X23525090Y-113532370D01*
X23804499Y-114504520D01*
X24268197Y-115403481D01*
X24352212Y-115529217D01*
X24975029Y-116045366D01*
X28420395Y-112600000D01*
X28779605Y-112600000D01*
X32224971Y-116045366D01*
X32847788Y-115529217D01*
X33337630Y-114644232D01*
X33645407Y-113680686D01*
X33759293Y-112675611D01*
X33674910Y-111667630D01*
X33395501Y-110695480D01*
X32931803Y-109796519D01*
X32847788Y-109670783D01*
X32224971Y-109154634D01*
X28779605Y-112600000D01*
X28420395Y-112600000D01*
X24975029Y-109154634D01*
X24352212Y-109670783D01*
X23862370Y-110555768D01*
X23554593Y-111519314D01*
X23440707Y-112524389D01*
X16785000Y-112524389D01*
X16785000Y-108975029D01*
X25154634Y-108975029D01*
X28600000Y-112420395D01*
X32045366Y-108975029D01*
X31529217Y-108352212D01*
X30644232Y-107862370D01*
X29680686Y-107554593D01*
X28675611Y-107440707D01*
X27667630Y-107525090D01*
X26695480Y-107804499D01*
X25796519Y-108268197D01*
X25670783Y-108352212D01*
X25154634Y-108975029D01*
X16785000Y-108975029D01*
X16785000Y-81224971D01*
X25154634Y-81224971D01*
X25670783Y-81847788D01*
X26555768Y-82337630D01*
X27519314Y-82645407D01*
X28524389Y-82759293D01*
X29532370Y-82674910D01*
X30504520Y-82395501D01*
X31403481Y-81931803D01*
X31529217Y-81847788D01*
X32045366Y-81224971D01*
X28600000Y-77779605D01*
X25154634Y-81224971D01*
X16785000Y-81224971D01*
X16785000Y-77524389D01*
X23440707Y-77524389D01*
X23525090Y-78532370D01*
X23804499Y-79504520D01*
X24268197Y-80403481D01*
X24352212Y-80529217D01*
X24975029Y-81045366D01*
X28420395Y-77600000D01*
X28779605Y-77600000D01*
X32224971Y-81045366D01*
X32847788Y-80529217D01*
X33337630Y-79644232D01*
X33645407Y-78680686D01*
X33759293Y-77675611D01*
X33674910Y-76667630D01*
X33395501Y-75695480D01*
X32931803Y-74796519D01*
X32847788Y-74670783D01*
X32224971Y-74154634D01*
X28779605Y-77600000D01*
X28420395Y-77600000D01*
X24975029Y-74154634D01*
X24352212Y-74670783D01*
X23862370Y-75555768D01*
X23554593Y-76519314D01*
X23440707Y-77524389D01*
X16785000Y-77524389D01*
X16785000Y-73975029D01*
X25154634Y-73975029D01*
X28600000Y-77420395D01*
X32045366Y-73975029D01*
X31529217Y-73352212D01*
X30644232Y-72862370D01*
X29680686Y-72554593D01*
X28675611Y-72440707D01*
X27667630Y-72525090D01*
X26695480Y-72804499D01*
X25796519Y-73268197D01*
X25670783Y-73352212D01*
X25154634Y-73975029D01*
X16785000Y-73975029D01*
X16785000Y-51224971D01*
X25154634Y-51224971D01*
X25670783Y-51847788D01*
X26555768Y-52337630D01*
X27519314Y-52645407D01*
X28524389Y-52759293D01*
X29532370Y-52674910D01*
X30504520Y-52395501D01*
X31403481Y-51931803D01*
X31529217Y-51847788D01*
X32045366Y-51224971D01*
X28600000Y-47779605D01*
X25154634Y-51224971D01*
X16785000Y-51224971D01*
X16785000Y-47524389D01*
X23440707Y-47524389D01*
X23525090Y-48532370D01*
X23804499Y-49504520D01*
X24268197Y-50403481D01*
X24352212Y-50529217D01*
X24975029Y-51045366D01*
X28420395Y-47600000D01*
X28779605Y-47600000D01*
X32224971Y-51045366D01*
X32847788Y-50529217D01*
X33337630Y-49644232D01*
X33645407Y-48680686D01*
X33759293Y-47675611D01*
X33674910Y-46667630D01*
X33395501Y-45695480D01*
X32931803Y-44796519D01*
X32847788Y-44670783D01*
X32224971Y-44154634D01*
X28779605Y-47600000D01*
X28420395Y-47600000D01*
X24975029Y-44154634D01*
X24352212Y-44670783D01*
X23862370Y-45555768D01*
X23554593Y-46519314D01*
X23440707Y-47524389D01*
X16785000Y-47524389D01*
X16785000Y-43975029D01*
X25154634Y-43975029D01*
X28600000Y-47420395D01*
X32045366Y-43975029D01*
X31529217Y-43352212D01*
X30644232Y-42862370D01*
X29680686Y-42554593D01*
X28675611Y-42440707D01*
X27667630Y-42525090D01*
X26695480Y-42804499D01*
X25796519Y-43268197D01*
X25670783Y-43352212D01*
X25154634Y-43975029D01*
X16785000Y-43975029D01*
X16785000Y-27266607D01*
X25215000Y-27266607D01*
X25215000Y-27933393D01*
X25345083Y-28587368D01*
X25600252Y-29203399D01*
X25970698Y-29757812D01*
X26442188Y-30229302D01*
X26996601Y-30599748D01*
X27612632Y-30854917D01*
X28266607Y-30985000D01*
X28933393Y-30985000D01*
X29587368Y-30854917D01*
X30203399Y-30599748D01*
X30757812Y-30229302D01*
X31229302Y-29757812D01*
X31599748Y-29203399D01*
X31854917Y-28587368D01*
X31985000Y-27933393D01*
X31985000Y-27266607D01*
X31854917Y-26612632D01*
X31599748Y-25996601D01*
X31229302Y-25442188D01*
X30757812Y-24970698D01*
X30203399Y-24600252D01*
X29587368Y-24345083D01*
X28933393Y-24215000D01*
X28266607Y-24215000D01*
X27612632Y-24345083D01*
X26996601Y-24600252D01*
X26442188Y-24970698D01*
X25970698Y-25442188D01*
X25600252Y-25996601D01*
X25345083Y-26612632D01*
X25215000Y-27266607D01*
X16785000Y-27266607D01*
X16785000Y-11845446D01*
X16838519Y-11958331D01*
X17146970Y-12373424D01*
X17530475Y-12720365D01*
X17974296Y-12985822D01*
X18461377Y-13159593D01*
X18973000Y-13235000D01*
X20373000Y-13235000D01*
X20373000Y-10727000D01*
X20627000Y-10727000D01*
X20627000Y-13235000D01*
X22027000Y-13235000D01*
X22538623Y-13159593D01*
X23025704Y-12985822D01*
X23469525Y-12720365D01*
X23853030Y-12373424D01*
X24161481Y-11958331D01*
X24383025Y-11491038D01*
X24479667Y-11137162D01*
X32720333Y-11137162D01*
X32816975Y-11491038D01*
X33038519Y-11958331D01*
X33346970Y-12373424D01*
X33730475Y-12720365D01*
X34174296Y-12985822D01*
X34661377Y-13159593D01*
X35173000Y-13235000D01*
X36573000Y-13235000D01*
X36573000Y-10727000D01*
X32827009Y-10727000D01*
X32720333Y-11137162D01*
X24479667Y-11137162D01*
X24372991Y-10727000D01*
X20627000Y-10727000D01*
X20373000Y-10727000D01*
X20353000Y-10727000D01*
X20353000Y-10473000D01*
X20373000Y-10473000D01*
X20373000Y-10453000D01*
X20627000Y-10453000D01*
X20627000Y-10473000D01*
X24372991Y-10473000D01*
X24479667Y-10062838D01*
X24383025Y-9708962D01*
X24161481Y-9241669D01*
X23853030Y-8826576D01*
X23469525Y-8479635D01*
X23144112Y-8285000D01*
X34055888Y-8285000D01*
X33730475Y-8479635D01*
G37*
G04 #@! TD.AperFunction*
M02*
