G04 #@! TF.GenerationSoftware,KiCad,Pcbnew,6.0.2-378541a8eb~116~ubuntu20.04.1*
G04 #@! TF.CreationDate,2022-03-12T15:31:06-05:00*
G04 #@! TF.ProjectId,irinput_b1,6972696e-7075-4745-9f62-312e6b696361,rev?*
G04 #@! TF.SameCoordinates,Original*
G04 #@! TF.FileFunction,Other,Comment*
%FSLAX46Y46*%
G04 Gerber Fmt 4.6, Leading zero omitted, Abs format (unit mm)*
G04 Created by KiCad (PCBNEW 6.0.2-378541a8eb~116~ubuntu20.04.1) date 2022-03-12 15:31:06*
%MOMM*%
%LPD*%
G01*
G04 APERTURE LIST*
%ADD10C,0.051000*%
%ADD11C,0.150000*%
G04 APERTURE END LIST*
D10*
G04 #@! TO.C,J1*
X136271903Y-50675951D02*
X136271903Y-50275951D01*
X136500475Y-50675951D02*
X136329046Y-50447379D01*
X136500475Y-50275951D02*
X136271903Y-50504522D01*
X136671903Y-50466427D02*
X136805237Y-50466427D01*
X136862379Y-50675951D02*
X136671903Y-50675951D01*
X136671903Y-50275951D01*
X136862379Y-50275951D01*
X137033808Y-50466427D02*
X137167141Y-50466427D01*
X137224284Y-50675951D02*
X137033808Y-50675951D01*
X137033808Y-50275951D01*
X137224284Y-50275951D01*
X137395713Y-50675951D02*
X137395713Y-50275951D01*
X137548094Y-50275951D01*
X137586189Y-50294999D01*
X137605237Y-50314046D01*
X137624284Y-50352141D01*
X137624284Y-50409284D01*
X137605237Y-50447379D01*
X137586189Y-50466427D01*
X137548094Y-50485475D01*
X137395713Y-50485475D01*
X137871903Y-50275951D02*
X137948094Y-50275951D01*
X137986189Y-50294999D01*
X138024284Y-50333094D01*
X138043332Y-50409284D01*
X138043332Y-50542618D01*
X138024284Y-50618808D01*
X137986189Y-50656903D01*
X137948094Y-50675951D01*
X137871903Y-50675951D01*
X137833808Y-50656903D01*
X137795713Y-50618808D01*
X137776665Y-50542618D01*
X137776665Y-50409284D01*
X137795713Y-50333094D01*
X137833808Y-50294999D01*
X137871903Y-50275951D01*
X138214760Y-50275951D02*
X138214760Y-50599760D01*
X138233808Y-50637856D01*
X138252856Y-50656903D01*
X138290951Y-50675951D01*
X138367141Y-50675951D01*
X138405237Y-50656903D01*
X138424284Y-50637856D01*
X138443332Y-50599760D01*
X138443332Y-50275951D01*
X138576665Y-50275951D02*
X138805237Y-50275951D01*
X138690951Y-50675951D02*
X138690951Y-50275951D01*
D11*
G04 #@! TO.C,H1*
X133199999Y-172499999D02*
G75*
G03*
X133199999Y-172499999I-3200000J0D01*
G01*
G04 #@! TO.C,H2*
X173199999Y-172499999D02*
G75*
G03*
X173199999Y-172499999I-3200000J0D01*
G01*
G04 #@! TD*
M02*
