G04 #@! TF.GenerationSoftware,KiCad,Pcbnew,6.0.2-378541a8eb~116~ubuntu20.04.1*
G04 #@! TF.CreationDate,2022-03-12T15:31:06-05:00*
G04 #@! TF.ProjectId,irinput_b1,6972696e-7075-4745-9f62-312e6b696361,rev?*
G04 #@! TF.SameCoordinates,Original*
G04 #@! TF.FileFunction,Legend,Bot*
G04 #@! TF.FilePolarity,Positive*
%FSLAX46Y46*%
G04 Gerber Fmt 4.6, Leading zero omitted, Abs format (unit mm)*
G04 Created by KiCad (PCBNEW 6.0.2-378541a8eb~116~ubuntu20.04.1) date 2022-03-12 15:31:06*
%MOMM*%
%LPD*%
G01*
G04 APERTURE LIST*
%ADD10C,0.150000*%
%ADD11C,0.300000*%
%ADD12C,0.100000*%
%ADD13C,0.120000*%
G04 APERTURE END LIST*
D10*
X171999999Y-32499999D02*
X127999999Y-32499999D01*
X127999999Y-32499999D02*
X127999999Y-43499999D01*
X127999999Y-43499999D02*
X171999999Y-43499999D01*
X171999999Y-43499999D02*
X171999999Y-32499999D01*
X153976189Y-45952379D02*
X153976189Y-44952379D01*
X153642856Y-45666665D01*
X153309522Y-44952379D01*
X153309522Y-45952379D01*
X152404760Y-45952379D02*
X152404760Y-45428570D01*
X152452379Y-45333332D01*
X152547618Y-45285713D01*
X152738094Y-45285713D01*
X152833332Y-45333332D01*
X152404760Y-45904760D02*
X152499999Y-45952379D01*
X152738094Y-45952379D01*
X152833332Y-45904760D01*
X152880951Y-45809522D01*
X152880951Y-45714284D01*
X152833332Y-45619046D01*
X152738094Y-45571427D01*
X152499999Y-45571427D01*
X152404760Y-45523808D01*
X151928570Y-45952379D02*
X151928570Y-45285713D01*
X151928570Y-44952379D02*
X151976189Y-44999999D01*
X151928570Y-45047618D01*
X151880951Y-44999999D01*
X151928570Y-44952379D01*
X151928570Y-45047618D01*
X151452379Y-45285713D02*
X151452379Y-45952379D01*
X151452379Y-45380951D02*
X151404760Y-45333332D01*
X151309522Y-45285713D01*
X151166665Y-45285713D01*
X151071427Y-45333332D01*
X151023808Y-45428570D01*
X151023808Y-45952379D01*
X149785713Y-45952379D02*
X149785713Y-44952379D01*
X149785713Y-45333332D02*
X149690475Y-45285713D01*
X149499999Y-45285713D01*
X149404760Y-45333332D01*
X149357141Y-45380951D01*
X149309522Y-45476189D01*
X149309522Y-45761903D01*
X149357141Y-45857141D01*
X149404760Y-45904760D01*
X149499999Y-45952379D01*
X149690475Y-45952379D01*
X149785713Y-45904760D01*
X148738094Y-45952379D02*
X148833332Y-45904760D01*
X148880951Y-45857141D01*
X148928570Y-45761903D01*
X148928570Y-45476189D01*
X148880951Y-45380951D01*
X148833332Y-45333332D01*
X148738094Y-45285713D01*
X148595237Y-45285713D01*
X148499999Y-45333332D01*
X148452379Y-45380951D01*
X148404760Y-45476189D01*
X148404760Y-45761903D01*
X148452379Y-45857141D01*
X148499999Y-45904760D01*
X148595237Y-45952379D01*
X148738094Y-45952379D01*
X147547618Y-45952379D02*
X147547618Y-45428570D01*
X147595237Y-45333332D01*
X147690475Y-45285713D01*
X147880951Y-45285713D01*
X147976189Y-45333332D01*
X147547618Y-45904760D02*
X147642856Y-45952379D01*
X147880951Y-45952379D01*
X147976189Y-45904760D01*
X148023808Y-45809522D01*
X148023808Y-45714284D01*
X147976189Y-45619046D01*
X147880951Y-45571427D01*
X147642856Y-45571427D01*
X147547618Y-45523808D01*
X147071427Y-45952379D02*
X147071427Y-45285713D01*
X147071427Y-45476189D02*
X147023808Y-45380951D01*
X146976189Y-45333332D01*
X146880951Y-45285713D01*
X146785713Y-45285713D01*
X146023808Y-45952379D02*
X146023808Y-44952379D01*
X146023808Y-45904760D02*
X146119046Y-45952379D01*
X146309522Y-45952379D01*
X146404760Y-45904760D01*
X146452379Y-45857141D01*
X146499999Y-45761903D01*
X146499999Y-45476189D01*
X146452379Y-45380951D01*
X146404760Y-45333332D01*
X146309522Y-45285713D01*
X146119046Y-45285713D01*
X146023808Y-45333332D01*
X150912856Y-169282975D02*
X150865237Y-169330594D01*
X150817618Y-169473451D01*
X150817618Y-169568689D01*
X150865237Y-169711546D01*
X150960475Y-169806784D01*
X151055713Y-169854403D01*
X151246189Y-169902022D01*
X151389046Y-169902022D01*
X151579522Y-169854403D01*
X151674760Y-169806784D01*
X151769999Y-169711546D01*
X151817618Y-169568689D01*
X151817618Y-169473451D01*
X151769999Y-169330594D01*
X151722379Y-169282975D01*
X151817618Y-168997260D02*
X150817618Y-168663927D01*
X151817618Y-168330594D01*
X150817618Y-166759165D02*
X150817618Y-167235356D01*
X151817618Y-167235356D01*
X151341427Y-166425832D02*
X151341427Y-166092499D01*
X150817618Y-165949641D02*
X150817618Y-166425832D01*
X151817618Y-166425832D01*
X151817618Y-165949641D01*
X150817618Y-165521070D02*
X151817618Y-165521070D01*
X151817618Y-165282975D01*
X151769999Y-165140118D01*
X151674760Y-165044879D01*
X151579522Y-164997260D01*
X151389046Y-164949641D01*
X151246189Y-164949641D01*
X151055713Y-164997260D01*
X150960475Y-165044879D01*
X150865237Y-165140118D01*
X150817618Y-165282975D01*
X150817618Y-165521070D01*
X150817618Y-163235356D02*
X150817618Y-163806784D01*
X150817618Y-163521070D02*
X151817618Y-163521070D01*
X151674760Y-163616308D01*
X151579522Y-163711546D01*
X151531903Y-163806784D01*
D11*
X157428570Y-34428570D02*
X157428570Y-32928570D01*
X156714284Y-33428570D02*
X156714284Y-34428570D01*
X156714284Y-33571427D02*
X156642856Y-33499999D01*
X156499999Y-33428570D01*
X156285713Y-33428570D01*
X156142856Y-33499999D01*
X156071427Y-33642856D01*
X156071427Y-34428570D01*
X155571427Y-33428570D02*
X154999999Y-33428570D01*
X155357141Y-34428570D02*
X155357141Y-33142856D01*
X155285713Y-32999999D01*
X155142856Y-32928570D01*
X154999999Y-32928570D01*
X154499999Y-34428570D02*
X154499999Y-33428570D01*
X154499999Y-33714284D02*
X154428570Y-33571427D01*
X154357141Y-33499999D01*
X154214284Y-33428570D01*
X154071427Y-33428570D01*
X152928570Y-34428570D02*
X152928570Y-33642856D01*
X152999999Y-33499999D01*
X153142856Y-33428570D01*
X153428570Y-33428570D01*
X153571427Y-33499999D01*
X152928570Y-34357141D02*
X153071427Y-34428570D01*
X153428570Y-34428570D01*
X153571427Y-34357141D01*
X153642856Y-34214284D01*
X153642856Y-34071427D01*
X153571427Y-33928570D01*
X153428570Y-33857141D01*
X153071427Y-33857141D01*
X152928570Y-33785713D01*
X152214284Y-34428570D02*
X152214284Y-33428570D01*
X152214284Y-33714284D02*
X152142856Y-33571427D01*
X152071427Y-33499999D01*
X151928570Y-33428570D01*
X151785713Y-33428570D01*
X150714284Y-34357141D02*
X150857141Y-34428570D01*
X151142856Y-34428570D01*
X151285713Y-34357141D01*
X151357141Y-34214284D01*
X151357141Y-33642856D01*
X151285713Y-33499999D01*
X151142856Y-33428570D01*
X150857141Y-33428570D01*
X150714284Y-33499999D01*
X150642856Y-33642856D01*
X150642856Y-33785713D01*
X151357141Y-33928570D01*
X149357141Y-34428570D02*
X149357141Y-32928570D01*
X149357141Y-34357141D02*
X149499999Y-34428570D01*
X149785713Y-34428570D01*
X149928570Y-34357141D01*
X149999999Y-34285713D01*
X150071427Y-34142856D01*
X150071427Y-33714284D01*
X149999999Y-33571427D01*
X149928570Y-33499999D01*
X149785713Y-33428570D01*
X149499999Y-33428570D01*
X149357141Y-33499999D01*
X147499999Y-34428570D02*
X147499999Y-32928570D01*
X146785713Y-33428570D02*
X146785713Y-34428570D01*
X146785713Y-33571427D02*
X146714284Y-33499999D01*
X146571427Y-33428570D01*
X146357141Y-33428570D01*
X146214284Y-33499999D01*
X146142856Y-33642856D01*
X146142856Y-34428570D01*
X145428570Y-33428570D02*
X145428570Y-34928570D01*
X145428570Y-33499999D02*
X145285713Y-33428570D01*
X144999999Y-33428570D01*
X144857141Y-33499999D01*
X144785713Y-33571427D01*
X144714284Y-33714284D01*
X144714284Y-34142856D01*
X144785713Y-34285713D01*
X144857141Y-34357141D01*
X144999999Y-34428570D01*
X145285713Y-34428570D01*
X145428570Y-34357141D01*
X143428570Y-33428570D02*
X143428570Y-34428570D01*
X144071427Y-33428570D02*
X144071427Y-34214284D01*
X143999999Y-34357141D01*
X143857141Y-34428570D01*
X143642856Y-34428570D01*
X143499999Y-34357141D01*
X143428570Y-34285713D01*
X142928570Y-33428570D02*
X142357141Y-33428570D01*
X142714284Y-32928570D02*
X142714284Y-34214284D01*
X142642856Y-34357141D01*
X142499999Y-34428570D01*
X142357141Y-34428570D01*
D10*
X170785713Y-40897379D02*
X170785713Y-39897379D01*
X170357141Y-40897379D02*
X170357141Y-40373570D01*
X170404760Y-40278332D01*
X170499999Y-40230713D01*
X170642856Y-40230713D01*
X170738094Y-40278332D01*
X170785713Y-40325951D01*
X170023808Y-40230713D02*
X169642856Y-40230713D01*
X169880951Y-39897379D02*
X169880951Y-40754522D01*
X169833332Y-40849760D01*
X169738094Y-40897379D01*
X169642856Y-40897379D01*
X169452379Y-40230713D02*
X169071427Y-40230713D01*
X169309522Y-39897379D02*
X169309522Y-40754522D01*
X169261903Y-40849760D01*
X169166665Y-40897379D01*
X169071427Y-40897379D01*
X168738094Y-40230713D02*
X168738094Y-41230713D01*
X168738094Y-40278332D02*
X168642856Y-40230713D01*
X168452379Y-40230713D01*
X168357141Y-40278332D01*
X168309522Y-40325951D01*
X168261903Y-40421189D01*
X168261903Y-40706903D01*
X168309522Y-40802141D01*
X168357141Y-40849760D01*
X168452379Y-40897379D01*
X168642856Y-40897379D01*
X168738094Y-40849760D01*
X167880951Y-40849760D02*
X167785713Y-40897379D01*
X167595237Y-40897379D01*
X167499999Y-40849760D01*
X167452379Y-40754522D01*
X167452379Y-40706903D01*
X167499999Y-40611665D01*
X167595237Y-40564046D01*
X167738094Y-40564046D01*
X167833332Y-40516427D01*
X167880951Y-40421189D01*
X167880951Y-40373570D01*
X167833332Y-40278332D01*
X167738094Y-40230713D01*
X167595237Y-40230713D01*
X167499999Y-40278332D01*
X167023808Y-40802141D02*
X166976189Y-40849760D01*
X167023808Y-40897379D01*
X167071427Y-40849760D01*
X167023808Y-40802141D01*
X167023808Y-40897379D01*
X167023808Y-40278332D02*
X166976189Y-40325951D01*
X167023808Y-40373570D01*
X167071427Y-40325951D01*
X167023808Y-40278332D01*
X167023808Y-40373570D01*
X165833332Y-39849760D02*
X166690475Y-41135475D01*
X164785713Y-39849760D02*
X165642856Y-41135475D01*
X164547618Y-40230713D02*
X164357141Y-40897379D01*
X164166665Y-40421189D01*
X163976189Y-40897379D01*
X163785713Y-40230713D01*
X163499999Y-40230713D02*
X163309522Y-40897379D01*
X163119046Y-40421189D01*
X162928570Y-40897379D01*
X162738094Y-40230713D01*
X162452379Y-40230713D02*
X162261903Y-40897379D01*
X162071427Y-40421189D01*
X161880951Y-40897379D01*
X161690475Y-40230713D01*
X161309522Y-40802141D02*
X161261903Y-40849760D01*
X161309522Y-40897379D01*
X161357141Y-40849760D01*
X161309522Y-40802141D01*
X161309522Y-40897379D01*
X160833332Y-40897379D02*
X160833332Y-39897379D01*
X160833332Y-40278332D02*
X160738094Y-40230713D01*
X160547618Y-40230713D01*
X160452379Y-40278332D01*
X160404760Y-40325951D01*
X160357141Y-40421189D01*
X160357141Y-40706903D01*
X160404760Y-40802141D01*
X160452379Y-40849760D01*
X160547618Y-40897379D01*
X160738094Y-40897379D01*
X160833332Y-40849760D01*
X159499999Y-40897379D02*
X159499999Y-40373570D01*
X159547618Y-40278332D01*
X159642856Y-40230713D01*
X159833332Y-40230713D01*
X159928570Y-40278332D01*
X159499999Y-40849760D02*
X159595237Y-40897379D01*
X159833332Y-40897379D01*
X159928570Y-40849760D01*
X159976189Y-40754522D01*
X159976189Y-40659284D01*
X159928570Y-40564046D01*
X159833332Y-40516427D01*
X159595237Y-40516427D01*
X159499999Y-40468808D01*
X159023808Y-40897379D02*
X159023808Y-40230713D01*
X159023808Y-40421189D02*
X158976189Y-40325951D01*
X158928570Y-40278332D01*
X158833332Y-40230713D01*
X158738094Y-40230713D01*
X158547618Y-40230713D02*
X158166665Y-40230713D01*
X158404760Y-39897379D02*
X158404760Y-40754522D01*
X158357141Y-40849760D01*
X158261903Y-40897379D01*
X158166665Y-40897379D01*
X157690475Y-40897379D02*
X157785713Y-40849760D01*
X157833332Y-40802141D01*
X157880951Y-40706903D01*
X157880951Y-40421189D01*
X157833332Y-40325951D01*
X157785713Y-40278332D01*
X157690475Y-40230713D01*
X157547618Y-40230713D01*
X157452379Y-40278332D01*
X157404760Y-40325951D01*
X157357141Y-40421189D01*
X157357141Y-40706903D01*
X157404760Y-40802141D01*
X157452379Y-40849760D01*
X157547618Y-40897379D01*
X157690475Y-40897379D01*
X156928570Y-40230713D02*
X156928570Y-40897379D01*
X156928570Y-40325951D02*
X156880951Y-40278332D01*
X156785713Y-40230713D01*
X156642856Y-40230713D01*
X156547618Y-40278332D01*
X156499999Y-40373570D01*
X156499999Y-40897379D01*
X156023808Y-40897379D02*
X156023808Y-40230713D01*
X156023808Y-40325951D02*
X155976189Y-40278332D01*
X155880951Y-40230713D01*
X155738094Y-40230713D01*
X155642856Y-40278332D01*
X155595237Y-40373570D01*
X155595237Y-40897379D01*
X155595237Y-40373570D02*
X155547618Y-40278332D01*
X155452379Y-40230713D01*
X155309522Y-40230713D01*
X155214284Y-40278332D01*
X155166665Y-40373570D01*
X155166665Y-40897379D01*
X154261903Y-40230713D02*
X154261903Y-40897379D01*
X154690475Y-40230713D02*
X154690475Y-40754522D01*
X154642856Y-40849760D01*
X154547618Y-40897379D01*
X154404760Y-40897379D01*
X154309522Y-40849760D01*
X154261903Y-40802141D01*
X153833332Y-40849760D02*
X153738094Y-40897379D01*
X153547618Y-40897379D01*
X153452379Y-40849760D01*
X153404760Y-40754522D01*
X153404760Y-40706903D01*
X153452379Y-40611665D01*
X153547618Y-40564046D01*
X153690475Y-40564046D01*
X153785713Y-40516427D01*
X153833332Y-40421189D01*
X153833332Y-40373570D01*
X153785713Y-40278332D01*
X153690475Y-40230713D01*
X153547618Y-40230713D01*
X153452379Y-40278332D01*
X152976189Y-40897379D02*
X152976189Y-40230713D01*
X152976189Y-39897379D02*
X153023808Y-39944999D01*
X152976189Y-39992618D01*
X152928570Y-39944999D01*
X152976189Y-39897379D01*
X152976189Y-39992618D01*
X152071427Y-40849760D02*
X152166665Y-40897379D01*
X152357141Y-40897379D01*
X152452379Y-40849760D01*
X152499999Y-40802141D01*
X152547618Y-40706903D01*
X152547618Y-40421189D01*
X152499999Y-40325951D01*
X152452379Y-40278332D01*
X152357141Y-40230713D01*
X152166665Y-40230713D01*
X152071427Y-40278332D01*
X151214284Y-40897379D02*
X151214284Y-40373570D01*
X151261903Y-40278332D01*
X151357141Y-40230713D01*
X151547618Y-40230713D01*
X151642856Y-40278332D01*
X151214284Y-40849760D02*
X151309522Y-40897379D01*
X151547618Y-40897379D01*
X151642856Y-40849760D01*
X151690475Y-40754522D01*
X151690475Y-40659284D01*
X151642856Y-40564046D01*
X151547618Y-40516427D01*
X151309522Y-40516427D01*
X151214284Y-40468808D01*
X150595237Y-40897379D02*
X150690475Y-40849760D01*
X150738094Y-40754522D01*
X150738094Y-39897379D01*
X149785713Y-40849760D02*
X149880951Y-40897379D01*
X150071427Y-40897379D01*
X150166665Y-40849760D01*
X150214284Y-40802141D01*
X150261903Y-40706903D01*
X150261903Y-40421189D01*
X150214284Y-40325951D01*
X150166665Y-40278332D01*
X150071427Y-40230713D01*
X149880951Y-40230713D01*
X149785713Y-40278332D01*
X149357141Y-40897379D02*
X149357141Y-40230713D01*
X149357141Y-39897379D02*
X149404760Y-39944999D01*
X149357141Y-39992618D01*
X149309522Y-39944999D01*
X149357141Y-39897379D01*
X149357141Y-39992618D01*
X148880951Y-40897379D02*
X148880951Y-40230713D01*
X148880951Y-40421189D02*
X148833332Y-40325951D01*
X148785713Y-40278332D01*
X148690475Y-40230713D01*
X148595237Y-40230713D01*
X147833332Y-40849760D02*
X147928570Y-40897379D01*
X148119046Y-40897379D01*
X148214284Y-40849760D01*
X148261903Y-40802141D01*
X148309522Y-40706903D01*
X148309522Y-40421189D01*
X148261903Y-40325951D01*
X148214284Y-40278332D01*
X148119046Y-40230713D01*
X147928570Y-40230713D01*
X147833332Y-40278332D01*
X146976189Y-40230713D02*
X146976189Y-40897379D01*
X147404760Y-40230713D02*
X147404760Y-40754522D01*
X147357141Y-40849760D01*
X147261903Y-40897379D01*
X147119046Y-40897379D01*
X147023808Y-40849760D01*
X146976189Y-40802141D01*
X146499999Y-40897379D02*
X146499999Y-40230713D01*
X146499999Y-39897379D02*
X146547618Y-39944999D01*
X146499999Y-39992618D01*
X146452379Y-39944999D01*
X146499999Y-39897379D01*
X146499999Y-39992618D01*
X146166665Y-40230713D02*
X145785713Y-40230713D01*
X146023808Y-39897379D02*
X146023808Y-40754522D01*
X145976189Y-40849760D01*
X145880951Y-40897379D01*
X145785713Y-40897379D01*
X145499999Y-40849760D02*
X145404760Y-40897379D01*
X145214284Y-40897379D01*
X145119046Y-40849760D01*
X145071427Y-40754522D01*
X145071427Y-40706903D01*
X145119046Y-40611665D01*
X145214284Y-40564046D01*
X145357141Y-40564046D01*
X145452379Y-40516427D01*
X145499999Y-40421189D01*
X145499999Y-40373570D01*
X145452379Y-40278332D01*
X145357141Y-40230713D01*
X145214284Y-40230713D01*
X145119046Y-40278332D01*
X144642856Y-40802141D02*
X144595237Y-40849760D01*
X144642856Y-40897379D01*
X144690475Y-40849760D01*
X144642856Y-40802141D01*
X144642856Y-40897379D01*
X143738094Y-40849760D02*
X143833332Y-40897379D01*
X144023808Y-40897379D01*
X144119046Y-40849760D01*
X144166665Y-40802141D01*
X144214284Y-40706903D01*
X144214284Y-40421189D01*
X144166665Y-40325951D01*
X144119046Y-40278332D01*
X144023808Y-40230713D01*
X143833332Y-40230713D01*
X143738094Y-40278332D01*
X143166665Y-40897379D02*
X143261903Y-40849760D01*
X143309522Y-40802141D01*
X143357141Y-40706903D01*
X143357141Y-40421189D01*
X143309522Y-40325951D01*
X143261903Y-40278332D01*
X143166665Y-40230713D01*
X143023808Y-40230713D01*
X142928570Y-40278332D01*
X142880951Y-40325951D01*
X142833332Y-40421189D01*
X142833332Y-40706903D01*
X142880951Y-40802141D01*
X142928570Y-40849760D01*
X143023808Y-40897379D01*
X143166665Y-40897379D01*
X142404760Y-40897379D02*
X142404760Y-40230713D01*
X142404760Y-40325951D02*
X142357141Y-40278332D01*
X142261903Y-40230713D01*
X142119046Y-40230713D01*
X142023808Y-40278332D01*
X141976189Y-40373570D01*
X141976189Y-40897379D01*
X141976189Y-40373570D02*
X141928570Y-40278332D01*
X141833332Y-40230713D01*
X141690475Y-40230713D01*
X141595237Y-40278332D01*
X141547618Y-40373570D01*
X141547618Y-40897379D01*
X140357141Y-39849760D02*
X141214284Y-41135475D01*
X140023808Y-40897379D02*
X140023808Y-40230713D01*
X140023808Y-39897379D02*
X140071427Y-39944999D01*
X140023808Y-39992618D01*
X139976189Y-39944999D01*
X140023808Y-39897379D01*
X140023808Y-39992618D01*
X139547618Y-40897379D02*
X139547618Y-40230713D01*
X139547618Y-40421189D02*
X139499999Y-40325951D01*
X139452379Y-40278332D01*
X139357141Y-40230713D01*
X139261903Y-40230713D01*
X138928570Y-40897379D02*
X138928570Y-40230713D01*
X138928570Y-39897379D02*
X138976189Y-39944999D01*
X138928570Y-39992618D01*
X138880951Y-39944999D01*
X138928570Y-39897379D01*
X138928570Y-39992618D01*
X138452379Y-40230713D02*
X138452379Y-40897379D01*
X138452379Y-40325951D02*
X138404760Y-40278332D01*
X138309522Y-40230713D01*
X138166665Y-40230713D01*
X138071427Y-40278332D01*
X138023808Y-40373570D01*
X138023808Y-40897379D01*
X136833332Y-39849760D02*
X137690475Y-41135475D01*
X136499999Y-40897379D02*
X136499999Y-40230713D01*
X136499999Y-39897379D02*
X136547618Y-39944999D01*
X136499999Y-39992618D01*
X136452379Y-39944999D01*
X136499999Y-39897379D01*
X136499999Y-39992618D01*
X136023808Y-40230713D02*
X136023808Y-40897379D01*
X136023808Y-40325951D02*
X135976189Y-40278332D01*
X135880951Y-40230713D01*
X135738094Y-40230713D01*
X135642856Y-40278332D01*
X135595237Y-40373570D01*
X135595237Y-40897379D01*
X134690475Y-40897379D02*
X134690475Y-39897379D01*
X134690475Y-40849760D02*
X134785713Y-40897379D01*
X134976189Y-40897379D01*
X135071427Y-40849760D01*
X135119046Y-40802141D01*
X135166665Y-40706903D01*
X135166665Y-40421189D01*
X135119046Y-40325951D01*
X135071427Y-40278332D01*
X134976189Y-40230713D01*
X134785713Y-40230713D01*
X134690475Y-40278332D01*
X133833332Y-40849760D02*
X133928570Y-40897379D01*
X134119046Y-40897379D01*
X134214284Y-40849760D01*
X134261903Y-40754522D01*
X134261903Y-40373570D01*
X134214284Y-40278332D01*
X134119046Y-40230713D01*
X133928570Y-40230713D01*
X133833332Y-40278332D01*
X133785713Y-40373570D01*
X133785713Y-40468808D01*
X134261903Y-40564046D01*
X133452379Y-40897379D02*
X132928570Y-40230713D01*
X133452379Y-40230713D02*
X132928570Y-40897379D01*
X132547618Y-40802141D02*
X132499999Y-40849760D01*
X132547618Y-40897379D01*
X132595237Y-40849760D01*
X132547618Y-40802141D01*
X132547618Y-40897379D01*
X132071427Y-40897379D02*
X132071427Y-39897379D01*
X131642856Y-40897379D02*
X131642856Y-40373570D01*
X131690475Y-40278332D01*
X131785713Y-40230713D01*
X131928570Y-40230713D01*
X132023808Y-40278332D01*
X132071427Y-40325951D01*
X131309522Y-40230713D02*
X130928570Y-40230713D01*
X131166665Y-39897379D02*
X131166665Y-40754522D01*
X131119046Y-40849760D01*
X131023808Y-40897379D01*
X130928570Y-40897379D01*
X130595237Y-40897379D02*
X130595237Y-40230713D01*
X130595237Y-40325951D02*
X130547618Y-40278332D01*
X130452379Y-40230713D01*
X130309522Y-40230713D01*
X130214284Y-40278332D01*
X130166665Y-40373570D01*
X130166665Y-40897379D01*
X130166665Y-40373570D02*
X130119046Y-40278332D01*
X130023808Y-40230713D01*
X129880951Y-40230713D01*
X129785713Y-40278332D01*
X129738094Y-40373570D01*
X129738094Y-40897379D01*
X129119046Y-40897379D02*
X129214284Y-40849760D01*
X129261903Y-40754522D01*
X129261903Y-39897379D01*
X166238094Y-42507379D02*
X166238094Y-41507379D01*
X165809522Y-42507379D02*
X165809522Y-41983570D01*
X165857141Y-41888332D01*
X165952379Y-41840713D01*
X166095237Y-41840713D01*
X166190475Y-41888332D01*
X166238094Y-41935951D01*
X165476189Y-41840713D02*
X165095237Y-41840713D01*
X165333332Y-41507379D02*
X165333332Y-42364522D01*
X165285713Y-42459760D01*
X165190475Y-42507379D01*
X165095237Y-42507379D01*
X164904760Y-41840713D02*
X164523808Y-41840713D01*
X164761903Y-41507379D02*
X164761903Y-42364522D01*
X164714284Y-42459760D01*
X164619046Y-42507379D01*
X164523808Y-42507379D01*
X164190475Y-41840713D02*
X164190475Y-42840713D01*
X164190475Y-41888332D02*
X164095237Y-41840713D01*
X163904760Y-41840713D01*
X163809522Y-41888332D01*
X163761903Y-41935951D01*
X163714284Y-42031189D01*
X163714284Y-42316903D01*
X163761903Y-42412141D01*
X163809522Y-42459760D01*
X163904760Y-42507379D01*
X164095237Y-42507379D01*
X164190475Y-42459760D01*
X163333332Y-42459760D02*
X163238094Y-42507379D01*
X163047618Y-42507379D01*
X162952379Y-42459760D01*
X162904760Y-42364522D01*
X162904760Y-42316903D01*
X162952379Y-42221665D01*
X163047618Y-42174046D01*
X163190475Y-42174046D01*
X163285713Y-42126427D01*
X163333332Y-42031189D01*
X163333332Y-41983570D01*
X163285713Y-41888332D01*
X163190475Y-41840713D01*
X163047618Y-41840713D01*
X162952379Y-41888332D01*
X162476189Y-42412141D02*
X162428570Y-42459760D01*
X162476189Y-42507379D01*
X162523808Y-42459760D01*
X162476189Y-42412141D01*
X162476189Y-42507379D01*
X162476189Y-41888332D02*
X162428570Y-41935951D01*
X162476189Y-41983570D01*
X162523808Y-41935951D01*
X162476189Y-41888332D01*
X162476189Y-41983570D01*
X161285713Y-41459760D02*
X162142856Y-42745475D01*
X160238094Y-41459760D02*
X161095237Y-42745475D01*
X159476189Y-41840713D02*
X159476189Y-42650237D01*
X159523808Y-42745475D01*
X159571427Y-42793094D01*
X159666665Y-42840713D01*
X159809522Y-42840713D01*
X159904760Y-42793094D01*
X159476189Y-42459760D02*
X159571427Y-42507379D01*
X159761903Y-42507379D01*
X159857141Y-42459760D01*
X159904760Y-42412141D01*
X159952379Y-42316903D01*
X159952379Y-42031189D01*
X159904760Y-41935951D01*
X159857141Y-41888332D01*
X159761903Y-41840713D01*
X159571427Y-41840713D01*
X159476189Y-41888332D01*
X158999999Y-42507379D02*
X158999999Y-41840713D01*
X158999999Y-41507379D02*
X159047618Y-41554999D01*
X158999999Y-41602618D01*
X158952379Y-41554999D01*
X158999999Y-41507379D01*
X158999999Y-41602618D01*
X158666665Y-41840713D02*
X158285713Y-41840713D01*
X158523808Y-41507379D02*
X158523808Y-42364522D01*
X158476189Y-42459760D01*
X158380951Y-42507379D01*
X158285713Y-42507379D01*
X157952379Y-42507379D02*
X157952379Y-41507379D01*
X157523808Y-42507379D02*
X157523808Y-41983570D01*
X157571427Y-41888332D01*
X157666665Y-41840713D01*
X157809522Y-41840713D01*
X157904760Y-41888332D01*
X157952379Y-41935951D01*
X156619046Y-41840713D02*
X156619046Y-42507379D01*
X157047618Y-41840713D02*
X157047618Y-42364522D01*
X156999999Y-42459760D01*
X156904760Y-42507379D01*
X156761903Y-42507379D01*
X156666665Y-42459760D01*
X156619046Y-42412141D01*
X156142856Y-42507379D02*
X156142856Y-41507379D01*
X156142856Y-41888332D02*
X156047618Y-41840713D01*
X155857141Y-41840713D01*
X155761903Y-41888332D01*
X155714284Y-41935951D01*
X155666665Y-42031189D01*
X155666665Y-42316903D01*
X155714284Y-42412141D01*
X155761903Y-42459760D01*
X155857141Y-42507379D01*
X156047618Y-42507379D01*
X156142856Y-42459760D01*
X155238094Y-42412141D02*
X155190475Y-42459760D01*
X155238094Y-42507379D01*
X155285713Y-42459760D01*
X155238094Y-42412141D01*
X155238094Y-42507379D01*
X154333332Y-42459760D02*
X154428570Y-42507379D01*
X154619046Y-42507379D01*
X154714284Y-42459760D01*
X154761903Y-42412141D01*
X154809522Y-42316903D01*
X154809522Y-42031189D01*
X154761903Y-41935951D01*
X154714284Y-41888332D01*
X154619046Y-41840713D01*
X154428570Y-41840713D01*
X154333332Y-41888332D01*
X153761903Y-42507379D02*
X153857141Y-42459760D01*
X153904760Y-42412141D01*
X153952379Y-42316903D01*
X153952379Y-42031189D01*
X153904760Y-41935951D01*
X153857141Y-41888332D01*
X153761903Y-41840713D01*
X153619046Y-41840713D01*
X153523808Y-41888332D01*
X153476189Y-41935951D01*
X153428570Y-42031189D01*
X153428570Y-42316903D01*
X153476189Y-42412141D01*
X153523808Y-42459760D01*
X153619046Y-42507379D01*
X153761903Y-42507379D01*
X152999999Y-42507379D02*
X152999999Y-41840713D01*
X152999999Y-41935951D02*
X152952379Y-41888332D01*
X152857141Y-41840713D01*
X152714284Y-41840713D01*
X152619046Y-41888332D01*
X152571427Y-41983570D01*
X152571427Y-42507379D01*
X152571427Y-41983570D02*
X152523808Y-41888332D01*
X152428570Y-41840713D01*
X152285713Y-41840713D01*
X152190475Y-41888332D01*
X152142856Y-41983570D01*
X152142856Y-42507379D01*
X150952379Y-41459760D02*
X151809522Y-42745475D01*
X150619046Y-42507379D02*
X150619046Y-41507379D01*
X150190475Y-42507379D02*
X150190475Y-41983570D01*
X150238094Y-41888332D01*
X150333332Y-41840713D01*
X150476189Y-41840713D01*
X150571427Y-41888332D01*
X150619046Y-41935951D01*
X149571427Y-42507379D02*
X149666665Y-42459760D01*
X149714284Y-42412141D01*
X149761903Y-42316903D01*
X149761903Y-42031189D01*
X149714284Y-41935951D01*
X149666665Y-41888332D01*
X149571427Y-41840713D01*
X149428570Y-41840713D01*
X149333332Y-41888332D01*
X149285713Y-41935951D01*
X149238094Y-42031189D01*
X149238094Y-42316903D01*
X149285713Y-42412141D01*
X149333332Y-42459760D01*
X149428570Y-42507379D01*
X149571427Y-42507379D01*
X148666665Y-42507379D02*
X148761903Y-42459760D01*
X148809522Y-42364522D01*
X148809522Y-41507379D01*
X148285713Y-42507379D02*
X148285713Y-41840713D01*
X148285713Y-41935951D02*
X148238094Y-41888332D01*
X148142856Y-41840713D01*
X147999999Y-41840713D01*
X147904760Y-41888332D01*
X147857141Y-41983570D01*
X147857141Y-42507379D01*
X147857141Y-41983570D02*
X147809522Y-41888332D01*
X147714284Y-41840713D01*
X147571427Y-41840713D01*
X147476189Y-41888332D01*
X147428570Y-41983570D01*
X147428570Y-42507379D01*
X146571427Y-42459760D02*
X146666665Y-42507379D01*
X146857141Y-42507379D01*
X146952379Y-42459760D01*
X146999999Y-42364522D01*
X146999999Y-41983570D01*
X146952379Y-41888332D01*
X146857141Y-41840713D01*
X146666665Y-41840713D01*
X146571427Y-41888332D01*
X146523808Y-41983570D01*
X146523808Y-42078808D01*
X146999999Y-42174046D01*
X146142856Y-42459760D02*
X146047618Y-42507379D01*
X145857141Y-42507379D01*
X145761903Y-42459760D01*
X145714284Y-42364522D01*
X145714284Y-42316903D01*
X145761903Y-42221665D01*
X145857141Y-42174046D01*
X145999999Y-42174046D01*
X146095237Y-42126427D01*
X146142856Y-42031189D01*
X146142856Y-41983570D01*
X146095237Y-41888332D01*
X145999999Y-41840713D01*
X145857141Y-41840713D01*
X145761903Y-41888332D01*
X145285713Y-42507379D02*
X145285713Y-41840713D01*
X145285713Y-42031189D02*
X145238094Y-41935951D01*
X145190475Y-41888332D01*
X145095237Y-41840713D01*
X144999999Y-41840713D01*
X144666665Y-42507379D02*
X144666665Y-41840713D01*
X144666665Y-41507379D02*
X144714284Y-41554999D01*
X144666665Y-41602618D01*
X144619046Y-41554999D01*
X144666665Y-41507379D01*
X144666665Y-41602618D01*
X143761903Y-42459760D02*
X143857141Y-42507379D01*
X144047618Y-42507379D01*
X144142856Y-42459760D01*
X144190475Y-42412141D01*
X144238094Y-42316903D01*
X144238094Y-42031189D01*
X144190475Y-41935951D01*
X144142856Y-41888332D01*
X144047618Y-41840713D01*
X143857141Y-41840713D01*
X143761903Y-41888332D01*
X143333332Y-42507379D02*
X143333332Y-41507379D01*
X142904760Y-42507379D02*
X142904760Y-41983570D01*
X142952379Y-41888332D01*
X143047618Y-41840713D01*
X143190475Y-41840713D01*
X143285713Y-41888332D01*
X143333332Y-41935951D01*
X141999999Y-42507379D02*
X141999999Y-41983570D01*
X142047618Y-41888332D01*
X142142856Y-41840713D01*
X142333332Y-41840713D01*
X142428570Y-41888332D01*
X141999999Y-42459760D02*
X142095237Y-42507379D01*
X142333332Y-42507379D01*
X142428570Y-42459760D01*
X142476189Y-42364522D01*
X142476189Y-42269284D01*
X142428570Y-42174046D01*
X142333332Y-42126427D01*
X142095237Y-42126427D01*
X141999999Y-42078808D01*
X141523808Y-42507379D02*
X141523808Y-41840713D01*
X141523808Y-42031189D02*
X141476189Y-41935951D01*
X141428570Y-41888332D01*
X141333332Y-41840713D01*
X141238094Y-41840713D01*
X140476189Y-42507379D02*
X140476189Y-41507379D01*
X140476189Y-42459760D02*
X140571427Y-42507379D01*
X140761903Y-42507379D01*
X140857141Y-42459760D01*
X140904760Y-42412141D01*
X140952379Y-42316903D01*
X140952379Y-42031189D01*
X140904760Y-41935951D01*
X140857141Y-41888332D01*
X140761903Y-41840713D01*
X140571427Y-41840713D01*
X140476189Y-41888332D01*
X140047618Y-42459760D02*
X139952379Y-42507379D01*
X139761903Y-42507379D01*
X139666665Y-42459760D01*
X139619046Y-42364522D01*
X139619046Y-42316903D01*
X139666665Y-42221665D01*
X139761903Y-42174046D01*
X139904760Y-42174046D01*
X139999999Y-42126427D01*
X140047618Y-42031189D01*
X140047618Y-41983570D01*
X139999999Y-41888332D01*
X139904760Y-41840713D01*
X139761903Y-41840713D01*
X139666665Y-41888332D01*
X138476189Y-41459760D02*
X139333332Y-42745475D01*
X138142856Y-42507379D02*
X138142856Y-41840713D01*
X138142856Y-41507379D02*
X138190475Y-41554999D01*
X138142856Y-41602618D01*
X138095237Y-41554999D01*
X138142856Y-41507379D01*
X138142856Y-41602618D01*
X137666665Y-42507379D02*
X137666665Y-41840713D01*
X137666665Y-42031189D02*
X137619046Y-41935951D01*
X137571427Y-41888332D01*
X137476189Y-41840713D01*
X137380951Y-41840713D01*
X137047618Y-42507379D02*
X137047618Y-41840713D01*
X137047618Y-41507379D02*
X137095237Y-41554999D01*
X137047618Y-41602618D01*
X136999999Y-41554999D01*
X137047618Y-41507379D01*
X137047618Y-41602618D01*
X136571427Y-41840713D02*
X136571427Y-42507379D01*
X136571427Y-41935951D02*
X136523808Y-41888332D01*
X136428570Y-41840713D01*
X136285713Y-41840713D01*
X136190475Y-41888332D01*
X136142856Y-41983570D01*
X136142856Y-42507379D01*
X135666665Y-41840713D02*
X135666665Y-42840713D01*
X135666665Y-41888332D02*
X135571427Y-41840713D01*
X135380951Y-41840713D01*
X135285713Y-41888332D01*
X135238094Y-41935951D01*
X135190475Y-42031189D01*
X135190475Y-42316903D01*
X135238094Y-42412141D01*
X135285713Y-42459760D01*
X135380951Y-42507379D01*
X135571427Y-42507379D01*
X135666665Y-42459760D01*
X134333332Y-41840713D02*
X134333332Y-42507379D01*
X134761903Y-41840713D02*
X134761903Y-42364522D01*
X134714284Y-42459760D01*
X134619046Y-42507379D01*
X134476189Y-42507379D01*
X134380951Y-42459760D01*
X134333332Y-42412141D01*
X133999999Y-41840713D02*
X133619046Y-41840713D01*
X133857141Y-41507379D02*
X133857141Y-42364522D01*
X133809522Y-42459760D01*
X133714284Y-42507379D01*
X133619046Y-42507379D01*
X145832856Y-169282975D02*
X145785237Y-169330594D01*
X145737618Y-169473451D01*
X145737618Y-169568689D01*
X145785237Y-169711546D01*
X145880475Y-169806784D01*
X145975713Y-169854403D01*
X146166189Y-169902022D01*
X146309046Y-169902022D01*
X146499522Y-169854403D01*
X146594760Y-169806784D01*
X146689999Y-169711546D01*
X146737618Y-169568689D01*
X146737618Y-169473451D01*
X146689999Y-169330594D01*
X146642379Y-169282975D01*
X146737618Y-168997260D02*
X145737618Y-168663927D01*
X146737618Y-168330594D01*
X146737618Y-167044879D02*
X146737618Y-166854403D01*
X146689999Y-166759165D01*
X146594760Y-166663927D01*
X146404284Y-166616308D01*
X146070951Y-166616308D01*
X145880475Y-166663927D01*
X145785237Y-166759165D01*
X145737618Y-166854403D01*
X145737618Y-167044879D01*
X145785237Y-167140118D01*
X145880475Y-167235356D01*
X146070951Y-167282975D01*
X146404284Y-167282975D01*
X146594760Y-167235356D01*
X146689999Y-167140118D01*
X146737618Y-167044879D01*
X146737618Y-166187737D02*
X145928094Y-166187737D01*
X145832856Y-166140118D01*
X145785237Y-166092499D01*
X145737618Y-165997260D01*
X145737618Y-165806784D01*
X145785237Y-165711546D01*
X145832856Y-165663927D01*
X145928094Y-165616308D01*
X146737618Y-165616308D01*
X146737618Y-165282975D02*
X146737618Y-164711546D01*
X145737618Y-164997260D02*
X146737618Y-164997260D01*
X156849999Y-169330594D02*
X156897618Y-169425832D01*
X156897618Y-169568689D01*
X156849999Y-169711546D01*
X156754760Y-169806784D01*
X156659522Y-169854403D01*
X156469046Y-169902022D01*
X156326189Y-169902022D01*
X156135713Y-169854403D01*
X156040475Y-169806784D01*
X155945237Y-169711546D01*
X155897618Y-169568689D01*
X155897618Y-169473451D01*
X155945237Y-169330594D01*
X155992856Y-169282975D01*
X156326189Y-169282975D01*
X156326189Y-169473451D01*
X156183332Y-168902022D02*
X156183332Y-168425832D01*
X155897618Y-168997260D02*
X156897618Y-168663927D01*
X155897618Y-168330594D01*
X156897618Y-168140118D02*
X156897618Y-167568689D01*
X155897618Y-167854403D02*
X156897618Y-167854403D01*
X156421427Y-167235356D02*
X156421427Y-166902022D01*
X155897618Y-166759165D02*
X155897618Y-167235356D01*
X156897618Y-167235356D01*
X156897618Y-166759165D01*
X155897618Y-165092499D02*
X155897618Y-165568689D01*
X156897618Y-165568689D01*
X156421427Y-164759165D02*
X156421427Y-164425832D01*
X155897618Y-164282975D02*
X155897618Y-164759165D01*
X156897618Y-164759165D01*
X156897618Y-164282975D01*
X155897618Y-163854403D02*
X156897618Y-163854403D01*
X156897618Y-163616308D01*
X156849999Y-163473451D01*
X156754760Y-163378213D01*
X156659522Y-163330594D01*
X156469046Y-163282975D01*
X156326189Y-163282975D01*
X156135713Y-163330594D01*
X156040475Y-163378213D01*
X155945237Y-163473451D01*
X155897618Y-163616308D01*
X155897618Y-163854403D01*
X144149999Y-169330594D02*
X144197618Y-169425832D01*
X144197618Y-169568689D01*
X144149999Y-169711546D01*
X144054760Y-169806784D01*
X143959522Y-169854403D01*
X143769046Y-169902022D01*
X143626189Y-169902022D01*
X143435713Y-169854403D01*
X143340475Y-169806784D01*
X143245237Y-169711546D01*
X143197618Y-169568689D01*
X143197618Y-169473451D01*
X143245237Y-169330594D01*
X143292856Y-169282975D01*
X143626189Y-169282975D01*
X143626189Y-169473451D01*
X143197618Y-168854403D02*
X144197618Y-168854403D01*
X143197618Y-168282975D01*
X144197618Y-168282975D01*
X143197618Y-167806784D02*
X144197618Y-167806784D01*
X144197618Y-167568689D01*
X144149999Y-167425832D01*
X144054760Y-167330594D01*
X143959522Y-167282975D01*
X143769046Y-167235356D01*
X143626189Y-167235356D01*
X143435713Y-167282975D01*
X143340475Y-167330594D01*
X143245237Y-167425832D01*
X143197618Y-167568689D01*
X143197618Y-167806784D01*
X148372856Y-169282975D02*
X148325237Y-169330594D01*
X148277618Y-169473451D01*
X148277618Y-169568689D01*
X148325237Y-169711546D01*
X148420475Y-169806784D01*
X148515713Y-169854403D01*
X148706189Y-169902022D01*
X148849046Y-169902022D01*
X149039522Y-169854403D01*
X149134760Y-169806784D01*
X149229999Y-169711546D01*
X149277618Y-169568689D01*
X149277618Y-169473451D01*
X149229999Y-169330594D01*
X149182379Y-169282975D01*
X149277618Y-168997260D02*
X148277618Y-168663927D01*
X149277618Y-168330594D01*
X148277618Y-166759165D02*
X148277618Y-167235356D01*
X149277618Y-167235356D01*
X148801427Y-166425832D02*
X148801427Y-166092499D01*
X148277618Y-165949641D02*
X148277618Y-166425832D01*
X149277618Y-166425832D01*
X149277618Y-165949641D01*
X148277618Y-165521070D02*
X149277618Y-165521070D01*
X149277618Y-165282975D01*
X149229999Y-165140118D01*
X149134760Y-165044879D01*
X149039522Y-164997260D01*
X148849046Y-164949641D01*
X148706189Y-164949641D01*
X148515713Y-164997260D01*
X148420475Y-165044879D01*
X148325237Y-165140118D01*
X148277618Y-165282975D01*
X148277618Y-165521070D01*
X149182379Y-163806784D02*
X149229999Y-163759165D01*
X149277618Y-163663927D01*
X149277618Y-163425832D01*
X149229999Y-163330594D01*
X149182379Y-163282975D01*
X149087141Y-163235356D01*
X148991903Y-163235356D01*
X148849046Y-163282975D01*
X148277618Y-163854403D01*
X148277618Y-163235356D01*
X154309999Y-169330594D02*
X154357618Y-169425832D01*
X154357618Y-169568689D01*
X154309999Y-169711546D01*
X154214760Y-169806784D01*
X154119522Y-169854403D01*
X153929046Y-169902022D01*
X153786189Y-169902022D01*
X153595713Y-169854403D01*
X153500475Y-169806784D01*
X153405237Y-169711546D01*
X153357618Y-169568689D01*
X153357618Y-169473451D01*
X153405237Y-169330594D01*
X153452856Y-169282975D01*
X153786189Y-169282975D01*
X153786189Y-169473451D01*
X153643332Y-168902022D02*
X153643332Y-168425832D01*
X153357618Y-168997260D02*
X154357618Y-168663927D01*
X153357618Y-168330594D01*
X154357618Y-168140118D02*
X154357618Y-167568689D01*
X153357618Y-167854403D02*
X154357618Y-167854403D01*
X153881427Y-167235356D02*
X153881427Y-166902022D01*
X153357618Y-166759165D02*
X153357618Y-167235356D01*
X154357618Y-167235356D01*
X154357618Y-166759165D01*
X154357618Y-165378213D02*
X154357618Y-165187737D01*
X154309999Y-165092499D01*
X154214760Y-164997260D01*
X154024284Y-164949641D01*
X153690951Y-164949641D01*
X153500475Y-164997260D01*
X153405237Y-165092499D01*
X153357618Y-165187737D01*
X153357618Y-165378213D01*
X153405237Y-165473451D01*
X153500475Y-165568689D01*
X153690951Y-165616308D01*
X154024284Y-165616308D01*
X154214760Y-165568689D01*
X154309999Y-165473451D01*
X154357618Y-165378213D01*
X154357618Y-164521070D02*
X153548094Y-164521070D01*
X153452856Y-164473451D01*
X153405237Y-164425832D01*
X153357618Y-164330594D01*
X153357618Y-164140118D01*
X153405237Y-164044879D01*
X153452856Y-163997260D01*
X153548094Y-163949641D01*
X154357618Y-163949641D01*
X154357618Y-163616308D02*
X154357618Y-163044879D01*
X153357618Y-163330594D02*
X154357618Y-163330594D01*
D12*
X162571427Y-35342379D02*
X162380951Y-35342379D01*
X162285713Y-35389999D01*
X162190475Y-35485237D01*
X162142856Y-35675713D01*
X162142856Y-36009046D01*
X162190475Y-36199522D01*
X162285713Y-36294760D01*
X162380951Y-36342379D01*
X162571427Y-36342379D01*
X162666665Y-36294760D01*
X162761903Y-36199522D01*
X162809522Y-36009046D01*
X162809522Y-35675713D01*
X162761903Y-35485237D01*
X162666665Y-35389999D01*
X162571427Y-35342379D01*
X161714284Y-36342379D02*
X161714284Y-35675713D01*
X161714284Y-35866189D02*
X161666665Y-35770951D01*
X161619046Y-35723332D01*
X161523808Y-35675713D01*
X161428570Y-35675713D01*
X161095237Y-36342379D02*
X161095237Y-35675713D01*
X161095237Y-35342379D02*
X161142856Y-35389999D01*
X161095237Y-35437618D01*
X161047618Y-35389999D01*
X161095237Y-35342379D01*
X161095237Y-35437618D01*
X160190475Y-35675713D02*
X160190475Y-36485237D01*
X160238094Y-36580475D01*
X160285713Y-36628094D01*
X160380951Y-36675713D01*
X160523808Y-36675713D01*
X160619046Y-36628094D01*
X160190475Y-36294760D02*
X160285713Y-36342379D01*
X160476189Y-36342379D01*
X160571427Y-36294760D01*
X160619046Y-36247141D01*
X160666665Y-36151903D01*
X160666665Y-35866189D01*
X160619046Y-35770951D01*
X160571427Y-35723332D01*
X160476189Y-35675713D01*
X160285713Y-35675713D01*
X160190475Y-35723332D01*
X159714284Y-36342379D02*
X159714284Y-35675713D01*
X159714284Y-35342379D02*
X159761903Y-35389999D01*
X159714284Y-35437618D01*
X159666665Y-35389999D01*
X159714284Y-35342379D01*
X159714284Y-35437618D01*
X159238094Y-35675713D02*
X159238094Y-36342379D01*
X159238094Y-35770951D02*
X159190475Y-35723332D01*
X159095237Y-35675713D01*
X158952379Y-35675713D01*
X158857141Y-35723332D01*
X158809522Y-35818570D01*
X158809522Y-36342379D01*
X157904760Y-36342379D02*
X157904760Y-35818570D01*
X157952379Y-35723332D01*
X158047618Y-35675713D01*
X158238094Y-35675713D01*
X158333332Y-35723332D01*
X157904760Y-36294760D02*
X157999999Y-36342379D01*
X158238094Y-36342379D01*
X158333332Y-36294760D01*
X158380951Y-36199522D01*
X158380951Y-36104284D01*
X158333332Y-36009046D01*
X158238094Y-35961427D01*
X157999999Y-35961427D01*
X157904760Y-35913808D01*
X157285713Y-36342379D02*
X157380951Y-36294760D01*
X157428570Y-36199522D01*
X157428570Y-35342379D01*
X155714284Y-36342379D02*
X155714284Y-35342379D01*
X155714284Y-36294760D02*
X155809522Y-36342379D01*
X155999999Y-36342379D01*
X156095237Y-36294760D01*
X156142856Y-36247141D01*
X156190475Y-36151903D01*
X156190475Y-35866189D01*
X156142856Y-35770951D01*
X156095237Y-35723332D01*
X155999999Y-35675713D01*
X155809522Y-35675713D01*
X155714284Y-35723332D01*
X154857141Y-36294760D02*
X154952379Y-36342379D01*
X155142856Y-36342379D01*
X155238094Y-36294760D01*
X155285713Y-36199522D01*
X155285713Y-35818570D01*
X155238094Y-35723332D01*
X155142856Y-35675713D01*
X154952379Y-35675713D01*
X154857141Y-35723332D01*
X154809522Y-35818570D01*
X154809522Y-35913808D01*
X155285713Y-36009046D01*
X154428570Y-36294760D02*
X154333332Y-36342379D01*
X154142856Y-36342379D01*
X154047618Y-36294760D01*
X153999999Y-36199522D01*
X153999999Y-36151903D01*
X154047618Y-36056665D01*
X154142856Y-36009046D01*
X154285713Y-36009046D01*
X154380951Y-35961427D01*
X154428570Y-35866189D01*
X154428570Y-35818570D01*
X154380951Y-35723332D01*
X154285713Y-35675713D01*
X154142856Y-35675713D01*
X154047618Y-35723332D01*
X153571427Y-36342379D02*
X153571427Y-35675713D01*
X153571427Y-35342379D02*
X153619046Y-35389999D01*
X153571427Y-35437618D01*
X153523808Y-35389999D01*
X153571427Y-35342379D01*
X153571427Y-35437618D01*
X152666665Y-35675713D02*
X152666665Y-36485237D01*
X152714284Y-36580475D01*
X152761903Y-36628094D01*
X152857141Y-36675713D01*
X152999999Y-36675713D01*
X153095237Y-36628094D01*
X152666665Y-36294760D02*
X152761903Y-36342379D01*
X152952379Y-36342379D01*
X153047618Y-36294760D01*
X153095237Y-36247141D01*
X153142856Y-36151903D01*
X153142856Y-35866189D01*
X153095237Y-35770951D01*
X153047618Y-35723332D01*
X152952379Y-35675713D01*
X152761903Y-35675713D01*
X152666665Y-35723332D01*
X152190475Y-35675713D02*
X152190475Y-36342379D01*
X152190475Y-35770951D02*
X152142856Y-35723332D01*
X152047618Y-35675713D01*
X151904760Y-35675713D01*
X151809522Y-35723332D01*
X151761903Y-35818570D01*
X151761903Y-36342379D01*
X150523808Y-36342379D02*
X150523808Y-35342379D01*
X150523808Y-35723332D02*
X150428570Y-35675713D01*
X150238094Y-35675713D01*
X150142856Y-35723332D01*
X150095237Y-35770951D01*
X150047618Y-35866189D01*
X150047618Y-36151903D01*
X150095237Y-36247141D01*
X150142856Y-36294760D01*
X150238094Y-36342379D01*
X150428570Y-36342379D01*
X150523808Y-36294760D01*
X149714284Y-35675713D02*
X149476189Y-36342379D01*
X149238094Y-35675713D02*
X149476189Y-36342379D01*
X149571427Y-36580475D01*
X149619046Y-36628094D01*
X149714284Y-36675713D01*
X148095237Y-36342379D02*
X148095237Y-35342379D01*
X147761903Y-36056665D01*
X147428570Y-35342379D01*
X147428570Y-36342379D01*
X146952379Y-36342379D02*
X146952379Y-35675713D01*
X146952379Y-35342379D02*
X146999999Y-35389999D01*
X146952379Y-35437618D01*
X146904760Y-35389999D01*
X146952379Y-35342379D01*
X146952379Y-35437618D01*
X146047618Y-36294760D02*
X146142856Y-36342379D01*
X146333332Y-36342379D01*
X146428570Y-36294760D01*
X146476189Y-36247141D01*
X146523808Y-36151903D01*
X146523808Y-35866189D01*
X146476189Y-35770951D01*
X146428570Y-35723332D01*
X146333332Y-35675713D01*
X146142856Y-35675713D01*
X146047618Y-35723332D01*
X145619046Y-36342379D02*
X145619046Y-35342379D01*
X145190475Y-36342379D02*
X145190475Y-35818570D01*
X145238094Y-35723332D01*
X145333332Y-35675713D01*
X145476189Y-35675713D01*
X145571427Y-35723332D01*
X145619046Y-35770951D01*
X144285713Y-36342379D02*
X144285713Y-35818570D01*
X144333332Y-35723332D01*
X144428570Y-35675713D01*
X144619046Y-35675713D01*
X144714284Y-35723332D01*
X144285713Y-36294760D02*
X144380951Y-36342379D01*
X144619046Y-36342379D01*
X144714284Y-36294760D01*
X144761903Y-36199522D01*
X144761903Y-36104284D01*
X144714284Y-36009046D01*
X144619046Y-35961427D01*
X144380951Y-35961427D01*
X144285713Y-35913808D01*
X143428570Y-36294760D02*
X143523808Y-36342379D01*
X143714284Y-36342379D01*
X143809522Y-36294760D01*
X143857141Y-36199522D01*
X143857141Y-35818570D01*
X143809522Y-35723332D01*
X143714284Y-35675713D01*
X143523808Y-35675713D01*
X143428570Y-35723332D01*
X143380951Y-35818570D01*
X143380951Y-35913808D01*
X143857141Y-36009046D01*
X142809522Y-36342379D02*
X142904760Y-36294760D01*
X142952379Y-36199522D01*
X142952379Y-35342379D01*
X141333332Y-35818570D02*
X141190475Y-35866189D01*
X141142856Y-35913808D01*
X141095237Y-36009046D01*
X141095237Y-36151903D01*
X141142856Y-36247141D01*
X141190475Y-36294760D01*
X141285713Y-36342379D01*
X141666665Y-36342379D01*
X141666665Y-35342379D01*
X141333332Y-35342379D01*
X141238094Y-35389999D01*
X141190475Y-35437618D01*
X141142856Y-35532856D01*
X141142856Y-35628094D01*
X141190475Y-35723332D01*
X141238094Y-35770951D01*
X141333332Y-35818570D01*
X141666665Y-35818570D01*
X140238094Y-36342379D02*
X140238094Y-35818570D01*
X140285713Y-35723332D01*
X140380951Y-35675713D01*
X140571427Y-35675713D01*
X140666665Y-35723332D01*
X140238094Y-36294760D02*
X140333332Y-36342379D01*
X140571427Y-36342379D01*
X140666665Y-36294760D01*
X140714284Y-36199522D01*
X140714284Y-36104284D01*
X140666665Y-36009046D01*
X140571427Y-35961427D01*
X140333332Y-35961427D01*
X140238094Y-35913808D01*
X139761903Y-36342379D02*
X139761903Y-35675713D01*
X139761903Y-35866189D02*
X139714284Y-35770951D01*
X139666665Y-35723332D01*
X139571427Y-35675713D01*
X139476189Y-35675713D01*
X139285713Y-35675713D02*
X138904760Y-35675713D01*
X139142856Y-35342379D02*
X139142856Y-36199522D01*
X139095237Y-36294760D01*
X138999999Y-36342379D01*
X138904760Y-36342379D01*
X138428570Y-36342379D02*
X138523808Y-36294760D01*
X138571427Y-36247141D01*
X138619046Y-36151903D01*
X138619046Y-35866189D01*
X138571427Y-35770951D01*
X138523808Y-35723332D01*
X138428570Y-35675713D01*
X138285713Y-35675713D01*
X138190475Y-35723332D01*
X138142856Y-35770951D01*
X138095237Y-35866189D01*
X138095237Y-36151903D01*
X138142856Y-36247141D01*
X138190475Y-36294760D01*
X138285713Y-36342379D01*
X138428570Y-36342379D01*
X137666665Y-35675713D02*
X137666665Y-36342379D01*
X137666665Y-35770951D02*
X137619046Y-35723332D01*
X137523808Y-35675713D01*
X137380951Y-35675713D01*
X137285713Y-35723332D01*
X137238094Y-35818570D01*
X137238094Y-36342379D01*
X161047618Y-37952379D02*
X161047618Y-36952379D01*
X160714284Y-37666665D01*
X160380951Y-36952379D01*
X160380951Y-37952379D01*
X159761903Y-37952379D02*
X159857141Y-37904760D01*
X159904760Y-37857141D01*
X159952379Y-37761903D01*
X159952379Y-37476189D01*
X159904760Y-37380951D01*
X159857141Y-37333332D01*
X159761903Y-37285713D01*
X159619046Y-37285713D01*
X159523808Y-37333332D01*
X159476189Y-37380951D01*
X159428570Y-37476189D01*
X159428570Y-37761903D01*
X159476189Y-37857141D01*
X159523808Y-37904760D01*
X159619046Y-37952379D01*
X159761903Y-37952379D01*
X158571427Y-37952379D02*
X158571427Y-36952379D01*
X158571427Y-37904760D02*
X158666665Y-37952379D01*
X158857141Y-37952379D01*
X158952379Y-37904760D01*
X158999999Y-37857141D01*
X159047618Y-37761903D01*
X159047618Y-37476189D01*
X158999999Y-37380951D01*
X158952379Y-37333332D01*
X158857141Y-37285713D01*
X158666665Y-37285713D01*
X158571427Y-37333332D01*
X158095237Y-37952379D02*
X158095237Y-37285713D01*
X158095237Y-36952379D02*
X158142856Y-36999999D01*
X158095237Y-37047618D01*
X158047618Y-36999999D01*
X158095237Y-36952379D01*
X158095237Y-37047618D01*
X157761903Y-37285713D02*
X157380951Y-37285713D01*
X157619046Y-37952379D02*
X157619046Y-37095237D01*
X157571427Y-36999999D01*
X157476189Y-36952379D01*
X157380951Y-36952379D01*
X157047618Y-37952379D02*
X157047618Y-37285713D01*
X157047618Y-36952379D02*
X157095237Y-36999999D01*
X157047618Y-37047618D01*
X156999999Y-36999999D01*
X157047618Y-36952379D01*
X157047618Y-37047618D01*
X156142856Y-37904760D02*
X156238094Y-37952379D01*
X156428570Y-37952379D01*
X156523808Y-37904760D01*
X156571427Y-37857141D01*
X156619046Y-37761903D01*
X156619046Y-37476189D01*
X156571427Y-37380951D01*
X156523808Y-37333332D01*
X156428570Y-37285713D01*
X156238094Y-37285713D01*
X156142856Y-37333332D01*
X155285713Y-37952379D02*
X155285713Y-37428570D01*
X155333332Y-37333332D01*
X155428570Y-37285713D01*
X155619046Y-37285713D01*
X155714284Y-37333332D01*
X155285713Y-37904760D02*
X155380951Y-37952379D01*
X155619046Y-37952379D01*
X155714284Y-37904760D01*
X155761903Y-37809522D01*
X155761903Y-37714284D01*
X155714284Y-37619046D01*
X155619046Y-37571427D01*
X155380951Y-37571427D01*
X155285713Y-37523808D01*
X154952379Y-37285713D02*
X154571427Y-37285713D01*
X154809522Y-36952379D02*
X154809522Y-37809522D01*
X154761903Y-37904760D01*
X154666665Y-37952379D01*
X154571427Y-37952379D01*
X154238094Y-37952379D02*
X154238094Y-37285713D01*
X154238094Y-36952379D02*
X154285713Y-36999999D01*
X154238094Y-37047618D01*
X154190475Y-36999999D01*
X154238094Y-36952379D01*
X154238094Y-37047618D01*
X153619046Y-37952379D02*
X153714284Y-37904760D01*
X153761903Y-37857141D01*
X153809522Y-37761903D01*
X153809522Y-37476189D01*
X153761903Y-37380951D01*
X153714284Y-37333332D01*
X153619046Y-37285713D01*
X153476189Y-37285713D01*
X153380951Y-37333332D01*
X153333332Y-37380951D01*
X153285713Y-37476189D01*
X153285713Y-37761903D01*
X153333332Y-37857141D01*
X153380951Y-37904760D01*
X153476189Y-37952379D01*
X153619046Y-37952379D01*
X152857141Y-37285713D02*
X152857141Y-37952379D01*
X152857141Y-37380951D02*
X152809522Y-37333332D01*
X152714284Y-37285713D01*
X152571427Y-37285713D01*
X152476189Y-37333332D01*
X152428570Y-37428570D01*
X152428570Y-37952379D01*
X151999999Y-37904760D02*
X151904760Y-37952379D01*
X151714284Y-37952379D01*
X151619046Y-37904760D01*
X151571427Y-37809522D01*
X151571427Y-37761903D01*
X151619046Y-37666665D01*
X151714284Y-37619046D01*
X151857141Y-37619046D01*
X151952379Y-37571427D01*
X151999999Y-37476189D01*
X151999999Y-37428570D01*
X151952379Y-37333332D01*
X151857141Y-37285713D01*
X151714284Y-37285713D01*
X151619046Y-37333332D01*
X150380951Y-37952379D02*
X150380951Y-36952379D01*
X150380951Y-37333332D02*
X150285713Y-37285713D01*
X150095237Y-37285713D01*
X149999999Y-37333332D01*
X149952379Y-37380951D01*
X149904760Y-37476189D01*
X149904760Y-37761903D01*
X149952379Y-37857141D01*
X149999999Y-37904760D01*
X150095237Y-37952379D01*
X150285713Y-37952379D01*
X150380951Y-37904760D01*
X149571427Y-37285713D02*
X149333332Y-37952379D01*
X149095237Y-37285713D02*
X149333332Y-37952379D01*
X149428570Y-38190475D01*
X149476189Y-38238094D01*
X149571427Y-38285713D01*
X147380951Y-37952379D02*
X147714284Y-37476189D01*
X147952379Y-37952379D02*
X147952379Y-36952379D01*
X147571427Y-36952379D01*
X147476189Y-36999999D01*
X147428570Y-37047618D01*
X147380951Y-37142856D01*
X147380951Y-37285713D01*
X147428570Y-37380951D01*
X147476189Y-37428570D01*
X147571427Y-37476189D01*
X147952379Y-37476189D01*
X146952379Y-37952379D02*
X146952379Y-37285713D01*
X146952379Y-36952379D02*
X146999999Y-36999999D01*
X146952379Y-37047618D01*
X146904760Y-36999999D01*
X146952379Y-36952379D01*
X146952379Y-37047618D01*
X146047618Y-37904760D02*
X146142856Y-37952379D01*
X146333332Y-37952379D01*
X146428570Y-37904760D01*
X146476189Y-37857141D01*
X146523808Y-37761903D01*
X146523808Y-37476189D01*
X146476189Y-37380951D01*
X146428570Y-37333332D01*
X146333332Y-37285713D01*
X146142856Y-37285713D01*
X146047618Y-37333332D01*
X145619046Y-37952379D02*
X145619046Y-36952379D01*
X145190475Y-37952379D02*
X145190475Y-37428570D01*
X145238094Y-37333332D01*
X145333332Y-37285713D01*
X145476189Y-37285713D01*
X145571427Y-37333332D01*
X145619046Y-37380951D01*
X143952379Y-37952379D02*
X143952379Y-36952379D01*
X143952379Y-37428570D02*
X143380951Y-37428570D01*
X143380951Y-37952379D02*
X143380951Y-36952379D01*
X142761903Y-37952379D02*
X142857141Y-37904760D01*
X142904760Y-37857141D01*
X142952379Y-37761903D01*
X142952379Y-37476189D01*
X142904760Y-37380951D01*
X142857141Y-37333332D01*
X142761903Y-37285713D01*
X142619046Y-37285713D01*
X142523808Y-37333332D01*
X142476189Y-37380951D01*
X142428570Y-37476189D01*
X142428570Y-37761903D01*
X142476189Y-37857141D01*
X142523808Y-37904760D01*
X142619046Y-37952379D01*
X142761903Y-37952379D01*
X141857141Y-37952379D02*
X141952379Y-37904760D01*
X141999999Y-37809522D01*
X141999999Y-36952379D01*
X141476189Y-37952379D02*
X141476189Y-37285713D01*
X141476189Y-37380951D02*
X141428570Y-37333332D01*
X141333332Y-37285713D01*
X141190475Y-37285713D01*
X141095237Y-37333332D01*
X141047618Y-37428570D01*
X141047618Y-37952379D01*
X141047618Y-37428570D02*
X140999999Y-37333332D01*
X140904760Y-37285713D01*
X140761903Y-37285713D01*
X140666665Y-37333332D01*
X140619046Y-37428570D01*
X140619046Y-37952379D01*
X139761903Y-37904760D02*
X139857141Y-37952379D01*
X140047618Y-37952379D01*
X140142856Y-37904760D01*
X140190475Y-37809522D01*
X140190475Y-37428570D01*
X140142856Y-37333332D01*
X140047618Y-37285713D01*
X139857141Y-37285713D01*
X139761903Y-37333332D01*
X139714284Y-37428570D01*
X139714284Y-37523808D01*
X140190475Y-37619046D01*
X139333332Y-37904760D02*
X139238094Y-37952379D01*
X139047618Y-37952379D01*
X138952379Y-37904760D01*
X138904760Y-37809522D01*
X138904760Y-37761903D01*
X138952379Y-37666665D01*
X139047618Y-37619046D01*
X139190475Y-37619046D01*
X139285713Y-37571427D01*
X139333332Y-37476189D01*
X139333332Y-37428570D01*
X139285713Y-37333332D01*
X139190475Y-37285713D01*
X139047618Y-37285713D01*
X138952379Y-37333332D01*
X153023808Y-39038570D02*
X153357141Y-39038570D01*
X153357141Y-39562379D02*
X153357141Y-38562379D01*
X152880951Y-38562379D01*
X152119046Y-39514760D02*
X152214284Y-39562379D01*
X152404760Y-39562379D01*
X152499999Y-39514760D01*
X152547618Y-39419522D01*
X152547618Y-39038570D01*
X152499999Y-38943332D01*
X152404760Y-38895713D01*
X152214284Y-38895713D01*
X152119046Y-38943332D01*
X152071427Y-39038570D01*
X152071427Y-39133808D01*
X152547618Y-39229046D01*
X151642856Y-39562379D02*
X151642856Y-38562379D01*
X151642856Y-38943332D02*
X151547618Y-38895713D01*
X151357141Y-38895713D01*
X151261903Y-38943332D01*
X151214284Y-38990951D01*
X151166665Y-39086189D01*
X151166665Y-39371903D01*
X151214284Y-39467141D01*
X151261903Y-39514760D01*
X151357141Y-39562379D01*
X151547618Y-39562379D01*
X151642856Y-39514760D01*
X150023808Y-38657618D02*
X149976189Y-38609999D01*
X149880951Y-38562379D01*
X149642856Y-38562379D01*
X149547618Y-38609999D01*
X149499999Y-38657618D01*
X149452379Y-38752856D01*
X149452379Y-38848094D01*
X149499999Y-38990951D01*
X150071427Y-39562379D01*
X149452379Y-39562379D01*
X148833332Y-38562379D02*
X148738094Y-38562379D01*
X148642856Y-38609999D01*
X148595237Y-38657618D01*
X148547618Y-38752856D01*
X148499999Y-38943332D01*
X148499999Y-39181427D01*
X148547618Y-39371903D01*
X148595237Y-39467141D01*
X148642856Y-39514760D01*
X148738094Y-39562379D01*
X148833332Y-39562379D01*
X148928570Y-39514760D01*
X148976189Y-39467141D01*
X149023808Y-39371903D01*
X149071427Y-39181427D01*
X149071427Y-38943332D01*
X149023808Y-38752856D01*
X148976189Y-38657618D01*
X148928570Y-38609999D01*
X148833332Y-38562379D01*
X148119046Y-38657618D02*
X148071427Y-38609999D01*
X147976189Y-38562379D01*
X147738094Y-38562379D01*
X147642856Y-38609999D01*
X147595237Y-38657618D01*
X147547618Y-38752856D01*
X147547618Y-38848094D01*
X147595237Y-38990951D01*
X148166665Y-39562379D01*
X147547618Y-39562379D01*
X147166665Y-38657618D02*
X147119046Y-38609999D01*
X147023808Y-38562379D01*
X146785713Y-38562379D01*
X146690475Y-38609999D01*
X146642856Y-38657618D01*
X146595237Y-38752856D01*
X146595237Y-38848094D01*
X146642856Y-38990951D01*
X147214284Y-39562379D01*
X146595237Y-39562379D01*
D10*
G04 #@! TO.C,TP1*
X168341570Y-58378570D02*
X168341570Y-58949999D01*
X168627284Y-58664284D02*
X168055856Y-58664284D01*
X168627284Y-59699999D02*
X168627284Y-59271427D01*
X168627284Y-59485713D02*
X167877284Y-59485713D01*
X167984427Y-59414284D01*
X168055856Y-59342856D01*
X168091570Y-59271427D01*
X167948713Y-59985713D02*
X167912999Y-60021427D01*
X167877284Y-60092856D01*
X167877284Y-60271427D01*
X167912999Y-60342856D01*
X167948713Y-60378570D01*
X168020141Y-60414284D01*
X168091570Y-60414284D01*
X168198713Y-60378570D01*
X168627284Y-59949999D01*
X168627284Y-60414284D01*
X167877284Y-60628570D02*
X168627284Y-60878570D01*
X167877284Y-61128570D01*
X166861284Y-58753570D02*
X166861284Y-59182141D01*
X167611284Y-58967856D02*
X166861284Y-58967856D01*
X167611284Y-59432141D02*
X166861284Y-59432141D01*
X166861284Y-59717856D01*
X166896999Y-59789284D01*
X166932713Y-59824999D01*
X167004141Y-59860713D01*
X167111284Y-59860713D01*
X167182713Y-59824999D01*
X167218427Y-59789284D01*
X167254141Y-59717856D01*
X167254141Y-59432141D01*
X167611284Y-60574999D02*
X167611284Y-60146427D01*
X167611284Y-60360713D02*
X166861284Y-60360713D01*
X166968427Y-60289284D01*
X167039856Y-60217856D01*
X167075570Y-60146427D01*
G04 #@! TO.C,TP3*
X166861284Y-71453570D02*
X166861284Y-71882141D01*
X167611284Y-71667856D02*
X166861284Y-71667856D01*
X167611284Y-72132141D02*
X166861284Y-72132141D01*
X166861284Y-72417856D01*
X166896999Y-72489284D01*
X166932713Y-72524999D01*
X167004141Y-72560713D01*
X167111284Y-72560713D01*
X167182713Y-72524999D01*
X167218427Y-72489284D01*
X167254141Y-72417856D01*
X167254141Y-72132141D01*
X166861284Y-72810713D02*
X166861284Y-73274999D01*
X167146999Y-73024999D01*
X167146999Y-73132141D01*
X167182713Y-73203570D01*
X167218427Y-73239284D01*
X167289856Y-73274999D01*
X167468427Y-73274999D01*
X167539856Y-73239284D01*
X167575570Y-73203570D01*
X167611284Y-73132141D01*
X167611284Y-72917856D01*
X167575570Y-72846427D01*
X167539856Y-72810713D01*
X168341570Y-71078570D02*
X168341570Y-71649999D01*
X168627284Y-72399999D02*
X168627284Y-71971427D01*
X168627284Y-72185713D02*
X167877284Y-72185713D01*
X167984427Y-72114284D01*
X168055856Y-72042856D01*
X168091570Y-71971427D01*
X167948713Y-72685713D02*
X167912999Y-72721427D01*
X167877284Y-72792856D01*
X167877284Y-72971427D01*
X167912999Y-73042856D01*
X167948713Y-73078570D01*
X168020141Y-73114284D01*
X168091570Y-73114284D01*
X168198713Y-73078570D01*
X168627284Y-72649999D01*
X168627284Y-73114284D01*
X167877284Y-73328570D02*
X168627284Y-73578570D01*
X167877284Y-73828570D01*
G04 #@! TO.C,TP2*
X166861284Y-65103570D02*
X166861284Y-65532141D01*
X167611284Y-65317856D02*
X166861284Y-65317856D01*
X167611284Y-65782141D02*
X166861284Y-65782141D01*
X166861284Y-66067856D01*
X166896999Y-66139284D01*
X166932713Y-66174999D01*
X167004141Y-66210713D01*
X167111284Y-66210713D01*
X167182713Y-66174999D01*
X167218427Y-66139284D01*
X167254141Y-66067856D01*
X167254141Y-65782141D01*
X166932713Y-66496427D02*
X166896999Y-66532141D01*
X166861284Y-66603570D01*
X166861284Y-66782141D01*
X166896999Y-66853570D01*
X166932713Y-66889284D01*
X167004141Y-66924999D01*
X167075570Y-66924999D01*
X167182713Y-66889284D01*
X167611284Y-66460713D01*
X167611284Y-66924999D01*
X167912999Y-65478570D02*
X167877284Y-65407141D01*
X167877284Y-65299999D01*
X167912999Y-65192856D01*
X167984427Y-65121427D01*
X168055856Y-65085713D01*
X168198713Y-65049999D01*
X168305856Y-65049999D01*
X168448713Y-65085713D01*
X168520141Y-65121427D01*
X168591570Y-65192856D01*
X168627284Y-65299999D01*
X168627284Y-65371427D01*
X168591570Y-65478570D01*
X168555856Y-65514284D01*
X168305856Y-65514284D01*
X168305856Y-65371427D01*
X168627284Y-65835713D02*
X167877284Y-65835713D01*
X168627284Y-66264284D01*
X167877284Y-66264284D01*
X168627284Y-66621427D02*
X167877284Y-66621427D01*
X167877284Y-66799999D01*
X167912999Y-66907141D01*
X167984427Y-66978570D01*
X168055856Y-67014284D01*
X168198713Y-67049999D01*
X168305856Y-67049999D01*
X168448713Y-67014284D01*
X168520141Y-66978570D01*
X168591570Y-66907141D01*
X168627284Y-66799999D01*
X168627284Y-66621427D01*
G04 #@! TO.C,U1*
X150581427Y-141634284D02*
X150581427Y-142241427D01*
X150545713Y-142312856D01*
X150509999Y-142348570D01*
X150438570Y-142384284D01*
X150295713Y-142384284D01*
X150224284Y-142348570D01*
X150188570Y-142312856D01*
X150152856Y-142241427D01*
X150152856Y-141634284D01*
X149402856Y-142384284D02*
X149831427Y-142384284D01*
X149617141Y-142384284D02*
X149617141Y-141634284D01*
X149688570Y-141741427D01*
X149759999Y-141812856D01*
X149831427Y-141848570D01*
X149599284Y-130505713D02*
X149599284Y-130934284D01*
X150349284Y-130719999D02*
X149599284Y-130719999D01*
X150349284Y-131541427D02*
X150349284Y-131184284D01*
X149599284Y-131184284D01*
X149599284Y-131934284D02*
X149599284Y-132005713D01*
X149634999Y-132077141D01*
X149670713Y-132112856D01*
X149742141Y-132148570D01*
X149884999Y-132184284D01*
X150063570Y-132184284D01*
X150206427Y-132148570D01*
X150277856Y-132112856D01*
X150313570Y-132077141D01*
X150349284Y-132005713D01*
X150349284Y-131934284D01*
X150313570Y-131862856D01*
X150277856Y-131827141D01*
X150206427Y-131791427D01*
X150063570Y-131755713D01*
X149884999Y-131755713D01*
X149742141Y-131791427D01*
X149670713Y-131827141D01*
X149634999Y-131862856D01*
X149599284Y-131934284D01*
X149599284Y-132434284D02*
X149599284Y-132934284D01*
X150349284Y-132612856D01*
X149849284Y-133541427D02*
X150349284Y-133541427D01*
X149563570Y-133362856D02*
X150099284Y-133184284D01*
X150099284Y-133648570D01*
G04 #@! TO.C,D1*
X160586570Y-82899284D02*
X160586570Y-82149284D01*
X160407999Y-82149284D01*
X160300856Y-82184999D01*
X160229427Y-82256427D01*
X160193713Y-82327856D01*
X160157999Y-82470713D01*
X160157999Y-82577856D01*
X160193713Y-82720713D01*
X160229427Y-82792141D01*
X160300856Y-82863570D01*
X160407999Y-82899284D01*
X160586570Y-82899284D01*
X159443713Y-82899284D02*
X159872284Y-82899284D01*
X159657999Y-82899284D02*
X159657999Y-82149284D01*
X159729427Y-82256427D01*
X159800856Y-82327856D01*
X159872284Y-82363570D01*
X156687141Y-82899284D02*
X157115713Y-82899284D01*
X156901427Y-82899284D02*
X156901427Y-82149284D01*
X156972856Y-82256427D01*
X157044284Y-82327856D01*
X157115713Y-82363570D01*
X156365713Y-82899284D02*
X156365713Y-82149284D01*
X155937141Y-82899284D01*
X155937141Y-82149284D01*
X155222856Y-82149284D02*
X155579999Y-82149284D01*
X155615713Y-82506427D01*
X155579999Y-82470713D01*
X155508570Y-82434999D01*
X155329999Y-82434999D01*
X155258570Y-82470713D01*
X155222856Y-82506427D01*
X155187141Y-82577856D01*
X155187141Y-82756427D01*
X155222856Y-82827856D01*
X155258570Y-82863570D01*
X155329999Y-82899284D01*
X155508570Y-82899284D01*
X155579999Y-82863570D01*
X155615713Y-82827856D01*
X154758570Y-82470713D02*
X154829999Y-82434999D01*
X154865713Y-82399284D01*
X154901427Y-82327856D01*
X154901427Y-82292141D01*
X154865713Y-82220713D01*
X154829999Y-82184999D01*
X154758570Y-82149284D01*
X154615713Y-82149284D01*
X154544284Y-82184999D01*
X154508570Y-82220713D01*
X154472856Y-82292141D01*
X154472856Y-82327856D01*
X154508570Y-82399284D01*
X154544284Y-82434999D01*
X154615713Y-82470713D01*
X154758570Y-82470713D01*
X154829999Y-82506427D01*
X154865713Y-82542141D01*
X154901427Y-82613570D01*
X154901427Y-82756427D01*
X154865713Y-82827856D01*
X154829999Y-82863570D01*
X154758570Y-82899284D01*
X154615713Y-82899284D01*
X154544284Y-82863570D01*
X154508570Y-82827856D01*
X154472856Y-82756427D01*
X154472856Y-82613570D01*
X154508570Y-82542141D01*
X154544284Y-82506427D01*
X154615713Y-82470713D01*
X153758570Y-82899284D02*
X154187141Y-82899284D01*
X153972856Y-82899284D02*
X153972856Y-82149284D01*
X154044284Y-82256427D01*
X154115713Y-82327856D01*
X154187141Y-82363570D01*
X153508570Y-82149284D02*
X153008570Y-82149284D01*
X153329999Y-82899284D01*
X150196427Y-87539284D02*
X150196427Y-86789284D01*
X149767856Y-87539284D02*
X150089284Y-87110713D01*
X149767856Y-86789284D02*
X150196427Y-87217856D01*
G04 #@! TO.C,R5*
X137424999Y-103389284D02*
X137674999Y-103032141D01*
X137853570Y-103389284D02*
X137853570Y-102639284D01*
X137567856Y-102639284D01*
X137496427Y-102674999D01*
X137460713Y-102710713D01*
X137424999Y-102782141D01*
X137424999Y-102889284D01*
X137460713Y-102960713D01*
X137496427Y-102996427D01*
X137567856Y-103032141D01*
X137853570Y-103032141D01*
X136746427Y-102639284D02*
X137103570Y-102639284D01*
X137139284Y-102996427D01*
X137103570Y-102960713D01*
X137032141Y-102924999D01*
X136853570Y-102924999D01*
X136782141Y-102960713D01*
X136746427Y-102996427D01*
X136710713Y-103067856D01*
X136710713Y-103246427D01*
X136746427Y-103317856D01*
X136782141Y-103353570D01*
X136853570Y-103389284D01*
X137032141Y-103389284D01*
X137103570Y-103353570D01*
X137139284Y-103317856D01*
X138103570Y-105759284D02*
X138532141Y-105759284D01*
X138317856Y-105759284D02*
X138317856Y-105009284D01*
X138389284Y-105116427D01*
X138460713Y-105187856D01*
X138532141Y-105223570D01*
X137639284Y-105009284D02*
X137567856Y-105009284D01*
X137496427Y-105044999D01*
X137460713Y-105080713D01*
X137424999Y-105152141D01*
X137389284Y-105294999D01*
X137389284Y-105473570D01*
X137424999Y-105616427D01*
X137460713Y-105687856D01*
X137496427Y-105723570D01*
X137567856Y-105759284D01*
X137639284Y-105759284D01*
X137710713Y-105723570D01*
X137746427Y-105687856D01*
X137782141Y-105616427D01*
X137817856Y-105473570D01*
X137817856Y-105294999D01*
X137782141Y-105152141D01*
X137746427Y-105080713D01*
X137710713Y-105044999D01*
X137639284Y-105009284D01*
X136924999Y-105009284D02*
X136853570Y-105009284D01*
X136782141Y-105044999D01*
X136746427Y-105080713D01*
X136710713Y-105152141D01*
X136674999Y-105294999D01*
X136674999Y-105473570D01*
X136710713Y-105616427D01*
X136746427Y-105687856D01*
X136782141Y-105723570D01*
X136853570Y-105759284D01*
X136924999Y-105759284D01*
X136996427Y-105723570D01*
X137032141Y-105687856D01*
X137067856Y-105616427D01*
X137103570Y-105473570D01*
X137103570Y-105294999D01*
X137067856Y-105152141D01*
X137032141Y-105080713D01*
X136996427Y-105044999D01*
X136924999Y-105009284D01*
X136353570Y-105759284D02*
X136353570Y-105009284D01*
X136282141Y-105473570D02*
X136067856Y-105759284D01*
X136067856Y-105259284D02*
X136353570Y-105544999D01*
G04 #@! TO.C,R8*
X137424999Y-137679284D02*
X137674999Y-137322141D01*
X137853570Y-137679284D02*
X137853570Y-136929284D01*
X137567856Y-136929284D01*
X137496427Y-136964999D01*
X137460713Y-137000713D01*
X137424999Y-137072141D01*
X137424999Y-137179284D01*
X137460713Y-137250713D01*
X137496427Y-137286427D01*
X137567856Y-137322141D01*
X137853570Y-137322141D01*
X136996427Y-137250713D02*
X137067856Y-137214999D01*
X137103570Y-137179284D01*
X137139284Y-137107856D01*
X137139284Y-137072141D01*
X137103570Y-137000713D01*
X137067856Y-136964999D01*
X136996427Y-136929284D01*
X136853570Y-136929284D01*
X136782141Y-136964999D01*
X136746427Y-137000713D01*
X136710713Y-137072141D01*
X136710713Y-137107856D01*
X136746427Y-137179284D01*
X136782141Y-137214999D01*
X136853570Y-137250713D01*
X136996427Y-137250713D01*
X137067856Y-137286427D01*
X137103570Y-137322141D01*
X137139284Y-137393570D01*
X137139284Y-137536427D01*
X137103570Y-137607856D01*
X137067856Y-137643570D01*
X136996427Y-137679284D01*
X136853570Y-137679284D01*
X136782141Y-137643570D01*
X136746427Y-137607856D01*
X136710713Y-137536427D01*
X136710713Y-137393570D01*
X136746427Y-137322141D01*
X136782141Y-137286427D01*
X136853570Y-137250713D01*
X138353570Y-139370713D02*
X138317856Y-139334999D01*
X138246427Y-139299284D01*
X138067856Y-139299284D01*
X137996427Y-139334999D01*
X137960713Y-139370713D01*
X137924999Y-139442141D01*
X137924999Y-139513570D01*
X137960713Y-139620713D01*
X138389284Y-140049284D01*
X137924999Y-140049284D01*
X137603570Y-139977856D02*
X137567856Y-140013570D01*
X137603570Y-140049284D01*
X137639284Y-140013570D01*
X137603570Y-139977856D01*
X137603570Y-140049284D01*
X137282141Y-139370713D02*
X137246427Y-139334999D01*
X137174999Y-139299284D01*
X136996427Y-139299284D01*
X136924999Y-139334999D01*
X136889284Y-139370713D01*
X136853570Y-139442141D01*
X136853570Y-139513570D01*
X136889284Y-139620713D01*
X137317856Y-140049284D01*
X136853570Y-140049284D01*
X136532141Y-140049284D02*
X136532141Y-139299284D01*
X136460713Y-139763570D02*
X136246427Y-140049284D01*
X136246427Y-139549284D02*
X136532141Y-139834999D01*
G04 #@! TO.C,C5*
X160784999Y-132897856D02*
X160820713Y-132933570D01*
X160927856Y-132969284D01*
X160999284Y-132969284D01*
X161106427Y-132933570D01*
X161177856Y-132862141D01*
X161213570Y-132790713D01*
X161249284Y-132647856D01*
X161249284Y-132540713D01*
X161213570Y-132397856D01*
X161177856Y-132326427D01*
X161106427Y-132254999D01*
X160999284Y-132219284D01*
X160927856Y-132219284D01*
X160820713Y-132254999D01*
X160784999Y-132290713D01*
X160106427Y-132219284D02*
X160463570Y-132219284D01*
X160499284Y-132576427D01*
X160463570Y-132540713D01*
X160392141Y-132504999D01*
X160213570Y-132504999D01*
X160142141Y-132540713D01*
X160106427Y-132576427D01*
X160070713Y-132647856D01*
X160070713Y-132826427D01*
X160106427Y-132897856D01*
X160142141Y-132933570D01*
X160213570Y-132969284D01*
X160392141Y-132969284D01*
X160463570Y-132933570D01*
X160499284Y-132897856D01*
X158320713Y-132969284D02*
X158749284Y-132969284D01*
X158534999Y-132969284D02*
X158534999Y-132219284D01*
X158606427Y-132326427D01*
X158677856Y-132397856D01*
X158749284Y-132433570D01*
X157856427Y-132219284D02*
X157784999Y-132219284D01*
X157713570Y-132254999D01*
X157677856Y-132290713D01*
X157642141Y-132362141D01*
X157606427Y-132504999D01*
X157606427Y-132683570D01*
X157642141Y-132826427D01*
X157677856Y-132897856D01*
X157713570Y-132933570D01*
X157784999Y-132969284D01*
X157856427Y-132969284D01*
X157927856Y-132933570D01*
X157963570Y-132897856D01*
X157999284Y-132826427D01*
X158034999Y-132683570D01*
X158034999Y-132504999D01*
X157999284Y-132362141D01*
X157963570Y-132290713D01*
X157927856Y-132254999D01*
X157856427Y-132219284D01*
X157142141Y-132219284D02*
X157070713Y-132219284D01*
X156999284Y-132254999D01*
X156963570Y-132290713D01*
X156927856Y-132362141D01*
X156892141Y-132504999D01*
X156892141Y-132683570D01*
X156927856Y-132826427D01*
X156963570Y-132897856D01*
X156999284Y-132933570D01*
X157070713Y-132969284D01*
X157142141Y-132969284D01*
X157213570Y-132933570D01*
X157249284Y-132897856D01*
X157284999Y-132826427D01*
X157320713Y-132683570D01*
X157320713Y-132504999D01*
X157284999Y-132362141D01*
X157249284Y-132290713D01*
X157213570Y-132254999D01*
X157142141Y-132219284D01*
X156570713Y-132469284D02*
X156570713Y-132969284D01*
X156570713Y-132540713D02*
X156534999Y-132504999D01*
X156463570Y-132469284D01*
X156356427Y-132469284D01*
X156284999Y-132504999D01*
X156249284Y-132576427D01*
X156249284Y-132969284D01*
X155642141Y-132576427D02*
X155892141Y-132576427D01*
X155892141Y-132969284D02*
X155892141Y-132219284D01*
X155534999Y-132219284D01*
G04 #@! TO.C,J4*
X140772379Y-172396665D02*
X141486665Y-172396665D01*
X141629522Y-172349046D01*
X141724760Y-172253808D01*
X141772379Y-172110951D01*
X141772379Y-172015713D01*
X141105713Y-173301427D02*
X141772379Y-173301427D01*
X140724760Y-173063332D02*
X141439046Y-172825237D01*
X141439046Y-173444284D01*
G04 #@! TO.C,R6*
X137424999Y-122396284D02*
X137674999Y-122039141D01*
X137853570Y-122396284D02*
X137853570Y-121646284D01*
X137567856Y-121646284D01*
X137496427Y-121681999D01*
X137460713Y-121717713D01*
X137424999Y-121789141D01*
X137424999Y-121896284D01*
X137460713Y-121967713D01*
X137496427Y-122003427D01*
X137567856Y-122039141D01*
X137853570Y-122039141D01*
X136782141Y-121646284D02*
X136924999Y-121646284D01*
X136996427Y-121681999D01*
X137032141Y-121717713D01*
X137103570Y-121824856D01*
X137139284Y-121967713D01*
X137139284Y-122253427D01*
X137103570Y-122324856D01*
X137067856Y-122360570D01*
X136996427Y-122396284D01*
X136853570Y-122396284D01*
X136782141Y-122360570D01*
X136746427Y-122324856D01*
X136710713Y-122253427D01*
X136710713Y-122074856D01*
X136746427Y-122003427D01*
X136782141Y-121967713D01*
X136853570Y-121931999D01*
X136996427Y-121931999D01*
X137067856Y-121967713D01*
X137103570Y-122003427D01*
X137139284Y-122074856D01*
X137746427Y-124809284D02*
X138174999Y-124809284D01*
X137960713Y-124809284D02*
X137960713Y-124059284D01*
X138032141Y-124166427D01*
X138103570Y-124237856D01*
X138174999Y-124273570D01*
X137317856Y-124380713D02*
X137389284Y-124344999D01*
X137424999Y-124309284D01*
X137460713Y-124237856D01*
X137460713Y-124202141D01*
X137424999Y-124130713D01*
X137389284Y-124094999D01*
X137317856Y-124059284D01*
X137174999Y-124059284D01*
X137103570Y-124094999D01*
X137067856Y-124130713D01*
X137032141Y-124202141D01*
X137032141Y-124237856D01*
X137067856Y-124309284D01*
X137103570Y-124344999D01*
X137174999Y-124380713D01*
X137317856Y-124380713D01*
X137389284Y-124416427D01*
X137424999Y-124452141D01*
X137460713Y-124523570D01*
X137460713Y-124666427D01*
X137424999Y-124737856D01*
X137389284Y-124773570D01*
X137317856Y-124809284D01*
X137174999Y-124809284D01*
X137103570Y-124773570D01*
X137067856Y-124737856D01*
X137032141Y-124666427D01*
X137032141Y-124523570D01*
X137067856Y-124452141D01*
X137103570Y-124416427D01*
X137174999Y-124380713D01*
X136710713Y-124809284D02*
X136710713Y-124059284D01*
X136639284Y-124523570D02*
X136424999Y-124809284D01*
X136424999Y-124309284D02*
X136710713Y-124594999D01*
G04 #@! TO.C,R14*
X163182141Y-147839284D02*
X163432141Y-147482141D01*
X163610713Y-147839284D02*
X163610713Y-147089284D01*
X163324999Y-147089284D01*
X163253570Y-147124999D01*
X163217856Y-147160713D01*
X163182141Y-147232141D01*
X163182141Y-147339284D01*
X163217856Y-147410713D01*
X163253570Y-147446427D01*
X163324999Y-147482141D01*
X163610713Y-147482141D01*
X162467856Y-147839284D02*
X162896427Y-147839284D01*
X162682141Y-147839284D02*
X162682141Y-147089284D01*
X162753570Y-147196427D01*
X162824999Y-147267856D01*
X162896427Y-147303570D01*
X161824999Y-147339284D02*
X161824999Y-147839284D01*
X162003570Y-147053570D02*
X162182141Y-147589284D01*
X161717856Y-147589284D01*
X163753570Y-149530713D02*
X163717856Y-149494999D01*
X163646427Y-149459284D01*
X163467856Y-149459284D01*
X163396427Y-149494999D01*
X163360713Y-149530713D01*
X163324999Y-149602141D01*
X163324999Y-149673570D01*
X163360713Y-149780713D01*
X163789284Y-150209284D01*
X163324999Y-150209284D01*
X163003570Y-150137856D02*
X162967856Y-150173570D01*
X163003570Y-150209284D01*
X163039284Y-150173570D01*
X163003570Y-150137856D01*
X163003570Y-150209284D01*
X162682141Y-149530713D02*
X162646427Y-149494999D01*
X162574999Y-149459284D01*
X162396427Y-149459284D01*
X162324999Y-149494999D01*
X162289284Y-149530713D01*
X162253570Y-149602141D01*
X162253570Y-149673570D01*
X162289284Y-149780713D01*
X162717856Y-150209284D01*
X162253570Y-150209284D01*
X161932141Y-150209284D02*
X161932141Y-149459284D01*
X161860713Y-149923570D02*
X161646427Y-150209284D01*
X161646427Y-149709284D02*
X161932141Y-149994999D01*
G04 #@! TO.C,R7*
X148899284Y-115454999D02*
X148542141Y-115204999D01*
X148899284Y-115026427D02*
X148149284Y-115026427D01*
X148149284Y-115312141D01*
X148184999Y-115383570D01*
X148220713Y-115419284D01*
X148292141Y-115454999D01*
X148399284Y-115454999D01*
X148470713Y-115419284D01*
X148506427Y-115383570D01*
X148542141Y-115312141D01*
X148542141Y-115026427D01*
X148149284Y-115704999D02*
X148149284Y-116204999D01*
X148899284Y-115883570D01*
X146529284Y-115133570D02*
X146529284Y-114704999D01*
X146529284Y-114919284D02*
X145779284Y-114919284D01*
X145886427Y-114847856D01*
X145957856Y-114776427D01*
X145993570Y-114704999D01*
X145779284Y-115597856D02*
X145779284Y-115669284D01*
X145814999Y-115740713D01*
X145850713Y-115776427D01*
X145922141Y-115812141D01*
X146064999Y-115847856D01*
X146243570Y-115847856D01*
X146386427Y-115812141D01*
X146457856Y-115776427D01*
X146493570Y-115740713D01*
X146529284Y-115669284D01*
X146529284Y-115597856D01*
X146493570Y-115526427D01*
X146457856Y-115490713D01*
X146386427Y-115454999D01*
X146243570Y-115419284D01*
X146064999Y-115419284D01*
X145922141Y-115454999D01*
X145850713Y-115490713D01*
X145814999Y-115526427D01*
X145779284Y-115597856D01*
X146529284Y-116169284D02*
X145779284Y-116169284D01*
X146243570Y-116240713D02*
X146529284Y-116454999D01*
X146029284Y-116454999D02*
X146314999Y-116169284D01*
G04 #@! TO.C,R2*
X157744999Y-58896284D02*
X157994999Y-58539141D01*
X158173570Y-58896284D02*
X158173570Y-58146284D01*
X157887856Y-58146284D01*
X157816427Y-58181999D01*
X157780713Y-58217713D01*
X157744999Y-58289141D01*
X157744999Y-58396284D01*
X157780713Y-58467713D01*
X157816427Y-58503427D01*
X157887856Y-58539141D01*
X158173570Y-58539141D01*
X157459284Y-58217713D02*
X157423570Y-58181999D01*
X157352141Y-58146284D01*
X157173570Y-58146284D01*
X157102141Y-58181999D01*
X157066427Y-58217713D01*
X157030713Y-58289141D01*
X157030713Y-58360570D01*
X157066427Y-58467713D01*
X157494999Y-58896284D01*
X157030713Y-58896284D01*
X158137856Y-61309284D02*
X158566427Y-61309284D01*
X158352141Y-61309284D02*
X158352141Y-60559284D01*
X158423570Y-60666427D01*
X158494999Y-60737856D01*
X158566427Y-60773570D01*
X157673570Y-60559284D02*
X157602141Y-60559284D01*
X157530713Y-60594999D01*
X157494999Y-60630713D01*
X157459284Y-60702141D01*
X157423570Y-60844999D01*
X157423570Y-61023570D01*
X157459284Y-61166427D01*
X157494999Y-61237856D01*
X157530713Y-61273570D01*
X157602141Y-61309284D01*
X157673570Y-61309284D01*
X157744999Y-61273570D01*
X157780713Y-61237856D01*
X157816427Y-61166427D01*
X157852141Y-61023570D01*
X157852141Y-60844999D01*
X157816427Y-60702141D01*
X157780713Y-60630713D01*
X157744999Y-60594999D01*
X157673570Y-60559284D01*
X156673570Y-61309284D02*
X156923570Y-60952141D01*
X157102141Y-61309284D02*
X157102141Y-60559284D01*
X156816427Y-60559284D01*
X156744999Y-60594999D01*
X156709284Y-60630713D01*
X156673570Y-60702141D01*
X156673570Y-60809284D01*
X156709284Y-60880713D01*
X156744999Y-60916427D01*
X156816427Y-60952141D01*
X157102141Y-60952141D01*
G04 #@! TO.C,C2*
X151124999Y-93667856D02*
X151160713Y-93703570D01*
X151267856Y-93739284D01*
X151339284Y-93739284D01*
X151446427Y-93703570D01*
X151517856Y-93632141D01*
X151553570Y-93560713D01*
X151589284Y-93417856D01*
X151589284Y-93310713D01*
X151553570Y-93167856D01*
X151517856Y-93096427D01*
X151446427Y-93024999D01*
X151339284Y-92989284D01*
X151267856Y-92989284D01*
X151160713Y-93024999D01*
X151124999Y-93060713D01*
X150839284Y-93060713D02*
X150803570Y-93024999D01*
X150732141Y-92989284D01*
X150553570Y-92989284D01*
X150482141Y-93024999D01*
X150446427Y-93060713D01*
X150410713Y-93132141D01*
X150410713Y-93203570D01*
X150446427Y-93310713D01*
X150874999Y-93739284D01*
X150410713Y-93739284D01*
X146803570Y-93639284D02*
X147232141Y-93639284D01*
X147017856Y-93639284D02*
X147017856Y-92889284D01*
X147089284Y-92996427D01*
X147160713Y-93067856D01*
X147232141Y-93103570D01*
X146339284Y-92889284D02*
X146267856Y-92889284D01*
X146196427Y-92924999D01*
X146160713Y-92960713D01*
X146124999Y-93032141D01*
X146089284Y-93174999D01*
X146089284Y-93353570D01*
X146124999Y-93496427D01*
X146160713Y-93567856D01*
X146196427Y-93603570D01*
X146267856Y-93639284D01*
X146339284Y-93639284D01*
X146410713Y-93603570D01*
X146446427Y-93567856D01*
X146482141Y-93496427D01*
X146517856Y-93353570D01*
X146517856Y-93174999D01*
X146482141Y-93032141D01*
X146446427Y-92960713D01*
X146410713Y-92924999D01*
X146339284Y-92889284D01*
X145446427Y-93139284D02*
X145446427Y-93639284D01*
X145767856Y-93139284D02*
X145767856Y-93532141D01*
X145732141Y-93603570D01*
X145660713Y-93639284D01*
X145553570Y-93639284D01*
X145482141Y-93603570D01*
X145446427Y-93567856D01*
X144839284Y-93246427D02*
X145089284Y-93246427D01*
X145089284Y-93639284D02*
X145089284Y-92889284D01*
X144732141Y-92889284D01*
G04 #@! TO.C,J2*
X162441999Y-87483284D02*
X162441999Y-88018999D01*
X162477713Y-88126141D01*
X162549141Y-88197570D01*
X162656284Y-88233284D01*
X162727713Y-88233284D01*
X162120570Y-87554713D02*
X162084856Y-87518999D01*
X162013427Y-87483284D01*
X161834856Y-87483284D01*
X161763427Y-87518999D01*
X161727713Y-87554713D01*
X161691999Y-87626141D01*
X161691999Y-87697570D01*
X161727713Y-87804713D01*
X162156284Y-88233284D01*
X161691999Y-88233284D01*
X169271903Y-103031427D02*
X168509999Y-103031427D01*
X167509999Y-103412379D02*
X168081427Y-103412379D01*
X167795713Y-103412379D02*
X167795713Y-102412379D01*
X167890951Y-102555237D01*
X167986189Y-102650475D01*
X168081427Y-102698094D01*
X167129046Y-102507618D02*
X167081427Y-102459999D01*
X166986189Y-102412379D01*
X166748094Y-102412379D01*
X166652856Y-102459999D01*
X166605237Y-102507618D01*
X166557618Y-102602856D01*
X166557618Y-102698094D01*
X166605237Y-102840951D01*
X167176665Y-103412379D01*
X166557618Y-103412379D01*
X166271903Y-102412379D02*
X165938570Y-103412379D01*
X165605237Y-102412379D01*
X169271903Y-78831427D02*
X168509999Y-78831427D01*
X168890951Y-79212379D02*
X168890951Y-78450475D01*
X167509999Y-79212379D02*
X168081427Y-79212379D01*
X167795713Y-79212379D02*
X167795713Y-78212379D01*
X167890951Y-78355237D01*
X167986189Y-78450475D01*
X168081427Y-78498094D01*
X167129046Y-78307618D02*
X167081427Y-78259999D01*
X166986189Y-78212379D01*
X166748094Y-78212379D01*
X166652856Y-78259999D01*
X166605237Y-78307618D01*
X166557618Y-78402856D01*
X166557618Y-78498094D01*
X166605237Y-78640951D01*
X167176665Y-79212379D01*
X166557618Y-79212379D01*
X166271903Y-78212379D02*
X165938570Y-79212379D01*
X165605237Y-78212379D01*
X171581427Y-101912379D02*
X171914760Y-101436189D01*
X172152856Y-101912379D02*
X172152856Y-100912379D01*
X171771903Y-100912379D01*
X171676665Y-100959999D01*
X171629046Y-101007618D01*
X171581427Y-101102856D01*
X171581427Y-101245713D01*
X171629046Y-101340951D01*
X171676665Y-101388570D01*
X171771903Y-101436189D01*
X172152856Y-101436189D01*
X171152856Y-101388570D02*
X170819522Y-101388570D01*
X170676665Y-101912379D02*
X171152856Y-101912379D01*
X171152856Y-100912379D01*
X170676665Y-100912379D01*
X170248094Y-101912379D02*
X170248094Y-100912379D01*
X170009999Y-100912379D01*
X169867141Y-100959999D01*
X169771903Y-101055237D01*
X169724284Y-101150475D01*
X169676665Y-101340951D01*
X169676665Y-101483808D01*
X169724284Y-101674284D01*
X169771903Y-101769522D01*
X169867141Y-101864760D01*
X170009999Y-101912379D01*
X170248094Y-101912379D01*
X168533808Y-101864760D02*
X168390951Y-101912379D01*
X168152856Y-101912379D01*
X168057618Y-101864760D01*
X168009999Y-101817141D01*
X167962379Y-101721903D01*
X167962379Y-101626665D01*
X168009999Y-101531427D01*
X168057618Y-101483808D01*
X168152856Y-101436189D01*
X168343332Y-101388570D01*
X168438570Y-101340951D01*
X168486189Y-101293332D01*
X168533808Y-101198094D01*
X168533808Y-101102856D01*
X168486189Y-101007618D01*
X168438570Y-100959999D01*
X168343332Y-100912379D01*
X168105237Y-100912379D01*
X167962379Y-100959999D01*
X167676665Y-100912379D02*
X167105237Y-100912379D01*
X167390951Y-101912379D02*
X167390951Y-100912379D01*
X166200475Y-101912379D02*
X166533808Y-101436189D01*
X166771903Y-101912379D02*
X166771903Y-100912379D01*
X166390951Y-100912379D01*
X166295713Y-100959999D01*
X166248094Y-101007618D01*
X166200475Y-101102856D01*
X166200475Y-101245713D01*
X166248094Y-101340951D01*
X166295713Y-101388570D01*
X166390951Y-101436189D01*
X166771903Y-101436189D01*
X165771903Y-101912379D02*
X165771903Y-100912379D01*
X165295713Y-101912379D02*
X165295713Y-100912379D01*
X164914760Y-100912379D01*
X164819522Y-100959999D01*
X164771903Y-101007618D01*
X164724284Y-101102856D01*
X164724284Y-101245713D01*
X164771903Y-101340951D01*
X164819522Y-101388570D01*
X164914760Y-101436189D01*
X165295713Y-101436189D01*
X164295713Y-101388570D02*
X163962379Y-101388570D01*
X163819522Y-101912379D02*
X164295713Y-101912379D01*
X164295713Y-100912379D01*
X163819522Y-100912379D01*
G04 #@! TO.C,R4*
X137424999Y-98266284D02*
X137674999Y-97909141D01*
X137853570Y-98266284D02*
X137853570Y-97516284D01*
X137567856Y-97516284D01*
X137496427Y-97551999D01*
X137460713Y-97587713D01*
X137424999Y-97659141D01*
X137424999Y-97766284D01*
X137460713Y-97837713D01*
X137496427Y-97873427D01*
X137567856Y-97909141D01*
X137853570Y-97909141D01*
X136782141Y-97766284D02*
X136782141Y-98266284D01*
X136960713Y-97480570D02*
X137139284Y-98016284D01*
X136674999Y-98016284D01*
X138103570Y-100679284D02*
X138532141Y-100679284D01*
X138317856Y-100679284D02*
X138317856Y-99929284D01*
X138389284Y-100036427D01*
X138460713Y-100107856D01*
X138532141Y-100143570D01*
X137639284Y-99929284D02*
X137567856Y-99929284D01*
X137496427Y-99964999D01*
X137460713Y-100000713D01*
X137424999Y-100072141D01*
X137389284Y-100214999D01*
X137389284Y-100393570D01*
X137424999Y-100536427D01*
X137460713Y-100607856D01*
X137496427Y-100643570D01*
X137567856Y-100679284D01*
X137639284Y-100679284D01*
X137710713Y-100643570D01*
X137746427Y-100607856D01*
X137782141Y-100536427D01*
X137817856Y-100393570D01*
X137817856Y-100214999D01*
X137782141Y-100072141D01*
X137746427Y-100000713D01*
X137710713Y-99964999D01*
X137639284Y-99929284D01*
X136924999Y-99929284D02*
X136853570Y-99929284D01*
X136782141Y-99964999D01*
X136746427Y-100000713D01*
X136710713Y-100072141D01*
X136674999Y-100214999D01*
X136674999Y-100393570D01*
X136710713Y-100536427D01*
X136746427Y-100607856D01*
X136782141Y-100643570D01*
X136853570Y-100679284D01*
X136924999Y-100679284D01*
X136996427Y-100643570D01*
X137032141Y-100607856D01*
X137067856Y-100536427D01*
X137103570Y-100393570D01*
X137103570Y-100214999D01*
X137067856Y-100072141D01*
X137032141Y-100000713D01*
X136996427Y-99964999D01*
X136924999Y-99929284D01*
X136353570Y-100679284D02*
X136353570Y-99929284D01*
X136282141Y-100393570D02*
X136067856Y-100679284D01*
X136067856Y-100179284D02*
X136353570Y-100464999D01*
G04 #@! TO.C,C3*
X161284999Y-93667856D02*
X161320713Y-93703570D01*
X161427856Y-93739284D01*
X161499284Y-93739284D01*
X161606427Y-93703570D01*
X161677856Y-93632141D01*
X161713570Y-93560713D01*
X161749284Y-93417856D01*
X161749284Y-93310713D01*
X161713570Y-93167856D01*
X161677856Y-93096427D01*
X161606427Y-93024999D01*
X161499284Y-92989284D01*
X161427856Y-92989284D01*
X161320713Y-93024999D01*
X161284999Y-93060713D01*
X161034999Y-92989284D02*
X160570713Y-92989284D01*
X160820713Y-93274999D01*
X160713570Y-93274999D01*
X160642141Y-93310713D01*
X160606427Y-93346427D01*
X160570713Y-93417856D01*
X160570713Y-93596427D01*
X160606427Y-93667856D01*
X160642141Y-93703570D01*
X160713570Y-93739284D01*
X160927856Y-93739284D01*
X160999284Y-93703570D01*
X161034999Y-93667856D01*
X156963570Y-93639284D02*
X157392141Y-93639284D01*
X157177856Y-93639284D02*
X157177856Y-92889284D01*
X157249284Y-92996427D01*
X157320713Y-93067856D01*
X157392141Y-93103570D01*
X156499284Y-92889284D02*
X156427856Y-92889284D01*
X156356427Y-92924999D01*
X156320713Y-92960713D01*
X156284999Y-93032141D01*
X156249284Y-93174999D01*
X156249284Y-93353570D01*
X156284999Y-93496427D01*
X156320713Y-93567856D01*
X156356427Y-93603570D01*
X156427856Y-93639284D01*
X156499284Y-93639284D01*
X156570713Y-93603570D01*
X156606427Y-93567856D01*
X156642141Y-93496427D01*
X156677856Y-93353570D01*
X156677856Y-93174999D01*
X156642141Y-93032141D01*
X156606427Y-92960713D01*
X156570713Y-92924999D01*
X156499284Y-92889284D01*
X155606427Y-93139284D02*
X155606427Y-93639284D01*
X155927856Y-93139284D02*
X155927856Y-93532141D01*
X155892141Y-93603570D01*
X155820713Y-93639284D01*
X155713570Y-93639284D01*
X155642141Y-93603570D01*
X155606427Y-93567856D01*
X154999284Y-93246427D02*
X155249284Y-93246427D01*
X155249284Y-93639284D02*
X155249284Y-92889284D01*
X154892141Y-92889284D01*
G04 #@! TO.C,R1*
X151439284Y-76084999D02*
X151082141Y-75834999D01*
X151439284Y-75656427D02*
X150689284Y-75656427D01*
X150689284Y-75942141D01*
X150724999Y-76013570D01*
X150760713Y-76049284D01*
X150832141Y-76084999D01*
X150939284Y-76084999D01*
X151010713Y-76049284D01*
X151046427Y-76013570D01*
X151082141Y-75942141D01*
X151082141Y-75656427D01*
X151439284Y-76799284D02*
X151439284Y-76370713D01*
X151439284Y-76584999D02*
X150689284Y-76584999D01*
X150796427Y-76513570D01*
X150867856Y-76442141D01*
X150903570Y-76370713D01*
X149069284Y-75334999D02*
X149069284Y-74906427D01*
X149069284Y-75120713D02*
X148319284Y-75120713D01*
X148426427Y-75049284D01*
X148497856Y-74977856D01*
X148533570Y-74906427D01*
X148319284Y-75799284D02*
X148319284Y-75870713D01*
X148354999Y-75942141D01*
X148390713Y-75977856D01*
X148462141Y-76013570D01*
X148604999Y-76049284D01*
X148783570Y-76049284D01*
X148926427Y-76013570D01*
X148997856Y-75977856D01*
X149033570Y-75942141D01*
X149069284Y-75870713D01*
X149069284Y-75799284D01*
X149033570Y-75727856D01*
X148997856Y-75692141D01*
X148926427Y-75656427D01*
X148783570Y-75620713D01*
X148604999Y-75620713D01*
X148462141Y-75656427D01*
X148390713Y-75692141D01*
X148354999Y-75727856D01*
X148319284Y-75799284D01*
X148319284Y-76513570D02*
X148319284Y-76584999D01*
X148354999Y-76656427D01*
X148390713Y-76692141D01*
X148462141Y-76727856D01*
X148604999Y-76763570D01*
X148783570Y-76763570D01*
X148926427Y-76727856D01*
X148997856Y-76692141D01*
X149033570Y-76656427D01*
X149069284Y-76584999D01*
X149069284Y-76513570D01*
X149033570Y-76442141D01*
X148997856Y-76406427D01*
X148926427Y-76370713D01*
X148783570Y-76334999D01*
X148604999Y-76334999D01*
X148462141Y-76370713D01*
X148390713Y-76406427D01*
X148354999Y-76442141D01*
X148319284Y-76513570D01*
X149069284Y-77513570D02*
X148712141Y-77263570D01*
X149069284Y-77084999D02*
X148319284Y-77084999D01*
X148319284Y-77370713D01*
X148354999Y-77442141D01*
X148390713Y-77477856D01*
X148462141Y-77513570D01*
X148569284Y-77513570D01*
X148640713Y-77477856D01*
X148676427Y-77442141D01*
X148712141Y-77370713D01*
X148712141Y-77084999D01*
G04 #@! TO.C,R13*
X163182141Y-142716284D02*
X163432141Y-142359141D01*
X163610713Y-142716284D02*
X163610713Y-141966284D01*
X163324999Y-141966284D01*
X163253570Y-142001999D01*
X163217856Y-142037713D01*
X163182141Y-142109141D01*
X163182141Y-142216284D01*
X163217856Y-142287713D01*
X163253570Y-142323427D01*
X163324999Y-142359141D01*
X163610713Y-142359141D01*
X162467856Y-142716284D02*
X162896427Y-142716284D01*
X162682141Y-142716284D02*
X162682141Y-141966284D01*
X162753570Y-142073427D01*
X162824999Y-142144856D01*
X162896427Y-142180570D01*
X162217856Y-141966284D02*
X161753570Y-141966284D01*
X162003570Y-142251999D01*
X161896427Y-142251999D01*
X161824999Y-142287713D01*
X161789284Y-142323427D01*
X161753570Y-142394856D01*
X161753570Y-142573427D01*
X161789284Y-142644856D01*
X161824999Y-142680570D01*
X161896427Y-142716284D01*
X162110713Y-142716284D01*
X162182141Y-142680570D01*
X162217856Y-142644856D01*
X163753570Y-144450713D02*
X163717856Y-144414999D01*
X163646427Y-144379284D01*
X163467856Y-144379284D01*
X163396427Y-144414999D01*
X163360713Y-144450713D01*
X163324999Y-144522141D01*
X163324999Y-144593570D01*
X163360713Y-144700713D01*
X163789284Y-145129284D01*
X163324999Y-145129284D01*
X163003570Y-145057856D02*
X162967856Y-145093570D01*
X163003570Y-145129284D01*
X163039284Y-145093570D01*
X163003570Y-145057856D01*
X163003570Y-145129284D01*
X162717856Y-144379284D02*
X162217856Y-144379284D01*
X162539284Y-145129284D01*
X161932141Y-145129284D02*
X161932141Y-144379284D01*
X161860713Y-144843570D02*
X161646427Y-145129284D01*
X161646427Y-144629284D02*
X161932141Y-144914999D01*
G04 #@! TO.C,C4*
X142964999Y-127817856D02*
X143000713Y-127853570D01*
X143107856Y-127889284D01*
X143179284Y-127889284D01*
X143286427Y-127853570D01*
X143357856Y-127782141D01*
X143393570Y-127710713D01*
X143429284Y-127567856D01*
X143429284Y-127460713D01*
X143393570Y-127317856D01*
X143357856Y-127246427D01*
X143286427Y-127174999D01*
X143179284Y-127139284D01*
X143107856Y-127139284D01*
X143000713Y-127174999D01*
X142964999Y-127210713D01*
X142322141Y-127389284D02*
X142322141Y-127889284D01*
X142500713Y-127103570D02*
X142679284Y-127639284D01*
X142214999Y-127639284D01*
X140500713Y-127889284D02*
X140929284Y-127889284D01*
X140714999Y-127889284D02*
X140714999Y-127139284D01*
X140786427Y-127246427D01*
X140857856Y-127317856D01*
X140929284Y-127353570D01*
X140036427Y-127139284D02*
X139964999Y-127139284D01*
X139893570Y-127174999D01*
X139857856Y-127210713D01*
X139822141Y-127282141D01*
X139786427Y-127424999D01*
X139786427Y-127603570D01*
X139822141Y-127746427D01*
X139857856Y-127817856D01*
X139893570Y-127853570D01*
X139964999Y-127889284D01*
X140036427Y-127889284D01*
X140107856Y-127853570D01*
X140143570Y-127817856D01*
X140179284Y-127746427D01*
X140214999Y-127603570D01*
X140214999Y-127424999D01*
X140179284Y-127282141D01*
X140143570Y-127210713D01*
X140107856Y-127174999D01*
X140036427Y-127139284D01*
X139322141Y-127139284D02*
X139250713Y-127139284D01*
X139179284Y-127174999D01*
X139143570Y-127210713D01*
X139107856Y-127282141D01*
X139072141Y-127424999D01*
X139072141Y-127603570D01*
X139107856Y-127746427D01*
X139143570Y-127817856D01*
X139179284Y-127853570D01*
X139250713Y-127889284D01*
X139322141Y-127889284D01*
X139393570Y-127853570D01*
X139429284Y-127817856D01*
X139464999Y-127746427D01*
X139500713Y-127603570D01*
X139500713Y-127424999D01*
X139464999Y-127282141D01*
X139429284Y-127210713D01*
X139393570Y-127174999D01*
X139322141Y-127139284D01*
X138750713Y-127389284D02*
X138750713Y-127889284D01*
X138750713Y-127460713D02*
X138714999Y-127424999D01*
X138643570Y-127389284D01*
X138536427Y-127389284D01*
X138464999Y-127424999D01*
X138429284Y-127496427D01*
X138429284Y-127889284D01*
X137822141Y-127496427D02*
X138072141Y-127496427D01*
X138072141Y-127889284D02*
X138072141Y-127139284D01*
X137714999Y-127139284D01*
G04 #@! TO.C,R10*
X146910284Y-154467856D02*
X146553141Y-154217856D01*
X146910284Y-154039284D02*
X146160284Y-154039284D01*
X146160284Y-154324999D01*
X146195999Y-154396427D01*
X146231713Y-154432141D01*
X146303141Y-154467856D01*
X146410284Y-154467856D01*
X146481713Y-154432141D01*
X146517427Y-154396427D01*
X146553141Y-154324999D01*
X146553141Y-154039284D01*
X146910284Y-155182141D02*
X146910284Y-154753570D01*
X146910284Y-154967856D02*
X146160284Y-154967856D01*
X146267427Y-154896427D01*
X146338856Y-154824999D01*
X146374570Y-154753570D01*
X146160284Y-155646427D02*
X146160284Y-155717856D01*
X146195999Y-155789284D01*
X146231713Y-155824999D01*
X146303141Y-155860713D01*
X146445999Y-155896427D01*
X146624570Y-155896427D01*
X146767427Y-155860713D01*
X146838856Y-155824999D01*
X146874570Y-155789284D01*
X146910284Y-155717856D01*
X146910284Y-155646427D01*
X146874570Y-155574999D01*
X146838856Y-155539284D01*
X146767427Y-155503570D01*
X146624570Y-155467856D01*
X146445999Y-155467856D01*
X146303141Y-155503570D01*
X146231713Y-155539284D01*
X146195999Y-155574999D01*
X146160284Y-155646427D01*
X149069284Y-154860713D02*
X149069284Y-154432141D01*
X149069284Y-154646427D02*
X148319284Y-154646427D01*
X148426427Y-154574999D01*
X148497856Y-154503570D01*
X148533570Y-154432141D01*
X149069284Y-155182141D02*
X148319284Y-155182141D01*
X148783570Y-155253570D02*
X149069284Y-155467856D01*
X148569284Y-155467856D02*
X148854999Y-155182141D01*
G04 #@! TO.C,R12*
X165595141Y-122523284D02*
X165845141Y-122166141D01*
X166023713Y-122523284D02*
X166023713Y-121773284D01*
X165737999Y-121773284D01*
X165666570Y-121808999D01*
X165630856Y-121844713D01*
X165595141Y-121916141D01*
X165595141Y-122023284D01*
X165630856Y-122094713D01*
X165666570Y-122130427D01*
X165737999Y-122166141D01*
X166023713Y-122166141D01*
X164880856Y-122523284D02*
X165309427Y-122523284D01*
X165095141Y-122523284D02*
X165095141Y-121773284D01*
X165166570Y-121880427D01*
X165237999Y-121951856D01*
X165309427Y-121987570D01*
X164595141Y-121844713D02*
X164559427Y-121808999D01*
X164487999Y-121773284D01*
X164309427Y-121773284D01*
X164237999Y-121808999D01*
X164202284Y-121844713D01*
X164166570Y-121916141D01*
X164166570Y-121987570D01*
X164202284Y-122094713D01*
X164630856Y-122523284D01*
X164166570Y-122523284D01*
X163753570Y-124130713D02*
X163717856Y-124094999D01*
X163646427Y-124059284D01*
X163467856Y-124059284D01*
X163396427Y-124094999D01*
X163360713Y-124130713D01*
X163324999Y-124202141D01*
X163324999Y-124273570D01*
X163360713Y-124380713D01*
X163789284Y-124809284D01*
X163324999Y-124809284D01*
X163003570Y-124737856D02*
X162967856Y-124773570D01*
X163003570Y-124809284D01*
X163039284Y-124773570D01*
X163003570Y-124737856D01*
X163003570Y-124809284D01*
X162682141Y-124130713D02*
X162646427Y-124094999D01*
X162574999Y-124059284D01*
X162396427Y-124059284D01*
X162324999Y-124094999D01*
X162289284Y-124130713D01*
X162253570Y-124202141D01*
X162253570Y-124273570D01*
X162289284Y-124380713D01*
X162717856Y-124809284D01*
X162253570Y-124809284D01*
X161932141Y-124809284D02*
X161932141Y-124059284D01*
X161860713Y-124523570D02*
X161646427Y-124809284D01*
X161646427Y-124309284D02*
X161932141Y-124594999D01*
G04 #@! TO.C,D2*
X160586570Y-87979284D02*
X160586570Y-87229284D01*
X160407999Y-87229284D01*
X160300856Y-87264999D01*
X160229427Y-87336427D01*
X160193713Y-87407856D01*
X160157999Y-87550713D01*
X160157999Y-87657856D01*
X160193713Y-87800713D01*
X160229427Y-87872141D01*
X160300856Y-87943570D01*
X160407999Y-87979284D01*
X160586570Y-87979284D01*
X159872284Y-87300713D02*
X159836570Y-87264999D01*
X159765141Y-87229284D01*
X159586570Y-87229284D01*
X159515141Y-87264999D01*
X159479427Y-87300713D01*
X159443713Y-87372141D01*
X159443713Y-87443570D01*
X159479427Y-87550713D01*
X159907999Y-87979284D01*
X159443713Y-87979284D01*
X150196427Y-92619284D02*
X150196427Y-91869284D01*
X149767856Y-92619284D02*
X150089284Y-92190713D01*
X149767856Y-91869284D02*
X150196427Y-92297856D01*
X156687141Y-87979284D02*
X157115713Y-87979284D01*
X156901427Y-87979284D02*
X156901427Y-87229284D01*
X156972856Y-87336427D01*
X157044284Y-87407856D01*
X157115713Y-87443570D01*
X156365713Y-87979284D02*
X156365713Y-87229284D01*
X155937141Y-87979284D01*
X155937141Y-87229284D01*
X155222856Y-87229284D02*
X155579999Y-87229284D01*
X155615713Y-87586427D01*
X155579999Y-87550713D01*
X155508570Y-87514999D01*
X155329999Y-87514999D01*
X155258570Y-87550713D01*
X155222856Y-87586427D01*
X155187141Y-87657856D01*
X155187141Y-87836427D01*
X155222856Y-87907856D01*
X155258570Y-87943570D01*
X155329999Y-87979284D01*
X155508570Y-87979284D01*
X155579999Y-87943570D01*
X155615713Y-87907856D01*
X154758570Y-87550713D02*
X154829999Y-87514999D01*
X154865713Y-87479284D01*
X154901427Y-87407856D01*
X154901427Y-87372141D01*
X154865713Y-87300713D01*
X154829999Y-87264999D01*
X154758570Y-87229284D01*
X154615713Y-87229284D01*
X154544284Y-87264999D01*
X154508570Y-87300713D01*
X154472856Y-87372141D01*
X154472856Y-87407856D01*
X154508570Y-87479284D01*
X154544284Y-87514999D01*
X154615713Y-87550713D01*
X154758570Y-87550713D01*
X154829999Y-87586427D01*
X154865713Y-87622141D01*
X154901427Y-87693570D01*
X154901427Y-87836427D01*
X154865713Y-87907856D01*
X154829999Y-87943570D01*
X154758570Y-87979284D01*
X154615713Y-87979284D01*
X154544284Y-87943570D01*
X154508570Y-87907856D01*
X154472856Y-87836427D01*
X154472856Y-87693570D01*
X154508570Y-87622141D01*
X154544284Y-87586427D01*
X154615713Y-87550713D01*
X153758570Y-87979284D02*
X154187141Y-87979284D01*
X153972856Y-87979284D02*
X153972856Y-87229284D01*
X154044284Y-87336427D01*
X154115713Y-87407856D01*
X154187141Y-87443570D01*
X153508570Y-87229284D02*
X153008570Y-87229284D01*
X153329999Y-87979284D01*
G04 #@! TO.C,R3*
X137424999Y-132556284D02*
X137674999Y-132199141D01*
X137853570Y-132556284D02*
X137853570Y-131806284D01*
X137567856Y-131806284D01*
X137496427Y-131841999D01*
X137460713Y-131877713D01*
X137424999Y-131949141D01*
X137424999Y-132056284D01*
X137460713Y-132127713D01*
X137496427Y-132163427D01*
X137567856Y-132199141D01*
X137853570Y-132199141D01*
X137174999Y-131806284D02*
X136710713Y-131806284D01*
X136960713Y-132091999D01*
X136853570Y-132091999D01*
X136782141Y-132127713D01*
X136746427Y-132163427D01*
X136710713Y-132234856D01*
X136710713Y-132413427D01*
X136746427Y-132484856D01*
X136782141Y-132520570D01*
X136853570Y-132556284D01*
X137067856Y-132556284D01*
X137139284Y-132520570D01*
X137174999Y-132484856D01*
X137817856Y-134219284D02*
X137960713Y-134219284D01*
X138032141Y-134254999D01*
X138067856Y-134290713D01*
X138139284Y-134397856D01*
X138174999Y-134540713D01*
X138174999Y-134826427D01*
X138139284Y-134897856D01*
X138103570Y-134933570D01*
X138032141Y-134969284D01*
X137889284Y-134969284D01*
X137817856Y-134933570D01*
X137782141Y-134897856D01*
X137746427Y-134826427D01*
X137746427Y-134647856D01*
X137782141Y-134576427D01*
X137817856Y-134540713D01*
X137889284Y-134504999D01*
X138032141Y-134504999D01*
X138103570Y-134540713D01*
X138139284Y-134576427D01*
X138174999Y-134647856D01*
X137317856Y-134540713D02*
X137389284Y-134504999D01*
X137424999Y-134469284D01*
X137460713Y-134397856D01*
X137460713Y-134362141D01*
X137424999Y-134290713D01*
X137389284Y-134254999D01*
X137317856Y-134219284D01*
X137174999Y-134219284D01*
X137103570Y-134254999D01*
X137067856Y-134290713D01*
X137032141Y-134362141D01*
X137032141Y-134397856D01*
X137067856Y-134469284D01*
X137103570Y-134504999D01*
X137174999Y-134540713D01*
X137317856Y-134540713D01*
X137389284Y-134576427D01*
X137424999Y-134612141D01*
X137460713Y-134683570D01*
X137460713Y-134826427D01*
X137424999Y-134897856D01*
X137389284Y-134933570D01*
X137317856Y-134969284D01*
X137174999Y-134969284D01*
X137103570Y-134933570D01*
X137067856Y-134897856D01*
X137032141Y-134826427D01*
X137032141Y-134683570D01*
X137067856Y-134612141D01*
X137103570Y-134576427D01*
X137174999Y-134540713D01*
X136710713Y-134969284D02*
X136710713Y-134219284D01*
X136639284Y-134683570D02*
X136424999Y-134969284D01*
X136424999Y-134469284D02*
X136710713Y-134754999D01*
G04 #@! TO.C,D4*
X163888570Y-127984284D02*
X163888570Y-127234284D01*
X163709999Y-127234284D01*
X163602856Y-127269999D01*
X163531427Y-127341427D01*
X163495713Y-127412856D01*
X163459999Y-127555713D01*
X163459999Y-127662856D01*
X163495713Y-127805713D01*
X163531427Y-127877141D01*
X163602856Y-127948570D01*
X163709999Y-127984284D01*
X163888570Y-127984284D01*
X162817141Y-127484284D02*
X162817141Y-127984284D01*
X162995713Y-127198570D02*
X163174284Y-127734284D01*
X162709999Y-127734284D01*
X160370141Y-127984284D02*
X160798713Y-127984284D01*
X160584427Y-127984284D02*
X160584427Y-127234284D01*
X160655856Y-127341427D01*
X160727284Y-127412856D01*
X160798713Y-127448570D01*
X160048713Y-127984284D02*
X160048713Y-127234284D01*
X159620141Y-127984284D01*
X159620141Y-127234284D01*
X158941570Y-127484284D02*
X158941570Y-127984284D01*
X159120141Y-127198570D02*
X159298713Y-127734284D01*
X158834427Y-127734284D01*
X158155856Y-127984284D02*
X158584427Y-127984284D01*
X158370141Y-127984284D02*
X158370141Y-127234284D01*
X158441570Y-127341427D01*
X158512999Y-127412856D01*
X158584427Y-127448570D01*
X157512999Y-127484284D02*
X157512999Y-127984284D01*
X157691570Y-127198570D02*
X157870141Y-127734284D01*
X157405856Y-127734284D01*
X157012999Y-127555713D02*
X157084427Y-127519999D01*
X157120141Y-127484284D01*
X157155856Y-127412856D01*
X157155856Y-127377141D01*
X157120141Y-127305713D01*
X157084427Y-127269999D01*
X157012999Y-127234284D01*
X156870141Y-127234284D01*
X156798713Y-127269999D01*
X156762999Y-127305713D01*
X156727284Y-127377141D01*
X156727284Y-127412856D01*
X156762999Y-127484284D01*
X156798713Y-127519999D01*
X156870141Y-127555713D01*
X157012999Y-127555713D01*
X157084427Y-127591427D01*
X157120141Y-127627141D01*
X157155856Y-127698570D01*
X157155856Y-127841427D01*
X157120141Y-127912856D01*
X157084427Y-127948570D01*
X157012999Y-127984284D01*
X156870141Y-127984284D01*
X156798713Y-127948570D01*
X156762999Y-127912856D01*
X156727284Y-127841427D01*
X156727284Y-127698570D01*
X156762999Y-127627141D01*
X156798713Y-127591427D01*
X156870141Y-127555713D01*
X165436427Y-127984284D02*
X165436427Y-127234284D01*
X165007856Y-127984284D02*
X165329284Y-127555713D01*
X165007856Y-127234284D02*
X165436427Y-127662856D01*
G04 #@! TO.C,R11*
X163182141Y-137636284D02*
X163432141Y-137279141D01*
X163610713Y-137636284D02*
X163610713Y-136886284D01*
X163324999Y-136886284D01*
X163253570Y-136921999D01*
X163217856Y-136957713D01*
X163182141Y-137029141D01*
X163182141Y-137136284D01*
X163217856Y-137207713D01*
X163253570Y-137243427D01*
X163324999Y-137279141D01*
X163610713Y-137279141D01*
X162467856Y-137636284D02*
X162896427Y-137636284D01*
X162682141Y-137636284D02*
X162682141Y-136886284D01*
X162753570Y-136993427D01*
X162824999Y-137064856D01*
X162896427Y-137100570D01*
X161753570Y-137636284D02*
X162182141Y-137636284D01*
X161967856Y-137636284D02*
X161967856Y-136886284D01*
X162039284Y-136993427D01*
X162110713Y-137064856D01*
X162182141Y-137100570D01*
X162789284Y-140049284D02*
X163217856Y-140049284D01*
X163003570Y-140049284D02*
X163003570Y-139299284D01*
X163074999Y-139406427D01*
X163146427Y-139477856D01*
X163217856Y-139513570D01*
X162467856Y-140049284D02*
X162467856Y-139299284D01*
X162396427Y-139763570D02*
X162182141Y-140049284D01*
X162182141Y-139549284D02*
X162467856Y-139834999D01*
G04 #@! TO.C,R9*
X137424999Y-142759284D02*
X137674999Y-142402141D01*
X137853570Y-142759284D02*
X137853570Y-142009284D01*
X137567856Y-142009284D01*
X137496427Y-142044999D01*
X137460713Y-142080713D01*
X137424999Y-142152141D01*
X137424999Y-142259284D01*
X137460713Y-142330713D01*
X137496427Y-142366427D01*
X137567856Y-142402141D01*
X137853570Y-142402141D01*
X137067856Y-142759284D02*
X136924999Y-142759284D01*
X136853570Y-142723570D01*
X136817856Y-142687856D01*
X136746427Y-142580713D01*
X136710713Y-142437856D01*
X136710713Y-142152141D01*
X136746427Y-142080713D01*
X136782141Y-142044999D01*
X136853570Y-142009284D01*
X136996427Y-142009284D01*
X137067856Y-142044999D01*
X137103570Y-142080713D01*
X137139284Y-142152141D01*
X137139284Y-142330713D01*
X137103570Y-142402141D01*
X137067856Y-142437856D01*
X136996427Y-142473570D01*
X136853570Y-142473570D01*
X136782141Y-142437856D01*
X136746427Y-142402141D01*
X136710713Y-142330713D01*
X137389284Y-145129284D02*
X137817856Y-145129284D01*
X137603570Y-145129284D02*
X137603570Y-144379284D01*
X137674999Y-144486427D01*
X137746427Y-144557856D01*
X137817856Y-144593570D01*
X137067856Y-145129284D02*
X137067856Y-144379284D01*
X136996427Y-144843570D02*
X136782141Y-145129284D01*
X136782141Y-144629284D02*
X137067856Y-144914999D01*
G04 #@! TO.C,C1*
X134884999Y-90487856D02*
X134920713Y-90523570D01*
X135027856Y-90559284D01*
X135099284Y-90559284D01*
X135206427Y-90523570D01*
X135277856Y-90452141D01*
X135313570Y-90380713D01*
X135349284Y-90237856D01*
X135349284Y-90130713D01*
X135313570Y-89987856D01*
X135277856Y-89916427D01*
X135206427Y-89844999D01*
X135099284Y-89809284D01*
X135027856Y-89809284D01*
X134920713Y-89844999D01*
X134884999Y-89880713D01*
X134170713Y-90559284D02*
X134599284Y-90559284D01*
X134384999Y-90559284D02*
X134384999Y-89809284D01*
X134456427Y-89916427D01*
X134527856Y-89987856D01*
X134599284Y-90023570D01*
X135880713Y-93059284D02*
X136309284Y-93059284D01*
X136094999Y-93059284D02*
X136094999Y-92309284D01*
X136166427Y-92416427D01*
X136237856Y-92487856D01*
X136309284Y-92523570D01*
X135416427Y-92309284D02*
X135344999Y-92309284D01*
X135273570Y-92344999D01*
X135237856Y-92380713D01*
X135202141Y-92452141D01*
X135166427Y-92594999D01*
X135166427Y-92773570D01*
X135202141Y-92916427D01*
X135237856Y-92987856D01*
X135273570Y-93023570D01*
X135344999Y-93059284D01*
X135416427Y-93059284D01*
X135487856Y-93023570D01*
X135523570Y-92987856D01*
X135559284Y-92916427D01*
X135594999Y-92773570D01*
X135594999Y-92594999D01*
X135559284Y-92452141D01*
X135523570Y-92380713D01*
X135487856Y-92344999D01*
X135416427Y-92309284D01*
X134702141Y-92309284D02*
X134630713Y-92309284D01*
X134559284Y-92344999D01*
X134523570Y-92380713D01*
X134487856Y-92452141D01*
X134452141Y-92594999D01*
X134452141Y-92773570D01*
X134487856Y-92916427D01*
X134523570Y-92987856D01*
X134559284Y-93023570D01*
X134630713Y-93059284D01*
X134702141Y-93059284D01*
X134773570Y-93023570D01*
X134809284Y-92987856D01*
X134844999Y-92916427D01*
X134880713Y-92773570D01*
X134880713Y-92594999D01*
X134844999Y-92452141D01*
X134809284Y-92380713D01*
X134773570Y-92344999D01*
X134702141Y-92309284D01*
X134130713Y-92559284D02*
X134130713Y-93059284D01*
X134130713Y-92630713D02*
X134094999Y-92594999D01*
X134023570Y-92559284D01*
X133916427Y-92559284D01*
X133844999Y-92594999D01*
X133809284Y-92666427D01*
X133809284Y-93059284D01*
X133202141Y-92666427D02*
X133452141Y-92666427D01*
X133452141Y-93059284D02*
X133452141Y-92309284D01*
X133094999Y-92309284D01*
D13*
G04 #@! TO.C,U1*
X144759999Y-123084999D02*
X155259999Y-123084999D01*
X144759999Y-141104999D02*
X144759999Y-123084999D01*
X152259999Y-141044999D02*
X151009999Y-141044999D01*
X147759999Y-141044999D02*
X147759999Y-123144999D01*
X149009999Y-141044999D02*
X147759999Y-141044999D01*
X147759999Y-123144999D02*
X152259999Y-123144999D01*
X155259999Y-123084999D02*
X155259999Y-141104999D01*
X155259999Y-141104999D02*
X144759999Y-141104999D01*
X152259999Y-123144999D02*
X152259999Y-141044999D01*
X151009999Y-141044999D02*
G75*
G03*
X149009999Y-141044999I-1000000J0D01*
G01*
G04 #@! TO.C,D1*
X151339999Y-85099999D02*
X152359999Y-85099999D01*
X153139999Y-86569999D02*
X153139999Y-83629999D01*
X152359999Y-86569999D02*
X152359999Y-83629999D01*
X157799999Y-86569999D02*
X152359999Y-86569999D01*
X152359999Y-83629999D02*
X157799999Y-83629999D01*
X153259999Y-86569999D02*
X153259999Y-83629999D01*
X157799999Y-83629999D02*
X157799999Y-86569999D01*
X158819999Y-85099999D02*
X157799999Y-85099999D01*
X153379999Y-86569999D02*
X153379999Y-83629999D01*
G04 #@! TO.C,R5*
X134029999Y-104049999D02*
X140569999Y-104049999D01*
X140569999Y-106789999D02*
X134029999Y-106789999D01*
X134029999Y-106789999D02*
X134029999Y-104049999D01*
X141339999Y-105419999D02*
X140569999Y-105419999D01*
X140569999Y-104049999D02*
X140569999Y-106789999D01*
X133259999Y-105419999D02*
X134029999Y-105419999D01*
G04 #@! TO.C,R8*
X134029999Y-138339999D02*
X140569999Y-138339999D01*
X134029999Y-141079999D02*
X134029999Y-138339999D01*
X140569999Y-138339999D02*
X140569999Y-141079999D01*
X133259999Y-139709999D02*
X134029999Y-139709999D01*
X140569999Y-141079999D02*
X134029999Y-141079999D01*
X141339999Y-139709999D02*
X140569999Y-139709999D01*
G04 #@! TO.C,C5*
X159538999Y-133709999D02*
X158280999Y-133709999D01*
X159538999Y-135549999D02*
X158280999Y-135549999D01*
G04 #@! TO.C,J4*
X144919999Y-171399999D02*
X157679999Y-171399999D01*
X144919999Y-174059999D02*
X157679999Y-174059999D01*
X144919999Y-171399999D02*
X144919999Y-174059999D01*
X143649999Y-171399999D02*
X142319999Y-171399999D01*
X157679999Y-171399999D02*
X157679999Y-174059999D01*
X142319999Y-171399999D02*
X142319999Y-172729999D01*
G04 #@! TO.C,R6*
X134029999Y-125839999D02*
X134029999Y-123099999D01*
X134029999Y-123099999D02*
X140569999Y-123099999D01*
X140569999Y-123099999D02*
X140569999Y-125839999D01*
X141339999Y-124469999D02*
X140569999Y-124469999D01*
X133259999Y-124469999D02*
X134029999Y-124469999D01*
X140569999Y-125839999D02*
X134029999Y-125839999D01*
G04 #@! TO.C,R14*
X165969999Y-148499999D02*
X165969999Y-151239999D01*
X159429999Y-151239999D02*
X159429999Y-148499999D01*
X166739999Y-149869999D02*
X165969999Y-149869999D01*
X159429999Y-148499999D02*
X165969999Y-148499999D01*
X158659999Y-149869999D02*
X159429999Y-149869999D01*
X165969999Y-151239999D02*
X159429999Y-151239999D01*
G04 #@! TO.C,R7*
X147559999Y-118849999D02*
X144819999Y-118849999D01*
X144819999Y-112309999D02*
X147559999Y-112309999D01*
X146189999Y-119619999D02*
X146189999Y-118849999D01*
X144819999Y-118849999D02*
X144819999Y-112309999D01*
X147559999Y-112309999D02*
X147559999Y-118849999D01*
X146189999Y-111539999D02*
X146189999Y-112309999D01*
G04 #@! TO.C,R2*
X153579999Y-60969999D02*
X154349999Y-60969999D01*
X154349999Y-62339999D02*
X154349999Y-59599999D01*
X160889999Y-59599999D02*
X160889999Y-62339999D01*
X160889999Y-62339999D02*
X154349999Y-62339999D01*
X154349999Y-59599999D02*
X160889999Y-59599999D01*
X161659999Y-60969999D02*
X160889999Y-60969999D01*
G04 #@! TO.C,C2*
X148389999Y-98839999D02*
X148389999Y-101010999D01*
X146548999Y-95419999D02*
X146548999Y-96759999D01*
X146628999Y-95349999D02*
X146628999Y-96759999D01*
X146308999Y-95662999D02*
X146308999Y-99936999D01*
X148109999Y-98839999D02*
X148109999Y-100966999D01*
X148028999Y-98839999D02*
X148028999Y-100949999D01*
X147068999Y-95033999D02*
X147068999Y-96759999D01*
X147508999Y-98839999D02*
X147508999Y-100785999D01*
X148069999Y-98839999D02*
X148069999Y-100958999D01*
X147828999Y-94701999D02*
X147828999Y-96759999D01*
X145628999Y-96859999D02*
X145628999Y-98739999D01*
X146588999Y-95383999D02*
X146588999Y-96759999D01*
X148749999Y-94569999D02*
X148749999Y-101029999D01*
X147388999Y-94865999D02*
X147388999Y-96759999D01*
X146348999Y-95617999D02*
X146348999Y-99981999D01*
X145668999Y-96740999D02*
X145668999Y-98858999D01*
X146748999Y-95251999D02*
X146748999Y-96759999D01*
X145828999Y-96367999D02*
X145828999Y-99231999D01*
X147508999Y-94813999D02*
X147508999Y-96759999D01*
X147788999Y-98839999D02*
X147788999Y-100885999D01*
X145988999Y-96085999D02*
X145988999Y-99513999D01*
X148229999Y-98839999D02*
X148229999Y-100988999D01*
X147948999Y-94668999D02*
X147948999Y-96759999D01*
X146228999Y-95755999D02*
X146228999Y-99843999D01*
X148149999Y-94624999D02*
X148149999Y-96759999D01*
X148109999Y-94632999D02*
X148109999Y-96759999D01*
X147588999Y-98839999D02*
X147588999Y-100817999D01*
X148509999Y-98839999D02*
X148509999Y-101021999D01*
X147108999Y-95009999D02*
X147108999Y-96759999D01*
X145708999Y-96634999D02*
X145708999Y-98964999D01*
X147548999Y-98839999D02*
X147548999Y-100801999D01*
X146388999Y-95575999D02*
X146388999Y-100023999D01*
X148269999Y-94604999D02*
X148269999Y-96759999D01*
X147108999Y-98839999D02*
X147108999Y-100589999D01*
X147228999Y-98839999D02*
X147228999Y-100655999D01*
X146868999Y-95163999D02*
X146868999Y-96759999D01*
X146828999Y-98839999D02*
X146828999Y-100406999D01*
X147308999Y-94903999D02*
X147308999Y-96759999D01*
X147388999Y-98839999D02*
X147388999Y-100733999D01*
X148349999Y-94593999D02*
X148349999Y-96759999D01*
X146988999Y-98839999D02*
X146988999Y-100515999D01*
X145908999Y-96218999D02*
X145908999Y-99380999D01*
X147268999Y-94923999D02*
X147268999Y-96759999D01*
X146908999Y-98839999D02*
X146908999Y-100463999D01*
X148469999Y-94581999D02*
X148469999Y-96759999D01*
X146748999Y-98839999D02*
X146748999Y-100347999D01*
X146268999Y-95707999D02*
X146268999Y-99891999D01*
X147468999Y-98839999D02*
X147468999Y-100769999D01*
X148309999Y-98839999D02*
X148309999Y-101000999D01*
X147948999Y-98839999D02*
X147948999Y-100930999D01*
X146708999Y-98839999D02*
X146708999Y-100315999D01*
X146908999Y-95135999D02*
X146908999Y-96759999D01*
X146108999Y-95909999D02*
X146108999Y-99689999D01*
X148629999Y-94571999D02*
X148629999Y-101027999D01*
X148189999Y-94617999D02*
X148189999Y-96759999D01*
X148549999Y-94575999D02*
X148549999Y-101023999D01*
X147428999Y-98839999D02*
X147428999Y-100751999D01*
X147188999Y-94965999D02*
X147188999Y-96759999D01*
X148429999Y-94584999D02*
X148429999Y-96759999D01*
X148389999Y-94588999D02*
X148389999Y-96759999D01*
X148269999Y-98839999D02*
X148269999Y-100994999D01*
X146948999Y-95109999D02*
X146948999Y-96759999D01*
X148429999Y-98839999D02*
X148429999Y-101014999D01*
X145748999Y-96537999D02*
X145748999Y-99061999D01*
X146548999Y-98839999D02*
X146548999Y-100179999D01*
X148229999Y-94610999D02*
X148229999Y-96759999D01*
X145548999Y-97166999D02*
X145548999Y-98432999D01*
X147588999Y-94781999D02*
X147588999Y-96759999D01*
X146868999Y-98839999D02*
X146868999Y-100435999D01*
X147788999Y-94713999D02*
X147788999Y-96759999D01*
X147348999Y-98839999D02*
X147348999Y-100715999D01*
X147748999Y-94725999D02*
X147748999Y-96759999D01*
X147988999Y-94658999D02*
X147988999Y-96759999D01*
X147468999Y-94829999D02*
X147468999Y-96759999D01*
X146588999Y-98839999D02*
X146588999Y-100215999D01*
X145588999Y-96997999D02*
X145588999Y-98601999D01*
X146468999Y-95494999D02*
X146468999Y-96759999D01*
X147988999Y-98839999D02*
X147988999Y-100940999D01*
X146508999Y-98839999D02*
X146508999Y-100142999D01*
X148309999Y-94598999D02*
X148309999Y-96759999D01*
X146828999Y-95192999D02*
X146828999Y-96759999D01*
X145868999Y-96290999D02*
X145868999Y-99308999D01*
X148349999Y-98839999D02*
X148349999Y-101005999D01*
X147148999Y-98839999D02*
X147148999Y-100611999D01*
X148028999Y-94649999D02*
X148028999Y-96759999D01*
X148509999Y-94577999D02*
X148509999Y-96759999D01*
X146948999Y-98839999D02*
X146948999Y-100489999D01*
X147068999Y-98839999D02*
X147068999Y-100565999D01*
X145948999Y-96149999D02*
X145948999Y-99449999D01*
X147428999Y-94847999D02*
X147428999Y-96759999D01*
X146668999Y-98839999D02*
X146668999Y-100283999D01*
X146668999Y-95315999D02*
X146668999Y-96759999D01*
X147628999Y-94766999D02*
X147628999Y-96759999D01*
X146508999Y-95456999D02*
X146508999Y-96759999D01*
X146068999Y-95965999D02*
X146068999Y-99633999D01*
X147028999Y-98839999D02*
X147028999Y-100541999D01*
X146628999Y-98839999D02*
X146628999Y-100249999D01*
X147708999Y-98839999D02*
X147708999Y-100860999D01*
X145788999Y-96449999D02*
X145788999Y-99149999D01*
X146708999Y-95283999D02*
X146708999Y-96759999D01*
X147748999Y-98839999D02*
X147748999Y-100873999D01*
X146788999Y-98839999D02*
X146788999Y-100377999D01*
X147188999Y-98839999D02*
X147188999Y-100633999D01*
X146468999Y-98839999D02*
X146468999Y-100104999D01*
X148589999Y-94572999D02*
X148589999Y-101026999D01*
X148189999Y-98839999D02*
X148189999Y-100981999D01*
X147908999Y-98839999D02*
X147908999Y-100920999D01*
X148669999Y-94569999D02*
X148669999Y-101029999D01*
X147148999Y-94987999D02*
X147148999Y-96759999D01*
X148709999Y-94569999D02*
X148709999Y-101029999D01*
X146788999Y-95221999D02*
X146788999Y-96759999D01*
X147628999Y-98839999D02*
X147628999Y-100832999D01*
X152250240Y-95960999D02*
X151620240Y-95960999D01*
X147668999Y-94752999D02*
X147668999Y-96759999D01*
X146988999Y-95083999D02*
X146988999Y-96759999D01*
X147908999Y-94678999D02*
X147908999Y-96759999D01*
X151935240Y-95645999D02*
X151935240Y-96275999D01*
X145508999Y-97397999D02*
X145508999Y-98201999D01*
X147308999Y-98839999D02*
X147308999Y-100695999D01*
X146148999Y-95855999D02*
X146148999Y-99743999D01*
X148069999Y-94640999D02*
X148069999Y-96759999D01*
X146188999Y-95804999D02*
X146188999Y-99794999D01*
X147708999Y-94738999D02*
X147708999Y-96759999D01*
X147868999Y-98839999D02*
X147868999Y-100909999D01*
X147348999Y-94883999D02*
X147348999Y-96759999D01*
X147028999Y-95057999D02*
X147028999Y-96759999D01*
X147828999Y-98839999D02*
X147828999Y-100897999D01*
X146028999Y-96023999D02*
X146028999Y-99575999D01*
X146428999Y-95534999D02*
X146428999Y-100064999D01*
X148469999Y-98839999D02*
X148469999Y-101017999D01*
X147668999Y-98839999D02*
X147668999Y-100846999D01*
X147228999Y-94943999D02*
X147228999Y-96759999D01*
X147548999Y-94797999D02*
X147548999Y-96759999D01*
X147268999Y-98839999D02*
X147268999Y-100675999D01*
X147868999Y-94689999D02*
X147868999Y-96759999D01*
X148149999Y-98839999D02*
X148149999Y-100974999D01*
X152019999Y-97799999D02*
G75*
G03*
X152019999Y-97799999I-3270000J0D01*
G01*
G04 #@! TO.C,J2*
X172209999Y-100359999D02*
X172209999Y-80009999D01*
X172454999Y-100609999D02*
X172454999Y-79749999D01*
X171659999Y-80559999D02*
X163909999Y-80559999D01*
X163909999Y-99809999D02*
X171659999Y-99809999D01*
X163359999Y-100359999D02*
X163909999Y-99809999D01*
X163359999Y-100359999D02*
X172209999Y-100359999D01*
X172454999Y-79749999D02*
X163104999Y-79749999D01*
X172209999Y-80009999D02*
X163359999Y-80009999D01*
X163409999Y-92429999D02*
X163889999Y-92429999D01*
X163909999Y-87929999D02*
X163399999Y-87929999D01*
X163909999Y-80559999D02*
X163409999Y-80059999D01*
X171659999Y-99809999D02*
X172209999Y-100359999D01*
X163104999Y-100609999D02*
X172454999Y-100609999D01*
X171659999Y-80559999D02*
X172209999Y-80009999D01*
X163909999Y-92429999D02*
X163909999Y-99809999D01*
X171659999Y-99809999D02*
X171659999Y-80559999D01*
X163359999Y-80009999D02*
X163359999Y-100359999D01*
X163909999Y-80559999D02*
X163909999Y-87909999D01*
X163104999Y-79749999D02*
X163104999Y-100609999D01*
G04 #@! TO.C,R4*
X140569999Y-98969999D02*
X140569999Y-101709999D01*
X134029999Y-98969999D02*
X140569999Y-98969999D01*
X140569999Y-101709999D02*
X134029999Y-101709999D01*
X141339999Y-100339999D02*
X140569999Y-100339999D01*
X133259999Y-100339999D02*
X134029999Y-100339999D01*
X134029999Y-101709999D02*
X134029999Y-98969999D01*
G04 #@! TO.C,C3*
X156828999Y-98839999D02*
X156828999Y-100283999D01*
X158068999Y-94678999D02*
X158068999Y-96759999D01*
X155908999Y-96537999D02*
X155908999Y-99061999D01*
X157268999Y-98839999D02*
X157268999Y-100589999D01*
X156348999Y-95804999D02*
X156348999Y-99794999D01*
X156908999Y-98839999D02*
X156908999Y-100347999D01*
X157188999Y-98839999D02*
X157188999Y-100541999D01*
X156868999Y-98839999D02*
X156868999Y-100315999D01*
X158309999Y-98839999D02*
X158309999Y-100974999D01*
X156908999Y-95251999D02*
X156908999Y-96759999D01*
X157468999Y-98839999D02*
X157468999Y-100695999D01*
X156948999Y-98839999D02*
X156948999Y-100377999D01*
X157548999Y-98839999D02*
X157548999Y-100733999D01*
X162095240Y-95645999D02*
X162095240Y-96275999D01*
X157788999Y-94766999D02*
X157788999Y-96759999D01*
X157708999Y-98839999D02*
X157708999Y-100801999D01*
X155708999Y-97166999D02*
X155708999Y-98432999D01*
X156868999Y-95283999D02*
X156868999Y-96759999D01*
X157708999Y-94797999D02*
X157708999Y-96759999D01*
X157948999Y-94713999D02*
X157948999Y-96759999D01*
X157308999Y-94987999D02*
X157308999Y-96759999D01*
X156668999Y-98839999D02*
X156668999Y-100142999D01*
X158629999Y-94581999D02*
X158629999Y-96759999D01*
X158549999Y-98839999D02*
X158549999Y-101010999D01*
X156308999Y-95855999D02*
X156308999Y-99743999D01*
X156628999Y-98839999D02*
X156628999Y-100104999D01*
X156588999Y-95534999D02*
X156588999Y-100064999D01*
X158188999Y-94649999D02*
X158188999Y-96759999D01*
X158229999Y-94640999D02*
X158229999Y-96759999D01*
X157228999Y-95033999D02*
X157228999Y-96759999D01*
X155988999Y-96367999D02*
X155988999Y-99231999D01*
X156708999Y-98839999D02*
X156708999Y-100179999D01*
X158669999Y-98839999D02*
X158669999Y-101021999D01*
X158389999Y-98839999D02*
X158389999Y-100988999D01*
X158429999Y-98839999D02*
X158429999Y-100994999D01*
X156788999Y-98839999D02*
X156788999Y-100249999D01*
X157508999Y-94883999D02*
X157508999Y-96759999D01*
X156148999Y-96085999D02*
X156148999Y-99513999D01*
X157388999Y-98839999D02*
X157388999Y-100655999D01*
X158108999Y-98839999D02*
X158108999Y-100930999D01*
X157068999Y-95135999D02*
X157068999Y-96759999D01*
X156748999Y-95383999D02*
X156748999Y-96759999D01*
X157788999Y-98839999D02*
X157788999Y-100832999D01*
X156548999Y-95575999D02*
X156548999Y-100023999D01*
X156028999Y-96290999D02*
X156028999Y-99308999D01*
X162410240Y-95960999D02*
X161780240Y-95960999D01*
X158629999Y-98839999D02*
X158629999Y-101017999D01*
X158309999Y-94624999D02*
X158309999Y-96759999D01*
X157868999Y-98839999D02*
X157868999Y-100860999D01*
X157748999Y-98839999D02*
X157748999Y-100817999D01*
X158269999Y-98839999D02*
X158269999Y-100966999D01*
X158229999Y-98839999D02*
X158229999Y-100958999D01*
X158829999Y-94569999D02*
X158829999Y-101029999D01*
X156628999Y-95494999D02*
X156628999Y-96759999D01*
X157108999Y-98839999D02*
X157108999Y-100489999D01*
X158749999Y-94572999D02*
X158749999Y-101026999D01*
X156828999Y-95315999D02*
X156828999Y-96759999D01*
X157668999Y-98839999D02*
X157668999Y-100785999D01*
X155948999Y-96449999D02*
X155948999Y-99149999D01*
X157668999Y-94813999D02*
X157668999Y-96759999D01*
X158429999Y-94604999D02*
X158429999Y-96759999D01*
X156988999Y-98839999D02*
X156988999Y-100406999D01*
X158509999Y-94593999D02*
X158509999Y-96759999D01*
X157628999Y-94829999D02*
X157628999Y-96759999D01*
X157588999Y-98839999D02*
X157588999Y-100751999D01*
X157068999Y-98839999D02*
X157068999Y-100463999D01*
X155828999Y-96740999D02*
X155828999Y-98858999D01*
X157308999Y-98839999D02*
X157308999Y-100611999D01*
X157428999Y-98839999D02*
X157428999Y-100675999D01*
X157428999Y-94923999D02*
X157428999Y-96759999D01*
X156668999Y-95456999D02*
X156668999Y-96759999D01*
X158669999Y-94577999D02*
X158669999Y-96759999D01*
X158869999Y-94569999D02*
X158869999Y-101029999D01*
X158148999Y-94658999D02*
X158148999Y-96759999D01*
X155748999Y-96997999D02*
X155748999Y-98601999D01*
X158269999Y-94632999D02*
X158269999Y-96759999D01*
X156788999Y-95349999D02*
X156788999Y-96759999D01*
X156428999Y-95707999D02*
X156428999Y-99891999D01*
X158028999Y-94689999D02*
X158028999Y-96759999D01*
X157188999Y-95057999D02*
X157188999Y-96759999D01*
X157268999Y-95009999D02*
X157268999Y-96759999D01*
X157548999Y-94865999D02*
X157548999Y-96759999D01*
X157828999Y-98839999D02*
X157828999Y-100846999D01*
X157908999Y-98839999D02*
X157908999Y-100873999D01*
X158148999Y-98839999D02*
X158148999Y-100940999D01*
X157828999Y-94752999D02*
X157828999Y-96759999D01*
X158469999Y-94598999D02*
X158469999Y-96759999D01*
X158349999Y-94617999D02*
X158349999Y-96759999D01*
X157348999Y-98839999D02*
X157348999Y-100633999D01*
X158509999Y-98839999D02*
X158509999Y-101005999D01*
X158709999Y-94575999D02*
X158709999Y-101023999D01*
X156988999Y-95192999D02*
X156988999Y-96759999D01*
X158789999Y-94571999D02*
X158789999Y-101027999D01*
X156108999Y-96149999D02*
X156108999Y-99449999D01*
X157988999Y-94701999D02*
X157988999Y-96759999D01*
X157588999Y-94847999D02*
X157588999Y-96759999D01*
X158549999Y-94588999D02*
X158549999Y-96759999D01*
X157948999Y-98839999D02*
X157948999Y-100885999D01*
X158589999Y-98839999D02*
X158589999Y-101014999D01*
X157028999Y-95163999D02*
X157028999Y-96759999D01*
X157108999Y-95109999D02*
X157108999Y-96759999D01*
X158108999Y-94668999D02*
X158108999Y-96759999D01*
X156068999Y-96218999D02*
X156068999Y-99380999D01*
X158389999Y-94610999D02*
X158389999Y-96759999D01*
X155788999Y-96859999D02*
X155788999Y-98739999D01*
X157908999Y-94725999D02*
X157908999Y-96759999D01*
X158909999Y-94569999D02*
X158909999Y-101029999D01*
X158349999Y-98839999D02*
X158349999Y-100981999D01*
X156228999Y-95965999D02*
X156228999Y-99633999D01*
X156708999Y-95419999D02*
X156708999Y-96759999D01*
X156948999Y-95221999D02*
X156948999Y-96759999D01*
X158028999Y-98839999D02*
X158028999Y-100909999D01*
X158589999Y-94584999D02*
X158589999Y-96759999D01*
X158469999Y-98839999D02*
X158469999Y-101000999D01*
X155868999Y-96634999D02*
X155868999Y-98964999D01*
X157628999Y-98839999D02*
X157628999Y-100769999D01*
X155668999Y-97397999D02*
X155668999Y-98201999D01*
X157748999Y-94781999D02*
X157748999Y-96759999D01*
X157508999Y-98839999D02*
X157508999Y-100715999D01*
X157028999Y-98839999D02*
X157028999Y-100435999D01*
X157228999Y-98839999D02*
X157228999Y-100565999D01*
X156188999Y-96023999D02*
X156188999Y-99575999D01*
X157468999Y-94903999D02*
X157468999Y-96759999D01*
X157148999Y-98839999D02*
X157148999Y-100515999D01*
X156508999Y-95617999D02*
X156508999Y-99981999D01*
X156748999Y-98839999D02*
X156748999Y-100215999D01*
X157148999Y-95083999D02*
X157148999Y-96759999D01*
X156268999Y-95909999D02*
X156268999Y-99689999D01*
X157388999Y-94943999D02*
X157388999Y-96759999D01*
X158068999Y-98839999D02*
X158068999Y-100920999D01*
X157348999Y-94965999D02*
X157348999Y-96759999D01*
X156388999Y-95755999D02*
X156388999Y-99843999D01*
X158188999Y-98839999D02*
X158188999Y-100949999D01*
X157988999Y-98839999D02*
X157988999Y-100897999D01*
X156468999Y-95662999D02*
X156468999Y-99936999D01*
X157868999Y-94738999D02*
X157868999Y-96759999D01*
X162179999Y-97799999D02*
G75*
G03*
X162179999Y-97799999I-3270000J0D01*
G01*
G04 #@! TO.C,R1*
X150099999Y-72939999D02*
X150099999Y-79479999D01*
X147359999Y-72939999D02*
X150099999Y-72939999D01*
X147359999Y-79479999D02*
X147359999Y-72939999D01*
X148729999Y-80249999D02*
X148729999Y-79479999D01*
X150099999Y-79479999D02*
X147359999Y-79479999D01*
X148729999Y-72169999D02*
X148729999Y-72939999D01*
G04 #@! TO.C,R13*
X159429999Y-146159999D02*
X159429999Y-143419999D01*
X165969999Y-143419999D02*
X165969999Y-146159999D01*
X159429999Y-143419999D02*
X165969999Y-143419999D01*
X166739999Y-144789999D02*
X165969999Y-144789999D01*
X165969999Y-146159999D02*
X159429999Y-146159999D01*
X158659999Y-144789999D02*
X159429999Y-144789999D01*
G04 #@! TO.C,C4*
X141718999Y-128629999D02*
X140460999Y-128629999D01*
X141718999Y-130469999D02*
X140460999Y-130469999D01*
G04 #@! TO.C,R10*
X147359999Y-151679999D02*
X150099999Y-151679999D01*
X147359999Y-158219999D02*
X147359999Y-151679999D01*
X150099999Y-158219999D02*
X147359999Y-158219999D01*
X148729999Y-158989999D02*
X148729999Y-158219999D01*
X150099999Y-151679999D02*
X150099999Y-158219999D01*
X148729999Y-150909999D02*
X148729999Y-151679999D01*
G04 #@! TO.C,R12*
X158659999Y-124469999D02*
X159429999Y-124469999D01*
X166739999Y-124469999D02*
X165969999Y-124469999D01*
X165969999Y-125839999D02*
X159429999Y-125839999D01*
X165969999Y-123099999D02*
X165969999Y-125839999D01*
X159429999Y-123099999D02*
X165969999Y-123099999D01*
X159429999Y-125839999D02*
X159429999Y-123099999D01*
G04 #@! TO.C,D2*
X153139999Y-91649999D02*
X153139999Y-88709999D01*
X157799999Y-88709999D02*
X157799999Y-91649999D01*
X152359999Y-88709999D02*
X157799999Y-88709999D01*
X153259999Y-91649999D02*
X153259999Y-88709999D01*
X157799999Y-91649999D02*
X152359999Y-91649999D01*
X158819999Y-90179999D02*
X157799999Y-90179999D01*
X153379999Y-91649999D02*
X153379999Y-88709999D01*
X152359999Y-91649999D02*
X152359999Y-88709999D01*
X151339999Y-90179999D02*
X152359999Y-90179999D01*
G04 #@! TO.C,R3*
X141339999Y-134629999D02*
X140569999Y-134629999D01*
X134029999Y-135999999D02*
X134029999Y-133259999D01*
X134029999Y-133259999D02*
X140569999Y-133259999D01*
X133259999Y-134629999D02*
X134029999Y-134629999D01*
X140569999Y-133259999D02*
X140569999Y-135999999D01*
X140569999Y-135999999D02*
X134029999Y-135999999D01*
G04 #@! TO.C,D4*
X163549999Y-128429999D02*
X163549999Y-130669999D01*
X164199999Y-129549999D02*
X163549999Y-129549999D01*
X162829999Y-128429999D02*
X162829999Y-130669999D01*
X158659999Y-129549999D02*
X159309999Y-129549999D01*
X162709999Y-128429999D02*
X162709999Y-130669999D01*
X162949999Y-128429999D02*
X162949999Y-130669999D01*
X163549999Y-130669999D02*
X159309999Y-130669999D01*
X159309999Y-130669999D02*
X159309999Y-128429999D01*
X159309999Y-128429999D02*
X163549999Y-128429999D01*
G04 #@! TO.C,R11*
X159429999Y-138339999D02*
X165969999Y-138339999D01*
X165969999Y-138339999D02*
X165969999Y-141079999D01*
X158659999Y-139709999D02*
X159429999Y-139709999D01*
X165969999Y-141079999D02*
X159429999Y-141079999D01*
X159429999Y-141079999D02*
X159429999Y-138339999D01*
X166739999Y-139709999D02*
X165969999Y-139709999D01*
G04 #@! TO.C,R9*
X140569999Y-146159999D02*
X134029999Y-146159999D01*
X134029999Y-143419999D02*
X140569999Y-143419999D01*
X140569999Y-143419999D02*
X140569999Y-146159999D01*
X134029999Y-146159999D02*
X134029999Y-143419999D01*
X141339999Y-144789999D02*
X140569999Y-144789999D01*
X133259999Y-144789999D02*
X134029999Y-144789999D01*
G04 #@! TO.C,C1*
X131039999Y-91349999D02*
X131039999Y-94089999D01*
X138479999Y-91349999D02*
X138479999Y-94089999D01*
X138479999Y-91349999D02*
X131039999Y-91349999D01*
X138479999Y-94089999D02*
X131039999Y-94089999D01*
G04 #@! TD*
M02*
