M48
; DRILL file {KiCad 6.0.2-378541a8eb~116~ubuntu20.04.1} date Sat Mar 12 15:31:06 2022
; FORMAT={-:-/ absolute / metric / decimal}
; #@! TF.CreationDate,2022-03-12T15:31:06-05:00
; #@! TF.GenerationSoftware,Kicad,Pcbnew,6.0.2-378541a8eb~116~ubuntu20.04.1
; #@! TF.FileFunction,MixedPlating,1,2
FMAT,2
METRIC
; #@! TA.AperFunction,Plated,PTH,ComponentDrill
T1C0.700
; #@! TA.AperFunction,Plated,PTH,ComponentDrill
T2C0.800
; #@! TA.AperFunction,Plated,PTH,ComponentDrill
T3C0.900
; #@! TA.AperFunction,Plated,PTH,ComponentDrill
T4C1.000
; #@! TA.AperFunction,Plated,PTH,ComponentDrill
T5C1.016
; #@! TA.AperFunction,Plated,PTH,ComponentDrill
T6C1.100
; #@! TA.AperFunction,Plated,PTH,ComponentDrill
T7C2.100
; #@! TA.AperFunction,NonPlated,NPTH,ComponentDrill
T8C3.200
%
G90
G05
T1
X170.32Y-59.7
X170.32Y-66.05
X170.32Y-72.4
T2
X132.22Y-100.34
X132.22Y-105.42
X132.22Y-124.47
X132.22Y-134.63
X132.22Y-139.71
X132.22Y-144.79
X132.26Y-92.72
X137.26Y-92.72
X139.84Y-129.55
X142.34Y-129.55
X142.38Y-100.34
X142.38Y-105.42
X142.38Y-124.47
X142.38Y-134.63
X142.38Y-139.71
X142.38Y-144.79
X146.19Y-110.5
X146.19Y-120.66
X146.2Y-124.475
X146.2Y-127.015
X146.2Y-129.555
X146.2Y-132.095
X146.2Y-134.635
X146.2Y-137.175
X146.2Y-139.715
X147.5Y-97.8
X148.73Y-71.13
X148.73Y-81.29
X148.73Y-149.87
X148.73Y-160.03
X150.0Y-97.8
X152.54Y-60.97
X153.82Y-124.475
X153.82Y-127.015
X153.82Y-129.555
X153.82Y-132.095
X153.82Y-134.635
X153.82Y-137.175
X153.82Y-139.715
X157.62Y-124.47
X157.62Y-129.55
X157.62Y-139.71
X157.62Y-144.79
X157.62Y-149.87
X157.66Y-97.8
X157.66Y-134.63
X160.16Y-97.8
X160.16Y-134.63
X162.7Y-60.97
X165.24Y-129.55
X167.78Y-124.47
X167.78Y-139.71
X167.78Y-144.79
X167.78Y-149.87
T3
X148.725Y-30.5
X151.265Y-30.5
X161.21Y-75.5
X163.75Y-75.5
T4
X143.65Y-172.73
X145.0Y-73.0
X145.0Y-75.5
X145.0Y-78.0
X145.0Y-153.0
X145.0Y-155.5
X145.0Y-158.0
X146.19Y-172.73
X148.73Y-172.73
X151.27Y-172.73
X153.81Y-172.73
X155.0Y-113.0
X155.0Y-115.5
X155.0Y-118.0
X156.35Y-172.73
T5
X166.51Y-85.1
X166.51Y-87.64
X166.51Y-90.18
X166.51Y-92.72
X166.51Y-95.26
X169.05Y-85.1
X169.05Y-87.64
X169.05Y-90.18
X169.05Y-92.72
X169.05Y-95.26
T6
X150.0Y-85.1
X150.0Y-90.18
X160.16Y-85.1
X160.16Y-90.18
T7
X135.085Y-110.8
X135.085Y-115.5
X135.085Y-120.2
X139.915Y-110.8
X139.915Y-115.5
X139.915Y-120.2
X157.8Y-48.085
X157.8Y-52.915
X162.5Y-48.085
X162.5Y-52.915
X167.2Y-48.085
X167.2Y-52.915
T8
X130.0Y-172.5
X170.0Y-172.5
T2
X135.45Y-47.125G85X137.15Y-47.125
G05
X137.15Y-54.975G85X135.45Y-54.975
G05
X140.775Y-50.35G85X140.775Y-48.65
G05
T6
X137.85Y-70.7G85X137.15Y-70.7
G05
X137.85Y-80.3G85X137.15Y-80.3
G05
X137.85Y-150.7G85X137.15Y-150.7
G05
X137.85Y-160.3G85X137.15Y-160.3
G05
X162.15Y-110.7G85X162.85Y-110.7
G05
X162.15Y-120.3G85X162.85Y-120.3
G05
T0
M30
