G04 #@! TF.GenerationSoftware,KiCad,Pcbnew,6.0.2-378541a8eb~116~ubuntu20.04.1*
G04 #@! TF.CreationDate,2022-03-12T15:30:31-05:00*
G04 #@! TF.ProjectId,irinput_b3,6972696e-7075-4745-9f62-332e6b696361,rev?*
G04 #@! TF.SameCoordinates,Original*
G04 #@! TF.FileFunction,Legend,Bot*
G04 #@! TF.FilePolarity,Positive*
%FSLAX46Y46*%
G04 Gerber Fmt 4.6, Leading zero omitted, Abs format (unit mm)*
G04 Created by KiCad (PCBNEW 6.0.2-378541a8eb~116~ubuntu20.04.1) date 2022-03-12 15:30:31*
%MOMM*%
%LPD*%
G01*
G04 APERTURE LIST*
%ADD10C,0.150000*%
G04 APERTURE END LIST*
D10*
X143079999Y-93879403D02*
X143032379Y-93784165D01*
X143032379Y-93641308D01*
X143079999Y-93498451D01*
X143175237Y-93403213D01*
X143270475Y-93355594D01*
X143460951Y-93307975D01*
X143603808Y-93307975D01*
X143794284Y-93355594D01*
X143889522Y-93403213D01*
X143984760Y-93498451D01*
X144032379Y-93641308D01*
X144032379Y-93736546D01*
X143984760Y-93879403D01*
X143937141Y-93927022D01*
X143603808Y-93927022D01*
X143603808Y-93736546D01*
X144032379Y-94355594D02*
X143032379Y-94355594D01*
X144032379Y-94927022D01*
X143032379Y-94927022D01*
X144032379Y-95403213D02*
X143032379Y-95403213D01*
X143032379Y-95641308D01*
X143079999Y-95784165D01*
X143175237Y-95879403D01*
X143270475Y-95927022D01*
X143460951Y-95974641D01*
X143603808Y-95974641D01*
X143794284Y-95927022D01*
X143889522Y-95879403D01*
X143984760Y-95784165D01*
X144032379Y-95641308D01*
X144032379Y-95403213D01*
X148763141Y-93927022D02*
X148810760Y-93879403D01*
X148858379Y-93736546D01*
X148858379Y-93641308D01*
X148810760Y-93498451D01*
X148715522Y-93403213D01*
X148620284Y-93355594D01*
X148429808Y-93307975D01*
X148286951Y-93307975D01*
X148096475Y-93355594D01*
X148001237Y-93403213D01*
X147905999Y-93498451D01*
X147858379Y-93641308D01*
X147858379Y-93736546D01*
X147905999Y-93879403D01*
X147953618Y-93927022D01*
X147858379Y-94212737D02*
X148858379Y-94546070D01*
X147858379Y-94879403D01*
X148858379Y-96450832D02*
X148858379Y-95974641D01*
X147858379Y-95974641D01*
X148334570Y-96784165D02*
X148334570Y-97117499D01*
X148858379Y-97260356D02*
X148858379Y-96784165D01*
X147858379Y-96784165D01*
X147858379Y-97260356D01*
X148858379Y-97688927D02*
X147858379Y-97688927D01*
X147858379Y-97927022D01*
X147905999Y-98069879D01*
X148001237Y-98165118D01*
X148096475Y-98212737D01*
X148286951Y-98260356D01*
X148429808Y-98260356D01*
X148620284Y-98212737D01*
X148715522Y-98165118D01*
X148810760Y-98069879D01*
X148858379Y-97927022D01*
X148858379Y-97688927D01*
X147953618Y-99403213D02*
X147905999Y-99450832D01*
X147858379Y-99546070D01*
X147858379Y-99784165D01*
X147905999Y-99879403D01*
X147953618Y-99927022D01*
X148048856Y-99974641D01*
X148144094Y-99974641D01*
X148286951Y-99927022D01*
X148858379Y-99355594D01*
X148858379Y-99974641D01*
X152065141Y-93927022D02*
X152112760Y-93879403D01*
X152160379Y-93736546D01*
X152160379Y-93641308D01*
X152112760Y-93498451D01*
X152017522Y-93403213D01*
X151922284Y-93355594D01*
X151731808Y-93307975D01*
X151588951Y-93307975D01*
X151398475Y-93355594D01*
X151303237Y-93403213D01*
X151207999Y-93498451D01*
X151160379Y-93641308D01*
X151160379Y-93736546D01*
X151207999Y-93879403D01*
X151255618Y-93927022D01*
X151160379Y-94212737D02*
X152160379Y-94546070D01*
X151160379Y-94879403D01*
X152160379Y-96450832D02*
X152160379Y-95974641D01*
X151160379Y-95974641D01*
X151636570Y-96784165D02*
X151636570Y-97117499D01*
X152160379Y-97260356D02*
X152160379Y-96784165D01*
X151160379Y-96784165D01*
X151160379Y-97260356D01*
X152160379Y-97688927D02*
X151160379Y-97688927D01*
X151160379Y-97927022D01*
X151207999Y-98069879D01*
X151303237Y-98165118D01*
X151398475Y-98212737D01*
X151588951Y-98260356D01*
X151731808Y-98260356D01*
X151922284Y-98212737D01*
X152017522Y-98165118D01*
X152112760Y-98069879D01*
X152160379Y-97927022D01*
X152160379Y-97688927D01*
X152160379Y-99974641D02*
X152160379Y-99403213D01*
X152160379Y-99688927D02*
X151160379Y-99688927D01*
X151303237Y-99593689D01*
X151398475Y-99498451D01*
X151446094Y-99403213D01*
X152688999Y-93879403D02*
X152641379Y-93784165D01*
X152641379Y-93641308D01*
X152688999Y-93498451D01*
X152784237Y-93403213D01*
X152879475Y-93355594D01*
X153069951Y-93307975D01*
X153212808Y-93307975D01*
X153403284Y-93355594D01*
X153498522Y-93403213D01*
X153593760Y-93498451D01*
X153641379Y-93641308D01*
X153641379Y-93736546D01*
X153593760Y-93879403D01*
X153546141Y-93927022D01*
X153212808Y-93927022D01*
X153212808Y-93736546D01*
X153355665Y-94307975D02*
X153355665Y-94784165D01*
X153641379Y-94212737D02*
X152641379Y-94546070D01*
X153641379Y-94879403D01*
X152641379Y-95069879D02*
X152641379Y-95641308D01*
X153641379Y-95355594D02*
X152641379Y-95355594D01*
X153117570Y-95974641D02*
X153117570Y-96307975D01*
X153641379Y-96450832D02*
X153641379Y-95974641D01*
X152641379Y-95974641D01*
X152641379Y-96450832D01*
X154251379Y-93546070D02*
X154251379Y-93736546D01*
X154298999Y-93831784D01*
X154394237Y-93927022D01*
X154584713Y-93974641D01*
X154918046Y-93974641D01*
X155108522Y-93927022D01*
X155203760Y-93831784D01*
X155251379Y-93736546D01*
X155251379Y-93546070D01*
X155203760Y-93450832D01*
X155108522Y-93355594D01*
X154918046Y-93307975D01*
X154584713Y-93307975D01*
X154394237Y-93355594D01*
X154298999Y-93450832D01*
X154251379Y-93546070D01*
X154251379Y-94403213D02*
X155060903Y-94403213D01*
X155156141Y-94450832D01*
X155203760Y-94498451D01*
X155251379Y-94593689D01*
X155251379Y-94784165D01*
X155203760Y-94879403D01*
X155156141Y-94927022D01*
X155060903Y-94974641D01*
X154251379Y-94974641D01*
X154251379Y-95307975D02*
X154251379Y-95879403D01*
X155251379Y-95593689D02*
X154251379Y-95593689D01*
X146477141Y-93927022D02*
X146524760Y-93879403D01*
X146572379Y-93736546D01*
X146572379Y-93641308D01*
X146524760Y-93498451D01*
X146429522Y-93403213D01*
X146334284Y-93355594D01*
X146143808Y-93307975D01*
X146000951Y-93307975D01*
X145810475Y-93355594D01*
X145715237Y-93403213D01*
X145619999Y-93498451D01*
X145572379Y-93641308D01*
X145572379Y-93736546D01*
X145619999Y-93879403D01*
X145667618Y-93927022D01*
X145572379Y-94212737D02*
X146572379Y-94546070D01*
X145572379Y-94879403D01*
X145572379Y-96165118D02*
X145572379Y-96355594D01*
X145619999Y-96450832D01*
X145715237Y-96546070D01*
X145905713Y-96593689D01*
X146239046Y-96593689D01*
X146429522Y-96546070D01*
X146524760Y-96450832D01*
X146572379Y-96355594D01*
X146572379Y-96165118D01*
X146524760Y-96069879D01*
X146429522Y-95974641D01*
X146239046Y-95927022D01*
X145905713Y-95927022D01*
X145715237Y-95974641D01*
X145619999Y-96069879D01*
X145572379Y-96165118D01*
X145572379Y-97022260D02*
X146381903Y-97022260D01*
X146477141Y-97069879D01*
X146524760Y-97117499D01*
X146572379Y-97212737D01*
X146572379Y-97403213D01*
X146524760Y-97498451D01*
X146477141Y-97546070D01*
X146381903Y-97593689D01*
X145572379Y-97593689D01*
X145572379Y-97927022D02*
X145572379Y-98498451D01*
X146572379Y-98212737D02*
X145572379Y-98212737D01*
X155990999Y-93879403D02*
X155943379Y-93784165D01*
X155943379Y-93641308D01*
X155990999Y-93498451D01*
X156086237Y-93403213D01*
X156181475Y-93355594D01*
X156371951Y-93307975D01*
X156514808Y-93307975D01*
X156705284Y-93355594D01*
X156800522Y-93403213D01*
X156895760Y-93498451D01*
X156943379Y-93641308D01*
X156943379Y-93736546D01*
X156895760Y-93879403D01*
X156848141Y-93927022D01*
X156514808Y-93927022D01*
X156514808Y-93736546D01*
X156657665Y-94307975D02*
X156657665Y-94784165D01*
X156943379Y-94212737D02*
X155943379Y-94546070D01*
X156943379Y-94879403D01*
X155943379Y-95069879D02*
X155943379Y-95641308D01*
X156943379Y-95355594D02*
X155943379Y-95355594D01*
X156419570Y-95974641D02*
X156419570Y-96307975D01*
X156943379Y-96450832D02*
X156943379Y-95974641D01*
X155943379Y-95974641D01*
X155943379Y-96450832D01*
X158553379Y-93831784D02*
X158553379Y-93355594D01*
X157553379Y-93355594D01*
X158029570Y-94165118D02*
X158029570Y-94498451D01*
X158553379Y-94641308D02*
X158553379Y-94165118D01*
X157553379Y-94165118D01*
X157553379Y-94641308D01*
X158553379Y-95069879D02*
X157553379Y-95069879D01*
X157553379Y-95307975D01*
X157600999Y-95450832D01*
X157696237Y-95546070D01*
X157791475Y-95593689D01*
X157981951Y-95641308D01*
X158124808Y-95641308D01*
X158315284Y-95593689D01*
X158410522Y-95546070D01*
X158505760Y-95450832D01*
X158553379Y-95307975D01*
X158553379Y-95069879D01*
M02*
