G04 #@! TF.GenerationSoftware,KiCad,Pcbnew,6.0.2-378541a8eb~116~ubuntu20.04.1*
G04 #@! TF.CreationDate,2022-03-12T15:30:31-05:00*
G04 #@! TF.ProjectId,irinput_b3,6972696e-7075-4745-9f62-332e6b696361,rev?*
G04 #@! TF.SameCoordinates,Original*
G04 #@! TF.FileFunction,Legend,Top*
G04 #@! TF.FilePolarity,Positive*
%FSLAX46Y46*%
G04 Gerber Fmt 4.6, Leading zero omitted, Abs format (unit mm)*
G04 Created by KiCad (PCBNEW 6.0.2-378541a8eb~116~ubuntu20.04.1) date 2022-03-12 15:30:31*
%MOMM*%
%LPD*%
G01*
G04 APERTURE LIST*
%ADD10C,0.150000*%
%ADD11C,0.120000*%
G04 APERTURE END LIST*
D10*
X137952379Y-93702379D02*
X137952379Y-92702379D01*
X138428570Y-93035713D02*
X138428570Y-93702379D01*
X138428570Y-93130951D02*
X138476189Y-93083332D01*
X138571427Y-93035713D01*
X138714284Y-93035713D01*
X138809522Y-93083332D01*
X138857141Y-93178570D01*
X138857141Y-93702379D01*
X139190475Y-93035713D02*
X139571427Y-93035713D01*
X139333332Y-93702379D02*
X139333332Y-92845237D01*
X139380951Y-92749999D01*
X139476189Y-92702379D01*
X139571427Y-92702379D01*
X139904760Y-93702379D02*
X139904760Y-93035713D01*
X139904760Y-93226189D02*
X139952379Y-93130951D01*
X139999999Y-93083332D01*
X140095237Y-93035713D01*
X140190475Y-93035713D01*
X140952379Y-93702379D02*
X140952379Y-93178570D01*
X140904760Y-93083332D01*
X140809522Y-93035713D01*
X140619046Y-93035713D01*
X140523808Y-93083332D01*
X140952379Y-93654760D02*
X140857141Y-93702379D01*
X140619046Y-93702379D01*
X140523808Y-93654760D01*
X140476189Y-93559522D01*
X140476189Y-93464284D01*
X140523808Y-93369046D01*
X140619046Y-93321427D01*
X140857141Y-93321427D01*
X140952379Y-93273808D01*
X141428570Y-93702379D02*
X141428570Y-93035713D01*
X141428570Y-93226189D02*
X141476189Y-93130951D01*
X141523808Y-93083332D01*
X141619046Y-93035713D01*
X141714284Y-93035713D01*
X142428570Y-93654760D02*
X142333332Y-93702379D01*
X142142856Y-93702379D01*
X142047618Y-93654760D01*
X141999999Y-93559522D01*
X141999999Y-93178570D01*
X142047618Y-93083332D01*
X142142856Y-93035713D01*
X142333332Y-93035713D01*
X142428570Y-93083332D01*
X142476189Y-93178570D01*
X142476189Y-93273808D01*
X141999999Y-93369046D01*
X143333332Y-93702379D02*
X143333332Y-92702379D01*
X143333332Y-93654760D02*
X143238094Y-93702379D01*
X143047618Y-93702379D01*
X142952379Y-93654760D01*
X142904760Y-93607141D01*
X142857141Y-93511903D01*
X142857141Y-93226189D01*
X142904760Y-93130951D01*
X142952379Y-93083332D01*
X143047618Y-93035713D01*
X143238094Y-93035713D01*
X143333332Y-93083332D01*
X144571427Y-93702379D02*
X144571427Y-92702379D01*
X145047618Y-93035713D02*
X145047618Y-93702379D01*
X145047618Y-93130951D02*
X145095237Y-93083332D01*
X145190475Y-93035713D01*
X145333332Y-93035713D01*
X145428570Y-93083332D01*
X145476189Y-93178570D01*
X145476189Y-93702379D01*
X145952379Y-93035713D02*
X145952379Y-94035713D01*
X145952379Y-93083332D02*
X146047618Y-93035713D01*
X146238094Y-93035713D01*
X146333332Y-93083332D01*
X146380951Y-93130951D01*
X146428570Y-93226189D01*
X146428570Y-93511903D01*
X146380951Y-93607141D01*
X146333332Y-93654760D01*
X146238094Y-93702379D01*
X146047618Y-93702379D01*
X145952379Y-93654760D01*
X147285713Y-93035713D02*
X147285713Y-93702379D01*
X146857141Y-93035713D02*
X146857141Y-93559522D01*
X146904760Y-93654760D01*
X146999999Y-93702379D01*
X147142856Y-93702379D01*
X147238094Y-93654760D01*
X147285713Y-93607141D01*
X147619046Y-93035713D02*
X147999999Y-93035713D01*
X147761903Y-92702379D02*
X147761903Y-93559522D01*
X147809522Y-93654760D01*
X147904760Y-93702379D01*
X147999999Y-93702379D01*
X149095237Y-93035713D02*
X149095237Y-93892856D01*
X149047618Y-93988094D01*
X148952379Y-94035713D01*
X148904760Y-94035713D01*
X149095237Y-92702379D02*
X149047618Y-92749999D01*
X149095237Y-92797618D01*
X149142856Y-92749999D01*
X149095237Y-92702379D01*
X149095237Y-92797618D01*
X149999998Y-93702379D02*
X149999998Y-93178570D01*
X149952379Y-93083332D01*
X149857141Y-93035713D01*
X149666665Y-93035713D01*
X149571427Y-93083332D01*
X149999998Y-93654760D02*
X149904760Y-93702379D01*
X149666665Y-93702379D01*
X149571427Y-93654760D01*
X149523808Y-93559522D01*
X149523808Y-93464284D01*
X149571427Y-93369046D01*
X149666665Y-93321427D01*
X149904760Y-93321427D01*
X149999998Y-93273808D01*
X150904760Y-93654760D02*
X150809522Y-93702379D01*
X150619046Y-93702379D01*
X150523808Y-93654760D01*
X150476189Y-93607141D01*
X150428570Y-93511903D01*
X150428570Y-93226189D01*
X150476189Y-93130951D01*
X150523808Y-93083332D01*
X150619046Y-93035713D01*
X150809522Y-93035713D01*
X150904760Y-93083332D01*
X151333332Y-93702379D02*
X151333332Y-92702379D01*
X151428570Y-93321427D02*
X151714284Y-93702379D01*
X151714284Y-93035713D02*
X151333332Y-93416665D01*
X152095237Y-93654760D02*
X152190475Y-93702379D01*
X152380951Y-93702379D01*
X152476189Y-93654760D01*
X152523808Y-93559522D01*
X152523808Y-93511903D01*
X152476189Y-93416665D01*
X152380951Y-93369046D01*
X152238094Y-93369046D01*
X152142856Y-93321427D01*
X152095237Y-93226189D01*
X152095237Y-93178570D01*
X152142856Y-93083332D01*
X152238094Y-93035713D01*
X152380951Y-93035713D01*
X152476189Y-93083332D01*
X153666665Y-92654760D02*
X152809522Y-93940475D01*
X154476189Y-93702379D02*
X153999998Y-93702379D01*
X153999998Y-92702379D01*
X154809522Y-93178570D02*
X155142856Y-93178570D01*
X155285713Y-93702379D02*
X154809522Y-93702379D01*
X154809522Y-92702379D01*
X155285713Y-92702379D01*
X155714284Y-93702379D02*
X155714284Y-92702379D01*
X155952379Y-92702379D01*
X156095237Y-92749999D01*
X156190475Y-92845237D01*
X156238094Y-92940475D01*
X156285713Y-93130951D01*
X156285713Y-93273808D01*
X156238094Y-93464284D01*
X156190475Y-93559522D01*
X156095237Y-93654760D01*
X155952379Y-93702379D01*
X155714284Y-93702379D01*
X156666665Y-93654760D02*
X156761903Y-93702379D01*
X156952379Y-93702379D01*
X157047618Y-93654760D01*
X157095237Y-93559522D01*
X157095237Y-93511903D01*
X157047618Y-93416665D01*
X156952379Y-93369046D01*
X156809522Y-93369046D01*
X156714284Y-93321427D01*
X156666665Y-93226189D01*
X156666665Y-93178570D01*
X156714284Y-93083332D01*
X156809522Y-93035713D01*
X156952379Y-93035713D01*
X157047618Y-93083332D01*
X158285713Y-93702379D02*
X158285713Y-92702379D01*
X158285713Y-93083332D02*
X158380951Y-93035713D01*
X158571427Y-93035713D01*
X158666665Y-93083332D01*
X158714284Y-93130951D01*
X158761903Y-93226189D01*
X158761903Y-93511903D01*
X158714284Y-93607141D01*
X158666665Y-93654760D01*
X158571427Y-93702379D01*
X158380951Y-93702379D01*
X158285713Y-93654760D01*
X159333332Y-93702379D02*
X159238094Y-93654760D01*
X159190475Y-93607141D01*
X159142856Y-93511903D01*
X159142856Y-93226189D01*
X159190475Y-93130951D01*
X159238094Y-93083332D01*
X159333332Y-93035713D01*
X159476189Y-93035713D01*
X159571427Y-93083332D01*
X159619046Y-93130951D01*
X159666665Y-93226189D01*
X159666665Y-93511903D01*
X159619046Y-93607141D01*
X159571427Y-93654760D01*
X159476189Y-93702379D01*
X159333332Y-93702379D01*
X160523808Y-93702379D02*
X160523808Y-93178570D01*
X160476189Y-93083332D01*
X160380951Y-93035713D01*
X160190475Y-93035713D01*
X160095237Y-93083332D01*
X160523808Y-93654760D02*
X160428570Y-93702379D01*
X160190475Y-93702379D01*
X160095237Y-93654760D01*
X160047618Y-93559522D01*
X160047618Y-93464284D01*
X160095237Y-93369046D01*
X160190475Y-93321427D01*
X160428570Y-93321427D01*
X160523808Y-93273808D01*
X160999998Y-93702379D02*
X160999998Y-93035713D01*
X160999998Y-93226189D02*
X161047618Y-93130951D01*
X161095237Y-93083332D01*
X161190475Y-93035713D01*
X161285713Y-93035713D01*
X162047618Y-93702379D02*
X162047618Y-92702379D01*
X162047618Y-93654760D02*
X161952379Y-93702379D01*
X161761903Y-93702379D01*
X161666665Y-93654760D01*
X161619046Y-93607141D01*
X161571427Y-93511903D01*
X161571427Y-93226189D01*
X161619046Y-93130951D01*
X161666665Y-93083332D01*
X161761903Y-93035713D01*
X161952379Y-93035713D01*
X162047618Y-93083332D01*
G04 #@! TO.C,J6*
X171589284Y-103499999D02*
X172124999Y-103499999D01*
X172232141Y-103535713D01*
X172303570Y-103607141D01*
X172339284Y-103714284D01*
X172339284Y-103785713D01*
X171589284Y-102821427D02*
X171589284Y-102964284D01*
X171624999Y-103035713D01*
X171660713Y-103071427D01*
X171767856Y-103142856D01*
X171910713Y-103178570D01*
X172196427Y-103178570D01*
X172267856Y-103142856D01*
X172303570Y-103107141D01*
X172339284Y-103035713D01*
X172339284Y-102892856D01*
X172303570Y-102821427D01*
X172267856Y-102785713D01*
X172196427Y-102749999D01*
X172017856Y-102749999D01*
X171946427Y-102785713D01*
X171910713Y-102821427D01*
X171874999Y-102892856D01*
X171874999Y-103035713D01*
X171910713Y-103107141D01*
X171946427Y-103142856D01*
X172017856Y-103178570D01*
G04 #@! TO.C,D6*
X146379284Y-98808570D02*
X145629284Y-98808570D01*
X145629284Y-98629999D01*
X145664999Y-98522856D01*
X145736427Y-98451427D01*
X145807856Y-98415713D01*
X145950713Y-98379999D01*
X146057856Y-98379999D01*
X146200713Y-98415713D01*
X146272141Y-98451427D01*
X146343570Y-98522856D01*
X146379284Y-98629999D01*
X146379284Y-98808570D01*
X145629284Y-97737141D02*
X145629284Y-97879999D01*
X145664999Y-97951427D01*
X145700713Y-97987141D01*
X145807856Y-98058570D01*
X145950713Y-98094284D01*
X146236427Y-98094284D01*
X146307856Y-98058570D01*
X146343570Y-98022856D01*
X146379284Y-97951427D01*
X146379284Y-97808570D01*
X146343570Y-97737141D01*
X146307856Y-97701427D01*
X146236427Y-97665713D01*
X146057856Y-97665713D01*
X145986427Y-97701427D01*
X145950713Y-97737141D01*
X145914999Y-97808570D01*
X145914999Y-97951427D01*
X145950713Y-98022856D01*
X145986427Y-98058570D01*
X146057856Y-98094284D01*
X150339284Y-102421427D02*
X149589284Y-102421427D01*
X150339284Y-101992856D02*
X149910713Y-102314284D01*
X149589284Y-101992856D02*
X150017856Y-102421427D01*
G04 #@! TO.C,J7*
X146589284Y-103499999D02*
X147124999Y-103499999D01*
X147232141Y-103535713D01*
X147303570Y-103607141D01*
X147339284Y-103714284D01*
X147339284Y-103785713D01*
X146589284Y-103214284D02*
X146589284Y-102714284D01*
X147339284Y-103035713D01*
G04 #@! TO.C,D5*
X146379284Y-108808570D02*
X145629284Y-108808570D01*
X145629284Y-108629999D01*
X145664999Y-108522856D01*
X145736427Y-108451427D01*
X145807856Y-108415713D01*
X145950713Y-108379999D01*
X146057856Y-108379999D01*
X146200713Y-108415713D01*
X146272141Y-108451427D01*
X146343570Y-108522856D01*
X146379284Y-108629999D01*
X146379284Y-108808570D01*
X145629284Y-107701427D02*
X145629284Y-108058570D01*
X145986427Y-108094284D01*
X145950713Y-108058570D01*
X145914999Y-107987141D01*
X145914999Y-107808570D01*
X145950713Y-107737141D01*
X145986427Y-107701427D01*
X146057856Y-107665713D01*
X146236427Y-107665713D01*
X146307856Y-107701427D01*
X146343570Y-107737141D01*
X146379284Y-107808570D01*
X146379284Y-107987141D01*
X146343570Y-108058570D01*
X146307856Y-108094284D01*
X150339284Y-112421427D02*
X149589284Y-112421427D01*
X150339284Y-111992856D02*
X149910713Y-112314284D01*
X149589284Y-111992856D02*
X150017856Y-112421427D01*
G04 #@! TO.C,J5*
X140332379Y-90813332D02*
X141046665Y-90813332D01*
X141189522Y-90860951D01*
X141284760Y-90956189D01*
X141332379Y-91099046D01*
X141332379Y-91194284D01*
X140332379Y-89860951D02*
X140332379Y-90337141D01*
X140808570Y-90384760D01*
X140760951Y-90337141D01*
X140713332Y-90241903D01*
X140713332Y-90003808D01*
X140760951Y-89908570D01*
X140808570Y-89860951D01*
X140903808Y-89813332D01*
X141141903Y-89813332D01*
X141237141Y-89860951D01*
X141284760Y-89908570D01*
X141332379Y-90003808D01*
X141332379Y-90241903D01*
X141284760Y-90337141D01*
X141237141Y-90384760D01*
D11*
G04 #@! TO.C,J6*
X155409999Y-109539999D02*
X154649999Y-108599999D01*
X156699999Y-111099999D02*
X156649999Y-111099999D01*
X156649999Y-111099999D02*
X156059999Y-110359999D01*
X170399999Y-95349999D02*
X170399999Y-101749999D01*
X162899999Y-111099999D02*
X156699999Y-111099999D01*
X154649999Y-98749999D02*
X154649999Y-95349999D01*
X170399999Y-111099999D02*
X167199999Y-111099999D01*
X163999999Y-95349999D02*
X170399999Y-95349999D01*
X154649999Y-108599999D02*
X154649999Y-102749999D01*
X170399999Y-105749999D02*
X170399999Y-111099999D01*
X154649999Y-95349999D02*
X159999999Y-95349999D01*
G04 #@! TO.C,D6*
X148454999Y-100814999D02*
X151544999Y-100814999D01*
X151544829Y-100814999D02*
G75*
G03*
X149999537Y-95264999I-1544830J2560000D01*
G01*
X150000461Y-95264999D02*
G75*
G03*
X148455169Y-100814999I-462J-2990000D01*
G01*
X152499999Y-98254999D02*
G75*
G03*
X152499999Y-98254999I-2500000J0D01*
G01*
G04 #@! TO.C,J7*
X145399999Y-95349999D02*
X145399999Y-101749999D01*
X129649999Y-108599999D02*
X129649999Y-102749999D01*
X130409999Y-109539999D02*
X129649999Y-108599999D01*
X129649999Y-95349999D02*
X134999999Y-95349999D01*
X145399999Y-111099999D02*
X142199999Y-111099999D01*
X138999999Y-95349999D02*
X145399999Y-95349999D01*
X131699999Y-111099999D02*
X131649999Y-111099999D01*
X137899999Y-111099999D02*
X131699999Y-111099999D01*
X145399999Y-105749999D02*
X145399999Y-111099999D01*
X129649999Y-98749999D02*
X129649999Y-95349999D01*
X131649999Y-111099999D02*
X131059999Y-110359999D01*
G04 #@! TO.C,D5*
X148454999Y-110814999D02*
X151544999Y-110814999D01*
X151544829Y-110814999D02*
G75*
G03*
X149999537Y-105264999I-1544830J2560000D01*
G01*
X150000461Y-105264999D02*
G75*
G03*
X148455169Y-110814999I-462J-2990000D01*
G01*
X152499999Y-108254999D02*
G75*
G03*
X152499999Y-108254999I-2500000J0D01*
G01*
G04 #@! TO.C,J5*
X144919999Y-89149999D02*
X157679999Y-89149999D01*
X142319999Y-90479999D02*
X142319999Y-89149999D01*
X142319999Y-89149999D02*
X143649999Y-89149999D01*
X157679999Y-91809999D02*
X157679999Y-89149999D01*
X144919999Y-91809999D02*
X157679999Y-91809999D01*
X144919999Y-91809999D02*
X144919999Y-89149999D01*
G04 #@! TD*
M02*
